<svg width="100" height="100" viewBox="0 0 100 100" fill="none" xmlns="http://www.w3.org/2000/svg">
<path d="M82.7703 22.9016V40.9748C82.7688 41.8736 82.4111 42.7351 81.7755 43.3706C81.14 44.0061 80.2785 44.3638 79.3798 44.3653H71.4724C71.2172 44.3646 70.9696 44.4519 70.7713 44.6124L61.3123 52.1808V45.4917C61.3095 45.1922 61.1899 44.9056 60.979 44.6929C60.7654 44.4841 60.4789 44.3666 60.1802 44.3653H54.5313C54.0863 44.3653 53.6457 44.2776 53.2346 44.1072C52.8236 43.9367 52.4502 43.6869 52.1358 43.372C51.8215 43.057 51.5723 42.6832 51.4025 42.2719C51.2327 41.8606 51.1457 41.4198 51.1465 40.9748V22.9016C51.1465 22.0039 51.5031 21.143 52.1379 20.5082C52.7726 19.8735 53.6336 19.5168 54.5313 19.5168H79.3798C80.2775 19.5184 81.1382 19.8753 81.7735 20.5095C82.4089 21.1438 82.7673 22.0039 82.7703 22.9016ZM78.2534 37.5901V35.3316H55.6634V37.5901H78.2534ZM78.2534 33.0675V30.809H55.6634V33.0675H78.2534ZM75.995 28.5506V26.2921H57.9218V28.5506H75.995Z" fill="#FF3124"/>
<path d="M85.0287 64.5016V76.1845C85.0226 78.5256 84.088 80.7687 82.4299 82.4214C80.7718 84.0741 78.5257 85.0014 76.1846 84.9999H73.9721C66.2259 85.0135 58.5532 83.4982 51.3937 80.5409C44.2342 77.5835 37.7288 73.2422 32.2503 67.7659C26.7719 62.2896 22.4281 55.7858 19.4679 48.6275C16.5077 41.4692 14.9895 33.797 15.0001 26.0508V23.8383C15.0001 21.4943 15.9312 19.2462 17.5887 17.5887C19.2463 15.9312 21.4943 15 23.8384 15H35.5271C37.8698 15.0079 40.1155 15.9368 41.7794 17.586C42.6018 18.4059 43.2537 19.3805 43.6975 20.4536C44.1413 21.5267 44.3683 22.6771 44.3654 23.8383V30.9814C44.3683 32.1427 44.1413 33.293 43.6975 34.3661C43.2537 35.4392 42.6018 36.4138 41.7794 37.2338C41.1655 37.8432 40.6786 38.5685 40.3472 39.3675C40.0157 40.1666 39.8462 41.0235 39.8486 41.8885V42.0035C39.8463 44.3906 40.3147 46.7548 41.227 48.9607C42.1393 51.1667 43.4776 53.1711 45.1653 54.8593C46.853 56.5476 48.857 57.8865 51.0626 58.7995C53.2683 59.7125 55.6323 60.1816 58.0195 60.1801H58.1344C58.9991 60.1799 59.8553 60.0093 60.654 59.678C61.4527 59.3467 62.1782 58.8612 62.7892 58.2493C64.4483 56.5956 66.6933 55.6642 69.0358 55.6575H76.2018C78.5463 55.6626 80.7937 56.5942 82.4542 58.2493C83.2757 59.0692 83.9263 60.0441 84.3683 61.1173C84.8102 62.1906 85.0347 63.3409 85.0287 64.5016ZM82.7703 76.1845V64.5016C82.7704 63.2 82.3844 61.9275 81.6612 60.8453C80.938 59.763 79.91 58.9196 78.7074 58.4217C77.909 58.0917 77.0542 57.92 76.1904 57.916H69.0185C67.2737 57.9239 65.6019 58.6174 64.3638 59.8468C63.5445 60.6705 62.5701 61.3236 61.497 61.7684C60.4238 62.2133 59.2731 62.441 58.1114 62.4386H58.0195C52.6058 62.4386 47.4139 60.288 43.5859 56.46C39.7579 52.632 37.6074 47.4401 37.6074 42.0265V41.9001C37.6065 40.7398 37.8357 39.5908 38.2815 38.5197C38.7273 37.4485 39.381 36.4763 40.2048 35.6592C40.8175 35.0491 41.3031 34.3236 41.6336 33.5246C41.964 32.7256 42.1327 31.869 42.13 31.0044V23.8383C42.1321 22.9738 41.9631 22.1174 41.6327 21.3185C41.3023 20.5196 40.817 19.794 40.2048 19.1836C38.9661 17.9557 37.2942 17.2642 35.5501 17.2584H23.8384C22.9741 17.2577 22.1181 17.4273 21.3195 17.7578C20.5208 18.0882 19.7952 18.5728 19.184 19.184C18.5729 19.7951 18.0882 20.5208 17.7578 21.3194C17.4274 22.1181 17.2577 22.974 17.2585 23.8383V26.0508C17.2441 33.5026 18.7012 40.8839 21.5463 47.7712C24.3913 54.6585 28.5682 60.9163 33.8375 66.1855C39.1067 71.4547 45.3644 75.6317 52.2518 78.4767C59.1391 81.3217 66.5204 82.7788 73.9721 82.7645H76.1846C77.0492 82.7652 77.9054 82.5956 78.7044 82.2652C79.5034 81.9349 80.2294 81.4503 80.841 80.8393C81.4526 80.2282 81.9378 79.5026 82.2689 78.7039C82.5999 77.9052 82.7703 77.0491 82.7703 76.1845Z" fill="black" stroke="black"/>
<path d="M85.0285 22.9018V40.975C85.0285 42.4732 84.4333 43.91 83.3739 44.9694C82.3146 46.0288 80.8777 46.6239 79.3795 46.6239H71.8687L60.8926 55.4105C60.7255 55.5417 60.5254 55.6241 60.3144 55.6484C60.1034 55.6728 59.8898 55.6382 59.6973 55.5485C59.5064 55.455 59.3453 55.3104 59.2316 55.1309C59.118 54.9513 59.0564 54.7438 59.0536 54.5313V46.6239H54.5368C53.0396 46.6224 51.6042 46.0266 50.5461 44.9674C49.4879 43.9081 48.8936 42.4722 48.8936 40.975V22.9018C48.8951 21.4056 49.4901 19.9711 50.5481 18.9131C51.6061 17.8551 53.0406 17.2601 54.5368 17.2585H79.3853C80.8825 17.2585 82.3184 17.8529 83.3776 18.9111C84.4369 19.9692 85.0327 21.4046 85.0342 22.9018H85.0285ZM82.77 40.975V22.9018C82.767 22.004 82.4086 21.144 81.7733 20.5097C81.1379 19.8754 80.2773 19.5185 79.3795 19.517H54.531C53.6333 19.517 52.7724 19.8736 52.1376 20.5084C51.5028 21.1431 51.1462 22.0041 51.1462 22.9018V40.975C51.1455 41.4199 51.2325 41.8607 51.4022 42.272C51.572 42.6834 51.8212 43.0572 52.1356 43.3721C52.45 43.687 52.8234 43.9368 53.2344 44.1073C53.6454 44.2777 54.086 44.3655 54.531 44.3655H60.18C60.4787 44.3667 60.7652 44.4842 60.9788 44.693C61.1897 44.9057 61.3093 45.1923 61.3121 45.4918V52.1809L70.771 44.6126C70.9694 44.452 71.217 44.3647 71.4721 44.3655H79.3795C80.2783 44.364 81.1398 44.0063 81.7753 43.3708C82.4108 42.7352 82.7685 41.8737 82.77 40.975Z" fill="white"/>
<path d="M78.2536 35.3315H55.6636V37.59H78.2536V35.3315Z" fill="white"/>
<path d="M78.2536 30.8091H55.6636V33.0675H78.2536V30.8091Z" fill="white"/>
<path d="M75.9951 26.2922H57.9219V28.5507H75.9951V26.2922Z" fill="white"/>
</svg>
