<svg width="100" height="100" viewBox="0 0 100 100" fill="none" xmlns="http://www.w3.org/2000/svg">
<path d="M41.5929 23.7833C41.851 27.2367 40.745 30.6536 38.5122 33.3007C37.4176 34.6192 36.0685 35.7037 34.5456 36.4894C33.0226 37.2751 31.357 37.7459 29.6481 37.8737C26.1944 38.1346 22.7764 37.0282 20.1307 34.7931C18.8024 33.6847 17.7125 32.3188 16.9265 30.7777C16.1406 29.2367 15.6749 27.5524 15.5577 25.8264C15.3907 24.1145 15.5781 22.3866 16.1081 20.7503C16.6381 19.114 17.4994 17.6043 18.6383 16.3154C20.8739 13.6811 24.0601 12.0373 27.5025 11.7424H28.5272C31.6444 11.7591 34.6543 12.8827 37.0199 14.9128C38.3391 16.0082 39.424 17.3582 40.2097 18.8823C40.9954 20.4065 41.4659 22.0733 41.5929 23.7833ZM35.0601 20.8884C35.4066 20.5419 35.6013 20.0719 35.6013 19.5818C35.6013 19.0918 35.4066 18.6218 35.0601 18.2753C34.7136 17.9287 34.2435 17.7341 33.7535 17.7341C33.2634 17.7341 32.7935 17.9287 32.4469 18.2753L28.5272 22.195L26.6443 20.3312C26.2977 19.9847 25.8278 19.79 25.3377 19.79C24.8476 19.79 24.3776 19.9847 24.0311 20.3312C23.6846 20.6777 23.4899 21.1477 23.4899 21.6377C23.4899 22.1278 23.6846 22.5978 24.0311 22.9443L27.2015 26.1146C27.5382 26.4629 27.9981 26.6653 28.4824 26.6783C28.714 26.6843 28.9438 26.6365 29.1539 26.5387C29.3639 26.4409 29.5484 26.2958 29.6929 26.1146L35.0601 20.8884Z" fill="#FF3124"/>
<path d="M91.9724 52.7966V86.4022C91.9673 87.8853 91.3759 89.3061 90.3272 90.3548C89.2786 91.4035 87.8577 91.9949 86.3746 91.9999H37.8588C36.3758 91.9949 34.9549 91.4035 33.9062 90.3548C32.8575 89.3061 32.2662 87.8853 32.2611 86.4022V84.5321H13.5977C12.1147 84.527 10.6938 83.9356 9.64512 82.8869C8.59644 81.8382 8.00506 80.4174 8 78.9343V77.0705C8.02608 75.702 8.52121 74.3838 9.40262 73.3366C8.5203 72.2923 8.02495 70.9759 8 69.609V67.7388C8.02495 66.372 8.5203 65.0555 9.40262 64.0113C8.52121 62.964 8.02608 61.6459 8 60.2774V58.4136C8.00506 56.9305 8.59644 55.5096 9.64512 54.4609C10.6938 53.4123 12.1147 52.8209 13.5977 52.8158H32.2547C32.2598 51.3311 32.8518 49.9086 33.9017 48.8587C34.9516 47.8088 36.3741 47.2168 37.8588 47.2117H43.4566V43.4905C43.4599 42.007 44.0508 40.5851 45.0998 39.5361C46.1489 38.487 47.5707 37.8962 49.0543 37.8928H75.1792C76.6622 37.8979 78.0831 38.4893 79.1318 39.5379C80.1804 40.5866 80.7718 42.0075 80.7769 43.4905V47.2181H86.3746C87.8544 47.2231 89.2723 47.8119 90.3205 48.8564C91.3686 49.901 91.9622 51.3169 91.9724 52.7966ZM88.2384 86.4022V61.9426C87.027 63.1888 85.5769 64.1781 83.9747 64.8516C82.3726 65.525 80.6511 65.8688 78.9131 65.8623H68.6656V69.5962C68.6605 71.0793 68.0691 72.5001 67.0204 73.5488C65.9717 74.5975 64.5509 75.1889 63.0678 75.1939H61.2041C59.721 75.1889 58.3001 74.5975 57.2515 73.5488C56.2028 72.5001 55.6114 71.0793 55.6063 69.5962V65.8623H45.3587C43.6199 65.8682 41.8977 65.5242 40.2946 64.8508C38.6914 64.1774 37.2401 63.1884 36.0271 61.9426V86.4022C36.0305 86.8966 36.2288 87.3697 36.5789 87.7187C36.9291 88.0676 37.4029 88.2643 37.8973 88.266H86.4131C86.9001 88.2543 87.3635 88.053 87.7044 87.7049C88.0453 87.3568 88.2369 86.8894 88.2384 86.4022ZM88.2384 52.8094C88.2367 52.3156 88.0398 51.8426 87.6906 51.4934C87.3415 51.1442 86.8684 50.9473 86.3746 50.9457H37.8588C37.3639 50.9457 36.8892 51.1418 36.5387 51.4911C36.1881 51.8405 35.9904 52.3145 35.9887 52.8094C35.9954 55.2823 36.9808 57.6519 38.7293 59.4005C40.4779 61.149 42.8475 62.1343 45.3203 62.1411H78.9067C81.3823 62.136 83.7548 61.1495 85.5041 59.3978C87.2534 57.6461 88.2367 55.2722 88.2384 52.7966V52.8094ZM77.0429 47.2117V43.4905C77.0413 42.9962 76.8446 42.5224 76.4956 42.1722C76.1466 41.8221 75.6736 41.6237 75.1792 41.6204H49.0607C48.5652 41.6221 48.0905 41.8196 47.7401 42.17C47.3898 42.5204 47.1922 42.9951 47.1905 43.4905V47.2181L77.0429 47.2117ZM64.9124 69.6282V65.8943H59.3083V69.6282C59.3099 70.1231 59.5077 70.5972 59.8583 70.9465C60.2088 71.2959 60.6835 71.492 61.1784 71.492H63.0422C63.29 71.492 63.5353 71.4428 63.7638 71.3472C63.9924 71.2517 64.1997 71.1116 64.3737 70.9352C64.5478 70.7588 64.685 70.5496 64.7774 70.3198C64.8699 70.0899 64.9158 69.844 64.9124 69.5962V69.6282ZM32.2483 80.8237V75.1939H13.5977C13.1039 75.1956 12.6309 75.3925 12.2817 75.7417C11.9325 76.0909 11.7356 76.5639 11.7339 77.0577V78.9215C11.7339 79.4164 11.9301 79.8911 12.2794 80.2417C12.6288 80.5922 13.1028 80.79 13.5977 80.7917L32.2483 80.8237ZM32.2483 71.492V65.8943H13.5977C13.1039 65.896 12.6309 66.0929 12.2817 66.442C11.9325 66.7912 11.7356 67.2643 11.7339 67.7581V69.6282C11.7356 70.122 11.9325 70.5951 12.2817 70.9442C12.6309 71.2934 13.1039 71.4903 13.5977 71.492H32.2483ZM32.2483 62.1603V56.5626H13.5977C13.1028 56.5643 12.6288 56.7621 12.2794 57.1126C11.9301 57.4632 11.7339 57.9379 11.7339 58.4328V60.2965C11.7356 60.7903 11.9325 61.2634 12.2817 61.6126C12.6309 61.9617 13.1039 62.1587 13.5977 62.1603H32.2483Z" fill="black"/>
<path d="M45.3201 23.5975C45.4888 25.7962 45.2221 28.0065 44.5353 30.102C43.8485 32.1975 42.7552 34.1369 41.3179 35.8092C39.8805 37.4815 38.1274 38.8539 36.159 39.8478C34.1905 40.8417 32.0454 41.4375 29.8463 41.6012H28.5654C24.3324 41.6021 20.2542 40.0092 17.1424 37.1395C14.0307 34.2699 12.1134 30.3338 11.7722 26.1146C11.4828 21.6516 12.9076 17.2464 15.7559 13.7983C17.9423 11.2873 20.8222 9.4786 24.0335 8.59944C27.2448 7.72027 30.6443 7.80989 33.8048 8.85701C36.9653 9.90413 39.7459 11.8621 41.797 14.4847C43.8481 17.1074 45.0783 20.2778 45.3329 23.5975H45.3201ZM38.5119 33.3007C40.7447 30.6535 41.8507 27.2366 41.5926 23.7833C41.4647 22.0744 40.9939 20.4087 40.2082 18.8858C39.4225 17.3628 38.3381 16.0138 37.0196 14.9191C34.654 12.8891 31.6441 11.7655 28.5269 11.7488H27.5022C24.0598 12.0437 20.8735 13.6874 18.638 16.3217C17.4991 17.6107 16.6378 19.1203 16.1078 20.7566C15.5778 22.3929 15.3904 24.1209 15.5574 25.8328C15.6746 27.5587 16.1403 29.243 16.9262 30.784C17.7122 32.3251 18.8021 33.691 20.1304 34.7994C22.7761 37.0346 26.1941 38.1409 29.6478 37.88C31.3571 37.7514 33.023 37.2796 34.546 36.4928C36.069 35.706 37.4178 34.6203 38.5119 33.3007Z" fill="white"/>
<path d="M35.0599 18.2752C35.2358 18.4443 35.3757 18.6472 35.4713 18.8717C35.5669 19.0962 35.6162 19.3377 35.6162 19.5818C35.6162 19.8258 35.5669 20.0673 35.4713 20.2918C35.3757 20.5163 35.2358 20.7192 35.0599 20.8883L29.7376 26.1146C29.5931 26.2957 29.4086 26.4408 29.1986 26.5386C28.9885 26.6364 28.7587 26.6842 28.5271 26.6782C28.0428 26.6652 27.5829 26.4628 27.2461 26.1146L24.0822 22.9442C23.7357 22.5977 23.541 22.1277 23.541 21.6377C23.541 21.1476 23.7357 20.6776 24.0822 20.3311C24.4287 19.9846 24.8987 19.7899 25.3887 19.7899C25.8788 19.7899 26.3488 19.9846 26.6953 20.3311L28.5591 22.1949L32.4788 18.2752C32.6474 18.1042 32.8483 17.9684 33.0699 17.8757C33.2914 17.7831 33.5292 17.7354 33.7693 17.7354C34.0095 17.7354 34.2473 17.7831 34.4688 17.8757C34.6904 17.9684 34.8913 18.1042 35.0599 18.2752Z" fill="white"/>
</svg>
