<svg width="100" height="100" viewBox="0 0 100 100" fill="none" xmlns="http://www.w3.org/2000/svg">
<path d="M32.576 63.7771C29.1126 63.7771 25.7809 66.4578 23.4604 70.9255H41.6915C39.3572 66.4578 36.0601 63.7771 32.576 63.7771ZM32.1257 61.9485C33.0093 61.9485 33.8731 61.6865 34.6078 61.1956C35.3426 60.7047 35.9152 60.0069 36.2534 59.1905C36.5915 58.3741 36.68 57.4758 36.5076 56.6092C36.3352 55.7425 35.9097 54.9465 35.2849 54.3216C34.6601 53.6968 33.864 53.2713 32.9973 53.0989C32.1307 52.9265 31.2324 53.015 30.416 53.3532C29.5996 53.6913 28.9019 54.264 28.4109 54.9987C27.92 55.7334 27.658 56.5972 27.658 57.4808C27.6552 58.067 27.7691 58.6478 27.993 59.1896C28.2168 59.7314 28.5462 60.2232 28.962 60.6364C29.3778 61.0496 29.8717 61.376 30.4148 61.5965C30.958 61.817 31.5396 61.9272 32.1257 61.9208V61.9485ZM45.044 50.0415V73.149C45.044 73.8158 44.7791 74.4554 44.3075 74.9269C43.836 75.3984 43.1965 75.6634 42.5296 75.6634H22.6223C22.2919 75.6643 21.9645 75.5998 21.659 75.4738C21.3535 75.3478 21.076 75.1626 20.8423 74.9289C20.6087 74.6953 20.4235 74.4177 20.2974 74.1123C20.1714 73.8068 20.107 73.4794 20.1079 73.149V50.0415C20.107 49.7111 20.1714 49.3837 20.2974 49.0782C20.4235 48.7727 20.6087 48.4952 20.8423 48.2615C21.076 48.0279 21.3535 47.8427 21.659 47.7167C21.9645 47.5906 22.2919 47.5262 22.6223 47.5271H42.5296C43.1965 47.5271 43.836 47.792 44.3075 48.2636C44.7791 48.7351 45.044 49.3746 45.044 50.0415Z" fill="#FF3124"/>
<path d="M92 38.8063V78.1291C91.9909 80.9701 90.8583 83.6921 88.8494 85.701C86.8405 87.7099 84.1185 88.8425 81.2775 88.8516H18.7225C15.881 88.8443 13.1579 87.7123 11.1486 85.703C9.13936 83.6937 8.00731 80.9707 8 78.1291V38.8063C8.00731 35.9648 9.13936 33.2417 11.1486 31.2324C13.1579 29.2232 15.881 28.0911 18.7225 28.0838H37.4869V13.7871C37.4888 13.3137 37.6776 12.8602 38.0124 12.5254C38.3471 12.1907 38.8006 12.0018 39.274 12H59.8255C60.2989 12.0018 60.7524 12.1907 61.0871 12.5254C61.4219 12.8602 61.6108 13.3137 61.6126 13.7871V28.0838H81.2775C84.1185 28.0929 86.8405 29.2255 88.8494 31.2344C90.8583 33.2433 91.9909 35.9653 92 38.8063ZM88.4258 78.1291V38.8063C88.4204 36.9121 87.6655 35.0971 86.3261 33.7577C84.9867 32.4183 83.1717 31.6634 81.2775 31.658H61.6195V35.2321C61.6141 36.6523 61.0474 38.0128 60.0432 39.0171C59.0389 40.0213 57.6785 40.5879 56.2583 40.5934H50.0243C48.6041 40.5879 47.2436 40.0213 46.2393 39.0171C45.2351 38.0128 44.6684 36.6523 44.663 35.2321V31.658H18.7225C16.8284 31.6634 15.0133 32.4183 13.6739 33.7577C12.3345 35.0971 11.5797 36.9121 11.5742 38.8063V78.1291C11.5797 80.0233 12.3345 81.8383 13.6739 83.1777C15.0133 84.5171 16.8284 85.272 18.7225 85.2775H81.2775C83.1711 85.2701 84.9851 84.5147 86.3241 83.1757C87.6631 81.8367 88.4185 80.0228 88.4258 78.1291ZM58.0592 35.2321V15.5742H48.2095V35.2321C48.2113 35.7055 48.4002 36.159 48.7349 36.4938C49.0696 36.8285 49.5231 37.0174 49.9965 37.0192H56.2306C56.4685 37.0238 56.7049 36.981 56.9261 36.8933C57.1474 36.8057 57.3489 36.6749 57.5191 36.5086C57.6893 36.3423 57.8247 36.1437 57.9174 35.9246C58.0101 35.7055 58.0583 35.4701 58.0592 35.2321ZM44.6561 28.0838V15.5742H41.0819V28.0838H44.6561Z" fill="black"/>
<path d="M80.384 47.7417C80.858 47.7417 81.3125 47.9299 81.6477 48.2651C81.9828 48.6002 82.1711 49.0548 82.1711 49.5288C82.1711 50.0027 81.9828 50.4573 81.6477 50.7924C81.3125 51.1276 80.858 51.3159 80.384 51.3159H55.3579C54.8839 51.3159 54.4293 51.1276 54.0942 50.7924C53.759 50.4573 53.5708 50.0027 53.5708 49.5288C53.5708 49.0548 53.759 48.6002 54.0942 48.2651C54.4293 47.9299 54.8839 47.7417 55.3579 47.7417H80.384Z" fill="black"/>
<path d="M80.384 55.7837C80.858 55.7837 81.3125 55.972 81.6477 56.3071C81.9828 56.6423 82.1711 57.0968 82.1711 57.5707C82.1711 58.0447 81.9828 58.4993 81.6477 58.8344C81.3125 59.1696 80.858 59.3578 80.384 59.3578H55.3579C54.8839 59.3578 54.4293 59.1696 54.0942 58.8344C53.759 58.4993 53.5708 58.0447 53.5708 57.5707C53.5708 57.0968 53.759 56.6423 54.0942 56.3071C54.4293 55.972 54.8839 55.7837 55.3579 55.7837H80.384Z" fill="black"/>
<path d="M80.384 63.8254C80.8397 63.8538 81.2673 64.0548 81.58 64.3875C81.8926 64.7201 82.0666 65.1595 82.0666 65.616C82.0666 66.0725 81.8926 66.5119 81.58 66.8445C81.2673 67.1772 80.8397 67.3782 80.384 67.4065H55.3579C54.9022 67.3782 54.4746 67.1772 54.1619 66.8445C53.8493 66.5119 53.6753 66.0725 53.6753 65.616C53.6753 65.1595 53.8493 64.7201 54.1619 64.3875C54.4746 64.0548 54.9022 63.8538 55.3579 63.8254H80.384Z" fill="black"/>
<path d="M68.768 71.8743C69.2419 71.8743 69.6965 72.0626 70.0316 72.3977C70.3668 72.7328 70.555 73.1874 70.555 73.6614C70.555 74.1353 70.3668 74.5899 70.0316 74.925C69.6965 75.2602 69.2419 75.4485 68.768 75.4485H55.3579C54.8839 75.4485 54.4293 75.2602 54.0942 74.925C53.759 74.5899 53.5708 74.1353 53.5708 73.6614C53.5708 73.1874 53.759 72.7328 54.0942 72.3977C54.4293 72.0626 54.8839 71.8743 55.3579 71.8743H68.768Z" fill="black"/>
<path d="M53.5708 31.658C54.0447 31.658 54.4993 31.8462 54.8344 32.1814C55.1696 32.5165 55.3578 32.9711 55.3578 33.4451C55.3578 33.919 55.1696 34.3736 54.8344 34.7087C54.4993 35.0439 54.0447 35.2321 53.5708 35.2321H52.6772C52.2032 35.2321 51.7487 35.0439 51.4135 34.7087C51.0784 34.3736 50.8901 33.919 50.8901 33.4451C50.8901 32.9711 51.0784 32.5165 51.4135 32.1814C51.7487 31.8462 52.2032 31.658 52.6772 31.658H53.5708Z" fill="black"/>
<path d="M48.2096 49.5287V73.696C48.2041 75.1162 47.6375 76.4767 46.6332 77.4809C45.629 78.4852 44.2685 79.0518 42.8483 79.0572H22.2968C20.8766 79.0518 19.5161 78.4852 18.5119 77.4809C17.5076 76.4767 16.941 75.1162 16.9355 73.696V49.5287C16.941 48.1085 17.5076 46.7481 18.5119 45.7438C19.5161 44.7396 20.8766 44.173 22.2968 44.1675H42.8206C44.2456 44.1656 45.6132 44.729 46.6234 45.7341C47.6337 46.7391 48.2041 48.1037 48.2096 49.5287ZM45.0441 73.1488V50.0413C45.0441 49.3744 44.7791 48.7349 44.3076 48.2634C43.8361 47.7918 43.1965 47.5269 42.5297 47.5269H22.6224C22.2919 47.526 21.9645 47.5904 21.659 47.7165C21.3536 47.8425 21.076 48.0277 20.8424 48.2614C20.6087 48.495 20.4235 48.7725 20.2975 49.078C20.1715 49.3835 20.1071 49.7109 20.108 50.0413V73.1488C20.1071 73.4792 20.1715 73.8066 20.2975 74.1121C20.4235 74.4175 20.6087 74.6951 20.8424 74.9287C21.076 75.1624 21.3536 75.3476 21.659 75.4736C21.9645 75.5996 22.2919 75.6641 22.6224 75.6632H42.5297C43.1965 75.6632 43.8361 75.3982 44.3076 74.9267C44.7791 74.4552 45.0441 73.8156 45.0441 73.1488Z" fill="white"/>
<path d="M41.6915 70.9255H23.4604C25.7809 66.4577 29.0849 63.7771 32.576 63.7771C36.067 63.7771 39.3572 66.4577 41.6915 70.9255Z" fill="white"/>
<path d="M32.1254 61.9484C34.5929 61.9484 36.5932 59.9481 36.5932 57.4807C36.5932 55.0132 34.5929 53.0129 32.1254 53.0129C29.658 53.0129 27.6577 55.0132 27.6577 57.4807C27.6577 59.9481 29.658 61.9484 32.1254 61.9484Z" fill="white"/>
</svg>
