<svg width="32" height="32" viewBox="0 0 32 32" fill="none" xmlns="http://www.w3.org/2000/svg">
<rect width="32" height="32" rx="16" fill="#FFF0F0"/>
<path fill-rule="evenodd" clip-rule="evenodd" d="M16 8.5C14.4087 8.5 12.8826 9.13214 11.7574 10.2574C10.6321 11.3826 10 12.9087 10 14.5C10 16.8235 11.5118 19.0782 13.1695 20.8279C13.983 21.6866 14.799 22.3896 15.4125 22.8781C15.6408 23.0599 15.8403 23.2114 16 23.3294C16.1597 23.2114 16.3592 23.0599 16.5875 22.8781C17.201 22.3896 18.017 21.6866 18.8305 20.8279C20.4882 19.0782 22 16.8235 22 14.5C22 12.9087 21.3679 11.3826 20.2426 10.2574C19.1174 9.13214 17.5913 8.5 16 8.5ZM16 24.25C15.584 24.874 15.5838 24.8739 15.5836 24.8738L15.5814 24.8723L15.5764 24.869L15.5592 24.8574C15.5446 24.8474 15.5238 24.8332 15.4972 24.8147C15.4439 24.7778 15.3673 24.7241 15.2708 24.6544C15.0779 24.5151 14.8048 24.3117 14.4781 24.0516C13.826 23.5323 12.9545 22.7821 12.0805 21.8596C10.3632 20.0468 8.5 17.4265 8.5 14.5C8.5 12.5109 9.29018 10.6032 10.6967 9.1967C12.1032 7.79018 14.0109 7 16 7C17.9891 7 19.8968 7.79018 21.3033 9.1967C22.7098 10.6032 23.5 12.5109 23.5 14.5C23.5 17.4265 21.6368 20.0468 19.9195 21.8596C19.0455 22.7821 18.174 23.5323 17.5219 24.0516C17.1952 24.3117 16.9221 24.5151 16.7292 24.6544C16.6327 24.7241 16.5561 24.7778 16.5028 24.8147C16.4762 24.8332 16.4554 24.8474 16.4408 24.8574L16.4236 24.869L16.4186 24.8723L16.417 24.8734C16.4168 24.8735 16.416 24.874 16 24.25ZM16 24.25L16.416 24.874C16.1641 25.042 15.8355 25.0417 15.5836 24.8738L16 24.25Z" fill="#FF3124"/>
<path fill-rule="evenodd" clip-rule="evenodd" d="M16 13C15.1716 13 14.5 13.6716 14.5 14.5C14.5 15.3284 15.1716 16 16 16C16.8284 16 17.5 15.3284 17.5 14.5C17.5 13.6716 16.8284 13 16 13ZM13 14.5C13 12.8431 14.3431 11.5 16 11.5C17.6569 11.5 19 12.8431 19 14.5C19 16.1569 17.6569 17.5 16 17.5C14.3431 17.5 13 16.1569 13 14.5Z" fill="#FF3124"/>
</svg>
