<svg width="20" height="20" viewBox="0 0 20 20" fill="none" xmlns="http://www.w3.org/2000/svg">
<path d="M0 10C0 4.47715 4.47715 0 10 0V0C15.5228 0 20 4.47715 20 10V10C20 15.5228 15.5228 20 10 20V20C4.47715 20 0 15.5228 0 10V10Z" fill="#25D366"/>
<path d="M13.0551 11.3233C12.8879 11.2399 12.0734 10.8416 11.9218 10.7866C11.7701 10.7305 11.659 10.7033 11.5479 10.8699C11.4384 11.0338 11.1195 11.4055 11.0234 11.5155C10.9262 11.6238 10.8295 11.6321 10.6645 11.5571C10.4979 11.4738 9.96287 11.2988 9.32954 10.7321C8.83621 10.2905 8.5051 9.74881 8.40732 9.58214C8.31065 9.41547 8.39676 9.32381 8.47954 9.24047C8.5551 9.16547 8.64676 9.04881 8.7301 8.94992C8.81121 8.84936 8.83787 8.7827 8.8951 8.67436C8.95065 8.5577 8.92232 8.46603 8.88121 8.38325C8.83954 8.29992 8.50787 7.48325 8.36898 7.1577C8.23565 6.83325 8.09843 6.87436 7.99565 6.87436C7.90009 6.86603 7.78954 6.86603 7.67843 6.86603C7.56732 6.86603 7.38787 6.90714 7.23565 7.06547C7.08398 7.23214 6.6551 7.63214 6.6551 8.44047C6.6551 9.24881 7.24954 10.0321 7.33232 10.1488C7.4151 10.2571 8.50176 11.9238 10.1657 12.6405C10.5623 12.8071 10.8712 12.9071 11.1123 12.9899C11.509 13.116 11.8707 13.0983 12.1568 13.0571C12.4756 13.0066 13.1384 12.6566 13.2768 12.2649C13.4184 11.8733 13.4184 11.5483 13.3768 11.4733C13.3357 11.3983 13.2268 11.3566 13.0601 11.2816L13.0551 11.3233ZM10.0345 15.4166H10.0257C9.04232 15.4166 8.06787 15.1499 7.21732 14.6499L7.01732 14.531L4.93398 15.0727L5.49232 13.0477L5.35954 12.8394C4.80954 11.9638 4.51732 10.9555 4.51732 9.91714C4.51732 6.89214 6.99232 4.42547 10.0407 4.42547C11.5151 4.42547 12.899 5.00047 13.9412 6.04214C14.9829 7.07492 15.5573 8.45881 15.5573 9.92547C15.5551 12.9499 13.0795 15.4171 10.0379 15.4171L10.0345 15.4166ZM14.734 5.24936C13.4673 4.02492 11.8007 3.33325 10.0257 3.33325C6.36898 3.33325 3.39176 6.29658 3.3901 9.94047C3.3901 11.1049 3.6951 12.2405 4.27621 13.2433L3.33398 16.6666L6.85343 15.7488C7.82343 16.2727 8.91454 16.551 10.0257 16.5527H10.029C13.6873 16.5527 16.6657 13.5883 16.6673 9.94381C16.6673 8.17936 15.9784 6.51881 14.7256 5.27103" fill="white"/>
</svg>
