<svg width="24" height="24" viewBox="0 0 24 24" fill="none" xmlns="http://www.w3.org/2000/svg">
<path fill-rule="evenodd" clip-rule="evenodd" d="M19.543 12C19.543 11.5858 19.2072 11.25 18.793 11.25H4.79297C4.37876 11.25 4.04297 11.5858 4.04297 12C4.04297 12.4142 4.37876 12.75 4.79297 12.75H18.793C19.2072 12.75 19.543 12.4142 19.543 12Z" fill="#292626"/>
<path fill-rule="evenodd" clip-rule="evenodd" d="M11.2616 4.46967C10.9687 4.76256 10.9687 5.23744 11.2616 5.53033L17.7313 12L11.2616 18.4697C10.9687 18.7626 10.9687 19.2374 11.2616 19.5303C11.5545 19.8232 12.0294 19.8232 12.3223 19.5303L19.3223 12.5303V11.4697L12.3223 4.46967C12.0294 4.17678 11.5545 4.17678 11.2616 4.46967Z" fill="#292626"/>
</svg>
