<svg width="20" height="18" viewBox="0 0 20 18" fill="none" xmlns="http://www.w3.org/2000/svg">
<path d="M10.7645 0.666626H9.23676V2.1944H3.12565V3.72218H9.23676V5.24996H10.7645V3.72218H16.8757V2.1944H10.7645V0.666626Z" fill="#E6E6E6"/>
<path fill-rule="evenodd" clip-rule="evenodd" d="M10.7645 13.2708C10.7645 13.142 10.7703 13.0146 10.7817 12.8888H19.1502C19.1615 13.0146 19.1673 13.142 19.1673 13.2708C19.1673 15.5912 17.2863 17.4722 14.9659 17.4722C12.6456 17.4722 10.7645 15.5912 10.7645 13.2708ZM12.3194 13.6527C12.5047 14.9484 13.619 15.9444 14.9659 15.9444C16.3128 15.9444 17.4271 14.9484 17.6125 13.6527H12.3194Z" fill="#E6E6E6"/>
<path d="M11.6048 11.3611H13.3484L14.9659 8.42016L16.5834 11.3611H18.327L14.9659 5.24996L11.6048 11.3611Z" fill="#E6E6E6"/>
<path fill-rule="evenodd" clip-rule="evenodd" d="M0.851112 12.8888C0.839776 13.0146 0.833984 13.142 0.833984 13.2708C0.833984 15.5912 2.71501 17.4722 5.03537 17.4722C7.35574 17.4722 9.23676 15.5912 9.23676 13.2708C9.23676 13.142 9.23097 13.0146 9.21963 12.8888H0.851112ZM5.03537 15.9444C3.68846 15.9444 2.57417 14.9484 2.38884 13.6527H7.68191C7.49658 14.9484 6.38229 15.9444 5.03537 15.9444Z" fill="#E6E6E6"/>
<path d="M3.41787 11.3611H1.67426L5.03537 5.24996L8.39648 11.3611H6.65287L5.03537 8.42016L3.41787 11.3611Z" fill="#E6E6E6"/>
</svg>
