<svg width="18" height="18" viewBox="0 0 18 18" fill="none" xmlns="http://www.w3.org/2000/svg">
<path d="M9.83268 8.16663V0.666626H8.16602V8.16663H0.666016V9.83329H8.16602V17.3333H9.83268V9.83329H17.3327V8.16663H9.83268Z" fill="#7DC2D9"/>
<path d="M14.691 7.33329L16.5577 5.46663L15.3827 4.28329L12.3327 7.33329H14.691Z" fill="#7DC2D9"/>
<path d="M10.666 5.66663L13.716 2.61663L12.5327 1.44163L10.666 3.30829V5.66663Z" fill="#7DC2D9"/>
<path d="M14.691 10.6666H12.3327L15.3827 13.7166L16.5577 12.5333L14.691 10.6666Z" fill="#7DC2D9"/>
<path d="M10.666 12.3333V14.6916L12.5327 16.5583L13.716 15.3833L10.666 12.3333Z" fill="#7DC2D9"/>
<path d="M7.33268 14.6916V12.3333L4.28268 15.3833L5.46602 16.5583L7.33268 14.6916Z" fill="#7DC2D9"/>
<path d="M5.66602 10.6666H3.30768L1.44102 12.5333L2.61602 13.7166L5.66602 10.6666Z" fill="#7DC2D9"/>
<path d="M3.30768 7.33329H5.66602L2.61602 4.28329L1.44102 5.46663L3.30768 7.33329Z" fill="#7DC2D9"/>
<path d="M7.33268 5.66663V3.30829L5.46602 1.44163L4.28268 2.61663L7.33268 5.66663Z" fill="#7DC2D9"/>
</svg>
