<svg width="32" height="32" viewBox="0 0 32 32" fill="none" xmlns="http://www.w3.org/2000/svg">
<g clip-path="url(#clip0_2312_2593)">
<path d="M0 10C0 4.47715 4.47715 0 10 0V0C15.5228 0 20 4.47715 20 10V10C20 15.5228 15.5228 20 10 20V20C4.47715 20 0 15.5228 0 10V10Z" fill="#F2F9FC"/>
<path d="M10.5202 9.47913V4.79163H9.47852V9.47913H4.79102V10.5208H9.47852V15.2083H10.5202V10.5208H15.2077V9.47913H10.5202Z" fill="#7DC2D9"/>
<path d="M13.5566 8.95829L14.7233 7.79163L13.9889 7.05204L12.0827 8.95829H13.5566Z" fill="#7DC2D9"/>
<path d="M11.041 7.91663L12.9473 6.01038L12.2077 5.276L11.041 6.44267V7.91663Z" fill="#7DC2D9"/>
<path d="M13.5566 11.0416H12.0827L13.9889 12.9479L14.7233 12.2083L13.5566 11.0416Z" fill="#7DC2D9"/>
<path d="M11.041 12.0833V13.5573L12.2077 14.7239L12.9473 13.9895L11.041 12.0833Z" fill="#7DC2D9"/>
<path d="M8.95768 13.5573V12.0833L7.05143 13.9895L7.79102 14.7239L8.95768 13.5573Z" fill="#7DC2D9"/>
<path d="M7.91602 11.0416H6.44206L5.27539 12.2083L6.00977 12.9479L7.91602 11.0416Z" fill="#7DC2D9"/>
<path d="M6.44206 8.95829H7.91602L6.00977 7.05204L5.27539 7.79163L6.44206 8.95829Z" fill="#7DC2D9"/>
<path d="M8.95768 7.91663V6.44267L7.79102 5.276L7.05143 6.01038L8.95768 7.91663Z" fill="#7DC2D9"/>
<path d="M10 18C5.58172 18 2 14.4183 2 10H-2C-2 16.6274 3.37258 22 10 22V18ZM18 10C18 14.4183 14.4183 18 10 18V22C16.6274 22 22 16.6274 22 10H18ZM10 2C14.4183 2 18 5.58172 18 10H22C22 3.37258 16.6274 -2 10 -2V2ZM10 -2C3.37258 -2 -2 3.37258 -2 10H2C2 5.58172 5.58172 2 10 2V-2Z" fill="white"/>
<path d="M12 22C12 16.4772 16.4772 12 22 12V12C27.5228 12 32 16.4772 32 22V22C32 27.5228 27.5228 32 22 32V32C16.4772 32 12 27.5228 12 22V22Z" fill="#FFF8EE"/>
<path d="M22.0007 20.4375C22.86 20.4375 23.5631 21.1407 23.5631 22C23.5631 22.8594 22.86 23.5625 22.0007 23.5625C21.1413 23.5625 20.4382 22.8594 20.4382 22C20.4382 21.1407 21.1413 20.4375 22.0007 20.4375ZM22.0007 19.3959C20.5632 19.3959 19.3965 20.5625 19.3965 22C19.3965 23.4375 20.5632 24.6042 22.0007 24.6042C23.4381 24.6042 24.6048 23.4375 24.6048 22C24.6048 20.5625 23.4381 19.3959 22.0007 19.3959ZM16.7923 22.5209H17.834C18.1204 22.5209 18.3548 22.2865 18.3548 22C18.3548 21.7136 18.1204 21.4792 17.834 21.4792H16.7923C16.5059 21.4792 16.2715 21.7136 16.2715 22C16.2715 22.2865 16.5059 22.5209 16.7923 22.5209ZM26.1673 22.5209H27.209C27.4954 22.5209 27.7298 22.2865 27.7298 22C27.7298 21.7136 27.4954 21.4792 27.209 21.4792H26.1673C25.8809 21.4792 25.6465 21.7136 25.6465 22C25.6465 22.2865 25.8809 22.5209 26.1673 22.5209ZM21.4798 16.7917V17.8334C21.4798 18.1198 21.7142 18.3542 22.0007 18.3542C22.2871 18.3542 22.5215 18.1198 22.5215 17.8334V16.7917C22.5215 16.5052 22.2871 16.2709 22.0007 16.2709C21.7142 16.2709 21.4798 16.5052 21.4798 16.7917ZM21.4798 26.1667V27.2084C21.4798 27.4948 21.7142 27.7292 22.0007 27.7292C22.2871 27.7292 22.5215 27.4948 22.5215 27.2084V26.1667C22.5215 25.8802 22.2871 25.6459 22.0007 25.6459C21.7142 25.6459 21.4798 25.8802 21.4798 26.1667ZM18.8704 18.1355C18.6673 17.9323 18.334 17.9323 18.1361 18.1355C17.9329 18.3386 17.9329 18.6719 18.1361 18.8698L18.6882 19.4219C18.8913 19.625 19.2246 19.625 19.4225 19.4219C19.6204 19.2188 19.6257 18.8855 19.4225 18.6875L18.8704 18.1355ZM25.3131 24.5782C25.11 24.375 24.7767 24.375 24.5788 24.5782C24.3757 24.7813 24.3757 25.1146 24.5788 25.3125L25.1309 25.8646C25.334 26.0677 25.6673 26.0677 25.8652 25.8646C26.0684 25.6615 26.0684 25.3282 25.8652 25.1302L25.3131 24.5782ZM25.8652 18.8698C26.0684 18.6667 26.0684 18.3334 25.8652 18.1355C25.6621 17.9323 25.3288 17.9323 25.1309 18.1355L24.5788 18.6875C24.3757 18.8907 24.3757 19.224 24.5788 19.4219C24.7819 19.6198 25.1152 19.625 25.3131 19.4219L25.8652 18.8698ZM19.4225 25.3125C19.6257 25.1094 19.6257 24.7761 19.4225 24.5782C19.2194 24.375 18.8861 24.375 18.6882 24.5782L18.1361 25.1302C17.9329 25.3334 17.9329 25.6667 18.1361 25.8646C18.3392 26.0625 18.6725 26.0677 18.8704 25.8646L19.4225 25.3125Z" fill="#FFB852"/>
<path d="M22 30C17.5817 30 14 26.4183 14 22H10C10 28.6274 15.3726 34 22 34V30ZM30 22C30 26.4183 26.4183 30 22 30V34C28.6274 34 34 28.6274 34 22H30ZM22 14C26.4183 14 30 17.5817 30 22H34C34 15.3726 28.6274 10 22 10V14ZM22 10C15.3726 10 10 15.3726 10 22H14C14 17.5817 17.5817 14 22 14V10Z" fill="white"/>
</g>
<defs>
<clipPath id="clip0_2312_2593">
<rect width="32" height="32" fill="white"/>
</clipPath>
</defs>
</svg>
