<svg width="17" height="17" viewBox="0 0 17 17" fill="none" xmlns="http://www.w3.org/2000/svg">
<g clip-path="url(#clip0_2470_970)">
<path fill-rule="evenodd" clip-rule="evenodd" d="M8.16667 1.83333C6.75218 1.83333 5.39562 2.39524 4.39543 3.39543C3.39524 4.39562 2.83333 5.75218 2.83333 7.16667C2.83333 9.23204 4.17716 11.2362 5.65064 12.7915C6.37374 13.5548 7.09911 14.1796 7.64445 14.6139C7.84741 14.7755 8.02468 14.9101 8.16667 15.0151C8.30865 14.9101 8.48592 14.7755 8.68888 14.6139C9.23422 14.1796 9.95959 13.5548 10.6827 12.7915C12.1562 11.2362 13.5 9.23204 13.5 7.16667C13.5 5.75218 12.9381 4.39562 11.9379 3.39543C10.9377 2.39524 9.58115 1.83333 8.16667 1.83333ZM8.16667 15.8333C7.79687 16.388 7.7967 16.3879 7.79651 16.3878L7.7946 16.3865L7.79016 16.3835L7.77488 16.3732C7.7619 16.3644 7.74338 16.3517 7.71971 16.3353C7.67235 16.3025 7.60431 16.2547 7.51853 16.1928C7.34703 16.0689 7.10424 15.8881 6.81388 15.6569C6.23422 15.1954 5.45959 14.5286 4.6827 13.7085C3.15618 12.0972 1.5 9.76796 1.5 7.16667C1.5 5.39856 2.20238 3.70286 3.45262 2.45262C4.70286 1.20238 6.39856 0.5 8.16667 0.5C9.93478 0.5 11.6305 1.20238 12.8807 2.45262C14.131 3.70286 14.8333 5.39856 14.8333 7.16667C14.8333 9.76796 13.1772 12.0972 11.6506 13.7085C10.8737 14.5286 10.0991 15.1954 9.51945 15.6569C9.22909 15.8881 8.9863 16.0689 8.81481 16.1928C8.72902 16.2547 8.66098 16.3025 8.61363 16.3353C8.58995 16.3517 8.57144 16.3644 8.55845 16.3732L8.54318 16.3835L8.53873 16.3865L8.53733 16.3875C8.53713 16.3876 8.53647 16.388 8.16667 15.8333ZM8.16667 15.8333L8.53647 16.388C8.31253 16.5373 8.02044 16.5371 7.79651 16.3878L8.16667 15.8333Z" fill="#CBCBCB"/>
<path fill-rule="evenodd" clip-rule="evenodd" d="M8.16667 5.83333C7.43029 5.83333 6.83333 6.43029 6.83333 7.16667C6.83333 7.90305 7.43029 8.5 8.16667 8.5C8.90305 8.5 9.5 7.90305 9.5 7.16667C9.5 6.43029 8.90305 5.83333 8.16667 5.83333ZM5.5 7.16667C5.5 5.69391 6.69391 4.5 8.16667 4.5C9.63943 4.5 10.8333 5.69391 10.8333 7.16667C10.8333 8.63943 9.63943 9.83333 8.16667 9.83333C6.69391 9.83333 5.5 8.63943 5.5 7.16667Z" fill="#CBCBCB"/>
</g>
<defs>
<clipPath id="clip0_2470_970">
<rect width="16" height="16" fill="white" transform="translate(0.166504 0.5)"/>
</clipPath>
</defs>
</svg>
