<svg width="24" height="24" viewBox="0 0 24 24" fill="none" xmlns="http://www.w3.org/2000/svg">
<path fill-rule="evenodd" clip-rule="evenodd" d="M2 2.94489C2 2.42304 2.42294 2 2.94466 2H12.3913C12.6418 2 12.8821 2.09955 13.0593 2.27675L21.1759 10.3953C21.7037 10.9264 22 11.6449 22 12.3937C22 13.1426 21.7037 13.8611 21.1759 14.3922L20.5059 13.726L21.1739 14.3942L14.4011 21.1686C14.4009 21.1688 14.4012 21.1685 14.4011 21.1686C14.1379 21.432 13.8251 21.6413 13.4813 21.7839C13.1372 21.9266 12.7684 22 12.396 22C12.0236 22 11.6548 21.9266 11.3108 21.7839C10.9668 21.6413 10.6543 21.4323 10.3912 21.1688C10.3911 21.1688 10.3912 21.1689 10.3912 21.1688L2.27707 13.0623C2.09968 12.885 2 12.6445 2 12.3937V2.94489ZM19.836 13.0599C19.8363 13.0596 19.8366 13.0593 19.8368 13.059C20.0122 12.8821 20.1107 12.643 20.1107 12.3937C20.1107 12.1445 20.0122 11.9054 19.8368 11.7285C19.8366 11.7282 19.8363 11.7279 19.836 11.7276L12 3.88977H3.88932V12.002L11.7269 19.8323L11.7277 19.8331C11.8154 19.921 11.9196 19.9907 12.0343 20.0382C12.1489 20.0858 12.2719 20.1102 12.396 20.1102C12.5202 20.1102 12.6431 20.0858 12.7578 20.0382C12.8724 19.9907 12.9766 19.921 13.0644 19.8331L19.836 13.0599Z" fill="#FF3124"/>
<path d="M11 9C11 10.1046 10.1046 11 9 11C7.89543 11 7 10.1046 7 9C7 7.89543 7.89543 7 9 7C10.1046 7 11 7.89543 11 9Z" fill="#FF3124"/>
</svg>
