<svg width="14" height="14" viewBox="0 0 14 14" fill="none" xmlns="http://www.w3.org/2000/svg">
<path d="M10.7066 13C10.6 13.0004 10.4949 12.9753 10.4 12.9267L6.99996 11.1467L3.59996 12.9267C3.48956 12.9847 3.36508 13.0106 3.24068 13.0015C3.11628 12.9923 2.99695 12.9484 2.89625 12.8748C2.79555 12.8012 2.71752 12.7008 2.67104 12.585C2.62456 12.4693 2.61148 12.3428 2.6333 12.22L3.29996 8.46667L0.553297 5.8C0.467602 5.71449 0.406812 5.60725 0.377449 5.4898C0.348086 5.37235 0.35126 5.24912 0.38663 5.13334C0.42527 5.01485 0.496348 4.90957 0.591797 4.82944C0.687247 4.74931 0.803246 4.69754 0.926631 4.68L4.72663 4.12667L6.39996 0.70667C6.45455 0.593956 6.53979 0.498898 6.6459 0.432386C6.75202 0.365874 6.87473 0.330597 6.99996 0.330597C7.1252 0.330597 7.24791 0.365874 7.35402 0.432386C7.46014 0.498898 7.54537 0.593956 7.59996 0.70667L9.2933 4.12L13.0933 4.67334C13.2167 4.69087 13.3327 4.74265 13.4281 4.82278C13.5236 4.90291 13.5947 5.00819 13.6333 5.12667C13.6687 5.24245 13.6718 5.36568 13.6425 5.48313C13.6131 5.60058 13.5523 5.70782 13.4666 5.79334L10.72 8.46L11.3866 12.2133C11.4104 12.3383 11.398 12.4675 11.3507 12.5856C11.3035 12.7038 11.2234 12.8059 11.12 12.88C10.9992 12.9646 10.8539 13.0068 10.7066 13Z" fill="#FFB852"/>
</svg>
