<svg width="20" height="20" viewBox="0 0 20 20" fill="none" xmlns="http://www.w3.org/2000/svg">
<path d="M0 10C0 4.47715 4.47715 0 10 0V0C15.5228 0 20 4.47715 20 10V10C20 15.5228 15.5228 20 10 20V20C4.47715 20 0 15.5228 0 10V10Z" fill="#665CAC"/>
<g clip-path="url(#clip0_2093_4376)">
<path d="M9.66695 3.33434C8.59751 3.34878 6.2964 3.52434 5.00917 4.70378C4.05362 5.65378 3.71973 7.05434 3.68084 8.78878C3.64751 10.5166 3.60862 13.761 6.7364 14.6449V15.9893C6.7364 15.9893 6.71528 16.5282 7.07084 16.6393C7.50973 16.7782 7.75973 16.3621 8.1764 15.9177L8.95417 15.0399C11.0931 15.2177 12.732 14.8071 12.9208 14.746C13.3542 14.6071 15.7992 14.2954 16.1992 11.0504C16.6103 7.69989 15.9992 5.58878 14.8992 4.63323L14.8936 4.63212C14.5603 4.32656 13.227 3.35434 10.2436 3.34323C10.2436 3.34323 10.0236 3.32934 9.66695 3.33434ZM9.70417 4.27712C10.007 4.27545 10.1931 4.28823 10.1931 4.28823C12.7153 4.29378 13.9214 5.05489 14.2047 5.31045C15.1325 6.10434 15.6092 8.00823 15.2603 10.806C14.927 13.5171 12.9436 13.6893 12.577 13.806C12.4214 13.856 10.977 14.2116 9.15917 14.0949C9.15917 14.0949 7.80417 15.7288 7.38195 16.151C7.31528 16.2232 7.23751 16.2454 7.18751 16.2343C7.11528 16.2177 7.09306 16.1288 7.09862 16.0066L7.10973 13.7738C4.45917 13.0404 4.61473 10.2727 4.64251 8.82823C4.67584 7.38378 4.94806 6.19934 5.75362 5.39934C6.84084 4.416 8.79528 4.28267 9.70362 4.27712H9.70417ZM9.90417 5.72156C9.88231 5.72149 9.86065 5.72573 9.84043 5.73404C9.82022 5.74236 9.80184 5.75458 9.78636 5.77002C9.77087 5.78545 9.75859 5.80378 9.7502 5.82397C9.74182 5.84416 9.73751 5.86581 9.73751 5.88767C9.73751 5.93187 9.75507 5.97427 9.78632 6.00552C9.81758 6.03678 9.85997 6.05434 9.90417 6.05434C10.3172 6.04646 10.7277 6.12046 11.112 6.27207C11.4962 6.42368 11.8467 6.6499 12.1431 6.93767C12.7486 7.52656 13.0436 8.31545 13.0547 9.34878C13.0547 9.37067 13.059 9.39234 13.0674 9.41256C13.0758 9.43278 13.0881 9.45116 13.1035 9.46663C13.119 9.48211 13.1374 9.49439 13.1576 9.50276C13.1778 9.51114 13.1995 9.51545 13.2214 9.51545V9.51045C13.2656 9.51045 13.308 9.49289 13.3392 9.46163C13.3705 9.43038 13.3881 9.38798 13.3881 9.34378C13.4087 8.85783 13.3301 8.37277 13.1573 7.91814C12.9844 7.4635 12.7208 7.04882 12.3825 6.69934C11.7214 6.05489 10.887 5.72156 9.90362 5.72156H9.90417ZM7.70751 6.10489C7.58936 6.08806 7.46899 6.11154 7.36584 6.17156H7.35917C7.1314 6.30489 6.9214 6.47156 6.7214 6.69378C6.5714 6.87156 6.48751 7.04878 6.46528 7.221C6.45221 7.32201 6.4617 7.42466 6.49306 7.52156L6.50417 7.52712C6.67541 8.03053 6.89885 8.51465 7.17084 8.97156C7.5234 9.61146 7.95656 10.2035 8.45973 10.7332L8.4764 10.7554L8.49862 10.7721L8.51528 10.7888L8.53195 10.8054C9.06374 11.3099 9.65737 11.7448 10.2986 12.0999C11.032 12.4999 11.4775 12.6888 11.7442 12.7666V12.7721C11.822 12.7943 11.8931 12.8054 11.9653 12.8054C12.1929 12.7888 12.4084 12.6965 12.5775 12.5432C12.7942 12.3488 12.9664 12.1332 13.0942 11.9054V11.8999C13.222 11.661 13.1775 11.4327 12.9942 11.2771C12.6247 10.9539 12.2247 10.6674 11.7997 10.4216C11.5164 10.266 11.2275 10.3604 11.1108 10.516L10.8608 10.8321C10.7331 10.9877 10.4997 10.9654 10.4997 10.9654L10.4931 10.971C8.75973 10.5266 8.29862 8.77156 8.29862 8.77156C8.29862 8.77156 8.2764 8.53267 8.43751 8.41045L8.74862 8.16045C8.89862 8.03823 9.00417 7.74934 8.84306 7.466C8.59759 7.04086 8.31104 6.6408 7.98751 6.27156C7.91713 6.18428 7.81778 6.12514 7.70751 6.10489ZM10.1925 6.59934C10.1483 6.59949 10.106 6.61719 10.0748 6.64855C10.0437 6.67991 10.0262 6.72236 10.0264 6.76656C10.0265 6.81076 10.0442 6.8531 10.0756 6.88425C10.107 6.9154 10.1494 6.93282 10.1936 6.93267C10.7496 6.94232 11.279 7.17208 11.6658 7.57156C11.8404 7.76407 11.9745 7.9896 12.0604 8.23483C12.1463 8.48006 12.1821 8.74002 12.1658 8.99934C12.166 9.04344 12.1836 9.08569 12.2149 9.11683C12.2461 9.14797 12.2884 9.16545 12.3325 9.16545L12.3381 9.17212C12.36 9.17212 12.3817 9.16779 12.402 9.15938C12.4222 9.15096 12.4406 9.13864 12.4561 9.1231C12.4716 9.10757 12.4839 9.08913 12.4922 9.06884C12.5005 9.04856 12.5048 9.02683 12.5047 9.00489C12.5214 8.34378 12.3158 7.78823 11.9103 7.34378C11.5047 6.89934 10.9381 6.64934 10.2158 6.59934C10.2081 6.59879 10.2003 6.59879 10.1925 6.59934ZM10.4647 7.49878C10.4424 7.49813 10.4202 7.50187 10.3994 7.50979C10.3786 7.51771 10.3595 7.52966 10.3433 7.54496C10.327 7.56025 10.314 7.57859 10.3048 7.59894C10.2957 7.61928 10.2907 7.64122 10.29 7.6635C10.2893 7.68579 10.2931 7.70799 10.301 7.72884C10.3089 7.74968 10.3209 7.76876 10.3362 7.78498C10.3515 7.8012 10.3698 7.81426 10.3902 7.82339C10.4105 7.83253 10.4324 7.83757 10.4547 7.83823C11.0047 7.866 11.2714 8.14378 11.3047 8.716C11.3062 8.75924 11.3244 8.80022 11.3555 8.83028C11.3866 8.86034 11.4281 8.87714 11.4714 8.87712H11.477C11.4993 8.87642 11.5213 8.87122 11.5417 8.86183C11.562 8.85243 11.5802 8.83904 11.5953 8.82245C11.6103 8.80586 11.6218 8.7864 11.6292 8.76525C11.6366 8.7441 11.6396 8.72168 11.6381 8.69934C11.5992 7.95489 11.1936 7.53767 10.4714 7.49878C10.4692 7.49874 10.467 7.49874 10.4647 7.49878Z" fill="white"/>
</g>
<defs>
<clipPath id="clip0_2093_4376">
<rect width="13.3333" height="13.3333" fill="white" transform="translate(3.33398 3.33325)"/>
</clipPath>
</defs>
</svg>
