<svg width="16" height="14" viewBox="0 0 16 14" fill="none" xmlns="http://www.w3.org/2000/svg">
<path d="M14 3.25V1.75H2V12.25H14V10.75H8C7.80109 10.75 7.61032 10.671 7.46967 10.5303C7.32902 10.3897 7.25 10.1989 7.25 10V4C7.25 3.80109 7.32902 3.61032 7.46967 3.46967C7.61032 3.32902 7.80109 3.25 8 3.25H14ZM1.25 0.25H14.75C14.9489 0.25 15.1397 0.329018 15.2803 0.46967C15.421 0.610322 15.5 0.801088 15.5 1V13C15.5 13.1989 15.421 13.3897 15.2803 13.5303C15.1397 13.671 14.9489 13.75 14.75 13.75H1.25C1.05109 13.75 0.860322 13.671 0.71967 13.5303C0.579018 13.3897 0.5 13.1989 0.5 13V1C0.5 0.801088 0.579018 0.610322 0.71967 0.46967C0.860322 0.329018 1.05109 0.25 1.25 0.25V0.25ZM8.75 4.75V9.25H14V4.75H8.75ZM10.25 6.25H12.5V7.75H10.25V6.25Z" fill="#FF3124"/>
</svg>
