<svg width="17" height="18" viewBox="0 0 17 18" fill="none" xmlns="http://www.w3.org/2000/svg">
<path d="M8.62923 0.666748C13.2292 0.666748 16.9626 4.40008 16.9626 9.00008C16.9626 13.6001 13.2292 17.3334 8.62923 17.3334C4.02923 17.3334 0.295898 13.6001 0.295898 9.00008C0.295898 4.40008 4.02923 0.666748 8.62923 0.666748ZM8.62923 15.6667C12.3126 15.6667 15.2959 12.6834 15.2959 9.00008C15.2959 5.31675 12.3126 2.33341 8.62923 2.33341C4.9459 2.33341 1.96257 5.31675 1.96257 9.00008C1.96257 12.6834 4.9459 15.6667 8.62923 15.6667ZM11.5759 4.87508L12.7542 6.05341L8.62923 10.1784L7.4509 9.00008L11.5759 4.87508V4.87508Z" fill="#CBCBCB"/>
</svg>
