<svg width="20" height="9" viewBox="0 0 20 9" fill="none" xmlns="http://www.w3.org/2000/svg">
<path d="M3.62704 0.727273H5.14693V5.7983C5.14693 6.26705 5.04158 6.67424 4.83088 7.01989C4.62254 7.36553 4.33253 7.63187 3.96085 7.81889C3.58916 8.00592 3.15711 8.09943 2.66468 8.09943C2.22671 8.09943 1.82898 8.02249 1.4715 7.86861C1.11639 7.71236 0.834665 7.47562 0.626332 7.15838C0.417998 6.83878 0.315015 6.4375 0.317383 5.95455H1.84792C1.85266 6.14631 1.89172 6.31084 1.96511 6.44815C2.04087 6.5831 2.14385 6.68726 2.27406 6.76065C2.40663 6.83168 2.56288 6.86719 2.74281 6.86719C2.9322 6.86719 3.092 6.82694 3.22221 6.74645C3.35479 6.66359 3.4554 6.54285 3.52406 6.38423C3.59271 6.22562 3.62704 6.0303 3.62704 5.7983V0.727273ZM12.8351 3.27344H11.2797C11.2513 3.07221 11.1933 2.89347 11.1057 2.73722C11.0181 2.5786 10.9057 2.44366 10.7684 2.33239C10.6311 2.22112 10.4724 2.13589 10.2925 2.0767C10.115 2.01752 9.92202 1.98793 9.71369 1.98793C9.33727 1.98793 9.00938 2.08144 8.73002 2.26847C8.45067 2.45312 8.23405 2.72301 8.08017 3.07812C7.92628 3.43087 7.84934 3.85937 7.84934 4.36364C7.84934 4.8821 7.92628 5.31771 8.08017 5.67045C8.23642 6.0232 8.45422 6.28954 8.73358 6.46946C9.01293 6.64938 9.33609 6.73935 9.70304 6.73935C9.909 6.73935 10.0996 6.71212 10.2748 6.65767C10.4523 6.60322 10.6098 6.52391 10.7471 6.41974C10.8844 6.31321 10.998 6.18419 11.088 6.03267C11.1803 5.88116 11.2442 5.70833 11.2797 5.5142L12.8351 5.52131C12.7949 5.85511 12.6943 6.17708 12.5333 6.48722C12.3747 6.79498 12.1604 7.07079 11.8905 7.31463C11.623 7.55611 11.3034 7.74787 10.9317 7.88991C10.5624 8.02959 10.1446 8.09943 9.67818 8.09943C9.0295 8.09943 8.44949 7.95265 7.93812 7.65909C7.42913 7.36553 7.02666 6.94058 6.73074 6.38423C6.43717 5.82789 6.29039 5.15436 6.29039 4.36364C6.29039 3.57055 6.43954 2.89583 6.73784 2.33949C7.03613 1.78314 7.44096 1.35937 7.95233 1.06818C8.46369 0.774621 9.03897 0.627841 9.67818 0.627841C10.0996 0.627841 10.4902 0.687026 10.8501 0.805398C11.2123 0.923769 11.5331 1.09659 11.8124 1.32386C12.0918 1.54877 12.319 1.82457 12.4942 2.15128C12.6718 2.47798 12.7854 2.85204 12.8351 3.27344ZM13.9378 8V0.727273H16.8497C17.3847 0.727273 17.831 0.806581 18.1885 0.965199C18.546 1.12382 18.8147 1.34399 18.9946 1.62571C19.1745 1.90507 19.2645 2.22704 19.2645 2.59162C19.2645 2.87571 19.2077 3.12547 19.094 3.34091C18.9804 3.55398 18.8241 3.72917 18.6253 3.86648C18.4288 4.00142 18.2039 4.0973 17.9506 4.15412V4.22514C18.2275 4.23698 18.4868 4.3151 18.7282 4.45952C18.9721 4.60393 19.1698 4.80634 19.3213 5.06676C19.4728 5.32481 19.5486 5.63258 19.5486 5.99006C19.5486 6.37595 19.4527 6.72041 19.2609 7.02344C19.0715 7.3241 18.791 7.56203 18.4193 7.73722C18.0476 7.91241 17.5895 8 17.045 8H13.9378ZM15.4754 6.7429H16.729C17.1575 6.7429 17.47 6.66122 17.6665 6.49787C17.863 6.33215 17.9612 6.11198 17.9612 5.83736C17.9612 5.63613 17.9127 5.45857 17.8156 5.30469C17.7185 5.1508 17.58 5.03007 17.4001 4.94247C17.2226 4.85488 17.0107 4.81108 16.7645 4.81108H15.4754V6.7429ZM15.4754 3.7706H16.6153C16.826 3.7706 17.0131 3.7339 17.1764 3.66051C17.3421 3.58475 17.4723 3.47822 17.567 3.34091C17.6641 3.2036 17.7126 3.03906 17.7126 2.8473C17.7126 2.58452 17.6191 2.37263 17.4321 2.21165C17.2474 2.05066 16.9846 1.97017 16.6437 1.97017H15.4754V3.7706Z" fill="#FF3124"/>
</svg>
