<svg width="14" height="14" viewBox="0 0 14 14" fill="none" xmlns="http://www.w3.org/2000/svg">
<path d="M11.125 13.75C10.4288 13.75 9.76113 13.4734 9.26884 12.9812C8.77656 12.4889 8.5 11.8212 8.5 11.125C8.5 10.4288 8.77656 9.76113 9.26884 9.26884C9.76113 8.77656 10.4288 8.5 11.125 8.5C11.8212 8.5 12.4889 8.77656 12.9812 9.26884C13.4734 9.76113 13.75 10.4288 13.75 11.125C13.75 11.8212 13.4734 12.4889 12.9812 12.9812C12.4889 13.4734 11.8212 13.75 11.125 13.75V13.75ZM11.125 12.25C11.4234 12.25 11.7095 12.1315 11.9205 11.9205C12.1315 11.7095 12.25 11.4234 12.25 11.125C12.25 10.8266 12.1315 10.5405 11.9205 10.3295C11.7095 10.1185 11.4234 10 11.125 10C10.8266 10 10.5405 10.1185 10.3295 10.3295C10.1185 10.5405 10 10.8266 10 11.125C10 11.4234 10.1185 11.7095 10.3295 11.9205C10.5405 12.1315 10.8266 12.25 11.125 12.25ZM2.875 5.5C2.53028 5.5 2.18894 5.4321 1.87046 5.30018C1.55198 5.16827 1.2626 4.97491 1.01884 4.73116C0.775091 4.4874 0.581735 4.19802 0.449816 3.87954C0.317898 3.56106 0.25 3.21972 0.25 2.875C0.25 2.53028 0.317898 2.18894 0.449816 1.87046C0.581735 1.55198 0.775091 1.2626 1.01884 1.01884C1.2626 0.775091 1.55198 0.581735 1.87046 0.449816C2.18894 0.317898 2.53028 0.25 2.875 0.25C3.57119 0.25 4.23887 0.526562 4.73116 1.01884C5.22344 1.51113 5.5 2.17881 5.5 2.875C5.5 3.57119 5.22344 4.23887 4.73116 4.73116C4.23887 5.22344 3.57119 5.5 2.875 5.5V5.5ZM2.875 4C3.17337 4 3.45952 3.88147 3.6705 3.6705C3.88147 3.45952 4 3.17337 4 2.875C4 2.57663 3.88147 2.29048 3.6705 2.0795C3.45952 1.86853 3.17337 1.75 2.875 1.75C2.57663 1.75 2.29048 1.86853 2.0795 2.0795C1.86853 2.29048 1.75 2.57663 1.75 2.875C1.75 3.17337 1.86853 3.45952 2.0795 3.6705C2.29048 3.88147 2.57663 4 2.875 4V4ZM12.3032 0.63625L13.3638 1.69675L1.6975 13.3638L0.637 12.3032L12.3025 0.63625H12.3032Z" fill="#FF3124"/>
</svg>
