<svg width="30" height="30" viewBox="0 0 30 30" fill="none" xmlns="http://www.w3.org/2000/svg">
<path d="M0 15C0 6.71573 6.71573 0 15 0V0C23.2843 0 30 6.71573 30 15V15C30 23.2843 23.2843 30 15 30V30C6.71573 30 0 23.2843 0 15V15Z" fill="#25D366"/>
<path d="M19.5817 16.985C19.3308 16.86 18.1092 16.2625 17.8817 16.18C17.6542 16.0958 17.4875 16.055 17.3208 16.305C17.1567 16.5508 16.6783 17.1083 16.5342 17.2733C16.3883 17.4358 16.2433 17.4483 15.9958 17.3358C15.7458 17.2108 14.9433 16.9483 13.9933 16.0983C13.2533 15.4358 12.7567 14.6233 12.61 14.3733C12.465 14.1233 12.5942 13.9858 12.7183 13.8608C12.8317 13.7483 12.9692 13.5733 13.0942 13.425C13.2158 13.2742 13.2558 13.1742 13.3417 13.0117C13.425 12.8367 13.3825 12.6992 13.3208 12.575C13.2583 12.45 12.7608 11.225 12.5525 10.7367C12.3525 10.25 12.1467 10.3117 11.9925 10.3117C11.8492 10.2992 11.6833 10.2992 11.5167 10.2992C11.35 10.2992 11.0808 10.3608 10.8525 10.5983C10.625 10.8483 9.98167 11.4483 9.98167 12.6608C9.98167 13.8733 10.8733 15.0483 10.9975 15.2233C11.1217 15.3858 12.7517 17.8858 15.2475 18.9608C15.8425 19.2108 16.3058 19.3608 16.6675 19.485C17.2625 19.6742 17.805 19.6475 18.2342 19.5858C18.7125 19.51 19.7067 18.985 19.9142 18.3975C20.1267 17.81 20.1267 17.3225 20.0642 17.21C20.0025 17.0975 19.8392 17.035 19.5892 16.9225L19.5817 16.985ZM15.0508 23.125H15.0375C13.5625 23.125 12.1008 22.725 10.825 21.975L10.525 21.7967L7.4 22.6092L8.2375 19.5717L8.03833 19.2592C7.21333 17.9458 6.775 16.4333 6.775 14.8758C6.775 10.3383 10.4875 6.63833 15.06 6.63833C17.2717 6.63833 19.3475 7.50083 20.9108 9.06333C22.4733 10.6125 23.335 12.6883 23.335 14.8883C23.3317 19.425 19.6183 23.1258 15.0558 23.1258L15.0508 23.125ZM22.1 7.87417C20.2 6.0375 17.7 5 15.0375 5C9.5525 5 5.08667 9.445 5.08417 14.9108C5.08417 16.6575 5.54167 18.3608 6.41333 19.865L5 25L10.2792 23.6233C11.7342 24.4092 13.3708 24.8267 15.0375 24.8292H15.0425C20.53 24.8292 24.9975 20.3825 25 14.9158C25 12.2692 23.9667 9.77833 22.0875 7.90667" fill="white"/>
</svg>
