<svg width="18" height="15" viewBox="0 0 18 15" fill="none" xmlns="http://www.w3.org/2000/svg">
<path d="M11.4545 4.76059e-06C12.0291 -5.95602e-05 12.5936 0.1422 13.0913 0.412479C13.5889 0.682758 14.0021 1.07153 14.2893 1.5397C14.5766 2.00788 14.7278 2.53895 14.7277 3.07953C14.7276 3.6201 14.5762 4.15112 14.2887 4.61919L18 4.61842V6.1579H16.3636V13.8553C16.3636 14.0594 16.2774 14.2552 16.124 14.3995C15.9706 14.5439 15.7625 14.625 15.5455 14.625H2.45455C2.23755 14.625 2.02944 14.5439 1.876 14.3995C1.72256 14.2552 1.63636 14.0594 1.63636 13.8553V6.1579H0V4.61842L3.71127 4.61919C3.30534 3.9579 3.17511 3.17829 3.34586 2.43174C3.51661 1.68518 3.97616 1.02496 4.63527 0.579272C5.29439 0.133583 6.10604 -0.0657695 6.91261 0.0199245C7.71919 0.105619 8.46314 0.470243 9 1.043C9.30649 0.714614 9.68405 0.451666 10.1074 0.271782C10.5307 0.0918977 10.99 -0.000765309 11.4545 4.76059e-06ZM8.18182 6.1579H3.27273V13.0855H8.18182V6.1579ZM14.7273 6.1579H9.81818V13.0855H14.7273V6.1579ZM6.54545 1.53948C6.12083 1.53769 5.7121 1.69126 5.4056 1.96774C5.09911 2.24423 4.91885 2.62197 4.90292 3.02117C4.88699 3.42038 5.03663 3.80977 5.32022 4.1071C5.60382 4.40443 5.99916 4.5864 6.42273 4.61458L6.54545 4.61842H8.18182V3.07895C8.18184 2.71106 8.04182 2.35533 7.78712 2.07618C7.53242 1.79703 7.17989 1.61292 6.79336 1.55718L6.66736 1.54333L6.54545 1.53948ZM11.4545 1.53948C11.0417 1.53936 10.6441 1.68604 10.3414 1.95013C10.0387 2.21422 9.85324 2.57619 9.82227 2.96349L9.81818 3.07895V4.61842H11.4545C11.8674 4.61855 12.265 4.47186 12.5677 4.20777C12.8704 3.94368 13.0559 3.58171 13.0868 3.19441L13.0909 3.07895C13.0909 2.67066 12.9185 2.27909 12.6116 1.99038C12.3048 1.70167 11.8885 1.53948 11.4545 1.53948Z" fill="#FF3124"/>
</svg>
