<svg width="22" height="22" viewBox="0 0 22 22" fill="none" xmlns="http://www.w3.org/2000/svg">
<path d="M7.6854 3.00001L10.2924 0.393006C10.4799 0.205535 10.7342 0.10022 10.9994 0.10022C11.2646 0.10022 11.5189 0.205535 11.7064 0.393006L14.3134 3.00001H17.9994C18.2646 3.00001 18.519 3.10536 18.7065 3.2929C18.894 3.48044 18.9994 3.73479 18.9994 4.00001V7.68601L21.6064 10.293C21.7939 10.4805 21.8992 10.7348 21.8992 11C21.8992 11.2652 21.7939 11.5195 21.6064 11.707L18.9994 14.314V18C18.9994 18.2652 18.894 18.5196 18.7065 18.7071C18.519 18.8946 18.2646 19 17.9994 19H14.3134L11.7064 21.607C11.5189 21.7945 11.2646 21.8998 10.9994 21.8998C10.7342 21.8998 10.4799 21.7945 10.2924 21.607L7.6854 19H3.9994C3.73418 19 3.47983 18.8946 3.29229 18.7071C3.10475 18.5196 2.9994 18.2652 2.9994 18V14.314L0.392396 11.707C0.204925 11.5195 0.0996094 11.2652 0.0996094 11C0.0996094 10.7348 0.204925 10.4805 0.392396 10.293L2.9994 7.68601V4.00001C2.9994 3.73479 3.10475 3.48044 3.29229 3.2929C3.47983 3.10536 3.73418 3.00001 3.9994 3.00001H7.6854ZM4.9994 5.00001V8.51501L2.5144 11L4.9994 13.485V17H8.5144L10.9994 19.485L13.4844 17H16.9994V13.485L19.4844 11L16.9994 8.51501V5.00001H13.4844L10.9994 2.51501L8.5144 5.00001H4.9994ZM10.9994 15C9.93853 15 8.92111 14.5786 8.17097 13.8284C7.42082 13.0783 6.9994 12.0609 6.9994 11C6.9994 9.93914 7.42082 8.92173 8.17097 8.17158C8.92111 7.42143 9.93853 7.00001 10.9994 7.00001C12.0603 7.00001 13.0777 7.42143 13.8278 8.17158C14.578 8.92173 14.9994 9.93914 14.9994 11C14.9994 12.0609 14.578 13.0783 13.8278 13.8284C13.0777 14.5786 12.0603 15 10.9994 15ZM10.9994 13C11.5298 13 12.0385 12.7893 12.4136 12.4142C12.7887 12.0391 12.9994 11.5304 12.9994 11C12.9994 10.4696 12.7887 9.96087 12.4136 9.58579C12.0385 9.21072 11.5298 9.00001 10.9994 9.00001C10.469 9.00001 9.96025 9.21072 9.58518 9.58579C9.21011 9.96087 8.9994 10.4696 8.9994 11C8.9994 11.5304 9.21011 12.0391 9.58518 12.4142C9.96025 12.7893 10.469 13 10.9994 13Z" fill="#FF3124"/>
</svg>
