<svg width="20" height="20" viewBox="0 0 20 20" fill="none" xmlns="http://www.w3.org/2000/svg">
<path d="M10.0007 7.50004C11.3757 7.50004 12.5007 8.62504 12.5007 10C12.5007 11.375 11.3757 12.5 10.0007 12.5C8.62565 12.5 7.50065 11.375 7.50065 10C7.50065 8.62504 8.62565 7.50004 10.0007 7.50004ZM10.0007 5.83337C7.70065 5.83337 5.83398 7.70004 5.83398 10C5.83398 12.3 7.70065 14.1667 10.0007 14.1667C12.3006 14.1667 14.1673 12.3 14.1673 10C14.1673 7.70004 12.3006 5.83337 10.0007 5.83337ZM1.66732 10.8334H3.33398C3.79232 10.8334 4.16732 10.4584 4.16732 10C4.16732 9.54171 3.79232 9.16671 3.33398 9.16671H1.66732C1.20898 9.16671 0.833984 9.54171 0.833984 10C0.833984 10.4584 1.20898 10.8334 1.66732 10.8334ZM16.6673 10.8334H18.334C18.7923 10.8334 19.1673 10.4584 19.1673 10C19.1673 9.54171 18.7923 9.16671 18.334 9.16671H16.6673C16.209 9.16671 15.834 9.54171 15.834 10C15.834 10.4584 16.209 10.8334 16.6673 10.8334ZM9.16732 1.66671V3.33337C9.16732 3.79171 9.54232 4.16671 10.0007 4.16671C10.459 4.16671 10.834 3.79171 10.834 3.33337V1.66671C10.834 1.20837 10.459 0.833374 10.0007 0.833374C9.54232 0.833374 9.16732 1.20837 9.16732 1.66671ZM9.16732 16.6667V18.3334C9.16732 18.7917 9.54232 19.1667 10.0007 19.1667C10.459 19.1667 10.834 18.7917 10.834 18.3334V16.6667C10.834 16.2084 10.459 15.8334 10.0007 15.8334C9.54232 15.8334 9.16732 16.2084 9.16732 16.6667ZM4.99232 3.81671C4.66732 3.49171 4.13398 3.49171 3.81732 3.81671C3.49232 4.14171 3.49232 4.67504 3.81732 4.99171L4.70065 5.87504C5.02565 6.20004 5.55898 6.20004 5.87565 5.87504C6.19232 5.55004 6.20065 5.01671 5.87565 4.70004L4.99232 3.81671ZM15.3007 14.125C14.9756 13.8 14.4423 13.8 14.1257 14.125C13.8007 14.45 13.8007 14.9834 14.1257 15.3L15.009 16.1834C15.334 16.5084 15.8673 16.5084 16.184 16.1834C16.509 15.8584 16.509 15.325 16.184 15.0084L15.3007 14.125ZM16.184 4.99171C16.509 4.66671 16.509 4.13337 16.184 3.81671C15.859 3.49171 15.3257 3.49171 15.009 3.81671L14.1257 4.70004C13.8007 5.02504 13.8007 5.55837 14.1257 5.87504C14.4507 6.19171 14.984 6.20004 15.3007 5.87504L16.184 4.99171ZM5.87565 15.3C6.20065 14.975 6.20065 14.4417 5.87565 14.125C5.55065 13.8 5.01732 13.8 4.70065 14.125L3.81732 15.0084C3.49232 15.3334 3.49232 15.8667 3.81732 16.1834C4.14232 16.5 4.67565 16.5084 4.99232 16.1834L5.87565 15.3Z" fill="#FFB852"/>
</svg>
