<svg width="68" height="60" viewBox="0 0 68 60" fill="none" xmlns="http://www.w3.org/2000/svg">
<path d="M14.0003 0C25.6337 0 35.277 8.51333 37.0437 19.65C40.9603 15.7467 46.367 13.3333 52.3337 13.3333H67.3337V21.6667C67.3337 33.6333 57.6337 43.3333 45.667 43.3333H37.3337V60H30.667V33.3333H24.0003C11.1137 33.3333 0.666992 22.8867 0.666992 10V0H14.0003ZM60.667 20H52.3337C44.0503 20 37.3337 26.7167 37.3337 35V36.6667H45.667C53.9503 36.6667 60.667 29.95 60.667 21.6667V20ZM14.0003 6.66667H7.33366V10C7.33366 19.2033 14.797 26.6667 24.0003 26.6667H30.667V23.3333C30.667 14.13 23.2037 6.66667 14.0003 6.66667Z" fill="#54C86E"/>
</svg>
