<svg width="50" height="50" viewBox="0 0 50 50" fill="none" xmlns="http://www.w3.org/2000/svg">
<path d="M48.3415 4.3896C47.5318 3.89141 46.1858 3.57974 44.3696 4.92424C44.0378 5.1714 43.7602 5.45503 43.5156 5.70535L43.3643 5.85925C43.1028 6.12464 42.8466 6.39495 42.5905 6.66526C42.1263 7.15467 41.6885 7.61706 41.2213 8.0501C39.4723 9.67189 37.4866 10.9228 35.3189 11.7695C32.2578 12.9653 28.9091 13.5178 25.6716 14.0522C24.3672 14.2674 23.018 14.49 21.6948 14.7526C19.801 15.1281 17.2947 15.9821 15.5479 17.2863C14.0514 16.7527 12.5779 16.0428 11.2401 15.0513C9.08333 13.453 7.91042 11.137 6.96345 8.87291L6.64815 8.11143C6.14107 6.88122 5.6164 5.60892 4.93545 4.39657C4.42801 3.49207 3.52327 3.04367 2.45035 3.1678C1.79301 3.24317 0.910075 3.59762 0.439649 4.85412C0.162709 5.5914 0.163061 6.31328 0.204581 6.97977C0.279183 8.2457 0.452666 9.50929 0.720112 10.7353C1.17863 12.8378 1.92644 14.9105 2.94089 16.894C3.24423 17.4883 3.59507 18.0426 3.93463 18.5787C4.4593 19.4064 4.95403 20.1886 5.22753 21.0317C7.01203 26.5271 7.52506 33.7664 6.67169 41.4158C6.52952 42.6836 7.66443 43.79 14.7646 46.9944L15.1323 47.1609C15.2681 47.2226 15.6376 47.3663 16.0779 47.535C16.542 47.7127 17.4682 48.0682 17.7754 48.2144C17.8321 48.2593 17.8933 48.2982 17.9591 48.3319C18.1241 48.4164 18.3043 48.4584 18.4838 48.4584C18.6942 48.4584 18.904 48.4006 19.0887 48.2859C20.472 47.4281 22.8364 44.8004 24.206 42.9399C24.2084 43.1576 24.1979 43.3907 24.1905 43.5425C24.1803 43.7339 24.1722 43.9085 24.1733 44.0516C24.1828 45.4434 24.2127 46.932 24.2665 48.7368C24.2838 49.3153 24.7331 49.7893 25.3123 49.839C25.4971 49.8545 25.8018 49.8625 26.2434 49.8625C27.9733 49.8625 32.0666 49.7318 33.693 49.4292C34.2318 49.3293 34.6242 48.8616 34.6277 48.3154C34.6326 47.5459 34.6534 46.6459 34.6752 45.7151C34.7111 44.1858 34.7484 42.6043 34.722 41.3369C34.7209 41.2742 34.7216 41.2234 34.7223 41.1837C34.7385 41.1746 34.7547 41.1655 34.7723 41.1557C34.8825 41.0919 35.0053 41.0193 35.145 40.9296C36.0353 40.3497 36.8278 39.8165 37.5174 39.1644C37.6202 39.0672 37.73 38.9663 37.8433 38.8615C38.9268 37.8644 40.4114 36.4981 40.2724 34.7081C40.2151 33.9522 39.8417 33.3867 39.2717 33.0992C39.4592 31.2214 39.436 28.0602 39.3843 24.4842C39.3681 23.3599 39.354 22.3888 39.3681 22.0084C39.3994 21.2147 39.714 20.0357 39.8059 19.826C40.2162 19.0446 40.7736 18.5671 41.3637 18.0608L41.7684 17.7095C42.5816 16.9954 43.3949 16.2812 44.2025 15.5618C45.8314 14.1128 47.2109 12.539 48.4383 10.7202C48.9999 9.88685 49.6995 8.85016 49.8068 7.62067C49.8986 6.55632 49.3645 5.01719 48.3418 4.38929L48.3415 4.3896ZM18.371 45.9853C17.9998 45.8279 17.5202 45.6435 16.8994 45.4062C16.5204 45.261 16.2005 45.1397 16.0848 45.0871L15.7089 44.9167C10.8087 42.7052 9.38927 41.7369 8.98209 41.3477C9.48143 36.652 9.88717 27.9722 7.40595 20.33C7.04421 19.2137 6.44736 18.2716 5.87099 17.3605C5.54443 16.8455 5.23687 16.3589 4.98105 15.8582C4.05524 14.0478 3.37429 12.161 2.95692 10.2496C2.71482 9.1389 2.55752 7.99351 2.48925 6.84147C2.45934 6.35836 2.46392 5.97096 2.58426 5.6512C2.64972 5.47521 2.70145 5.42962 2.71341 5.43208C2.83939 5.41911 2.88549 5.43769 2.88478 5.43769C2.88971 5.4412 2.91012 5.46083 2.93616 5.50816C3.55021 6.60132 4.02601 7.7547 4.52923 8.97657L4.8491 9.74856C5.92093 12.3135 7.27158 14.9523 9.87208 16.8799C13.0669 19.2488 16.8031 20.1831 20.0355 20.7847C21.4307 21.0452 22.5182 21.1963 23.5597 21.2763L23.6385 21.2822C24.2153 21.326 24.4852 21.3671 24.5542 21.4884C24.5795 21.5427 24.5922 21.6226 24.5957 21.7124C24.5953 21.7222 24.5968 21.732 24.5968 21.7411C24.6013 22.03 24.5116 22.4181 24.392 22.5233C23.4289 23.1656 21.3009 23.2455 19.893 23.2977C18.4679 23.351 17.7594 23.3913 17.2376 23.7142C16.9004 23.9225 16.6788 24.2587 16.5771 24.7148C16.2079 26.3794 17.3871 31.7006 18.896 35.0388C18.0166 35.6232 18.1535 36.6441 18.2039 36.9919L18.2204 37.1122C18.3112 37.8831 18.6645 38.5938 19.243 39.1705C20.2055 40.1234 21.2478 40.9346 22.3538 41.6022C21.2875 43.0491 19.5034 45.0488 18.3714 45.9852L18.371 45.9853ZM36.289 37.187C36.1679 37.2985 36.0508 37.4061 35.941 37.5102C35.4399 37.9842 34.8343 38.4071 33.893 39.0195C33.7916 39.0854 33.7001 39.1376 33.6192 39.185C32.8302 39.6425 32.4069 40.1284 32.4315 41.3835C32.4568 42.6018 32.4202 44.1584 32.3847 45.6632C32.372 46.2308 32.3583 46.7871 32.3495 47.3103C30.7699 47.4701 28.1855 47.5711 26.5239 47.5816C26.4897 46.2672 26.47 45.1208 26.4623 44.0344C26.4612 43.9289 26.469 43.8016 26.476 43.6624C26.5235 42.7667 26.6112 41.0993 25.1983 40.5015C23.6203 39.834 22.1597 38.8415 20.8587 37.5548C20.7563 37.4528 20.6757 37.3466 20.6159 37.2351C22.9697 38.2907 25.7162 39.3144 28.5413 39.3144C29.6445 39.3144 30.7069 39.1546 31.6989 38.8394C32.7215 38.5147 33.7976 37.9534 34.7294 37.2582L34.8153 37.1937C36.4794 35.9418 37.4263 35.4633 37.919 35.281C37.6737 35.9131 36.8616 36.6605 36.289 37.1871V37.187ZM46.5155 9.47925C45.4162 11.1071 44.1606 12.5406 42.676 13.8609C41.8708 14.5771 41.0622 15.2881 40.2525 15.9994L39.8682 16.3332C39.2095 16.898 38.3892 17.6013 37.7762 18.7684C37.5027 19.288 37.1192 20.8768 37.0784 21.9237C37.0622 22.3644 37.0752 23.2681 37.0935 24.518C37.1269 26.8666 37.1934 31.4639 36.9608 33.2091C36.0241 33.5838 34.8691 34.2931 33.4342 35.3732L33.3553 35.4325C32.6237 35.9783 31.7883 36.4162 31.0029 36.6655C30.2355 36.9091 29.4074 37.0325 28.5407 37.0325C26.1232 37.0329 23.6508 36.0947 21.5109 35.133C19.99 32.5884 18.8277 27.3654 18.7851 25.6374C19.131 25.6083 19.5987 25.5912 19.9777 25.5771C21.5672 25.5179 23.4847 25.4408 24.9489 24.7992C25.0893 26.0676 25.2107 27.2806 25.2832 28.0172C24.3246 28.7089 23.7497 29.7989 23.6567 31.2061C23.5716 32.4948 24.0371 33.8142 24.9028 34.7355C25.702 35.586 26.7957 36.0543 27.9826 36.0543C28.1005 36.0543 28.2209 36.0498 28.3412 36.0407C30.7914 35.8577 32.64 33.9508 32.64 31.6061C32.64 29.1593 30.6729 27.1688 28.2557 27.1688C27.995 27.1688 27.7462 27.187 27.5051 27.2143C27.3598 25.7643 27.1142 23.4097 26.8791 21.6737C26.864 21.1888 26.7538 20.7292 26.5487 20.3684C25.8621 19.1642 24.6291 19.0702 23.8134 19.0085L23.7374 19.0026C22.7803 18.9293 21.7689 18.7873 20.4574 18.5433C19.8441 18.4294 19.211 18.3014 18.5688 18.1538C19.7272 17.6164 21.0387 17.2083 22.1419 16.9898C23.4288 16.7346 24.7593 16.5148 26.0462 16.3023C29.4004 15.7491 32.8691 15.1766 36.1547 13.8927C38.5912 12.9412 40.8212 11.5371 42.7815 9.71967C43.302 9.23656 43.7869 8.72542 44.2556 8.23107C44.5019 7.97129 44.7486 7.7108 44.9963 7.45942L45.1561 7.29675C45.3595 7.08815 45.5516 6.89182 45.7378 6.75334C46.6851 6.05111 47.0152 6.2541 47.1348 6.32667C47.3083 6.45639 47.555 7.09165 47.5258 7.4254C47.4681 8.06662 46.9729 8.80109 46.5155 9.47916L46.5155 9.47925ZM25.9409 31.3559C25.999 30.4682 26.3153 29.4502 28.255 29.4502C29.4103 29.4502 30.3495 30.417 30.3495 31.6062C30.3495 32.917 29.2526 33.6856 28.1681 33.7665C28.1051 33.7714 28.0428 33.7742 27.9823 33.7742H27.9819C27.4196 33.7742 26.9456 33.5733 26.5733 33.1772C26.1397 32.7148 25.8969 32.0167 25.9409 31.3559L25.9409 31.3559ZM15.1541 14.4155C18.192 14.4155 20.6633 11.9527 20.6633 8.92603C20.6633 5.89938 18.1919 3.43618 15.1541 3.43618C12.1155 3.43618 9.64375 5.89902 9.64375 8.92567C9.64375 11.9523 12.1155 14.4155 15.1541 14.4155ZM15.1541 5.7171C16.9298 5.7171 18.3743 7.1566 18.3743 8.92567C18.3743 10.6947 16.9294 12.1342 15.1541 12.1342C13.3777 12.1342 11.9328 10.6947 11.9328 8.92567C11.9328 7.15624 13.3777 5.7171 15.1541 5.7171ZM29.7731 11.979C33.0049 11.979 35.6346 9.35935 35.6346 6.13928C35.6346 2.93878 32.6629 0.0239563 29.4008 0.0239563C27.8507 0.0239563 26.3622 0.691825 25.3181 1.85648C24.2463 3.05232 23.7361 4.6601 23.9194 6.26691C24.2934 9.57717 26.755 11.9791 29.7731 11.9791V11.979ZM27.0259 3.37622C27.6452 2.68557 28.4883 2.30514 29.4008 2.30514C31.3915 2.30514 33.3448 4.20462 33.3448 6.13919C33.3448 8.10141 31.7427 9.69798 29.7731 9.69798C27.6002 9.69798 26.3953 7.78692 26.194 6.01085C26.0846 5.04845 26.3876 4.08786 27.0259 3.37622H27.0259Z" fill="#FF3124"/>
</svg>
