<svg width="100" height="100" viewBox="0 0 100 100" fill="none" xmlns="http://www.w3.org/2000/svg">
<g clip-path="url(#clip0_2780_25238)">
<path d="M81.6159 52.6238C84.2625 54.1225 86.5427 56.1939 88.2905 58.6872C90.0383 61.1806 91.2097 64.0332 91.7197 67.0375C92.2296 70.0419 92.0652 73.1224 91.2384 76.055C90.4115 78.9877 88.9431 81.6986 86.9399 83.9907C84.9367 86.2828 82.4491 88.0984 79.658 89.3053C76.867 90.5123 73.8426 91.0803 70.8051 90.968C67.7676 90.8557 64.7932 90.066 62.0984 88.6563C59.4035 87.2465 57.056 85.2523 55.2266 82.8185H65.1339C68.46 82.8151 71.7072 81.8028 74.4487 79.9147C77.1903 78.0266 79.298 75.3511 80.4949 72.2397H82.5703C82.8973 72.2397 83.2185 72.1533 83.5017 71.9894C83.7849 71.8254 84.0201 71.5896 84.1836 71.3056C84.3436 71.0218 84.4276 70.7013 84.4276 70.3753C84.4276 70.0493 84.3436 69.7289 84.1836 69.445C84.0201 69.1611 83.7849 68.9253 83.5017 68.7613C83.2185 68.5974 82.8973 68.511 82.5703 68.511H81.4568C81.5628 67.774 81.6159 67.0304 81.6159 66.2858V52.6238Z" fill="#FF3124"/>
<path d="M84.1839 69.4451C84.3438 69.7289 84.4279 70.0494 84.4279 70.3754C84.4279 70.7014 84.3438 71.0218 84.1839 71.3057C84.0203 71.5896 83.7852 71.8254 83.502 71.9894C83.2188 72.1533 82.8975 72.2397 82.5705 72.2397H80.4951C80.9676 71.0412 81.2906 69.7889 81.457 68.511H82.5705C82.8975 68.511 83.2188 68.5974 83.502 68.7614C83.7852 68.9253 84.0203 69.1611 84.1839 69.4451Z" fill="white"/>
<path d="M81.6155 52.6239V66.2936C81.6155 67.0381 81.5624 67.7817 81.4564 68.5187H76.1543C76.2985 67.7856 76.3746 67.0407 76.3816 66.2936V50.5051C78.217 50.9607 79.9791 51.674 81.6155 52.6239Z" fill="#FF3124"/>
<path d="M81.6156 31.489V52.6237C79.9887 51.6765 78.237 50.9632 76.412 50.5049V41.0577H12.2036V66.2858C12.2056 69.2842 13.3945 72.1592 15.5092 74.2794C17.6238 76.3996 20.4914 77.5916 23.482 77.5936H52.3178C53.0237 79.4702 54.0039 81.231 55.2263 82.8185H23.482C19.1118 82.8104 14.9231 81.0658 11.8336 77.9668C8.7442 74.8679 7.00601 70.6674 7 66.2858V31.489C7.00401 27.1075 8.74179 22.9066 11.8319 19.8084C14.922 16.7102 19.1119 14.9679 23.482 14.9639H24.353V10.6124C24.334 10.2579 24.3871 9.90335 24.5092 9.57022C24.6313 9.23709 24.8199 8.9324 25.0634 8.67476C25.3069 8.41711 25.6001 8.21191 25.9253 8.07168C26.2505 7.93145 26.6008 7.85913 26.9548 7.85913C27.3088 7.85913 27.6591 7.93145 27.9843 8.07168C28.3095 8.21191 28.6028 8.41711 28.8463 8.67476C29.0898 8.9324 29.2783 9.23709 29.4004 9.57022C29.5226 9.90335 29.5757 10.2579 29.5567 10.6124V14.9639H41.6757V10.6124C41.6567 10.2579 41.7098 9.90335 41.8319 9.57022C41.9541 9.23709 42.1426 8.9324 42.3861 8.67476C42.6296 8.41711 42.9228 8.21191 43.248 8.07168C43.5732 7.93145 43.9235 7.85913 44.2775 7.85913C44.6315 7.85913 44.9818 7.93145 45.307 8.07168C45.6322 8.21191 45.9255 8.41711 46.169 8.67476C46.4125 8.9324 46.601 9.23709 46.7231 9.57022C46.8453 9.90335 46.8984 10.2579 46.8794 10.6124V14.9639H58.9984V10.6124C58.9794 10.2579 59.0325 9.90335 59.1546 9.57022C59.2768 9.23709 59.4653 8.9324 59.7088 8.67476C59.9523 8.41711 60.2455 8.21191 60.5707 8.07168C60.8959 7.93145 61.2462 7.85913 61.6002 7.85913C61.9542 7.85913 62.3045 7.93145 62.6297 8.07168C62.9549 8.21191 63.2482 8.41711 63.4917 8.67476C63.7352 8.9324 63.9237 9.23709 64.0458 9.57022C64.168 9.90335 64.2211 10.2579 64.2021 10.6124V14.9639H65.0731C67.2421 14.9579 69.391 15.3808 71.3967 16.2084C73.4025 17.036 75.2258 18.252 76.7624 19.7869C78.2989 21.3218 79.5184 23.1454 80.3512 25.1534C81.184 27.1614 81.6137 29.3143 81.6156 31.489ZM76.412 35.8405V31.489C76.406 28.4918 75.2158 25.6191 73.1021 23.4998C70.9883 21.3804 68.123 20.1871 65.1337 20.1811H64.2627V24.5326C64.2267 25.2001 63.9369 25.8284 63.4529 26.2882C62.9689 26.748 62.3276 27.0042 61.6609 27.0042C60.9941 27.0042 60.3527 26.748 59.8687 26.2882C59.3847 25.8284 59.0949 25.2001 59.059 24.5326V20.1811H46.9399V24.5326C46.904 25.2001 46.6142 25.8284 46.1302 26.2882C45.6462 26.748 45.0048 27.0042 44.3381 27.0042C43.6714 27.0042 43.03 26.748 42.546 26.2882C42.062 25.8284 41.7722 25.2001 41.7363 24.5326V20.1811H29.6172V24.5326C29.5813 25.2001 29.2915 25.8284 28.8075 26.2882C28.3235 26.748 27.6821 27.0042 27.0154 27.0042C26.3487 27.0042 25.7073 26.748 25.2233 26.2882C24.7393 25.8284 24.4495 25.2001 24.4136 24.5326V20.1811H23.5426C20.5532 20.1871 17.688 21.3804 15.5742 23.4998C13.4604 25.6191 12.2702 28.4918 12.2642 31.489V35.8405H76.412Z" fill="black" stroke="white" stroke-width="2"/>
<path d="M76.1853 68.511H81.4874C81.321 69.7889 80.9978 71.0412 80.5254 72.2397H74.7461C75.4413 71.0916 75.9285 69.8293 76.1853 68.511Z" fill="white"/>
<path d="M80.4942 72.2397C79.2974 75.3511 77.1897 78.0267 74.4481 79.9147C71.7065 81.8028 68.4593 82.8151 65.1333 82.8185H55.2259C54.0035 81.2311 53.0233 79.4702 52.3174 77.5937H65.1333C68.122 77.5922 70.988 76.4013 73.1016 74.2826C73.7182 73.6681 74.2598 72.9824 74.715 72.2397H80.4942Z" fill="#FF3124"/>
<path d="M76.4122 50.5051V66.286C76.4053 67.0331 76.3292 67.778 76.185 68.5111H73.284V59.2082C73.2885 58.9594 73.2432 58.7123 73.1509 58.4814C73.0585 58.2506 72.9209 58.0406 72.7462 57.864C72.5702 57.6874 72.3612 57.5476 72.1311 57.4524C71.901 57.3573 71.6544 57.3087 71.4055 57.3096C70.9113 57.3196 70.4409 57.5245 70.0963 57.8799C69.7518 58.2353 69.5609 58.7125 69.565 59.2082V70.3565C69.565 70.6025 69.6134 70.846 69.7075 71.0732C69.8016 71.3003 69.9395 71.5066 70.1133 71.6802C70.2872 71.8538 70.4935 71.9912 70.7204 72.0847C70.9474 72.1781 71.1905 72.2257 71.4358 72.2247H74.708C74.2528 72.9673 73.7112 73.6531 73.0946 74.2675C70.981 76.3862 68.1151 77.5771 65.1263 77.5786H52.318C51.442 75.2723 50.9953 72.8244 51 70.3565C51.0039 67.2425 51.7151 64.1703 53.0797 61.373C54.4443 58.5757 56.4264 56.1268 58.8757 54.212C61.3249 52.2972 64.1771 50.9669 67.2156 50.322C70.2541 49.6771 73.3991 49.7345 76.4122 50.4899V50.5051Z" fill="#FF3124"/>
<path d="M73.2838 68.5109H76.1772C75.9112 69.8312 75.4136 71.0936 74.7078 72.2397H71.4357C71.1897 72.2397 70.9461 72.1909 70.7191 72.096C70.492 72.0012 70.2859 71.8622 70.1127 71.6871C69.9395 71.5121 69.8026 71.3043 69.7098 71.0759C69.6171 70.8475 69.5703 70.6029 69.5723 70.3563V59.1928C69.5682 58.6971 69.7592 58.2199 70.1038 57.8645C70.4483 57.5091 70.9187 57.3042 71.413 57.2942C71.6619 57.2933 71.9084 57.3419 72.1385 57.437C72.3686 57.5322 72.5777 57.672 72.7536 57.8486C72.9283 58.0252 73.0659 58.2352 73.1583 58.4661C73.2507 58.6969 73.2959 58.944 73.2914 59.1928L73.2838 68.5109Z" fill="white"/>
<path d="M76.4117 50.5051C71.3899 49.2301 66.0727 49.9134 61.5339 52.4169C56.9951 54.9203 53.573 59.0575 51.9587 63.9927C50.3445 68.928 50.6584 74.2935 52.837 79.0057C55.0157 83.7179 58.8967 87.4255 63.6963 89.3798C68.4959 91.3341 73.8564 91.3894 78.695 89.5345C83.5337 87.6796 87.49 84.0528 89.7649 79.3865C92.0397 74.7203 92.4637 69.3623 90.951 64.3948C89.4383 59.4273 86.1018 55.2205 81.6153 52.6239C79.9884 51.6766 78.2367 50.9634 76.4117 50.5051V50.5051Z" stroke="white" stroke-width="3" stroke-miterlimit="10"/>
</g>
<defs>
<clipPath id="clip0_2780_25238">
<rect width="86" height="84" fill="white" transform="translate(7 8)"/>
</clipPath>
</defs>
</svg>
