<svg width="80" height="100" viewBox="0 0 80 100" fill="none" xmlns="http://www.w3.org/2000/svg">
<g clip-path="url(#clip0_2743_25225)">
<path d="M78.5207 66.4303L74.3869 62.4924V55.2584C74.3699 54.503 74.1737 53.7624 73.8143 53.0977C73.455 52.433 72.9428 51.8633 72.3201 51.4354L67.9972 48.5917V38.2169C68.0089 37.7509 67.9275 37.2872 67.7578 36.8531C67.5882 36.4189 67.3336 36.0229 67.0091 35.6883C66.6845 35.3537 66.2965 35.0872 65.8677 34.9044C65.439 34.7215 64.978 34.626 64.5119 34.6235C63.8156 34.6255 63.1342 34.8245 62.5463 35.1976L62.3099 35.3462C61.8168 34.7368 61.1937 34.2452 60.4862 33.9075L59.7365 33.563L60.9455 26.7545C61.1148 25.6799 61.0055 24.5799 60.6281 23.5596L58.7436 18.6694C58.4248 17.8729 57.8742 17.1905 57.163 16.7106C56.4564 16.2255 55.6222 15.96 54.7652 15.9474H52.7388C52.6565 15.2009 52.3867 14.4874 51.9544 13.8733C51.5222 13.2592 50.9416 12.7644 50.2667 12.435L45.059 9.98315C44.4243 9.68972 43.7319 9.54201 43.0327 9.55087C42.5948 9.54956 42.1587 9.60634 41.7358 9.71973C41.2932 9.16906 40.7357 8.72175 40.1021 8.40907C39.4686 8.09639 38.7744 7.9259 38.0681 7.90953H36.4538L36.2174 7.4097C35.8678 6.69108 35.3344 6.07767 34.6714 5.63165C34.0083 5.18564 33.239 4.92288 32.4416 4.87001L30.9894 4.78221L30.2667 3.35701C29.9314 2.7263 29.463 2.17608 28.8938 1.74452C28.3246 1.31297 27.6683 1.01042 26.9705 0.857854L23.188 0.0878443C22.8923 0.0282106 22.5913 -0.00120816 22.2897 3.79836e-05C21.2271 -0.00015648 20.1899 0.325139 19.3177 0.932154L17.8182 2.02638H4.70777C3.76614 2.03946 2.85689 2.37212 2.12912 2.96979C1.40136 3.56747 0.89828 4.39469 0.702369 5.31581L0.0269214 8.57822C-0.151593 9.50091 -0.00823427 10.4569 0.43307 11.2867C0.874374 12.1164 1.58692 12.7697 2.45178 13.1375L6.89622 15.0152L16.7037 35.6637C16.9829 36.2341 17.3842 36.7362 17.8792 37.1343C18.3741 37.5323 18.9505 37.8166 19.5676 37.9669L19.6757 39.0139C19.768 39.795 20.0585 40.5394 20.5196 41.1766C20.9806 41.8138 21.5969 42.3226 22.3099 42.6545L23.215 43.0598L23.8905 45.4644C24.2293 46.5677 24.8817 47.5487 25.7682 48.2878L30.1924 51.8339L33.34 67.1057V67.2003L30.1856 77.1429C29.9063 78.0724 29.8167 79.0487 29.9222 80.0135L31.2123 90.2128L30.3748 91.4624C29.8846 92.2178 29.648 93.1098 29.6993 94.0088C29.7555 94.9041 30.0909 95.7592 30.6585 96.4539L32.4822 98.6154C32.8166 99.0115 33.2268 99.337 33.6886 99.5726C34.1504 99.8083 34.6546 99.9495 35.1717 99.9878C35.6887 100.026 36.2083 99.961 36.6998 99.7961C37.1914 99.6312 37.6451 99.3698 38.0343 99.0274L38.7706 98.3519L40.6416 98.8788C40.9802 98.9732 41.3302 99.0209 41.6818 99.0206C42.1696 99.0243 42.6533 98.9303 43.1043 98.744C43.5552 98.5578 43.9643 98.2831 44.3074 97.9363C44.6505 97.5894 44.9207 97.1773 45.102 96.7244C45.2832 96.2714 45.372 95.7867 45.363 95.2989V91.4219L48.7402 89.7535C49.4655 89.3799 50.0756 88.8162 50.5051 88.1225C50.9346 87.4288 51.1674 86.6314 51.1786 85.8156V84.0054L54.3802 81.9791C55.019 81.557 55.5458 80.9862 55.9152 80.3155C56.2847 79.6449 56.4857 78.8946 56.5011 78.1291V74.5424C56.4891 73.7348 56.3779 72.9318 56.1701 72.1513C56.1402 72.0413 56.1041 71.9331 56.062 71.8271L55.6162 70.7194L55.7986 70.6181C56.1249 71.0017 56.5307 71.3097 56.9879 71.5208C57.4451 71.732 57.9428 71.8411 58.4464 71.8406C59.3027 71.8399 60.13 71.5306 60.7767 70.9693L61.3575 71.6447C62.0114 72.4279 62.9437 72.9267 63.958 73.0362C64.973 73.1445 65.9908 72.8592 66.8017 72.2391L68.3957 70.9963L68.828 71.2935C69.7787 71.9237 70.8892 72.2705 72.0296 72.2932H76.1363C76.8387 72.3275 77.5343 72.1417 78.126 71.7617C78.7177 71.3818 79.1761 70.8266 79.4371 70.1736C79.6981 69.5207 79.7488 68.8025 79.5821 68.1193C79.4154 67.4362 79.0396 66.8221 78.5072 66.3627L78.5207 66.4303ZM76.1498 69.2334H72.0431C71.5352 69.2118 71.0416 69.0581 70.6112 68.7876L68.9496 67.6393C68.7684 67.5235 68.5566 67.4646 68.3417 67.4705C68.0992 67.4609 67.8608 67.5349 67.6662 67.6799L64.8834 69.8345C64.716 69.9606 64.507 70.0182 64.2987 69.9956C64.0904 69.973 63.8986 69.872 63.7621 69.713L61.5737 67.0787C61.5088 67.0003 61.4286 66.9359 61.3381 66.8894C61.2475 66.843 61.1484 66.8155 61.0468 66.8085C60.9455 66.8023 60.844 66.8171 60.7487 66.852C60.6534 66.8868 60.5663 66.941 60.493 67.0112L58.8044 68.585C58.76 68.6379 58.7055 68.6813 58.6439 68.7126C58.5824 68.744 58.5152 68.7626 58.4464 68.7673C58.2843 68.7673 58.1357 68.6323 58.0006 68.3756L57.1968 67.2003C56.9671 66.8626 56.6902 66.6059 56.2714 66.8356L52.4416 68.9497C52.2512 69.0645 52.1025 69.2372 52.0174 69.4427C51.9323 69.6481 51.9153 69.8754 51.9688 70.0912L53.1644 73.0497C53.2939 73.5533 53.3664 74.0699 53.3805 74.5897V78.1763C53.3661 78.4157 53.2979 78.6487 53.181 78.858C53.064 79.0674 52.9013 79.2476 52.7051 79.3854L48.7334 81.871C48.5366 82.0066 48.3734 82.1855 48.2563 82.3939C48.1393 82.6023 48.0714 82.8347 48.058 83.0733V85.8224C48.0519 86.0535 47.9866 86.2792 47.8684 86.4779C47.7501 86.6766 47.5828 86.8416 47.3825 86.9571L42.9921 89.1388C42.7918 89.2544 42.6246 89.4194 42.5063 89.6181C42.388 89.8167 42.3227 90.0424 42.3167 90.2736V95.3057C42.3189 95.3981 42.2989 95.4898 42.2586 95.573C42.2182 95.6562 42.1585 95.7286 42.0845 95.7841C42.0105 95.8396 41.9243 95.8766 41.8331 95.8921C41.7419 95.9076 41.6483 95.901 41.5602 95.873L38.8111 95.103C38.7029 95.0759 38.5917 95.0623 38.4801 95.0625C38.1127 95.0566 37.7546 95.1783 37.467 95.407L36.0485 96.6498C35.8908 96.7835 35.6876 96.8512 35.4812 96.8389C35.3788 96.8314 35.2789 96.8036 35.1873 96.7573C35.0957 96.7109 35.0142 96.6468 34.9476 96.5688L33.1239 94.4073C32.9844 94.2309 32.902 94.0162 32.8875 93.7918C32.873 93.5674 32.9272 93.3439 33.0428 93.151L34.0762 91.584C34.3292 91.1512 34.4446 90.6518 34.4072 90.152L33.0563 79.588C33.0096 79.0752 33.0554 78.5582 33.1914 78.0615L36.3863 68.0379C36.5211 67.5428 36.5487 67.0247 36.4673 66.5181L33.2319 50.8342C33.1093 50.3467 32.8406 49.9084 32.4619 49.5779L27.7675 45.8224C27.3896 45.484 27.1057 45.0535 26.9435 44.5728L26.0722 41.5198C25.9087 41.0567 25.5756 40.6728 25.1401 40.4458L23.6203 39.7704C23.4091 39.6639 23.2265 39.5084 23.0878 39.3169C22.9492 39.1253 22.8584 38.9033 22.8233 38.6694L22.5058 35.5488C22.4741 35.3477 22.3672 35.166 22.2067 35.0407C22.0462 34.9153 21.8441 34.8555 21.6412 34.8734C21.3103 34.8734 20.9658 34.9612 20.6348 34.9612C20.4217 34.9565 20.2138 34.8952 20.0322 34.7836C19.8506 34.672 19.7019 34.5142 19.6014 34.3263L9.62503 13.3064C9.3879 12.8631 9.01674 12.5061 8.56458 12.2864L3.74188 10.2601C3.5427 10.1675 3.37901 10.0127 3.27546 9.81899C3.1719 9.62529 3.13411 9.40318 3.16775 9.18612L3.8432 5.92371C3.89483 5.70956 4.01529 5.51827 4.18611 5.37918C4.35692 5.24008 4.56866 5.16087 4.78883 5.1537H18.1222C18.6294 5.13467 19.121 4.97315 19.5406 4.68764L21.2292 3.45833C21.5659 3.24256 21.9573 3.12771 22.3572 3.12736C22.6514 3.14767 22.9431 3.19516 23.2285 3.2692L26.4234 3.94465C26.6581 4.00559 26.8782 4.11288 27.0707 4.26021C27.2633 4.40753 27.4244 4.59191 27.5446 4.80247L28.7267 7.11926C28.8457 7.32428 29.0108 7.49877 29.2089 7.6289C29.407 7.75904 29.6328 7.84124 29.8682 7.869L32.3201 8.0176C32.5552 8.04037 32.7809 8.12149 32.9767 8.25359C33.1725 8.3857 33.3322 8.56462 33.4413 8.7741L34.191 10.3546C34.3054 10.553 34.4683 10.7191 34.6644 10.8372C34.8605 10.9554 35.0835 11.0218 35.3123 11.0301H38.1222C38.3648 11.0466 38.6009 11.1156 38.8143 11.2322C39.0277 11.3488 39.2133 11.5103 39.3582 11.7055L40.493 13.3266C40.5374 13.3876 40.5952 13.4376 40.6619 13.4727C40.7287 13.5078 40.8026 13.5272 40.878 13.5292C41.0115 13.5222 41.1413 13.4828 41.2562 13.4144L42.3437 12.8606C42.5671 12.7619 42.8087 12.711 43.0529 12.711C43.2972 12.711 43.5387 12.7619 43.7621 12.8606L48.9631 15.3124C49.1678 15.4225 49.3406 15.5836 49.4648 15.78C49.5891 15.9764 49.6605 16.2016 49.6723 16.4337V18.3452C49.672 18.4481 49.6921 18.5501 49.7315 18.6452C49.771 18.7403 49.8289 18.8266 49.902 18.8991C49.9757 18.9723 50.0632 19.0303 50.1594 19.0697C50.2556 19.1091 50.3586 19.1292 50.4626 19.1287H54.8057C55.0338 19.1392 55.2544 19.213 55.4429 19.3418C55.6314 19.4707 55.7803 19.6495 55.8729 19.8582L57.7912 24.7552C57.954 25.2396 58.0048 25.7546 57.9398 26.2614L56.4403 34.6775C56.4102 34.8979 56.4493 35.1222 56.5521 35.3194C56.655 35.5166 56.8165 35.677 57.0144 35.7785L59.2502 36.7984C59.6925 37.0303 60.0444 37.4037 60.2498 37.8589L60.8172 39.3111C60.9253 39.5813 61.1211 39.7906 61.4318 39.6623C61.7425 39.534 64.2687 37.9062 64.2687 37.9062C64.3308 37.8485 64.4093 37.8117 64.4934 37.801C64.5774 37.7903 64.6627 37.8061 64.7372 37.8464C64.8117 37.8866 64.8718 37.9492 64.9089 38.0254C64.946 38.1015 64.9584 38.1874 64.9442 38.2709V49.5441C64.9595 49.7842 65.0281 50.0178 65.1449 50.2281C65.2617 50.4384 65.4239 50.6201 65.6196 50.7599L70.699 54.0966C70.8934 54.2378 71.0546 54.4198 71.1712 54.6298C71.2879 54.8398 71.3573 55.0728 71.3744 55.3124V63.1071C71.3959 63.6108 71.5972 64.09 71.9418 64.458L76.4808 68.7741C76.7983 69.078 76.697 69.3145 76.2647 69.3145L76.1498 69.2334Z" fill="black"/>
<path d="M44.0329 46.1804L45.0123 43.1611L42.4793 41.2834V38.102L39.4601 37.1226L38.3996 34.1844H35.2183L33.3405 31.6515L30.3213 32.6309L27.7951 30.6721L25.1811 32.5634L22.1619 31.584L20.2841 34.1169H17.1028L16.1234 37.1362L13.1041 38.1156V41.2969L10.5712 43.1747L11.5506 46.1939L9.67285 48.7741L11.5506 51.3813L10.5712 54.4006L13.1041 56.2783V59.4664L16.1234 60.4391L17.1028 63.4651H20.2841L22.1619 65.9913L25.1811 65.0119L27.7951 66.8896L30.4023 65.0119L33.4216 65.9913L35.2993 63.4651H38.4807L39.4601 60.4391L42.4793 59.4597V56.2783L45.0123 54.4006L44.0329 51.3813L45.9106 48.7741L44.0329 46.1804ZM27.8221 61.7697C25.2537 61.7764 22.7409 61.021 20.6019 59.5992C18.4629 58.1774 16.7936 56.153 15.8055 53.7822C14.8173 51.4114 14.5546 48.8008 15.0506 46.2807C15.5466 43.7605 16.779 41.4442 18.5919 39.6247C20.4048 37.8052 22.7166 36.5643 25.235 36.0592C27.7533 35.554 30.3648 35.8072 32.7392 36.7867C35.1136 37.7662 37.144 39.428 38.5736 41.5618C40.0033 43.6957 40.7678 46.2056 40.7705 48.7741C40.7749 50.4803 40.4425 52.1705 39.7922 53.7479C39.142 55.3253 38.1867 56.7588 36.9812 57.9661C35.7757 59.1735 34.3437 60.131 32.7674 60.7837C31.191 61.4364 29.5013 61.7715 27.7951 61.7697H27.8221Z" fill="#FF3124"/>
<path d="M27.7943 30.6722L30.3205 32.631L33.3398 31.6516L35.2175 34.1845H38.3989L39.4593 37.1227L42.4786 38.1021V41.2835L45.0115 43.1612L44.0321 46.1804L45.9099 48.7742L44.0321 51.3814L45.0115 54.4006L42.4786 56.2784V59.4597L39.4593 60.4391L38.4799 63.4854H35.2986L33.4208 66.0116L30.3746 65.0322L27.7673 66.9099L25.1533 65.0322L22.1341 66.0116L20.2564 63.4854H17.075L16.0956 60.4594L13.0763 59.4868V56.2986L10.5434 54.4209L11.5228 51.4017L9.67209 48.7742L11.5498 46.1602L10.5704 43.1409L13.1034 41.2632V38.1021L16.1226 37.1227L17.102 34.1034H20.2834L22.1611 31.5705L25.1804 32.5499L27.7943 30.6722ZM27.7943 61.7428C30.3637 61.7481 32.8768 60.9909 35.0156 59.5671C37.1543 58.1432 38.8225 56.1168 39.8088 53.7443C40.7951 51.3718 41.0553 48.76 40.5563 46.2396C40.0574 43.7192 38.8217 41.4035 37.0059 39.5857C35.19 37.768 32.8756 36.5299 30.3557 36.0284C27.8358 35.5268 25.2237 35.7842 22.8502 36.7681C20.4767 37.7519 18.4485 39.418 17.0225 41.5552C15.5964 43.6925 14.8366 46.2048 14.8393 48.7742C14.8366 50.4794 15.1706 52.1684 15.8222 53.7443C16.4737 55.3202 17.43 56.752 18.6361 57.9575C19.8422 59.163 21.2745 60.1185 22.8507 60.7692C24.4269 61.4199 26.1161 61.7531 27.8214 61.7495L27.7943 61.7428ZM27.8619 28.1257L26.6326 29.0106L24.8562 30.2872L22.8298 29.6117L21.4789 29.1592L20.6143 30.3277L19.3445 32.0433H15.7106L15.2513 33.4415L14.5758 35.4678L12.5495 36.1433L11.1513 36.6026V40.2365L9.43568 41.5064L8.26715 42.3709L8.71971 43.7556L9.39515 45.7819L8.11856 47.5651L7.17969 48.7742L8.03075 49.9562L9.30734 51.7326L8.6319 53.759L8.17935 55.1436L9.34787 56.0082L11.0635 57.278V60.9322L12.4617 61.3848L14.488 62.0602L15.1635 64.0866L15.6228 65.4915H19.2567L20.5265 67.2004L21.3911 68.3689L22.742 67.9163L24.7683 67.2409L26.5448 68.5243L27.7336 69.3753L28.9156 68.5243L30.692 67.2409L32.7184 67.9163L34.0693 68.3689L34.9338 67.2004L36.2037 65.4915H39.8443L40.2969 64.0866L40.9723 62.0602L42.9987 61.3848L44.3968 60.9322V57.2916L46.1125 56.0217L47.281 55.1571L46.8285 53.7725L46.153 51.7461L47.4364 49.9697L48.2807 48.7877L47.4364 47.6056L46.153 45.8225L46.8285 43.7961L47.281 42.4114L46.1125 41.5469L44.3968 40.277V36.6161L42.9987 36.1568L40.925 35.4814L40.2023 33.455L39.716 32.1041H36.1294L34.8595 30.3885L33.995 29.22L32.6103 29.6725L30.5839 30.348L29.0237 29.0714L27.8281 28.146L27.8619 28.1257ZM27.8214 59.7232C25.6528 59.7299 23.531 59.0928 21.7248 57.8928C19.9185 56.6927 18.5091 54.9836 17.6749 52.9819C16.8407 50.9802 16.6193 48.776 17.0387 46.6483C17.4582 44.5207 18.4996 42.5655 20.0311 41.0301C21.5627 39.4948 23.5153 38.4486 25.6419 38.0239C27.7685 37.5992 29.9733 37.8151 31.977 38.6444C33.9808 39.4736 35.6934 40.8788 36.8979 42.6821C38.1024 44.4854 38.7447 46.6056 38.7434 48.7742C38.7398 51.6769 37.5851 54.4598 35.5325 56.5123C33.4799 58.5649 30.6971 59.7196 27.7943 59.7232H27.8214Z" fill="white"/>
<path d="M27.7947 37.3657C25.5332 37.3644 23.3221 38.034 21.4414 39.2899C19.5606 40.5458 18.0948 42.3314 17.2293 44.4208C16.3639 46.5101 16.1378 48.8093 16.5796 51.0272C17.0215 53.2451 18.1114 55.2821 19.7115 56.8803C21.3116 58.4785 23.3498 59.566 25.5683 60.0052C27.7867 60.4445 30.0856 60.2157 32.174 59.3477C34.2623 58.4798 36.0462 57.0119 37.2998 55.1296C38.5535 53.2474 39.2205 51.0355 39.2165 48.774C39.197 45.752 37.9869 42.8596 35.8488 40.7239C33.7106 38.5883 30.8167 37.3817 27.7947 37.3657Z" fill="#FF3124"/>
<path d="M29.2942 43.8634V53.7317H26.5924V46.3018H26.5316L24.377 47.5919V45.3224L26.8018 43.8364L29.2942 43.8634Z" fill="white"/>
</g>
<defs>
<clipPath id="clip0_2743_25225">
<rect width="79.6825" height="100" fill="white"/>
</clipPath>
</defs>
</svg>
