<svg width="100" height="100" viewBox="0 0 100 100" fill="none" xmlns="http://www.w3.org/2000/svg">
<g clip-path="url(#clip0_2780_25294)">
<path d="M42.7272 52.1998C42.7272 55.2989 38.0229 55.2989 38.0229 52.1998V45.4644H32.7812V59.8788H47.995V45.4644H42.7534L42.7272 52.1998Z" fill="#FF3124"/>
<path d="M61.9772 52.1998C61.9772 55.2989 57.2729 55.2989 57.2729 52.1998V45.4644H52.0312V59.8788H67.2319V45.4644H61.9903L61.9772 52.1998Z" fill="#FF3124"/>
<path d="M42.7272 71.3055C42.7272 74.4046 38.0229 74.4046 38.0229 71.3055V64.5701H32.7812V78.9845H47.995V64.5701H42.7534L42.7272 71.3055Z" fill="#FF3124"/>
<path d="M61.9772 71.3055C61.9772 74.4046 57.2729 74.4046 57.2729 71.3055V64.5701H52.0312V78.9845H67.2319V64.5701H61.9903L61.9772 71.3055Z" fill="#FF3124"/>
<path d="M88.5261 29.7396L50.6752 16.1507C50.2512 16.0009 49.7887 16.0009 49.3648 16.1507L11.3631 29.7986C10.9797 29.9341 10.6478 30.1852 10.4131 30.5173C10.1784 30.8494 10.0525 31.2461 10.0527 31.6528V82.9419C10.0527 83.4632 10.2598 83.9632 10.6284 84.3318C10.9971 84.7004 11.497 84.9075 12.0183 84.9075H88.0216C88.5429 84.9075 89.0429 84.7004 89.4115 84.3318C89.7801 83.9632 89.9872 83.4632 89.9872 82.9419V31.62C89.983 31.1899 89.8378 30.773 89.5738 30.4334C89.3099 30.0937 88.9419 29.85 88.5261 29.7396ZM76.6473 80.9632H72.0609V80.8453H68.1297V80.9239H55.2943V80.8453H51.3631V80.9304H48.6834V80.8453H44.7522V80.9239H31.9168V80.8453H27.9856V80.9304H23.3992V40.8125H76.667L76.6473 80.9632ZM86.056 80.9632H80.6047V38.8338C80.6047 38.3125 80.3976 37.8125 80.029 37.4439C79.6604 37.0753 79.1605 36.8682 78.6391 36.8682H21.3877C20.8664 36.8682 20.3664 37.0753 19.9978 37.4439C19.6292 37.8125 19.4221 38.3125 19.4221 38.8338V80.9304H13.9708V33.0156L50.0069 20.0819L86.0429 33.0156L86.056 80.9632Z" fill="black" stroke="white"/>
</g>
<defs>
<clipPath id="clip0_2780_25294">
<rect width="80" height="68.8812" fill="white" transform="translate(10 16)"/>
</clipPath>
</defs>
</svg>
