<svg width="74" height="84" viewBox="0 0 74 84" fill="none" xmlns="http://www.w3.org/2000/svg">
<g clip-path="url(#clip0_2743_25309)">
<path d="M44.4527 50.3975C46.9806 49.3166 49.2477 47.7068 51.1015 45.6766C53.5747 43.0368 55.2705 39.765 56.0016 36.2224C60.5554 33.2343 64.4338 29.3268 67.3879 24.7509C70.342 20.1751 72.3064 15.0319 73.155 9.65184C73.1916 9.40636 73.1793 9.15609 73.1188 8.91538C73.0584 8.67467 72.951 8.44826 72.8029 8.24917C72.4245 7.8973 71.9228 7.7086 71.4063 7.72393H57.4043C57.7472 5.94222 58.2159 4.18705 58.807 2.47161C58.9219 1.94096 58.859 1.38722 58.6278 0.895927C58.4832 0.648296 58.2804 0.439568 58.0371 0.287776C57.7938 0.135983 57.5173 0.0456833 57.2313 0.0246582H15.9295C15.3909 0.0733128 14.8903 0.32253 14.5268 0.72291C14.3706 0.951056 14.2731 1.21421 14.2429 1.48907C14.2127 1.76393 14.2508 2.04199 14.3538 2.2986C14.879 4.04731 15.2251 5.79602 15.7503 7.55092H1.75443C1.23631 7.53661 0.733041 7.72506 0.351741 8.07615C0.0693812 8.55041 -0.0540308 9.10249 -0.000477392 9.65184C1.75441 20.6755 7.87801 30.4757 16.98 36.2224C17.7503 39.7949 19.4393 43.1047 21.8801 45.8249C23.7312 47.8659 25.9984 49.4862 28.5289 50.5767V58.1029C29.5793 63.176 26.9532 65.277 24.154 67.5509C22.7513 68.7868 21.3548 69.8249 20.4774 71.4006H14.5268C14.2934 71.3861 14.0596 71.4214 13.8409 71.5042C13.6222 71.587 13.4235 71.7153 13.2582 71.8806C13.0928 72.046 12.9645 72.2446 12.8817 72.4633C12.799 72.6821 12.7637 72.9159 12.7781 73.1493V82.2821C12.7637 82.5155 12.799 82.7493 12.8817 82.9681C12.9645 83.1868 13.0928 83.3854 13.2582 83.5508C13.4235 83.7161 13.6222 83.8444 13.8409 83.9272C14.0596 84.01 14.2934 84.0453 14.5268 84.0308H58.2817C58.5159 84.0461 58.7506 84.0115 58.9704 83.9291C59.1901 83.8468 59.3899 83.7188 59.5564 83.5534C59.7229 83.3881 59.8524 83.1892 59.9362 82.9701C60.0201 82.7509 60.0564 82.5164 60.0428 82.2821V73.1493C60.0563 72.9161 60.0202 72.6827 59.9371 72.4645C59.854 72.2462 59.7256 72.048 59.5605 71.8828C59.3953 71.7177 59.1972 71.5893 58.9789 71.5062C58.7606 71.4231 58.5272 71.3871 58.2941 71.4006H52.3435C51.4661 69.8249 50.0634 68.6014 48.8399 67.3717C46.2137 65.0978 43.7668 62.8238 44.292 57.9237V50.3975H44.4527ZM56.879 11.7219C56.8533 11.4761 56.9145 11.229 57.052 11.0236H69.4784C67.7663 19.1888 63.2469 26.4959 56.706 31.6745C56.5268 31.3223 56.1808 17.3264 56.879 11.7219V11.7219ZM16.6277 31.6745C10.0522 26.5268 5.52434 19.206 3.85535 11.0236H16.2755C17.5114 13.9958 16.6277 31.3223 16.6277 31.6745ZM56.706 74.898V80.5025H16.4547V74.898H56.706ZM46.7266 69.9979C47.2519 70.5231 47.7771 70.8753 48.3023 71.4006H25.2045C25.6306 70.9461 26.0981 70.5324 26.601 70.1647C29.2271 68.0638 32.7307 65.0854 32.3785 59.314H40.9552C40.9552 64.7517 44.1067 67.7239 46.7266 69.9979ZM41.1283 55.8228H31.8595C31.8483 55.7279 31.858 55.6318 31.8878 55.541C31.9177 55.4503 31.9671 55.3672 32.0325 55.2976V51.6271C34.9092 52.3263 37.9117 52.3263 40.7884 51.6271H40.9614C40.9614 51.6271 40.9614 55.6498 41.1345 55.8228H41.1283ZM36.5618 48.6488C34.2982 48.6382 32.0605 48.1671 29.9847 47.2641C27.909 46.3611 26.0387 45.0452 24.4877 43.3964C22.9332 41.7454 21.7409 39.7876 20.9875 37.6487C20.2341 35.5098 19.9362 33.2371 20.1128 30.9763C20.8111 19.9464 20.2858 11.0236 18.3579 3.49736H54.7596C52.8379 11.0236 52.1334 19.9464 53.0109 30.9763C53.2004 33.2381 52.9085 35.5143 52.1544 37.6552C51.4003 39.796 50.2012 41.7527 48.636 43.3964C47.085 45.0452 45.2147 46.3611 43.139 47.2641C41.0632 48.1671 38.8255 48.6382 36.5618 48.6488Z" fill="black"/>
<path d="M36.5623 38.657C35.1411 38.657 33.5222 39.7507 32.2369 39.275C30.9516 38.7992 30.2348 37.0134 29.1473 36.1854C28.0598 35.3573 26.1133 35.277 25.2729 34.1833C24.4326 33.0896 24.9455 31.2111 24.5623 29.8579C24.1792 28.5046 22.6221 27.3862 22.6221 25.9217C22.6221 24.4572 24.1731 23.2708 24.5623 21.9794C24.9516 20.6879 24.4944 18.8156 25.2729 17.6539C26.0515 16.4923 28.0474 16.4181 29.1473 15.6519C30.2472 14.8857 30.9516 13.0072 32.2369 12.5623C33.5222 12.1174 35.1473 13.1802 36.5623 13.1802C37.9774 13.1802 39.5963 12.0865 40.8878 12.5623C42.1792 13.0381 42.8898 14.8177 43.9774 15.6519C45.0649 16.4861 47.0175 16.5602 47.8517 17.6539C48.6859 18.7477 48.1792 20.6261 48.5623 21.9794C48.9454 23.3326 50.5026 24.4511 50.5026 25.9217C50.5026 27.3924 48.9516 28.5664 48.5623 29.8579C48.173 31.1493 48.6303 33.0278 47.8517 34.1833C47.0732 35.3388 45.0773 35.4191 43.9774 36.1854C42.8775 36.9516 42.173 38.83 40.8878 39.275C39.6025 39.7199 38.0021 38.657 36.5623 38.657Z" fill="#FF3124"/>
<path d="M40.7644 27.6334L44.9415 23.5428L39.1455 22.69L36.5873 17.4006L33.9426 22.69L28.1465 23.5428L32.3236 27.6334L31.2979 33.4356L36.5008 30.7044L41.7036 33.4356L40.7644 27.6334Z" fill="white"/>
</g>
<defs>
<clipPath id="clip0_2743_25309">
<rect width="73.1493" height="84" fill="white"/>
</clipPath>
</defs>
</svg>
