<svg width="100" height="100" viewBox="0 0 100 100" fill="none" xmlns="http://www.w3.org/2000/svg">
<g clip-path="url(#clip0_2780_25256)">
<path d="M83.7166 86.1427H82.8714V48.2844H17.7445V86.1427H16.8994C16.3879 86.1427 15.8973 86.3459 15.5356 86.7076C15.1739 87.0693 14.9707 87.5598 14.9707 88.0713C14.9707 88.5828 15.1739 89.0734 15.5356 89.4351C15.8973 89.7968 16.3879 90 16.8994 90H83.6876C84.1992 90 84.6897 89.7968 85.0514 89.4351C85.4131 89.0734 85.6163 88.5828 85.6163 88.0713C85.6163 87.5598 85.4131 87.0693 85.0514 86.7076C84.6897 86.3459 84.1992 86.1427 83.6876 86.1427H83.7166Z" fill="black" stroke="white"/>
<path d="M71.314 59.1702H54.6133V86.1426H71.314V59.1702Z" fill="white"/>
<path d="M79.0142 86.1427H75.164V57.2488C75.1566 56.7396 74.951 56.2534 74.5909 55.8933C74.2308 55.5332 73.7446 55.3276 73.2354 55.3201H52.6846C52.1743 55.3221 51.6856 55.5261 51.3255 55.8876C50.9653 56.2491 50.7631 56.7385 50.7632 57.2488V86.1427H21.6309V43.6831H22.5049C23.5596 43.6752 24.6003 43.4416 25.5572 42.9981C26.514 42.5545 27.3649 41.9113 28.0525 41.1116C28.7488 41.904 29.606 42.5388 30.567 42.9736C31.5279 43.4085 32.5706 43.6335 33.6254 43.6335C34.6802 43.6335 35.7229 43.4085 36.6839 42.9736C37.6449 42.5388 38.5021 41.904 39.1984 41.1116C39.8926 41.9035 40.7479 42.538 41.7071 42.9727C42.6663 43.4074 43.7073 43.6323 44.7604 43.6323C45.8136 43.6323 46.8545 43.4074 47.8137 42.9727C48.7729 42.538 49.6283 41.9035 50.3225 41.1116C51.0167 41.9035 51.872 42.538 52.8313 42.9727C53.7905 43.4074 54.8315 43.6323 55.8846 43.6323C56.9377 43.6323 57.9787 43.4074 58.9379 42.9727C59.8971 42.538 60.7524 41.9035 61.4467 41.1116C62.1436 41.9041 63.0014 42.539 63.963 42.974C64.9246 43.4089 65.9678 43.6338 67.0232 43.6338C68.0785 43.6338 69.1218 43.4089 70.0834 42.974C71.045 42.539 71.9028 41.9041 72.5997 41.1116C73.2864 41.9124 74.1371 42.5564 75.0942 43C76.0512 43.4437 77.0924 43.6766 78.1473 43.6831H79.0214L79.0142 86.1427Z" fill="white" stroke="white"/>
<path d="M42.825 55.3201H27.4101C26.9021 55.3275 26.417 55.5321 26.0571 55.8906C25.6972 56.2492 25.4908 56.7336 25.4814 57.2415V72.6564C25.4889 73.1656 25.6945 73.6518 26.0546 74.0119C26.4147 74.372 26.9009 74.5776 27.4101 74.5851H42.825C43.0779 74.5851 43.3284 74.5351 43.562 74.4381C43.7956 74.3411 44.0077 74.1989 44.1862 74.0197C44.3647 73.8406 44.5061 73.6279 44.6023 73.3939C44.6984 73.16 44.7474 72.9094 44.7464 72.6564V57.2415C44.7464 56.7319 44.544 56.2432 44.1837 55.8828C43.8233 55.5225 43.3346 55.3201 42.825 55.3201Z" fill="black" stroke="white"/>
<path d="M40.8886 59.1702H29.3311V70.7277H40.8886V59.1702Z" fill="white"/>
<path d="M18.1277 33.1152C17.6641 33.1152 17.2194 33.2994 16.8916 33.6272C16.5638 33.9551 16.3796 34.3997 16.3796 34.8633C16.3204 37.5108 16.9874 40.1239 18.3083 42.4191C18.8128 43.3649 19.5142 44.1915 20.3653 44.8432C21.2164 45.4949 22.1973 45.9565 23.2419 46.1969C24.6794 46.3823 26.1331 46.0072 27.3015 45.1495C28.6708 44.1337 29.7393 42.7657 30.3932 41.1911C30.4437 41.0683 30.5304 40.9888 30.6316 40.996C30.7 41.0022 30.7649 41.029 30.8178 41.0728C30.8707 41.1167 30.909 41.1756 30.9277 41.2416C32.329 44.3622 34.7345 46.2475 37.3133 46.2475C39.892 46.2475 42.2974 44.3694 43.6988 41.2416C43.8866 40.8299 44.0816 40.8299 44.2694 41.2416C45.678 44.3622 48.0762 46.2475 50.655 46.2475C53.2338 46.2475 55.6392 44.3622 57.0406 41.2416C57.185 40.9166 57.4595 40.9166 57.604 41.2416C59.0487 44.3694 61.4108 46.2475 63.9896 46.2475C66.5683 46.2475 68.9737 44.3622 70.3751 41.2416C70.3947 41.176 70.4333 41.1177 70.486 41.074C70.5387 41.0303 70.6032 41.0032 70.6713 40.996C70.7275 40.9985 70.7816 41.0187 70.8257 41.0538C70.8698 41.0888 70.9017 41.1368 70.9168 41.1911C72.3182 44.3477 74.7308 46.2475 77.3313 46.2475C77.573 46.2479 77.8144 46.231 78.0536 46.1969C79.0969 45.9556 80.0766 45.4943 80.9274 44.8441C81.7782 44.1939 82.4805 43.3696 82.9873 42.4263C84.3072 40.1278 84.9764 37.5133 84.9232 34.8633C84.9232 34.3997 84.739 33.9551 84.4112 33.6272C84.0833 33.2994 83.6387 33.1152 83.1751 33.1152H18.1277Z" fill="#FF3124"/>
<path d="M80.6971 13.3734C80.4782 12.41 79.9287 11.5538 79.1441 10.9535C78.3384 10.3341 77.3504 9.99882 76.3341 10H24.1662C23.1499 9.99882 22.1619 10.3341 21.3562 10.9535C20.5697 11.5552 20.0199 12.4144 19.8032 13.3806L16.2998 29.5034H20.3088L23.6461 14.1318C23.6754 14.0148 23.7435 13.9111 23.8392 13.8377C23.935 13.7642 24.0528 13.7253 24.1734 13.7273H76.3341C76.4539 13.7257 76.5706 13.7648 76.6651 13.8383C76.7597 13.9119 76.8264 14.0154 76.8542 14.1318L80.1915 29.5034H84.2005L80.6971 13.3734Z" fill="black" stroke="white"/>
</g>
<defs>
<clipPath id="clip0_2780_25256">
<rect width="70.6456" height="80" fill="white" transform="translate(15 10)"/>
</clipPath>
</defs>
</svg>
