<svg width="84" height="64" viewBox="0 0 84 64" fill="none" xmlns="http://www.w3.org/2000/svg">
<g clip-path="url(#clip0_2743_25321)">
<path d="M43.0507 32.678L45.0969 50.0894L42.0153 53.9723L38.9336 50.0894L40.9798 32.678C40.9798 32.641 40.9798 32.5978 40.9798 32.5547H43.1123C43.063 32.5978 43.0507 32.641 43.0507 32.678Z" fill="#FF3124"/>
<path d="M81.8981 58.8044C82.1833 58.7889 82.4686 58.8317 82.7367 58.9302C83.0047 59.0287 83.2499 59.1808 83.4572 59.3772C83.6646 59.5736 83.8297 59.8102 83.9425 60.0725C84.0554 60.3348 84.1136 60.6174 84.1136 60.903C84.1136 61.1886 84.0554 61.4712 83.9425 61.7335C83.8297 61.9958 83.6646 62.2324 83.4572 62.4288C83.2499 62.6252 83.0047 62.7773 82.7367 62.8758C82.4686 62.9742 82.1833 63.0171 81.8981 63.0016H2.09534C1.55842 62.9725 1.0531 62.7387 0.683315 62.3483C0.313532 61.958 0.107422 61.4407 0.107422 60.903C0.107422 60.3653 0.313532 59.848 0.683315 59.4577C1.0531 59.0673 1.55842 58.8335 2.09534 58.8044H4.19706V44.3329C4.19007 41.7758 4.85473 39.2617 6.12457 37.0422C7.3944 34.8227 9.22487 32.9756 11.4328 31.6857C9.81355 29.6815 8.79455 27.2599 8.4936 24.7009C8.19264 22.142 8.62202 19.5501 9.73209 17.2248C10.8422 14.8996 12.5876 12.936 14.7667 11.561C16.9457 10.186 19.4694 9.45571 22.046 9.45461C22.3312 9.43915 22.6165 9.48196 22.8846 9.58044C23.1526 9.67892 23.3978 9.831 23.6051 10.0274C23.8125 10.2238 23.9776 10.4604 24.0905 10.7227C24.2033 10.985 24.2615 11.2676 24.2615 11.5532C24.2615 11.8388 24.2033 12.1214 24.0905 12.3837C23.9776 12.646 23.8125 12.8826 23.6051 13.079C23.3978 13.2754 23.1526 13.4275 22.8846 13.526C22.6165 13.6245 22.3312 13.6673 22.046 13.6518C20.0648 13.6518 18.1338 14.275 16.5264 15.4332C14.9189 16.5914 13.7165 18.2259 13.0893 20.1052C12.4622 21.9846 12.4421 24.0136 13.0319 25.905C13.6218 27.7964 14.7916 29.4544 16.3758 30.6441C16.6869 30.8742 16.9278 31.1863 17.0715 31.5455C17.2152 31.9047 17.256 32.2969 17.1893 32.678C17.1217 33.0584 16.9517 33.4131 16.6976 33.7041C16.4435 33.9952 16.1149 34.2115 15.7471 34.3298C13.6166 34.9969 11.7549 36.3271 10.4333 38.1265C9.11179 39.9259 8.39957 42.1003 8.40045 44.3329V58.8044H20.9983V38.9769C21.0058 36.1446 21.8287 33.3742 23.3686 30.997C24.9086 28.6198 27.1005 26.7364 29.6824 25.5717C27.8368 23.2525 26.6829 20.4596 26.3533 17.514C26.0237 14.5684 26.5318 11.5896 27.8192 8.91979C29.1066 6.25 31.1211 3.99756 33.6312 2.42127C36.1412 0.844979 39.0451 0.00878906 42.0091 0.00878906C44.973 0.00878906 47.8769 0.844979 50.387 2.42127C52.8971 3.99756 54.9115 6.25 56.1989 8.91979C57.4863 11.5896 57.9944 14.5684 57.6648 17.514C57.3352 20.4596 56.1813 23.2525 54.3357 25.5717C56.9185 26.7351 59.1113 28.6183 60.6514 30.9958C62.1916 33.3732 63.0139 36.1442 63.0199 38.9769V58.8044H75.6177V44.3452C75.6195 42.1108 74.907 39.9344 73.5842 38.1337C72.2614 36.333 70.3975 35.0023 68.2648 34.336C67.898 34.219 67.5702 34.0038 67.317 33.7137C67.0639 33.4236 66.895 33.0696 66.8288 32.6903C66.7659 32.3091 66.8078 31.9178 66.95 31.5585C67.0922 31.1992 67.3294 30.8853 67.6362 30.6503C69.223 29.4613 70.3951 27.803 70.9866 25.9104C71.578 24.0178 71.5586 21.9871 70.9312 20.1062C70.3038 18.2253 69.1001 16.5896 67.491 15.4311C65.8818 14.2726 63.9487 13.6501 61.9659 13.6518C61.429 13.6227 60.9237 13.3889 60.5539 12.9986C60.1841 12.6082 59.978 12.0909 59.978 11.5532C59.978 11.0155 60.1841 10.4983 60.5539 10.1079C60.9237 9.71751 61.429 9.48371 61.9659 9.45461C65.5856 9.45787 69.0561 10.8972 71.6156 13.4567C74.1751 16.0162 75.6144 19.4867 75.6177 23.1064C75.6275 26.2286 74.556 29.2578 72.5853 31.6796C74.7929 32.9714 76.6229 34.8198 77.8926 37.0401C79.1623 39.2605 79.8273 41.7751 79.8211 44.3329V58.8044H81.8981ZM58.798 58.8044V38.9893C58.7934 36.6956 58.0404 34.4662 56.6532 32.6396C55.266 30.813 53.3205 29.4891 51.1123 28.8691L49.8796 28.5239C49.5008 28.4222 49.1579 28.2165 48.8899 27.93C48.6219 27.6436 48.4394 27.2878 48.363 26.903C48.2867 26.5182 48.3196 26.1197 48.458 25.7526C48.5964 25.3856 48.8348 25.0646 49.1462 24.826C51.0424 23.3434 52.4286 21.3061 53.1116 18.9981C53.7946 16.6901 53.7403 14.2265 52.9563 11.9509C52.1722 9.67522 50.6976 7.70096 48.738 6.30342C46.7783 4.90589 44.4314 4.15474 42.0245 4.15474C39.6176 4.15474 37.2706 4.90589 35.311 6.30342C33.3514 7.70096 31.8767 9.67522 31.0927 11.9509C30.3086 14.2265 30.2543 16.6901 30.9373 18.9981C31.6203 21.3061 33.0066 23.3434 34.9028 24.826C35.2141 25.0646 35.4525 25.3856 35.5909 25.7526C35.7293 26.1197 35.7622 26.5182 35.6859 26.903C35.6096 27.2878 35.4271 27.6436 35.1591 27.93C34.891 28.2165 34.5482 28.4222 34.1693 28.5239L32.9367 28.8691C30.7279 29.4882 28.7818 30.8119 27.3945 32.6387C26.0071 34.4655 25.2545 36.6954 25.251 38.9893V58.8167L58.798 58.8044Z" fill="black" stroke="white"/>
<path d="M47.236 50.2619C47.255 50.4002 47.2457 50.5409 47.2086 50.6755C47.1715 50.81 47.1074 50.9356 47.0203 51.0447L42.8169 56.2897C42.7193 56.4139 42.5949 56.5145 42.4529 56.5839C42.311 56.6533 42.1552 56.6896 41.9972 56.6903C41.8384 56.6875 41.682 56.6509 41.5386 56.5829C41.3951 56.5149 41.2677 56.417 41.1651 56.2958L36.9679 51.0447C36.8808 50.9367 36.8162 50.8123 36.7781 50.6789C36.74 50.5455 36.7291 50.4058 36.746 50.2681L38.8354 32.5424C38.5706 32.5221 38.3232 32.4026 38.1427 32.2077C37.9623 32.0129 37.862 31.7571 37.862 31.4915C37.862 31.226 37.9623 30.9702 38.1427 30.7753C38.3232 30.5805 38.5706 30.461 38.8354 30.4407H45.1713C45.4361 30.461 45.6835 30.5805 45.8639 30.7753C46.0444 30.9702 46.1447 31.226 46.1447 31.4915C46.1447 31.7571 46.0444 32.0129 45.8639 32.2077C45.6835 32.4026 45.4361 32.5221 45.1713 32.5424L47.236 50.2619ZM45.0973 50.077L43.0511 32.6656C43.0511 32.6287 43.0511 32.5855 43.0511 32.5424H40.9186C40.9186 32.5855 40.9186 32.6287 40.9186 32.6656L38.8724 50.077L41.954 53.9599L45.0973 50.077Z" fill="#FF3124"/>
</g>
<defs>
<clipPath id="clip0_2743_25321">
<rect width="84" height="63.0015" fill="white"/>
</clipPath>
</defs>
</svg>
