<svg width="100" height="100" viewBox="0 0 100 100" fill="none" xmlns="http://www.w3.org/2000/svg">
<g clip-path="url(#clip0_2780_25320)">
<path d="M51.0507 50.678L53.0969 68.0894L50.0153 71.9723L46.9336 68.0894L48.9798 50.678C48.9798 50.641 48.9798 50.5978 48.9798 50.5547H51.1123C51.063 50.5978 51.0507 50.641 51.0507 50.678Z" fill="#FF3124"/>
<path d="M89.8981 76.8044C90.1833 76.7889 90.4686 76.8317 90.7367 76.9302C91.0047 77.0287 91.2499 77.1808 91.4572 77.3772C91.6646 77.5736 91.8297 77.8102 91.9425 78.0725C92.0554 78.3348 92.1136 78.6174 92.1136 78.903C92.1136 79.1886 92.0554 79.4712 91.9425 79.7335C91.8297 79.9958 91.6646 80.2324 91.4572 80.4288C91.2499 80.6252 91.0047 80.7773 90.7367 80.8758C90.4686 80.9742 90.1833 81.0171 89.8981 81.0016H10.0953C9.55842 80.9725 9.0531 80.7387 8.68332 80.3483C8.31353 79.958 8.10742 79.4407 8.10742 78.903C8.10742 78.3653 8.31353 77.848 8.68332 77.4577C9.0531 77.0673 9.55842 76.8335 10.0953 76.8044H12.1971V62.3329C12.1901 59.7758 12.8547 57.2617 14.1246 55.0422C15.3944 52.8227 17.2249 50.9756 19.4328 49.6857C17.8135 47.6815 16.7946 45.2599 16.4936 42.7009C16.1926 40.142 16.622 37.5501 17.7321 35.2248C18.8422 32.8996 20.5876 30.936 22.7667 29.561C24.9457 28.186 27.4694 27.4557 30.046 27.4546C30.3312 27.4391 30.6165 27.482 30.8846 27.5804C31.1526 27.6789 31.3978 27.831 31.6051 28.0274C31.8125 28.2238 31.9776 28.4604 32.0905 28.7227C32.2033 28.985 32.2615 29.2676 32.2615 29.5532C32.2615 29.8388 32.2033 30.1214 32.0905 30.3837C31.9776 30.646 31.8125 30.8826 31.6051 31.079C31.3978 31.2754 31.1526 31.4275 30.8846 31.526C30.6165 31.6245 30.3312 31.6673 30.046 31.6518C28.0648 31.6518 26.1338 32.275 24.5264 33.4332C22.9189 34.5914 21.7165 36.2259 21.0893 38.1052C20.4622 39.9846 20.4421 42.0136 21.0319 43.905C21.6218 45.7964 22.7916 47.4544 24.3758 48.6441C24.6869 48.8742 24.9278 49.1863 25.0715 49.5455C25.2152 49.9047 25.256 50.2969 25.1893 50.678C25.1217 51.0584 24.9517 51.4131 24.6976 51.7041C24.4435 51.9952 24.1149 52.2115 23.7471 52.3298C21.6166 52.9969 19.7549 54.3271 18.4333 56.1265C17.1118 57.9259 16.3996 60.1003 16.4005 62.3329V76.8044H28.9983V56.9769C29.0058 54.1446 29.8287 51.3742 31.3686 48.997C32.9086 46.6198 35.1005 44.7364 37.6824 43.5717C35.8368 41.2525 34.6829 38.4596 34.3533 35.514C34.0237 32.5684 34.5318 29.5896 35.8192 26.9198C37.1066 24.25 39.1211 21.9976 41.6312 20.4213C44.1412 18.845 47.0451 18.0088 50.0091 18.0088C52.973 18.0088 55.8769 18.845 58.387 20.4213C60.8971 21.9976 62.9115 24.25 64.1989 26.9198C65.4863 29.5896 65.9944 32.5684 65.6648 35.514C65.3352 38.4596 64.1813 41.2525 62.3357 43.5717C64.9185 44.7351 67.1113 46.6183 68.6514 48.9958C70.1916 51.3732 71.0139 54.1442 71.0199 56.9769V76.8044H83.6177V62.3452C83.6195 60.1108 82.907 57.9344 81.5842 56.1337C80.2614 54.333 78.3975 53.0023 76.2648 52.336C75.898 52.219 75.5702 52.0038 75.317 51.7137C75.0639 51.4236 74.895 51.0696 74.8288 50.6903C74.7659 50.3091 74.8078 49.9178 74.95 49.5585C75.0922 49.1992 75.3294 48.8853 75.6362 48.6503C77.223 47.4613 78.3951 45.803 78.9866 43.9104C79.578 42.0178 79.5586 39.9871 78.9312 38.1062C78.3038 36.2253 77.1001 34.5896 75.491 33.4311C73.8818 32.2726 71.9487 31.6501 69.9659 31.6518C69.429 31.6227 68.9237 31.3889 68.5539 30.9986C68.1841 30.6082 67.978 30.0909 67.978 29.5532C67.978 29.0155 68.1841 28.4983 68.5539 28.1079C68.9237 27.7175 69.429 27.4837 69.9659 27.4546C73.5856 27.4579 77.0561 28.8972 79.6156 31.4567C82.1751 34.0162 83.6144 37.4867 83.6177 41.1064C83.6275 44.2286 82.556 47.2578 80.5853 49.6796C82.7929 50.9714 84.6229 52.8198 85.8926 55.0401C87.1623 57.2605 87.8273 59.7751 87.8211 62.3329V76.8044H89.8981ZM66.798 76.8044V56.9893C66.7934 54.6956 66.0404 52.4662 64.6532 50.6396C63.266 48.813 61.3205 47.4891 59.1123 46.8691L57.8796 46.5239C57.5008 46.4222 57.1579 46.2165 56.8899 45.93C56.6219 45.6436 56.4394 45.2878 56.363 44.903C56.2867 44.5182 56.3196 44.1197 56.458 43.7526C56.5964 43.3856 56.8348 43.0646 57.1462 42.826C59.0424 41.3434 60.4286 39.3061 61.1116 36.9981C61.7946 34.6901 61.7403 32.2265 60.9563 29.9509C60.1722 27.6752 58.6976 25.701 56.738 24.3034C54.7783 22.9059 52.4314 22.1547 50.0245 22.1547C47.6176 22.1547 45.2706 22.9059 43.311 24.3034C41.3514 25.701 39.8767 27.6752 39.0927 29.9509C38.3086 32.2265 38.2543 34.6901 38.9373 36.9981C39.6203 39.3061 41.0066 41.3434 42.9028 42.826C43.2141 43.0646 43.4525 43.3856 43.5909 43.7526C43.7293 44.1197 43.7622 44.5182 43.6859 44.903C43.6096 45.2878 43.4271 45.6436 43.1591 45.93C42.891 46.2165 42.5482 46.4222 42.1693 46.5239L40.9367 46.8691C38.7279 47.4882 36.7818 48.8119 35.3945 50.6387C34.0071 52.4655 33.2545 54.6954 33.251 56.9893V76.8167L66.798 76.8044Z" fill="black" stroke="white"/>
<path d="M55.236 68.2619C55.255 68.4002 55.2457 68.5409 55.2086 68.6755C55.1715 68.81 55.1074 68.9356 55.0203 69.0447L50.8169 74.2897C50.7193 74.4139 50.5949 74.5145 50.4529 74.5839C50.311 74.6533 50.1552 74.6896 49.9972 74.6903C49.8384 74.6875 49.682 74.6509 49.5386 74.5829C49.3951 74.5149 49.2677 74.417 49.1651 74.2958L44.9679 69.0447C44.8808 68.9367 44.8162 68.8123 44.7781 68.6789C44.74 68.5455 44.7291 68.4058 44.746 68.2681L46.8354 50.5424C46.5706 50.5221 46.3232 50.4026 46.1427 50.2077C45.9623 50.0129 45.862 49.7571 45.862 49.4915C45.862 49.226 45.9623 48.9702 46.1427 48.7753C46.3232 48.5805 46.5706 48.461 46.8354 48.4407H53.1713C53.4361 48.461 53.6835 48.5805 53.8639 48.7753C54.0444 48.9702 54.1447 49.226 54.1447 49.4915C54.1447 49.7571 54.0444 50.0129 53.8639 50.2077C53.6835 50.4026 53.4361 50.5221 53.1713 50.5424L55.236 68.2619ZM53.0973 68.077L51.0511 50.6656C51.0511 50.6287 51.0511 50.5855 51.0511 50.5424H48.9186C48.9186 50.5855 48.9186 50.6287 48.9186 50.6656L46.8724 68.077L49.954 71.9599L53.0973 68.077Z" fill="#FF3124"/>
</g>
<defs>
<clipPath id="clip0_2780_25320">
<rect width="84" height="63.0015" fill="white" transform="translate(8 18)"/>
</clipPath>
</defs>
</svg>
