<svg width="71" height="80" viewBox="0 0 71 80" fill="none" xmlns="http://www.w3.org/2000/svg">
<g clip-path="url(#clip0_2743_25257)">
<path d="M68.7166 76.1427H67.8714V38.2844H2.74454V76.1427H1.8994C1.38789 76.1427 0.897306 76.3459 0.53561 76.7076C0.173915 77.0693 -0.0292969 77.5598 -0.0292969 78.0713C-0.0292969 78.5828 0.173915 79.0734 0.53561 79.4351C0.897306 79.7968 1.38789 80 1.8994 80H68.6876C69.1992 80 69.6897 79.7968 70.0514 79.4351C70.4131 79.0734 70.6163 78.5828 70.6163 78.0713C70.6163 77.5598 70.4131 77.0693 70.0514 76.7076C69.6897 76.3459 69.1992 76.1427 68.6876 76.1427H68.7166Z" fill="black" stroke="white"/>
<path d="M56.314 49.1702H39.6133V76.1426H56.314V49.1702Z" fill="white"/>
<path d="M64.0142 76.1427H60.164V47.2488C60.1566 46.7396 59.951 46.2534 59.5909 45.8933C59.2308 45.5332 58.7446 45.3276 58.2354 45.3201H37.6846C37.1743 45.3221 36.6856 45.5261 36.3255 45.8876C35.9653 46.2491 35.7631 46.7385 35.7632 47.2488V76.1427H6.63086V33.6831H7.50492C8.55957 33.6752 9.60029 33.4416 10.5572 32.9981C11.514 32.5545 12.3649 31.9113 13.0525 31.1116C13.7488 31.904 14.606 32.5388 15.567 32.9736C16.5279 33.4085 17.5706 33.6335 18.6254 33.6335C19.6802 33.6335 20.7229 33.4085 21.6839 32.9736C22.6449 32.5388 23.5021 31.904 24.1984 31.1116C24.8926 31.9035 25.7479 32.538 26.7071 32.9727C27.6663 33.4074 28.7073 33.6323 29.7604 33.6323C30.8136 33.6323 31.8545 33.4074 32.8137 32.9727C33.7729 32.538 34.6283 31.9035 35.3225 31.1116C36.0167 31.9035 36.872 32.538 37.8313 32.9727C38.7905 33.4074 39.8315 33.6323 40.8846 33.6323C41.9377 33.6323 42.9787 33.4074 43.9379 32.9727C44.8971 32.538 45.7524 31.9035 46.4467 31.1116C47.1436 31.9041 48.0014 32.539 48.963 32.974C49.9246 33.4089 50.9678 33.6338 52.0232 33.6338C53.0785 33.6338 54.1218 33.4089 55.0834 32.974C56.045 32.539 56.9028 31.9041 57.5997 31.1116C58.2864 31.9124 59.1371 32.5564 60.0942 33C61.0512 33.4437 62.0924 33.6766 63.1473 33.6831H64.0214L64.0142 76.1427Z" fill="white" stroke="white"/>
<path d="M27.825 45.3201H12.4101C11.9021 45.3275 11.417 45.5321 11.0571 45.8906C10.6972 46.2492 10.4908 46.7336 10.4814 47.2415V62.6564C10.4889 63.1656 10.6945 63.6518 11.0546 64.0119C11.4147 64.372 11.9009 64.5776 12.4101 64.5851H27.825C28.0779 64.5851 28.3284 64.5351 28.562 64.4381C28.7956 64.3411 29.0077 64.1989 29.1862 64.0197C29.3647 63.8406 29.5061 63.6279 29.6023 63.3939C29.6984 63.16 29.7474 62.9094 29.7464 62.6564V47.2415C29.7464 46.7319 29.544 46.2432 29.1837 45.8828C28.8233 45.5225 28.3346 45.3201 27.825 45.3201Z" fill="black" stroke="white"/>
<path d="M25.8886 49.1702H14.3311V60.7277H25.8886V49.1702Z" fill="white"/>
<path d="M3.12772 23.1152C2.6641 23.1152 2.21944 23.2994 1.89161 23.6272C1.56378 23.9551 1.37961 24.3997 1.37961 24.8633C1.32036 27.5108 1.98741 30.1239 3.30831 32.4191C3.81282 33.3649 4.51423 34.1915 5.3653 34.8432C6.21637 35.4949 7.19729 35.9565 8.24191 36.1969C9.67941 36.3823 11.1331 36.0072 12.3015 35.1495C13.6708 34.1337 14.7393 32.7657 15.3932 31.1911C15.4437 31.0683 15.5304 30.9888 15.6316 30.996C15.7 31.0022 15.7649 31.029 15.8178 31.0728C15.8707 31.1167 15.909 31.1756 15.9277 31.2416C17.329 34.3622 19.7345 36.2475 22.3133 36.2475C24.892 36.2475 27.2974 34.3694 28.6988 31.2416C28.8866 30.8299 29.0816 30.8299 29.2694 31.2416C30.678 34.3622 33.0762 36.2475 35.655 36.2475C38.2338 36.2475 40.6392 34.3622 42.0406 31.2416C42.185 30.9166 42.4595 30.9166 42.604 31.2416C44.0487 34.3694 46.4108 36.2475 48.9896 36.2475C51.5683 36.2475 53.9737 34.3622 55.3751 31.2416C55.3947 31.176 55.4333 31.1177 55.486 31.074C55.5387 31.0303 55.6032 31.0032 55.6713 30.996C55.7275 30.9985 55.7816 31.0187 55.8257 31.0538C55.8698 31.0888 55.9017 31.1368 55.9168 31.1911C57.3182 34.3477 59.7308 36.2475 62.3313 36.2475C62.573 36.2479 62.8144 36.231 63.0536 36.1969C64.0969 35.9556 65.0766 35.4943 65.9274 34.8441C66.7782 34.1939 67.4805 33.3696 67.9873 32.4263C69.3072 30.1278 69.9764 27.5133 69.9232 24.8633C69.9232 24.3997 69.739 23.9551 69.4112 23.6272C69.0833 23.2994 68.6387 23.1152 68.1751 23.1152H3.12772Z" fill="#FF3124"/>
<path d="M65.6971 3.37337C65.4782 2.41 64.9287 1.55378 64.1441 0.953502C63.3384 0.334093 62.3504 -0.0011803 61.3341 3.12211e-06H9.16618C8.14994 -0.0011803 7.16189 0.334093 6.35624 0.953502C5.56974 1.55517 5.01994 2.41436 4.80317 3.38059L1.2998 19.5034H5.30883L8.64607 4.13183C8.6754 4.01479 8.74348 3.91111 8.83922 3.83766C8.93496 3.76422 9.05276 3.72533 9.17341 3.72732H61.3341C61.4539 3.72567 61.5706 3.76483 61.6651 3.83835C61.7597 3.91187 61.8264 4.01537 61.8542 4.13183L65.1915 19.5034H69.2005L65.6971 3.37337Z" fill="black" stroke="white"/>
</g>
<defs>
<clipPath id="clip0_2743_25257">
<rect width="70.6456" height="80" fill="white"/>
</clipPath>
</defs>
</svg>
