<svg width="22" height="21" viewBox="0 0 22 21" fill="none" xmlns="http://www.w3.org/2000/svg">
<path d="M13.6 8H20C20.5304 8 21.0391 8.21071 21.4142 8.58579C21.7893 8.96086 22 9.46957 22 10V12.104C22.0003 12.3654 21.9493 12.6242 21.85 12.866L18.755 20.381C18.6795 20.5642 18.5513 20.7209 18.3866 20.8311C18.2219 20.9413 18.0282 21.0001 17.83 21H1C0.734784 21 0.48043 20.8946 0.292893 20.7071C0.105357 20.5196 0 20.2652 0 20V10C0 9.73478 0.105357 9.48043 0.292893 9.29289C0.48043 9.10536 0.734784 9 1 9H4.482C4.6421 9.00004 4.79986 8.96164 4.94203 8.88803C5.0842 8.81442 5.20662 8.70776 5.299 8.577L10.752 0.849999C10.8209 0.752312 10.9226 0.68256 11.0385 0.653389C11.1545 0.624219 11.277 0.637562 11.384 0.690999L13.198 1.598C13.7085 1.85316 14.1163 2.27531 14.3537 2.79431C14.5911 3.31332 14.6438 3.89792 14.503 4.451L13.6 8ZM6 10.588V19H17.16L20 12.104V10H13.6C13.2954 9.99996 12.9948 9.93034 12.7212 9.79646C12.4476 9.66258 12.2082 9.46797 12.0213 9.22749C11.8343 8.987 11.7048 8.70699 11.6425 8.40882C11.5803 8.11065 11.5869 7.8022 11.662 7.507L12.565 3.959C12.5933 3.84833 12.5828 3.73131 12.5353 3.62743C12.4878 3.52354 12.4062 3.43905 12.304 3.388L11.643 3.058L6.933 9.73C6.683 10.084 6.363 10.374 6 10.588ZM4 11H2V19H4V11Z" fill="#FF3124"/>
</svg>
