<svg width="86" height="84" viewBox="0 0 86 84" fill="none" xmlns="http://www.w3.org/2000/svg">
<g clip-path="url(#clip0_2743_25239)">
<path d="M74.6159 44.6238C77.2625 46.1225 79.5427 48.1939 81.2905 50.6872C83.0383 53.1806 84.2097 56.0332 84.7197 59.0375C85.2296 62.0419 85.0652 65.1224 84.2384 68.055C83.4115 70.9877 81.9431 73.6986 79.9399 75.9907C77.9367 78.2828 75.4491 80.0984 72.658 81.3053C69.867 82.5123 66.8426 83.0803 63.8051 82.968C60.7676 82.8557 57.7932 82.066 55.0984 80.6563C52.4035 79.2465 50.056 77.2523 48.2266 74.8185H58.1339C61.46 74.8151 64.7072 73.8028 67.4487 71.9147C70.1903 70.0266 72.298 67.3511 73.4949 64.2397H75.5703C75.8973 64.2397 76.2185 64.1533 76.5017 63.9894C76.7849 63.8254 77.0201 63.5896 77.1836 63.3056C77.3436 63.0218 77.4276 62.7013 77.4276 62.3753C77.4276 62.0493 77.3436 61.7289 77.1836 61.445C77.0201 61.1611 76.7849 60.9253 76.5017 60.7613C76.2185 60.5974 75.8973 60.511 75.5703 60.511H74.4568C74.5628 59.774 74.6159 59.0304 74.6159 58.2858V44.6238Z" fill="#FF3124"/>
<path d="M77.1839 61.4451C77.3438 61.7289 77.4279 62.0494 77.4279 62.3754C77.4279 62.7014 77.3438 63.0218 77.1839 63.3057C77.0203 63.5896 76.7852 63.8254 76.502 63.9894C76.2188 64.1533 75.8975 64.2397 75.5705 64.2397H73.4951C73.9676 63.0412 74.2906 61.7889 74.457 60.511H75.5705C75.8975 60.511 76.2188 60.5974 76.502 60.7614C76.7852 60.9253 77.0203 61.1611 77.1839 61.4451Z" fill="white"/>
<path d="M74.6155 44.6239V58.2936C74.6155 59.0381 74.5624 59.7817 74.4564 60.5187H69.1543C69.2985 59.7856 69.3746 59.0407 69.3816 58.2936V42.5051C71.217 42.9607 72.9791 43.674 74.6155 44.6239Z" fill="#FF3124"/>
<path d="M74.6156 23.489V44.6237C72.9887 43.6765 71.237 42.9632 69.412 42.5049V33.0577H5.20362V58.2858C5.20563 61.2842 6.39452 64.1592 8.50918 66.2794C10.6238 68.3996 13.4914 69.5916 16.482 69.5936H45.3178C46.0237 71.4702 47.0039 73.231 48.2263 74.8185H16.482C12.1118 74.8104 7.92309 73.0658 4.83364 69.9668C1.7442 66.8679 0.00600661 62.6674 0 58.2858V23.489C0.00401107 19.1075 1.74179 14.9066 4.83188 11.8084C7.92198 8.7102 12.1119 6.96788 16.482 6.96386H17.353V2.61235C17.334 2.25794 17.3871 1.90335 17.5092 1.57022C17.6313 1.23709 17.8199 0.932402 18.0634 0.674757C18.3069 0.417113 18.6001 0.211914 18.9253 0.071682C19.2505 -0.0685499 19.6008 -0.140869 19.9548 -0.140869C20.3088 -0.140869 20.6591 -0.0685499 20.9843 0.071682C21.3095 0.211914 21.6028 0.417113 21.8463 0.674757C22.0898 0.932402 22.2783 1.23709 22.4004 1.57022C22.5226 1.90335 22.5757 2.25794 22.5567 2.61235V6.96386H34.6757V2.61235C34.6567 2.25794 34.7098 1.90335 34.8319 1.57022C34.9541 1.23709 35.1426 0.932402 35.3861 0.674757C35.6296 0.417113 35.9228 0.211914 36.248 0.071682C36.5732 -0.0685499 36.9235 -0.140869 37.2775 -0.140869C37.6315 -0.140869 37.9818 -0.0685499 38.307 0.071682C38.6322 0.211914 38.9255 0.417113 39.169 0.674757C39.4125 0.932402 39.601 1.23709 39.7231 1.57022C39.8453 1.90335 39.8984 2.25794 39.8794 2.61235V6.96386H51.9984V2.61235C51.9794 2.25794 52.0325 1.90335 52.1546 1.57022C52.2768 1.23709 52.4653 0.932402 52.7088 0.674757C52.9523 0.417113 53.2455 0.211914 53.5707 0.071682C53.8959 -0.0685499 54.2462 -0.140869 54.6002 -0.140869C54.9542 -0.140869 55.3045 -0.0685499 55.6297 0.071682C55.9549 0.211914 56.2482 0.417113 56.4917 0.674757C56.7352 0.932402 56.9237 1.23709 57.0458 1.57022C57.168 1.90335 57.2211 2.25794 57.2021 2.61235V6.96386H58.0731C60.2421 6.95786 62.391 7.38077 64.3967 8.20836C66.4025 9.03596 68.2258 10.252 69.7624 11.7869C71.2989 13.3218 72.5184 15.1454 73.3512 17.1534C74.184 19.1614 74.6137 21.3143 74.6156 23.489ZM69.412 27.8405V23.489C69.406 20.4918 68.2158 17.6191 66.1021 15.4998C63.9883 13.3804 61.123 12.1871 58.1337 12.1811H57.2627V16.5326C57.2267 17.2001 56.9369 17.8284 56.4529 18.2882C55.9689 18.748 55.3276 19.0042 54.6609 19.0042C53.9941 19.0042 53.3527 18.748 52.8687 18.2882C52.3847 17.8284 52.0949 17.2001 52.059 16.5326V12.1811H39.9399V16.5326C39.904 17.2001 39.6142 17.8284 39.1302 18.2882C38.6462 18.748 38.0048 19.0042 37.3381 19.0042C36.6714 19.0042 36.03 18.748 35.546 18.2882C35.062 17.8284 34.7722 17.2001 34.7363 16.5326V12.1811H22.6172V16.5326C22.5813 17.2001 22.2915 17.8284 21.8075 18.2882C21.3235 18.748 20.6821 19.0042 20.0154 19.0042C19.3487 19.0042 18.7073 18.748 18.2233 18.2882C17.7393 17.8284 17.4495 17.2001 17.4136 16.5326V12.1811H16.5426C13.5532 12.1871 10.688 13.3804 8.57421 15.4998C6.46041 17.6191 5.27024 20.4918 5.26423 23.489V27.8405H69.412Z" fill="black" stroke="white" stroke-width="2"/>
<path d="M69.1853 60.511H74.4874C74.321 61.7889 73.9978 63.0412 73.5254 64.2397H67.7461C68.4413 63.0916 68.9285 61.8293 69.1853 60.511Z" fill="white"/>
<path d="M73.4942 64.2397C72.2974 67.3511 70.1897 70.0267 67.4481 71.9147C64.7065 73.8028 61.4593 74.8151 58.1333 74.8185H48.2259C47.0035 73.2311 46.0233 71.4702 45.3174 69.5937H58.1333C61.122 69.5922 63.988 68.4013 66.1016 66.2826C66.7182 65.6681 67.2598 64.9824 67.715 64.2397H73.4942Z" fill="#FF3124"/>
<path d="M69.4122 42.5051V58.286C69.4053 59.0331 69.3292 59.778 69.185 60.5111H66.284V51.2082C66.2885 50.9594 66.2432 50.7123 66.1509 50.4814C66.0585 50.2506 65.9209 50.0406 65.7462 49.864C65.5702 49.6874 65.3612 49.5476 65.1311 49.4524C64.901 49.3573 64.6544 49.3087 64.4055 49.3096C63.9113 49.3196 63.4409 49.5245 63.0963 49.8799C62.7518 50.2353 62.5609 50.7125 62.565 51.2082V62.3565C62.565 62.6025 62.6134 62.846 62.7075 63.0732C62.8016 63.3003 62.9395 63.5066 63.1133 63.6802C63.2872 63.8538 63.4935 63.9912 63.7204 64.0847C63.9474 64.1781 64.1905 64.2257 64.4358 64.2247H67.708C67.2528 64.9673 66.7112 65.6531 66.0946 66.2675C63.981 68.3862 61.1151 69.5771 58.1263 69.5786H45.318C44.442 67.2723 43.9953 64.8244 44 62.3565C44.0039 59.2425 44.7151 56.1703 46.0797 53.373C47.4443 50.5757 49.4264 48.1268 51.8757 46.212C54.3249 44.2972 57.1771 42.9669 60.2156 42.322C63.2541 41.6771 66.3991 41.7345 69.4122 42.4899V42.5051Z" fill="#FF3124"/>
<path d="M66.2838 60.5109H69.1772C68.9112 61.8312 68.4136 63.0936 67.7078 64.2397H64.4357C64.1897 64.2397 63.9461 64.1909 63.7191 64.096C63.492 64.0012 63.2859 63.8622 63.1127 63.6871C62.9395 63.5121 62.8026 63.3043 62.7098 63.0759C62.6171 62.8475 62.5703 62.6029 62.5723 62.3563V51.1928C62.5682 50.6971 62.7592 50.2199 63.1038 49.8645C63.4483 49.5091 63.9187 49.3042 64.413 49.2942C64.6619 49.2933 64.9084 49.3419 65.1385 49.437C65.3686 49.5322 65.5777 49.672 65.7536 49.8486C65.9283 50.0252 66.0659 50.2352 66.1583 50.4661C66.2507 50.6969 66.2959 50.944 66.2914 51.1928L66.2838 60.5109Z" fill="white"/>
<path d="M69.4117 42.5051C64.3899 41.2301 59.0727 41.9134 54.5339 44.4169C49.9951 46.9203 46.573 51.0575 44.9587 55.9927C43.3445 60.928 43.6584 66.2935 45.837 71.0057C48.0157 75.7179 51.8967 79.4255 56.6963 81.3798C61.4959 83.3341 66.8564 83.3894 71.695 81.5345C76.5337 79.6796 80.49 76.0528 82.7649 71.3865C85.0397 66.7203 85.4637 61.3623 83.951 56.3948C82.4383 51.4273 79.1018 47.2205 74.6153 44.6239C72.9884 43.6766 71.2367 42.9634 69.4117 42.5051V42.5051Z" stroke="white" stroke-width="3" stroke-miterlimit="10"/>
</g>
<defs>
<clipPath id="clip0_2743_25239">
<rect width="86" height="84" fill="white"/>
</clipPath>
</defs>
</svg>
