<svg width="84" height="84" viewBox="0 0 84 84" fill="none" xmlns="http://www.w3.org/2000/svg">
<g clip-path="url(#clip0_2743_25273)">
<path d="M42.0765 37.2553C43.0147 37.2719 43.9269 37.5663 44.6979 38.1012C45.4688 38.6362 46.0637 39.3878 46.4075 40.2609C46.7513 41.134 46.8285 42.0894 46.6294 43.0064C46.4302 43.9234 45.9636 44.7607 45.2886 45.4125C44.6136 46.0643 43.7604 46.5013 42.837 46.6683C41.9137 46.8353 40.9615 46.7247 40.101 46.3506C39.2404 45.9764 38.5102 45.3555 38.0025 44.5664C37.4948 43.7772 37.2325 42.8552 37.2488 41.917C37.2553 41.2927 37.3859 40.6758 37.633 40.1023C37.88 39.5289 38.2385 39.0102 38.6877 38.5765C39.1368 38.1427 39.6677 37.8026 40.2495 37.5758C40.8312 37.349 41.4523 37.2401 42.0765 37.2553Z" fill="black"/>
<path d="M41.9999 18.9404C46.5603 18.9404 51.0184 20.2927 54.8104 22.8262C58.6023 25.3597 61.5579 28.9607 63.3034 33.1739C65.0489 37.3871 65.506 42.0233 64.6167 46.4962C63.7275 50.9691 61.5319 55.0779 58.3076 58.3031C55.0834 61.5283 50.9751 63.725 46.5025 64.6155C42.0298 65.5059 37.3935 65.0502 33.1798 63.3059C28.9662 61.5615 25.3643 58.6069 22.8298 54.8157C20.2952 51.0244 18.9417 46.5667 18.9404 42.0063C18.9455 35.8915 21.3764 30.0285 25.6996 25.7041C30.0228 21.3797 35.8851 18.9472 41.9999 18.9404ZM55.1229 44.3882C55.5968 44.383 56.0585 44.2368 56.4491 43.9684C56.8397 43.7 57.1416 43.3214 57.3164 42.8809C57.4912 42.4404 57.531 41.9578 57.4307 41.4945C57.3304 41.0313 57.0945 40.6084 56.7531 40.2797C56.4117 39.9509 55.9802 39.7312 55.5136 39.6484C55.0469 39.5656 54.5662 39.6236 54.1325 39.8149C53.6989 40.0062 53.332 40.3222 53.0785 40.7227C52.825 41.1231 52.6964 41.5899 52.709 42.0637C52.7353 42.6872 53.0008 43.2767 53.4503 43.7095C53.8998 44.1424 54.4988 44.3855 55.1229 44.3882ZM51.2914 53.6222C51.6007 53.6198 51.9065 53.5557 52.1909 53.4339C52.4753 53.312 52.7325 53.1348 52.9477 52.9125C53.1629 52.6902 53.3317 52.4273 53.4442 52.1391C53.5567 51.8509 53.6107 51.5432 53.603 51.2339C53.6003 50.7619 53.4571 50.3014 53.1916 49.9112C52.9261 49.521 52.5504 49.2187 52.1124 49.0429C51.6744 48.8671 51.1939 48.8257 50.7323 48.9241C50.2707 49.0225 49.8489 49.2562 49.5206 49.5954C49.1924 49.9345 48.9726 50.3637 48.8893 50.8283C48.806 51.2928 48.863 51.7717 49.0529 52.2038C49.2429 52.6358 49.5573 53.0015 49.956 53.2541C50.3547 53.5067 50.8195 53.6349 51.2914 53.6222ZM53.603 32.7403C53.6081 32.4313 53.5516 32.1244 53.4366 31.8375C53.3217 31.5507 53.1507 31.2896 52.9337 31.0696C52.7166 30.8496 52.4579 30.6751 52.1726 30.5562C51.8874 30.4374 51.5812 30.3767 51.2722 30.3776C50.9574 30.3699 50.6443 30.4254 50.3513 30.5407C50.0583 30.6561 49.7914 30.829 49.5664 31.0493C49.3414 31.2696 49.1628 31.5327 49.0412 31.8231C48.9196 32.1136 48.8574 32.4255 48.8583 32.7403C48.8599 33.365 49.1061 33.9642 49.5442 34.4094C49.9823 34.8547 50.5774 35.1106 51.202 35.1223C51.5187 35.13 51.8337 35.0739 52.1283 34.9575C52.4229 34.841 52.6911 34.6664 52.9169 34.4442C53.1427 34.222 53.3215 33.9566 53.4426 33.6639C53.5638 33.3712 53.6249 33.0571 53.6222 32.7403H53.603ZM49.1329 42.0637C49.1455 40.6511 48.739 39.2664 47.9649 38.0846C47.1907 36.9029 46.0837 35.9771 44.7836 35.4243C43.4835 34.8715 42.0487 34.7164 40.6606 34.9787C39.2724 35.2411 37.9931 35.909 36.9844 36.8981C35.9757 37.8872 35.2828 39.1531 34.9933 40.5358C34.7037 41.9185 34.8306 43.3561 35.3577 44.6668C35.8849 45.9775 36.7887 47.1025 37.9551 47.8997C39.1214 48.6969 40.4978 49.1305 41.9105 49.1457C43.8075 49.1627 45.6338 48.4267 46.989 47.0991C48.3441 45.7715 49.1174 43.9607 49.1393 42.0637H49.1329ZM41.9807 57.4857C42.4514 57.4893 42.9127 57.3538 43.3066 57.0961C43.7005 56.8384 44.0095 56.4701 44.1948 56.0374C44.38 55.6047 44.4333 55.1269 44.3479 54.664C44.2624 54.2011 44.0421 53.7738 43.7146 53.4357C43.3871 53.0976 42.9671 52.8638 42.5071 52.7637C42.0472 52.6636 41.5679 52.7017 41.1295 52.8731C40.6911 53.0444 40.3132 53.3416 40.0431 53.7271C39.773 54.1126 39.6229 54.5693 39.6116 55.0399C39.608 55.6764 39.8541 56.2891 40.297 56.7463C40.7399 57.2035 41.3444 57.469 41.9807 57.4857ZM42.0637 31.3035C42.5345 31.2909 42.9911 31.1393 43.376 30.8679C43.7609 30.5965 44.0569 30.2174 44.227 29.7782C44.397 29.339 44.4333 28.8593 44.3315 28.3995C44.2296 27.9397 43.9941 27.5203 43.6545 27.194C43.3149 26.8676 42.8864 26.649 42.4229 26.5655C41.9594 26.4821 41.4816 26.5375 41.0495 26.7249C40.6174 26.9122 40.2504 27.2232 39.9945 27.6186C39.7387 28.014 39.6054 28.4762 39.6116 28.9471C39.6266 29.5829 39.8933 30.1866 40.353 30.626C40.8127 31.0654 41.428 31.3044 42.0637 31.2907V31.3035ZM35.1223 51.3105C35.1265 50.9953 35.0683 50.6823 34.9509 50.3897C34.8336 50.097 34.6595 49.8306 34.4386 49.6056C34.2178 49.3806 33.9546 49.2015 33.6642 49.0787C33.3738 48.956 33.062 48.8919 32.7467 48.8903C32.4367 48.886 32.129 48.943 31.8411 49.058C31.5531 49.1729 31.2907 49.3435 31.0689 49.56C30.847 49.7766 30.67 50.0348 30.5481 50.3198C30.4262 50.6048 30.3617 50.9111 30.3584 51.2211C30.3482 51.5301 30.3997 51.838 30.5099 52.1268C30.6202 52.4156 30.7869 52.6796 31.0004 52.9031C31.2139 53.1267 31.4698 53.3055 31.7532 53.429C32.0366 53.5524 32.3418 53.6181 32.6509 53.6222C32.967 53.6368 33.2828 53.5877 33.5796 53.4779C33.8764 53.3681 34.1481 53.1998 34.3786 52.983C34.6091 52.7662 34.7937 52.5053 34.9214 52.2158C35.0492 51.9263 35.1175 51.6141 35.1223 51.2977V51.3105ZM32.734 35.135C33.0489 35.1351 33.3608 35.0726 33.6514 34.9513C33.9421 34.83 34.2058 34.6523 34.4273 34.4284C34.6489 34.2045 34.8238 33.9389 34.942 33.6469C35.0601 33.355 35.1193 33.0425 35.1159 32.7276C35.1096 32.2594 34.9651 31.8036 34.7006 31.4173C34.436 31.031 34.0632 30.7314 33.629 30.5563C33.1948 30.3812 32.7185 30.3384 32.26 30.4331C31.8015 30.5278 31.3811 30.7559 31.0519 31.0887C30.7226 31.4216 30.499 31.8443 30.4091 32.3038C30.3193 32.7633 30.3673 33.2391 30.547 33.6714C30.7267 34.1037 31.0302 34.4733 31.4193 34.7337C31.8084 34.9941 32.2658 35.1337 32.734 35.135ZM28.9024 44.401C29.5358 44.401 30.1433 44.1493 30.5912 43.7014C31.0391 43.2535 31.2907 42.6461 31.2907 42.0127C31.2907 41.3792 31.0391 40.7717 30.5912 40.3238C30.1433 39.8759 29.5358 39.6243 28.9024 39.6243C28.269 39.6243 27.6615 39.8759 27.2136 40.3238C26.7657 40.7717 26.5141 41.3792 26.5141 42.0127C26.5141 42.6461 26.7657 43.2535 27.2136 43.7014C27.6615 44.1493 28.269 44.401 28.9024 44.401Z" fill="#FF3124"/>
<path d="M42 0C50.3068 0 58.4271 2.46327 65.334 7.07829C72.2408 11.6933 77.6241 18.2528 80.8029 25.9273C83.9818 33.6018 84.8136 42.0466 83.193 50.1938C81.5724 58.341 77.5723 65.8247 71.6985 71.6985C65.8247 77.5723 58.341 81.5724 50.1938 83.193C42.0466 84.8136 33.6018 83.9818 25.9273 80.803C18.2528 77.6241 11.6933 72.2408 7.07828 65.334C2.46326 58.4271 0 50.3068 0 42C0.0118328 30.8645 4.44062 20.1886 12.3146 12.3146C20.1885 4.44062 30.8645 0.0118328 42 0ZM81.1838 42C81.1838 40.7931 81.1072 39.5989 80.9986 38.4175L75.2066 44.2095C74.9408 44.4606 74.5876 44.5981 74.2219 44.5929C73.8563 44.5877 73.5071 44.4401 73.2486 44.1815C72.99 43.923 72.8425 43.5738 72.8373 43.2082C72.832 42.8426 72.9696 42.4893 73.2206 42.2235L80.5133 34.9372C79.7448 30.7102 78.2796 26.6402 76.1773 22.8934L73.2398 30.5565C73.1395 30.8222 72.9603 31.0509 72.7263 31.2118C72.4923 31.3727 72.2147 31.4583 71.9307 31.4569C71.7584 31.4595 71.5871 31.4291 71.4262 31.3675C71.2539 31.3017 71.0963 31.2026 70.9625 31.0757C70.8288 30.9488 70.7214 30.7966 70.6466 30.6281C70.5718 30.4595 70.5311 30.2778 70.5268 30.0935C70.5225 29.9091 70.5547 29.7258 70.6216 29.5539L74.3254 19.9176C72.2763 16.9299 69.8268 14.2376 67.0455 11.9161V20.0581C67.0455 20.4307 66.8975 20.788 66.634 21.0515C66.3705 21.315 66.0132 21.463 65.6406 21.463C65.268 21.463 64.9106 21.315 64.6472 21.0515C64.3837 20.788 64.2357 20.4307 64.2357 20.0581V9.76403C60.7027 7.32329 56.7908 5.48281 52.6581 4.31687L55.9787 11.7947C56.0572 11.9647 56.1009 12.1485 56.1074 12.3356C56.1138 12.5226 56.0828 12.7091 56.0162 12.884C55.9495 13.0589 55.8486 13.2187 55.7194 13.354C55.5901 13.4894 55.4351 13.5976 55.2635 13.6722C55.0812 13.7476 54.886 13.7866 54.6888 13.7871C54.4183 13.7878 54.1534 13.7097 53.9266 13.5622C53.6997 13.4148 53.5208 13.2045 53.4116 12.957L49.2224 3.525C46.8421 3.06549 44.4242 2.8282 42 2.81618C40.7867 2.81618 39.5925 2.88642 38.4048 2.99498L44.2031 8.79336C44.4542 9.0592 44.5917 9.41245 44.5865 9.77806C44.5813 10.1437 44.4337 10.4929 44.1752 10.7514C43.9166 11.01 43.5674 11.1575 43.2018 11.1628C42.8362 11.168 42.483 11.0304 42.2171 10.7794L34.9244 3.45477C30.7021 4.2254 26.6366 5.69061 22.8934 7.79079L30.5565 10.7283C30.8641 10.8439 31.1212 11.0641 31.2827 11.3504C31.4442 11.6366 31.4997 11.9705 31.4395 12.2936C31.3793 12.6167 31.2072 12.9083 30.9535 13.1172C30.6998 13.326 30.3806 13.4389 30.052 13.4359C29.8801 13.4342 29.7096 13.4039 29.5475 13.3465L19.9176 9.6427C16.9279 11.6942 14.2336 14.1458 11.9097 16.929H20.0964C20.469 16.929 20.8263 17.077 21.0898 17.3405C21.3533 17.6039 21.5013 17.9613 21.5013 18.3339C21.5013 18.7065 21.3533 19.0638 21.0898 19.3273C20.8263 19.5908 20.469 19.7388 20.0964 19.7388H9.76403C7.3267 23.2683 5.48842 27.1757 4.32325 31.3036L11.7947 27.9894C11.9634 27.9084 12.1465 27.8621 12.3334 27.8532C12.5202 27.8443 12.7069 27.873 12.8825 27.9375C13.0581 28.002 13.2189 28.1011 13.3555 28.2289C13.4921 28.3567 13.6016 28.5106 13.6777 28.6815C13.7537 28.8524 13.7947 29.0368 13.7982 29.2239C13.8018 29.4109 13.7677 29.5967 13.6981 29.7704C13.6286 29.944 13.5248 30.1019 13.3931 30.2347C13.2615 30.3676 13.1045 30.4726 12.9314 30.5437L3.53778 34.7456C3.07973 37.1304 2.84457 39.5525 2.83534 41.9808C2.83534 43.1942 2.91196 44.3883 3.02691 45.5761L8.81891 39.7841C9.08661 39.5476 9.43431 39.422 9.79133 39.4328C10.1483 39.4435 10.4879 39.5899 10.7408 39.842C10.9938 40.0942 11.1412 40.4332 11.1531 40.7902C11.165 41.1472 11.0405 41.4953 10.8049 41.7637L3.48031 49.0756C4.25449 53.2961 5.71721 57.3606 7.80995 61.1066L10.7347 53.4754C10.8815 53.147 11.1488 52.8874 11.4815 52.7502C11.8141 52.613 12.1867 52.6086 12.5224 52.738C12.8581 52.8674 13.1314 53.1206 13.286 53.4456C13.4405 53.7705 13.4644 54.1423 13.3529 54.4844L9.64908 64.1207C11.7054 67.1067 14.1613 69.7968 16.9482 72.1159V63.9292C16.9482 63.5566 17.0962 63.1992 17.3596 62.9358C17.6231 62.6723 17.9804 62.5243 18.353 62.5243C18.7257 62.5243 19.083 62.6723 19.3465 62.9358C19.6099 63.1992 19.7579 63.5566 19.7579 63.9292V74.2424C23.2897 76.6797 27.1992 78.518 31.3292 79.6831L28.0085 72.2053C27.9276 72.0366 27.8813 71.8535 27.8723 71.6666C27.8634 71.4798 27.8921 71.2931 27.9566 71.1175C28.0212 70.9419 28.1203 70.7811 28.2481 70.6445C28.3759 70.5079 28.5298 70.3984 28.7007 70.3223C28.8716 70.2463 29.056 70.2053 29.243 70.2018C29.4301 70.1983 29.6159 70.2323 29.7895 70.3019C29.9631 70.3715 30.121 70.4752 30.2539 70.6069C30.3867 70.7386 30.4918 70.8956 30.5629 71.0686L34.752 80.5005C37.1369 80.9567 39.5591 81.1898 41.9872 81.1966C43.2006 81.1966 44.3883 81.12 45.5697 81.0114L39.7777 75.2194C39.5267 74.9536 39.3891 74.6003 39.3943 74.2347C39.3996 73.8691 39.5471 73.5199 39.8057 73.2614C40.0642 73.0028 40.4134 72.8553 40.779 72.85C41.1446 72.8448 41.4979 72.9823 41.7637 73.2334L49.05 80.5261C53.2744 79.7587 57.3421 78.2956 61.0874 76.1965L53.4244 73.2589C53.2521 73.1932 53.0945 73.094 52.9607 72.9671C52.8269 72.8402 52.7195 72.6881 52.6448 72.5195C52.57 72.351 52.5293 72.1693 52.525 71.9849C52.5207 71.8006 52.5529 71.6172 52.6197 71.4454C52.7541 71.0984 53.02 70.8186 53.3597 70.6667C53.6993 70.5148 54.0852 70.5032 54.4333 70.6343L64.0633 74.3382C67.0544 72.2885 69.749 69.8367 72.0712 67.0519H63.91C63.5374 67.0519 63.18 66.9038 62.9166 66.6404C62.6531 66.3769 62.5051 66.0196 62.5051 65.647C62.5051 65.2744 62.6531 64.917 62.9166 64.6535C63.18 64.3901 63.5374 64.2421 63.91 64.2421H74.2232C76.6593 60.7119 78.4975 56.8047 79.664 52.6772L72.1861 55.9915C72.0076 56.0724 71.8137 56.1138 71.6178 56.1128C71.2961 56.1122 70.9844 56.0012 70.7347 55.7984C70.4851 55.5956 70.3126 55.3132 70.246 54.9985C70.1795 54.6838 70.223 54.3558 70.3692 54.0693C70.5154 53.7828 70.7555 53.5551 71.0494 53.4244L80.4814 49.2352C80.9394 46.8505 81.1746 44.4283 81.1838 42Z" fill="black"/>
<path d="M41.9996 16.1372C47.1158 16.1385 52.1168 17.6568 56.3701 20.5001C60.6234 23.3434 63.9382 27.3841 65.8952 32.1112C67.8522 36.8383 68.3635 42.0395 67.3647 47.0572C66.3658 52.0749 63.9015 56.6838 60.2833 60.301C56.6652 63.9183 52.0557 66.3815 47.0378 67.3791C42.0198 68.3768 36.8187 67.8641 32.0921 65.9059C27.3654 63.9478 23.3256 60.632 20.4833 56.378C17.6411 52.124 16.124 47.1226 16.124 42.0065C16.1325 35.147 18.8616 28.571 23.7125 23.7212C28.5635 18.8714 35.1402 16.144 41.9996 16.1372ZM65.0591 42.0001C65.0591 37.4393 63.7067 32.981 61.1729 29.1889C58.6391 25.3968 55.0377 22.4412 50.8241 20.6959C46.6106 18.9506 41.9741 18.494 37.501 19.3837C33.0279 20.2735 28.9191 22.4697 25.6942 25.6946C22.4692 28.9195 20.273 33.0283 19.3833 37.5014C18.4935 41.9745 18.9502 46.611 20.6955 50.8246C22.4408 55.0381 25.3964 58.6395 29.1885 61.1733C32.9806 63.7071 37.4389 65.0595 41.9996 65.0595C48.1133 65.0528 53.9747 62.6211 58.2977 58.2981C62.6207 53.9751 65.0523 48.1137 65.0591 42.0001Z" fill="white"/>
<path d="M57.4789 41.936C57.4916 42.4098 57.363 42.8767 57.1095 43.2771C56.856 43.6776 56.4891 43.9936 56.0554 44.1849C55.6218 44.3762 55.141 44.4341 54.6744 44.3514C54.2077 44.2686 53.7762 44.0489 53.4348 43.7201C53.0934 43.3914 52.8575 42.9685 52.7572 42.5052C52.6569 42.042 52.6967 41.5594 52.8715 41.1189C53.0463 40.6783 53.3482 40.2998 53.7389 40.0314C54.1295 39.7629 54.5911 39.6168 55.0651 39.6116C55.6891 39.6143 56.2881 39.8574 56.7377 40.2902C57.1872 40.7231 57.4527 41.3125 57.4789 41.936Z" fill="white"/>
<path d="M53.6221 51.234C53.6298 51.5433 53.5758 51.851 53.4633 52.1392C53.3508 52.4274 53.182 52.6903 52.9668 52.9126C52.7516 53.1349 52.4944 53.3122 52.21 53.434C51.9256 53.5559 51.6198 53.6199 51.3105 53.6223C50.8387 53.635 50.3738 53.5069 49.9751 53.2542C49.5764 53.0016 49.262 52.6359 49.0721 52.2039C48.8821 51.7718 48.8251 51.293 48.9084 50.8284C48.9917 50.3638 49.2115 49.9346 49.5397 49.5955C49.868 49.2563 50.2898 49.0227 50.7514 48.9243C51.213 48.8259 51.6935 48.8672 52.1315 49.043C52.5695 49.2188 52.9452 49.5211 53.2107 49.9113C53.4762 50.3016 53.6194 50.762 53.6221 51.234Z" fill="white"/>
<path d="M51.2918 30.3777C51.6008 30.3768 51.907 30.4375 52.1922 30.5563C52.4775 30.6751 52.7363 30.8497 52.9533 31.0697C53.1703 31.2897 53.3413 31.5508 53.4562 31.8376C53.5712 32.1245 53.6277 32.4314 53.6227 32.7404C53.6253 33.0556 53.5648 33.368 53.4448 33.6595C53.3248 33.9509 53.1477 34.2154 52.924 34.4373C52.7003 34.6593 52.4344 34.8342 52.142 34.9519C51.8496 35.0695 51.5367 35.1275 51.2216 35.1224C50.597 35.1107 50.0019 34.8548 49.5638 34.4095C49.1257 33.9642 48.8795 33.3651 48.8779 32.7404C48.877 32.4255 48.9392 32.1137 49.0608 31.8232C49.1824 31.5328 49.361 31.2697 49.586 31.0494C49.811 30.8291 50.0779 30.6562 50.3709 30.5408C50.6639 30.4255 50.977 30.37 51.2918 30.3777Z" fill="white"/>
<path d="M42.1081 34.8542C43.5165 34.8806 44.8856 35.3227 46.0435 36.125C47.2014 36.9272 48.0963 38.0537 48.6159 39.363C49.1355 40.6723 49.2565 42.106 48.9637 43.4839C48.671 44.8617 47.9775 46.1224 46.9705 47.1073C45.9634 48.0922 44.6878 48.7576 43.3037 49.0197C41.9197 49.2819 40.4891 49.1291 39.1916 48.5806C37.8941 48.0322 36.7877 47.1125 36.0114 45.9371C35.235 44.7617 34.8234 43.3831 34.8282 41.9745C34.834 41.0276 35.0274 40.0912 35.3973 39.2195C35.7671 38.3478 36.3061 37.5581 36.9831 36.896C37.66 36.2339 38.4615 35.7125 39.3412 35.3621C40.2209 35.0116 41.1613 34.839 42.1081 34.8542ZM46.7378 42.083C46.7541 41.1448 46.4918 40.2228 45.9842 39.4337C45.4765 38.6445 44.7462 38.0236 43.8856 37.6495C43.0251 37.2753 42.073 37.1648 41.1496 37.3317C40.2262 37.4987 39.3731 37.9357 38.698 38.5875C38.023 39.2393 37.5564 40.0767 37.3572 40.9936C37.1581 41.9106 37.2353 42.8661 37.5791 43.7392C37.9229 44.6123 38.5179 45.3638 39.2888 45.8988C40.0597 46.4338 40.9719 46.7282 41.9101 46.7447C42.5343 46.76 43.1554 46.651 43.7371 46.4242C44.3189 46.1974 44.8498 45.8573 45.299 45.4236C45.7481 44.9898 46.1067 44.4712 46.3537 43.8977C46.6007 43.3242 46.7313 42.7074 46.7378 42.083Z" fill="white"/>
<path d="M44.4074 55.0782C44.4112 55.5522 44.2739 56.0166 44.0129 56.4123C43.752 56.8079 43.3791 57.117 42.942 57.3002C42.5048 57.4833 42.023 57.5322 41.5579 57.4407C41.0929 57.3491 40.6655 57.1213 40.3304 56.7861C39.9952 56.4509 39.7674 56.0236 39.6758 55.5586C39.5843 55.0935 39.6332 54.6117 39.8163 54.1745C39.9995 53.7374 40.3085 53.3645 40.7042 53.1036C41.0999 52.8426 41.5643 52.7053 42.0383 52.7091C42.6615 52.7252 43.2548 52.98 43.6956 53.4208C44.1365 53.8617 44.3913 54.455 44.4074 55.0782Z" fill="white"/>
<path d="M44.4073 28.8769C44.4136 29.3509 44.2788 29.816 44.02 30.213C43.7611 30.6101 43.39 30.9212 42.9538 31.1067C42.5176 31.2922 42.0361 31.3437 41.5706 31.2546C41.105 31.1656 40.6765 30.9401 40.3395 30.6067C40.0026 30.2734 39.7724 29.8473 39.6783 29.3827C39.5843 28.9182 39.6306 28.4361 39.8114 27.998C39.9922 27.5598 40.2992 27.1853 40.6935 26.9222C41.0877 26.6591 41.5514 26.5193 42.0254 26.5205C42.6512 26.5254 43.2503 26.7744 43.6953 27.2146C44.1402 27.6547 44.3957 28.2512 44.4073 28.8769Z" fill="white"/>
<path d="M32.747 48.8777C33.0623 48.8793 33.3741 48.9434 33.6645 49.0661C33.9549 49.1889 34.2181 49.368 34.4389 49.593C34.6598 49.818 34.8339 50.0845 34.9512 50.3771C35.0685 50.6697 35.1268 50.9827 35.1226 51.2979C35.1177 51.6126 35.05 51.9232 34.9234 52.2114C34.7969 52.4996 34.614 52.7596 34.3856 52.9761C34.1571 53.1926 33.8877 53.3614 33.5932 53.4723C33.2986 53.5833 32.9849 53.6343 32.6704 53.6224C32.3596 53.6208 32.0524 53.557 31.7667 53.4347C31.4811 53.3123 31.2229 53.134 31.0074 52.9101C30.7918 52.6863 30.6234 52.4215 30.512 52.1314C30.4006 51.8413 30.3484 51.5318 30.3587 51.2213C30.3603 50.9102 30.4236 50.6025 30.5447 50.316C30.6659 50.0295 30.8426 49.7698 31.0646 49.552C31.2867 49.3341 31.5497 49.1623 31.8384 49.0466C32.1272 48.9309 32.436 48.8734 32.747 48.8777Z" fill="white"/>
<path d="M35.1156 32.7149C35.1357 33.0363 35.0903 33.3585 34.982 33.6618C34.8738 33.9651 34.705 34.2432 34.486 34.4793C34.2669 34.7153 34.0021 34.9044 33.7077 35.0349C33.4133 35.1655 33.0955 35.2348 32.7735 35.2387C32.4514 35.2426 32.132 35.181 31.8345 35.0576C31.5371 34.9342 31.2678 34.7517 31.0431 34.521C30.8183 34.2903 30.6429 34.0163 30.5273 33.7157C30.4118 33.4151 30.3585 33.0942 30.3709 32.7724C30.3942 32.1635 30.6506 31.5869 31.0871 31.1617C31.5235 30.7366 32.1067 30.4953 32.7159 30.488C33.3252 30.4806 33.914 30.7076 34.3606 31.1221C34.8072 31.5365 35.0775 32.1068 35.1156 32.7149Z" fill="white"/>
<path d="M31.2845 41.9807C31.287 42.296 31.2271 42.6086 31.1082 42.9006C30.9893 43.1926 30.8138 43.4581 30.5917 43.6819C30.3697 43.9057 30.1056 44.0834 29.8146 44.2046C29.5235 44.3258 29.2114 44.3882 28.8961 44.3882C28.2627 44.3882 27.6552 44.1366 27.2073 43.6887C26.7594 43.2408 26.5078 42.6333 26.5078 41.9999C26.5078 41.3665 26.7594 40.759 27.2073 40.3111C27.6552 39.8632 28.2627 39.6116 28.8961 39.6116C29.5247 39.6165 30.1265 39.8671 30.5728 40.3098C31.019 40.7525 31.2745 41.3522 31.2845 41.9807Z" fill="white"/>
</g>
<defs>
<clipPath id="clip0_2743_25273">
<rect width="84" height="84" fill="white"/>
</clipPath>
</defs>
</svg>
