<svg width="100" height="100" viewBox="0 0 100 100" fill="none" xmlns="http://www.w3.org/2000/svg">
<g clip-path="url(#clip0_2780_25206)">
<path d="M96.4001 39.5699L90.6829 38.6657L81.3546 34.5828L72.1723 30.5561C71.8215 30.4058 71.4565 30.291 71.0828 30.2135C70.923 30.1135 70.7447 30.0465 70.5585 30.0166C70.3723 29.9867 70.182 29.9945 69.9989 30.0394H52.8586C52.3868 30.0394 40.9974 29.5677 32.8541 35.7566L24.2839 40.856L7.96923 45.0119C7.09523 45.2504 6.25257 45.5917 5.45884 46.0284C3.81341 46.9453 2.44099 48.2828 1.48188 49.904C0.522778 51.5252 0.0113908 53.372 0 55.2556V56.1711C0.147651 57.7837 0.385767 59.3868 0.713237 60.9728C0.843687 61.611 1.18816 62.1854 1.68962 62.6011C2.19109 63.0168 2.81947 63.2487 3.47074 63.2586H12.6418C13.2327 65.2239 14.4412 66.9465 16.0881 68.171C17.7349 69.3955 19.7326 70.0568 21.7848 70.0568C23.837 70.0568 25.8346 69.3955 27.4815 68.171C29.1284 66.9465 30.3369 65.2239 30.9278 63.2586H68.3983C68.9757 65.235 70.1783 66.9709 71.8257 68.2059C73.4732 69.441 75.4767 70.1086 77.5357 70.1086C79.5947 70.1086 81.5982 69.441 83.2456 68.2059C84.8931 66.9709 86.0957 65.235 86.673 63.2586H90.7559C93.2072 63.2541 95.5567 62.278 97.2895 60.5441C99.0223 58.8103 99.997 56.4602 100 54.0089V43.7707C99.9943 42.7577 99.6293 41.7796 98.9701 41.0104C98.311 40.2412 97.4003 39.7308 96.4001 39.5699ZM97.1414 51.4704H95.2713V46.7416H97.1414V51.4704ZM55.4139 32.898H69.1846L71.2288 40.9234L53.2012 41.8276L55.4139 32.898ZM73.9863 40.1708L72.3689 33.8247L78.1703 36.3631L73.9863 40.1708ZM34.3704 38.1378L34.5165 38.0423C41.1827 32.898 50.7582 32.7969 52.4879 32.898L50.2415 41.9848L33.4438 42.8272C31.5162 42.9054 29.5881 42.6876 27.7266 42.1814L34.3704 38.1378ZM4.85791 50.1281L4.98709 52.4139C4.99701 52.6358 4.92539 52.8537 4.78572 53.0265C4.64606 53.1993 4.448 53.315 4.22891 53.3518L3.072 53.554C3.36811 52.2794 3.98256 51.1007 4.85791 50.1281ZM21.7848 67.2516C20.223 67.2634 18.7056 66.7324 17.4919 65.7494C16.2782 64.7663 15.4437 63.3922 15.131 61.862C14.8182 60.3318 15.0466 58.7404 15.7772 57.36C16.5078 55.9795 17.6952 54.8957 19.1364 54.2938C20.5776 53.6919 22.1832 53.6092 23.6786 54.0599C25.174 54.5106 26.4664 55.4668 27.3349 56.7648C28.2035 58.0629 28.5942 59.6224 28.4402 61.1767C28.2863 62.7309 27.5973 64.1834 26.4911 65.286C25.2445 66.5386 23.552 67.2455 21.7848 67.2516ZM90.7166 60.4112H87.083C86.8987 58.0128 85.8158 55.7724 84.0509 54.138C82.286 52.5036 79.9692 51.5956 77.5637 51.5956C75.1583 51.5956 72.8415 52.5036 71.0766 54.138C69.3117 55.7724 68.2288 58.0128 68.0445 60.4112H31.3153C31.3926 59.112 31.2034 57.8107 30.7594 56.5872C30.3154 55.3638 29.6259 54.244 28.7333 53.2968C27.8408 52.3495 26.7639 51.5948 25.569 51.0789C24.3741 50.563 23.0863 50.2969 21.7848 50.2969C20.4833 50.2969 19.1955 50.563 18.0006 51.0789C16.8056 51.5948 15.7288 52.3495 14.8362 53.2968C13.9437 54.244 13.2542 55.3638 12.8102 56.5872C12.3662 57.8107 12.177 59.112 12.2543 60.4112H3.51567C3.22925 58.878 3.04391 57.5526 2.92598 56.4238L4.70066 56.1261C5.61481 55.9714 6.43964 55.4845 7.01694 54.759C7.59423 54.0335 7.88335 53.1204 7.82882 52.1949L7.59856 48.112C7.95366 47.9658 8.31754 47.842 8.68808 47.7413L24.4131 43.6697C27.4683 45.8094 32.8822 45.5847 33.5393 45.5567L73.0428 43.6135C73.8955 43.5642 74.7058 43.2254 75.3398 42.6531L80.984 37.5425L89.6271 41.3277C89.7352 41.3964 89.8552 41.444 89.9809 41.4681L95.8834 42.4117C96.2211 42.4667 96.528 42.6407 96.7484 42.9024C96.9689 43.1641 97.0884 43.496 97.0853 43.8381V43.9561H95.0522C94.3477 43.9561 93.6721 44.2359 93.1739 44.7341C92.6757 45.2323 92.3958 45.908 92.3958 46.6125V51.7849C92.4283 52.4686 92.7217 53.1139 93.2158 53.5877C93.7091 54.0622 94.3678 54.3261 95.0522 54.3234H97.1246C97.048 55.9648 96.3416 57.5135 95.1523 58.6474C93.9629 59.7812 92.3823 60.413 90.7391 60.4112H90.7166Z" fill="black"/>
<path d="M44.4286 49.2238H40.4973C40.3021 49.2115 40.1064 49.2394 39.9224 49.3057C39.7383 49.372 39.5698 49.4753 39.4272 49.6092C39.2847 49.7431 39.171 49.9048 39.0933 50.0844C39.0157 50.2639 38.9756 50.4574 38.9756 50.6531C38.9756 50.8487 39.0157 51.0422 39.0933 51.2217C39.171 51.4013 39.2847 51.563 39.4272 51.6969C39.5698 51.8308 39.7383 51.9341 39.9224 52.0004C40.1064 52.0667 40.3021 52.0946 40.4973 52.0823H44.4286C44.7922 52.0595 45.1334 51.899 45.3828 51.6335C45.6322 51.368 45.7711 51.0174 45.7711 50.6531C45.7711 50.2888 45.6322 49.9381 45.3828 49.6726C45.1334 49.4071 44.7922 49.2466 44.4286 49.2238Z" fill="black"/>
<path d="M63.6188 51.6162L64.4332 49.1058L62.3271 47.5446V44.8994L59.8167 44.085L58.935 41.642H56.2898L54.7286 39.536L52.2182 40.3503L50.1178 38.7217L47.9443 40.2942L45.4339 39.4799L43.8727 41.5859H41.2275L40.4132 44.0963L37.9028 44.9106V47.5558L35.7967 49.1171L36.6111 51.6274L35.0498 53.7728L36.6111 55.9406L35.7967 58.451L37.9028 60.0123V62.663L40.4132 63.4718L41.2275 65.9878H43.8727L45.4339 68.0882L47.9443 67.2738L50.1178 68.8351L52.2856 67.2738L54.796 68.0882L56.3572 65.9878H59.0024L59.8167 63.4718L62.3271 62.6574V60.0123L64.4332 58.451L63.6188 55.9406L65.1801 53.7728L63.6188 51.6162ZM50.1402 64.5781C48.0046 64.5837 45.9154 63.9556 44.1369 62.7734C42.3583 61.5912 40.9705 59.908 40.1488 57.9368C39.3272 55.9656 39.1088 53.795 39.5212 51.6996C39.9336 49.6042 40.9583 47.6782 42.4657 46.1654C43.973 44.6526 45.8952 43.6208 47.9891 43.2008C50.083 42.7808 52.2544 42.9913 54.2286 43.8057C56.2028 44.6201 57.891 46.0018 59.0797 47.7761C60.2684 49.5503 60.904 51.6372 60.9063 53.7728C60.91 55.1914 60.6335 56.5968 60.0929 57.9083C59.5522 59.2198 58.758 60.4117 57.7557 61.4156C56.7533 62.4195 55.5627 63.2156 54.252 63.7583C52.9413 64.301 51.5364 64.5796 50.1178 64.5781H50.1402Z" fill="#FF3124"/>
<path d="M50.1178 38.7218L52.2183 40.3504L54.7286 39.5361L56.2899 41.6421H58.9351L59.8168 44.0851L62.3272 44.8995V47.5446L64.4332 49.1059L63.6189 51.6163L65.1802 53.7729L63.6189 55.9407L64.4332 58.4511L62.3272 60.0123V62.6575L59.8168 63.4718L59.0025 66.0047H56.3573L54.796 68.1051L52.2632 67.2908L50.0954 68.8521L47.9219 67.2908L45.4115 68.1051L43.8503 66.0047H41.2051L40.3908 63.4887L37.8804 62.68V60.0292L35.7744 58.4679L36.5887 55.9575L35.0499 53.7729L36.6111 51.5994L35.7968 49.0891L37.9028 47.5278V44.8995L40.4132 44.0851L41.2276 41.5747H43.8727L45.434 39.4687L47.9444 40.283L50.1178 38.7218ZM50.1178 64.5557C52.2541 64.5602 54.3437 63.9306 56.122 62.7468C57.9003 61.5629 59.2873 59.878 60.1074 57.9054C60.9275 55.9327 61.1438 53.7611 60.7289 51.6655C60.3141 49.5698 59.2867 47.6444 57.7769 46.133C56.267 44.6217 54.3427 43.5923 52.2475 43.1752C50.1523 42.7582 47.9805 42.9722 46.007 43.7903C44.0335 44.6083 42.3471 45.9935 41.1614 47.7706C39.9757 49.5476 39.344 51.6366 39.3462 53.7729C39.344 55.1907 39.6217 56.5951 40.1634 57.9054C40.7052 59.2157 41.5002 60.4061 42.5031 61.4084C43.5059 62.4107 44.6968 63.2052 46.0074 63.7463C47.3179 64.2873 48.7224 64.5643 50.1403 64.5614L50.1178 64.5557ZM50.174 36.6045L49.1519 37.3402L47.6748 38.4016L45.99 37.84L44.8387 37.4638L44.1199 38.4353L43.064 39.8618H40.0426L39.6607 41.0244L39.0991 42.7092L37.4142 43.2708L36.2517 43.6527V46.6741L34.8252 47.73L33.8536 48.4488L34.2299 49.6001L34.7915 51.2849L33.7301 52.7676L32.9775 53.7729L33.6852 54.7557L34.7466 56.2327L34.185 57.9175L33.8087 59.0688L34.7803 59.7877L36.2068 60.8435V63.8818L37.3693 64.2581L39.0541 64.8197L39.6158 66.5045L39.9976 67.6727H43.0191L44.0749 69.0935L44.7938 70.0651L45.9451 69.6889L47.6299 69.1272L49.1069 70.1943L50.0954 70.9019L51.0782 70.1943L52.5552 69.1272L54.24 69.6889L55.3913 70.0651L56.1102 69.0935L57.166 67.6727H60.1931L60.5694 66.5045L61.131 64.8197L62.8158 64.2581L63.9783 63.8818V60.8548L65.4048 59.7989L66.3764 59.0801L66.0001 57.9288L65.4385 56.2439L66.5056 54.7669L67.2076 53.7841L66.5056 52.8013L65.4385 51.3186L66.0001 49.6338L66.3764 48.4825L65.4048 47.7637L63.9783 46.7078V43.6639L62.8158 43.282L61.0917 42.7204L60.4907 41.0356L60.0864 39.9124H57.1042L56.0484 38.4859L55.3296 37.5143L54.2063 37.8906L52.5215 38.4522L51.14 37.3907L50.1459 36.6213L50.174 36.6045ZM50.1403 62.8765C48.3372 62.8821 46.5731 62.3524 45.0712 61.3546C43.5694 60.3568 42.3975 58.9358 41.7039 57.2714C41.0103 55.6071 40.8262 53.7744 41.175 52.0053C41.5237 50.2363 42.3896 48.6106 43.663 47.334C44.9364 46.0575 46.56 45.1875 48.3282 44.8344C50.0963 44.4813 51.9295 44.6608 53.5956 45.3503C55.2616 46.0398 56.6856 47.2082 57.6871 48.7076C58.6886 50.2069 59.2226 51.9698 59.2215 53.7729C59.2185 56.1864 58.2584 58.5002 56.5518 60.2069C54.8452 61.9135 52.5314 62.8736 50.1178 62.8765H50.1403Z" fill="white"/>
<ellipse cx="77.502" cy="60.6077" rx="6.7393" ry="6.7393" fill="white"/>
<path d="M50.1184 44.2874C48.238 44.2862 46.3996 44.843 44.8358 45.8872C43.2721 46.9315 42.0533 48.4161 41.3337 50.1534C40.6141 51.8906 40.4261 53.8022 40.7935 55.6464C41.1609 57.4905 42.0671 59.1841 43.3975 60.513C44.7279 61.8418 46.4227 62.746 48.2672 63.1112C50.1118 63.4764 52.0232 63.2862 53.7596 62.5646C55.4959 61.8429 56.9792 60.6224 58.0215 59.0574C59.0639 57.4923 59.6185 55.6533 59.6152 53.7729C59.599 51.2603 58.5928 48.8553 56.815 47.0796C55.0372 45.3039 52.6311 44.3006 50.1184 44.2874Z" fill="#FF3124"/>
<path d="M51.3649 49.6899V57.895H49.1184V51.7173H49.0679L47.2764 52.79V50.903L49.2925 49.6675L51.3649 49.6899Z" fill="white"/>
<path d="M77.5353 56.1821C76.515 56.1806 75.5259 56.533 74.7364 57.1792C73.9469 57.8254 73.406 58.7254 73.2058 59.7257C73.0056 60.7261 73.1586 61.765 73.6387 62.6652C74.1187 63.5654 74.8961 64.2712 75.8383 64.6624C76.7806 65.0536 77.8293 65.1059 78.8058 64.8104C79.7823 64.5148 80.626 63.8898 81.1932 63.0418C81.7604 62.1938 82.016 61.1753 81.9163 60.16C81.8166 59.1447 81.3679 58.1953 80.6466 57.4738C80.2383 57.0646 79.7534 56.7399 79.2195 56.5182C78.6856 56.2966 78.1133 56.1824 77.5353 56.1821ZM77.5353 62.1239C77.181 62.1215 76.8386 61.9964 76.5661 61.77C76.2937 61.5436 76.108 61.2299 76.0407 60.8821C75.9734 60.5343 76.0286 60.174 76.197 59.8623C76.3653 59.5506 76.6363 59.3068 76.9641 59.1723C77.2918 59.0379 77.656 59.0211 77.9947 59.1247C78.3334 59.2284 78.6258 59.4462 78.8221 59.741C79.0185 60.0358 79.1067 60.3896 79.0717 60.7421C79.0368 61.0946 78.8808 61.4241 78.6304 61.6747C78.3392 61.9634 77.9454 62.125 77.5353 62.1239Z" fill="black"/>
<path d="M21.7853 56.1821C20.7651 56.1806 19.7759 56.533 18.9864 57.1792C18.1969 57.8254 17.656 58.7254 17.4558 59.7257C17.2556 60.7261 17.4086 61.765 17.8887 62.6652C18.3687 63.5654 19.1461 64.2712 20.0883 64.6624C21.0306 65.0536 22.0793 65.1059 23.0558 64.8104C24.0323 64.5148 24.876 63.8898 25.4432 63.0418C26.0104 62.1938 26.266 61.1753 26.1663 60.16C26.0666 59.1447 25.6179 58.1953 24.8966 57.4738C24.4883 57.0646 24.0034 56.7399 23.4695 56.5182C22.9356 56.2966 22.3633 56.1824 21.7853 56.1821ZM21.7853 62.1239C21.4278 62.1238 21.0814 61.9997 20.8052 61.7727C20.5291 61.5458 20.3402 61.2301 20.2708 60.8794C20.2013 60.5287 20.2557 60.1648 20.4246 59.8498C20.5936 59.5347 20.8665 59.288 21.197 59.1517C21.5275 59.0155 21.895 58.998 22.2369 59.1025C22.5788 59.2069 22.8739 59.4266 23.0718 59.7243C23.2698 60.022 23.3583 60.3791 23.3224 60.7348C23.2865 61.0904 23.1283 61.4226 22.8748 61.6747C22.5849 61.962 22.1934 62.1235 21.7853 62.1239Z" fill="black"/>
</g>
<defs>
<clipPath id="clip0_2780_25206">
<rect width="100" height="40.93" fill="white" transform="translate(0 30)"/>
</clipPath>
</defs>
</svg>
