<svg width="100" height="100" viewBox="0 0 100 100" fill="none" xmlns="http://www.w3.org/2000/svg">
<g clip-path="url(#clip0_2780_25224)">
<path d="M88.5207 66.4303L84.3869 62.4924V55.2584C84.3699 54.503 84.1737 53.7624 83.8143 53.0977C83.455 52.433 82.9428 51.8633 82.3201 51.4354L77.9972 48.5917V38.2169C78.0089 37.7509 77.9275 37.2872 77.7578 36.8531C77.5882 36.4189 77.3336 36.0229 77.0091 35.6883C76.6845 35.3537 76.2965 35.0872 75.8677 34.9044C75.439 34.7215 74.978 34.626 74.5119 34.6235C73.8156 34.6255 73.1342 34.8245 72.5463 35.1976L72.3099 35.3462C71.8168 34.7368 71.1937 34.2452 70.4862 33.9075L69.7365 33.563L70.9455 26.7545C71.1148 25.6799 71.0055 24.5799 70.6281 23.5596L68.7436 18.6694C68.4248 17.8729 67.8742 17.1905 67.163 16.7106C66.4564 16.2255 65.6222 15.96 64.7652 15.9474H62.7388C62.6565 15.2009 62.3867 14.4874 61.9544 13.8733C61.5222 13.2592 60.9416 12.7644 60.2667 12.435L55.059 9.98315C54.4243 9.68972 53.7319 9.54201 53.0327 9.55087C52.5948 9.54956 52.1587 9.60634 51.7358 9.71973C51.2932 9.16906 50.7357 8.72175 50.1021 8.40907C49.4686 8.09639 48.7744 7.9259 48.0681 7.90953H46.4538L46.2174 7.4097C45.8678 6.69108 45.3344 6.07767 44.6714 5.63165C44.0083 5.18564 43.239 4.92288 42.4416 4.87001L40.9894 4.78221L40.2667 3.35701C39.9314 2.7263 39.463 2.17608 38.8938 1.74452C38.3246 1.31297 37.6683 1.01042 36.9705 0.857854L33.188 0.0878443C32.8923 0.0282106 32.5913 -0.00120816 32.2897 3.79836e-05C31.2271 -0.00015648 30.1899 0.325139 29.3177 0.932154L27.8182 2.02638H14.7078C13.7661 2.03946 12.8569 2.37212 12.1291 2.96979C11.4014 3.56747 10.8983 4.39469 10.7024 5.31581L10.0269 8.57822C9.84841 9.50091 9.99177 10.4569 10.4331 11.2867C10.8744 12.1164 11.5869 12.7697 12.4518 13.1375L16.8962 15.0152L26.7037 35.6637C26.9829 36.2341 27.3842 36.7362 27.8792 37.1343C28.3741 37.5323 28.9505 37.8166 29.5676 37.9669L29.6757 39.0139C29.768 39.795 30.0585 40.5394 30.5196 41.1766C30.9806 41.8138 31.5969 42.3226 32.3099 42.6545L33.215 43.0598L33.8905 45.4644C34.2293 46.5677 34.8817 47.5487 35.7682 48.2878L40.1924 51.8339L43.34 67.1057V67.2003L40.1856 77.1429C39.9063 78.0724 39.8167 79.0487 39.9222 80.0135L41.2123 90.2128L40.3748 91.4624C39.8846 92.2178 39.648 93.1098 39.6993 94.0088C39.7555 94.9041 40.0909 95.7592 40.6585 96.4539L42.4822 98.6154C42.8166 99.0115 43.2268 99.337 43.6886 99.5726C44.1504 99.8083 44.6546 99.9495 45.1717 99.9878C45.6887 100.026 46.2083 99.961 46.6998 99.7961C47.1914 99.6312 47.6451 99.3698 48.0343 99.0274L48.7706 98.3519L50.6416 98.8788C50.9802 98.9732 51.3302 99.0209 51.6818 99.0206C52.1696 99.0243 52.6533 98.9303 53.1043 98.744C53.5552 98.5578 53.9643 98.2831 54.3074 97.9363C54.6505 97.5894 54.9207 97.1773 55.102 96.7244C55.2832 96.2714 55.372 95.7867 55.363 95.2989V91.4219L58.7402 89.7535C59.4655 89.3799 60.0756 88.8162 60.5051 88.1225C60.9346 87.4288 61.1674 86.6314 61.1786 85.8156V84.0054L64.3802 81.9791C65.019 81.557 65.5458 80.9862 65.9152 80.3155C66.2847 79.6449 66.4857 78.8946 66.5011 78.1291V74.5424C66.4891 73.7348 66.3779 72.9318 66.1701 72.1513C66.1402 72.0413 66.1041 71.9331 66.062 71.8271L65.6162 70.7194L65.7986 70.6181C66.1249 71.0017 66.5307 71.3097 66.9879 71.5208C67.4451 71.732 67.9428 71.8411 68.4464 71.8406C69.3027 71.8399 70.13 71.5306 70.7767 70.9693L71.3575 71.6447C72.0114 72.4279 72.9437 72.9267 73.958 73.0362C74.973 73.1445 75.9908 72.8592 76.8017 72.2391L78.3957 70.9963L78.828 71.2935C79.7787 71.9237 80.8892 72.2705 82.0296 72.2932H86.1363C86.8387 72.3275 87.5343 72.1417 88.126 71.7617C88.7177 71.3818 89.1761 70.8266 89.4371 70.1736C89.6981 69.5207 89.7488 68.8025 89.5821 68.1193C89.4154 67.4362 89.0396 66.8221 88.5072 66.3627L88.5207 66.4303ZM86.1498 69.2334H82.0431C81.5352 69.2118 81.0416 69.0581 80.6112 68.7876L78.9496 67.6393C78.7684 67.5235 78.5566 67.4646 78.3417 67.4705C78.0992 67.4609 77.8608 67.5349 77.6662 67.6799L74.8834 69.8345C74.716 69.9606 74.507 70.0182 74.2987 69.9956C74.0904 69.973 73.8986 69.872 73.7621 69.713L71.5737 67.0787C71.5088 67.0003 71.4286 66.9359 71.3381 66.8894C71.2475 66.843 71.1484 66.8155 71.0468 66.8085C70.9455 66.8023 70.844 66.8171 70.7487 66.852C70.6534 66.8868 70.5663 66.941 70.493 67.0112L68.8044 68.585C68.76 68.6379 68.7055 68.6813 68.6439 68.7126C68.5824 68.744 68.5152 68.7626 68.4464 68.7673C68.2843 68.7673 68.1357 68.6323 68.0006 68.3756L67.1968 67.2003C66.9671 66.8626 66.6902 66.6059 66.2714 66.8356L62.4416 68.9497C62.2512 69.0645 62.1025 69.2372 62.0174 69.4427C61.9323 69.6481 61.9153 69.8754 61.9688 70.0912L63.1644 73.0497C63.2939 73.5533 63.3664 74.0699 63.3805 74.5897V78.1763C63.3661 78.4157 63.2979 78.6487 63.181 78.858C63.064 79.0674 62.9013 79.2476 62.7051 79.3854L58.7334 81.871C58.5366 82.0066 58.3734 82.1855 58.2563 82.3939C58.1393 82.6023 58.0714 82.8347 58.058 83.0733V85.8224C58.0519 86.0535 57.9866 86.2792 57.8684 86.4779C57.7501 86.6766 57.5828 86.8416 57.3825 86.9571L52.9921 89.1388C52.7918 89.2544 52.6246 89.4194 52.5063 89.6181C52.388 89.8167 52.3227 90.0424 52.3167 90.2736V95.3057C52.3189 95.3981 52.2989 95.4898 52.2586 95.573C52.2182 95.6562 52.1585 95.7286 52.0845 95.7841C52.0105 95.8396 51.9243 95.8766 51.8331 95.8921C51.7419 95.9076 51.6483 95.901 51.5602 95.873L48.8111 95.103C48.7029 95.0759 48.5917 95.0623 48.4801 95.0625C48.1127 95.0566 47.7546 95.1783 47.467 95.407L46.0485 96.6498C45.8908 96.7835 45.6876 96.8512 45.4812 96.8389C45.3788 96.8314 45.2789 96.8036 45.1873 96.7573C45.0957 96.7109 45.0142 96.6468 44.9476 96.5688L43.1239 94.4073C42.9844 94.2309 42.902 94.0162 42.8875 93.7918C42.873 93.5674 42.9272 93.3439 43.0428 93.151L44.0762 91.584C44.3292 91.1512 44.4446 90.6518 44.4072 90.152L43.0563 79.588C43.0096 79.0752 43.0554 78.5582 43.1914 78.0615L46.3863 68.0379C46.5211 67.5428 46.5487 67.0247 46.4673 66.5181L43.2319 50.8342C43.1093 50.3467 42.8406 49.9084 42.4619 49.5779L37.7675 45.8224C37.3896 45.484 37.1057 45.0535 36.9435 44.5728L36.0722 41.5198C35.9087 41.0567 35.5756 40.6728 35.1401 40.4458L33.6203 39.7704C33.4091 39.6639 33.2265 39.5084 33.0878 39.3169C32.9492 39.1253 32.8584 38.9033 32.8233 38.6694L32.5058 35.5488C32.4741 35.3477 32.3672 35.166 32.2067 35.0407C32.0462 34.9153 31.8441 34.8555 31.6412 34.8734C31.3103 34.8734 30.9658 34.9612 30.6348 34.9612C30.4217 34.9565 30.2138 34.8952 30.0322 34.7836C29.8506 34.672 29.7019 34.5142 29.6014 34.3263L19.625 13.3064C19.3879 12.8631 19.0167 12.5061 18.5646 12.2864L13.7419 10.2601C13.5427 10.1675 13.379 10.0127 13.2755 9.81899C13.1719 9.62529 13.1341 9.40318 13.1678 9.18612L13.8432 5.92371C13.8948 5.70956 14.0153 5.51827 14.1861 5.37918C14.3569 5.24008 14.5687 5.16087 14.7888 5.1537H28.1222C28.6294 5.13467 29.121 4.97315 29.5406 4.68764L31.2292 3.45833C31.5659 3.24256 31.9573 3.12771 32.3572 3.12736C32.6514 3.14767 32.9431 3.19516 33.2285 3.2692L36.4234 3.94465C36.6581 4.00559 36.8782 4.11288 37.0707 4.26021C37.2633 4.40753 37.4244 4.59191 37.5446 4.80247L38.7267 7.11926C38.8457 7.32428 39.0108 7.49877 39.2089 7.6289C39.407 7.75904 39.6328 7.84124 39.8682 7.869L42.3201 8.0176C42.5552 8.04037 42.7809 8.12149 42.9767 8.25359C43.1725 8.3857 43.3322 8.56462 43.4413 8.7741L44.191 10.3546C44.3054 10.553 44.4683 10.7191 44.6644 10.8372C44.8605 10.9554 45.0835 11.0218 45.3123 11.0301H48.1222C48.3648 11.0466 48.6009 11.1156 48.8143 11.2322C49.0277 11.3488 49.2133 11.5103 49.3582 11.7055L50.493 13.3266C50.5374 13.3876 50.5952 13.4376 50.6619 13.4727C50.7287 13.5078 50.8026 13.5272 50.878 13.5292C51.0115 13.5222 51.1413 13.4828 51.2562 13.4144L52.3437 12.8606C52.5671 12.7619 52.8087 12.711 53.0529 12.711C53.2972 12.711 53.5387 12.7619 53.7621 12.8606L58.9631 15.3124C59.1678 15.4225 59.3406 15.5836 59.4648 15.78C59.5891 15.9764 59.6605 16.2016 59.6723 16.4337V18.3452C59.672 18.4481 59.6921 18.5501 59.7315 18.6452C59.771 18.7403 59.8289 18.8266 59.902 18.8991C59.9757 18.9723 60.0632 19.0303 60.1594 19.0697C60.2556 19.1091 60.3586 19.1292 60.4626 19.1287H64.8057C65.0338 19.1392 65.2544 19.213 65.4429 19.3418C65.6314 19.4707 65.7803 19.6495 65.8729 19.8582L67.7912 24.7552C67.954 25.2396 68.0048 25.7546 67.9398 26.2614L66.4403 34.6775C66.4102 34.8979 66.4493 35.1222 66.5521 35.3194C66.655 35.5166 66.8165 35.677 67.0144 35.7785L69.2502 36.7984C69.6925 37.0303 70.0444 37.4037 70.2498 37.8589L70.8172 39.3111C70.9253 39.5813 71.1211 39.7906 71.4318 39.6623C71.7425 39.534 74.2687 37.9062 74.2687 37.9062C74.3308 37.8485 74.4093 37.8117 74.4934 37.801C74.5774 37.7903 74.6627 37.8061 74.7372 37.8464C74.8117 37.8866 74.8718 37.9492 74.9089 38.0254C74.946 38.1015 74.9584 38.1874 74.9442 38.2709V49.5441C74.9595 49.7842 75.0281 50.0178 75.1449 50.2281C75.2617 50.4384 75.4239 50.6201 75.6196 50.7599L80.699 54.0966C80.8934 54.2378 81.0546 54.4198 81.1712 54.6298C81.2879 54.8398 81.3573 55.0728 81.3744 55.3124V63.1071C81.3959 63.6108 81.5972 64.09 81.9418 64.458L86.4808 68.7741C86.7983 69.078 86.697 69.3145 86.2647 69.3145L86.1498 69.2334Z" fill="black"/>
<path d="M54.0329 46.1804L55.0123 43.1611L52.4793 41.2834V38.102L49.4601 37.1226L48.3996 34.1844H45.2183L43.3405 31.6515L40.3213 32.6309L37.7951 30.6721L35.1811 32.5634L32.1619 31.584L30.2841 34.1169H27.1028L26.1234 37.1362L23.1041 38.1156V41.2969L20.5712 43.1747L21.5506 46.1939L19.6729 48.7741L21.5506 51.3813L20.5712 54.4006L23.1041 56.2783V59.4664L26.1234 60.4391L27.1028 63.4651H30.2841L32.1619 65.9913L35.1811 65.0119L37.7951 66.8896L40.4023 65.0119L43.4216 65.9913L45.2993 63.4651H48.4807L49.4601 60.4391L52.4793 59.4597V56.2783L55.0123 54.4006L54.0329 51.3813L55.9106 48.7741L54.0329 46.1804ZM37.8221 61.7697C35.2537 61.7764 32.7409 61.021 30.6019 59.5992C28.4629 58.1774 26.7936 56.153 25.8055 53.7822C24.8173 51.4114 24.5546 48.8008 25.0506 46.2807C25.5466 43.7605 26.779 41.4442 28.5919 39.6247C30.4048 37.8052 32.7166 36.5643 35.235 36.0592C37.7533 35.554 40.3648 35.8072 42.7392 36.7867C45.1136 37.7662 47.144 39.428 48.5736 41.5618C50.0033 43.6957 50.7678 46.2056 50.7705 48.7741C50.7749 50.4803 50.4425 52.1705 49.7922 53.7479C49.142 55.3253 48.1867 56.7588 46.9812 57.9661C45.7757 59.1735 44.3437 60.131 42.7674 60.7837C41.191 61.4364 39.5013 61.7715 37.7951 61.7697H37.8221Z" fill="#FF3124"/>
<path d="M37.7943 30.6722L40.3205 32.631L43.3398 31.6516L45.2175 34.1845H48.3989L49.4593 37.1227L52.4786 38.1021V41.2835L55.0115 43.1612L54.0321 46.1804L55.9099 48.7742L54.0321 51.3814L55.0115 54.4006L52.4786 56.2784V59.4597L49.4593 60.4391L48.4799 63.4854H45.2986L43.4208 66.0116L40.3746 65.0322L37.7673 66.9099L35.1533 65.0322L32.1341 66.0116L30.2564 63.4854H27.075L26.0956 60.4594L23.0763 59.4868V56.2986L20.5434 54.4209L21.5228 51.4017L19.6721 48.7742L21.5498 46.1602L20.5704 43.1409L23.1034 41.2632V38.1021L26.1226 37.1227L27.102 34.1034H30.2834L32.1611 31.5705L35.1804 32.5499L37.7943 30.6722ZM37.7943 61.7428C40.3637 61.7481 42.8768 60.9909 45.0156 59.5671C47.1543 58.1432 48.8225 56.1168 49.8088 53.7443C50.7951 51.3718 51.0553 48.76 50.5563 46.2396C50.0574 43.7192 48.8217 41.4035 47.0059 39.5857C45.19 37.768 42.8756 36.5299 40.3557 36.0284C37.8358 35.5268 35.2237 35.7842 32.8502 36.7681C30.4767 37.7519 28.4485 39.418 27.0225 41.5552C25.5964 43.6925 24.8366 46.2048 24.8393 48.7742C24.8366 50.4794 25.1706 52.1684 25.8222 53.7443C26.4737 55.3202 27.43 56.752 28.6361 57.9575C29.8422 59.163 31.2745 60.1185 32.8507 60.7692C34.4269 61.4199 36.1161 61.7531 37.8214 61.7495L37.7943 61.7428ZM37.8619 28.1257L36.6326 29.0106L34.8562 30.2872L32.8298 29.6117L31.4789 29.1592L30.6143 30.3277L29.3445 32.0433H25.7106L25.2513 33.4415L24.5758 35.4678L22.5495 36.1433L21.1513 36.6026V40.2365L19.4357 41.5064L18.2672 42.3709L18.7197 43.7556L19.3952 45.7819L18.1186 47.5651L17.1797 48.7742L18.0307 49.9562L19.3073 51.7326L18.6319 53.759L18.1793 55.1436L19.3479 56.0082L21.0635 57.278V60.9322L22.4617 61.3848L24.488 62.0602L25.1635 64.0866L25.6228 65.4915H29.2567L30.5265 67.2004L31.3911 68.3689L32.742 67.9163L34.7683 67.2409L36.5448 68.5243L37.7336 69.3753L38.9156 68.5243L40.692 67.2409L42.7184 67.9163L44.0693 68.3689L44.9338 67.2004L46.2037 65.4915H49.8443L50.2969 64.0866L50.9723 62.0602L52.9987 61.3848L54.3968 60.9322V57.2916L56.1125 56.0217L57.281 55.1571L56.8285 53.7725L56.153 51.7461L57.4364 49.9697L58.2807 48.7877L57.4364 47.6056L56.153 45.8225L56.8285 43.7961L57.281 42.4114L56.1125 41.5469L54.3968 40.277V36.6161L52.9987 36.1568L50.925 35.4814L50.2023 33.455L49.716 32.1041H46.1294L44.8595 30.3885L43.995 29.22L42.6103 29.6725L40.5839 30.348L39.0237 29.0714L37.8281 28.146L37.8619 28.1257ZM37.8214 59.7232C35.6528 59.7299 33.531 59.0928 31.7248 57.8928C29.9185 56.6927 28.5091 54.9836 27.6749 52.9819C26.8407 50.9802 26.6193 48.776 27.0387 46.6483C27.4582 44.5207 28.4996 42.5655 30.0311 41.0301C31.5627 39.4948 33.5153 38.4486 35.6419 38.0239C37.7685 37.5992 39.9733 37.8151 41.977 38.6444C43.9808 39.4736 45.6934 40.8788 46.8979 42.6821C48.1024 44.4854 48.7447 46.6056 48.7434 48.7742C48.7398 51.6769 47.5851 54.4598 45.5325 56.5123C43.4799 58.5649 40.6971 59.7196 37.7943 59.7232H37.8214Z" fill="white"/>
<path d="M37.7947 37.3657C35.5332 37.3644 33.3221 38.034 31.4414 39.2899C29.5606 40.5458 28.0948 42.3314 27.2293 44.4208C26.3639 46.5101 26.1378 48.8093 26.5796 51.0272C27.0215 53.2451 28.1114 55.2821 29.7115 56.8803C31.3116 58.4785 33.3498 59.566 35.5683 60.0052C37.7867 60.4445 40.0856 60.2157 42.174 59.3477C44.2623 58.4798 46.0462 57.0119 47.2998 55.1296C48.5535 53.2474 49.2205 51.0355 49.2165 48.774C49.197 45.752 47.9869 42.8596 45.8488 40.7239C43.7106 38.5883 40.8167 37.3817 37.7947 37.3657Z" fill="#FF3124"/>
<path d="M39.2942 43.8634V53.7317H36.5924V46.3018H36.5316L34.377 47.5919V45.3224L36.8018 43.8364L39.2942 43.8634Z" fill="white"/>
</g>
<defs>
<clipPath id="clip0_2780_25224">
<rect width="79.6825" height="100" fill="white" transform="translate(10)"/>
</clipPath>
</defs>
</svg>
