<svg width="100" height="41" viewBox="0 0 100 41" fill="none" xmlns="http://www.w3.org/2000/svg">
<g clip-path="url(#clip0_2743_25207)">
<path d="M96.4001 9.56992L90.6829 8.66573L81.3546 4.58283L72.1723 0.5561C71.8215 0.405756 71.4565 0.290987 71.0828 0.213519C70.923 0.113478 70.7447 0.0465225 70.5585 0.016618C70.3723 -0.0132865 70.182 -0.00553096 69.9989 0.0394213H52.8586C52.3868 0.0394213 40.9974 -0.432334 32.8541 5.75659L24.2839 10.856L7.96923 15.0119C7.09523 15.2504 6.25257 15.5917 5.45884 16.0284C3.81341 16.9453 2.44099 18.2828 1.48188 19.904C0.522778 21.5252 0.0113908 23.372 0 25.2556V26.1711C0.147651 27.7837 0.385767 29.3868 0.713237 30.9728C0.843687 31.611 1.18816 32.1854 1.68962 32.6011C2.19109 33.0168 2.81947 33.2487 3.47074 33.2586H12.6418C13.2327 35.2239 14.4412 36.9465 16.0881 38.171C17.7349 39.3955 19.7326 40.0568 21.7848 40.0568C23.837 40.0568 25.8346 39.3955 27.4815 38.171C29.1284 36.9465 30.3369 35.2239 30.9278 33.2586H68.3983C68.9757 35.235 70.1783 36.9709 71.8257 38.2059C73.4732 39.441 75.4767 40.1086 77.5357 40.1086C79.5947 40.1086 81.5982 39.441 83.2456 38.2059C84.8931 36.9709 86.0957 35.235 86.673 33.2586H90.7559C93.2072 33.2541 95.5567 32.278 97.2895 30.5441C99.0223 28.8103 99.997 26.4602 100 24.0089V13.7707C99.9943 12.7577 99.6293 11.7796 98.9701 11.0104C98.311 10.2412 97.4003 9.73076 96.4001 9.56992ZM97.1414 21.4704H95.2713V16.7416H97.1414V21.4704ZM55.4139 2.89801H69.1846L71.2288 10.9234L53.2012 11.8276L55.4139 2.89801ZM73.9863 10.1708L72.3689 3.82466L78.1703 6.36313L73.9863 10.1708ZM34.3704 8.13781L34.5165 8.04234C41.1827 2.89801 50.7582 2.79692 52.4879 2.89801L50.2415 11.9848L33.4438 12.8272C31.5162 12.9054 29.5881 12.6876 27.7266 12.1814L34.3704 8.13781ZM4.85791 20.1281L4.98709 22.4139C4.99701 22.6358 4.92539 22.8537 4.78572 23.0265C4.64606 23.1993 4.448 23.315 4.22891 23.3518L3.072 23.554C3.36811 22.2794 3.98256 21.1007 4.85791 20.1281ZM21.7848 37.2516C20.223 37.2634 18.7056 36.7324 17.4919 35.7494C16.2782 34.7663 15.4437 33.3922 15.131 31.862C14.8182 30.3318 15.0466 28.7404 15.7772 27.36C16.5078 25.9795 17.6952 24.8957 19.1364 24.2938C20.5776 23.6919 22.1832 23.6092 23.6786 24.0599C25.174 24.5106 26.4664 25.4668 27.3349 26.7648C28.2035 28.0629 28.5942 29.6224 28.4402 31.1767C28.2863 32.7309 27.5973 34.1834 26.4911 35.286C25.2445 36.5386 23.552 37.2455 21.7848 37.2516ZM90.7166 30.4112H87.083C86.8987 28.0128 85.8158 25.7724 84.0509 24.138C82.286 22.5036 79.9692 21.5956 77.5637 21.5956C75.1583 21.5956 72.8415 22.5036 71.0766 24.138C69.3117 25.7724 68.2288 28.0128 68.0445 30.4112H31.3153C31.3926 29.112 31.2034 27.8107 30.7594 26.5872C30.3154 25.3638 29.6259 24.244 28.7333 23.2968C27.8408 22.3495 26.7639 21.5948 25.569 21.0789C24.3741 20.563 23.0863 20.2969 21.7848 20.2969C20.4833 20.2969 19.1955 20.563 18.0006 21.0789C16.8056 21.5948 15.7288 22.3495 14.8362 23.2968C13.9437 24.244 13.2542 25.3638 12.8102 26.5872C12.3662 27.8107 12.177 29.112 12.2543 30.4112H3.51567C3.22925 28.878 3.04391 27.5526 2.92598 26.4238L4.70066 26.1261C5.61481 25.9714 6.43964 25.4845 7.01694 24.759C7.59423 24.0335 7.88335 23.1204 7.82882 22.1949L7.59856 18.112C7.95366 17.9658 8.31754 17.842 8.68808 17.7413L24.4131 13.6697C27.4683 15.8094 32.8822 15.5847 33.5393 15.5567L73.0428 13.6135C73.8955 13.5642 74.7058 13.2254 75.3398 12.6531L80.984 7.54251L89.6271 11.3277C89.7352 11.3964 89.8552 11.444 89.9809 11.4681L95.8834 12.4117C96.2211 12.4667 96.528 12.6407 96.7484 12.9024C96.9689 13.1641 97.0884 13.496 97.0853 13.8381V13.9561H95.0522C94.3477 13.9561 93.6721 14.2359 93.1739 14.7341C92.6757 15.2323 92.3958 15.908 92.3958 16.6125V21.7849C92.4283 22.4686 92.7217 23.1139 93.2158 23.5877C93.7091 24.0622 94.3678 24.3261 95.0522 24.3234H97.1246C97.048 25.9648 96.3416 27.5135 95.1523 28.6474C93.9629 29.7812 92.3823 30.413 90.7391 30.4112H90.7166Z" fill="black"/>
<path d="M44.4286 19.2238H40.4973C40.3021 19.2115 40.1064 19.2394 39.9224 19.3057C39.7383 19.372 39.5698 19.4753 39.4272 19.6092C39.2847 19.7431 39.171 19.9048 39.0933 20.0844C39.0157 20.2639 38.9756 20.4574 38.9756 20.6531C38.9756 20.8487 39.0157 21.0422 39.0933 21.2217C39.171 21.4013 39.2847 21.563 39.4272 21.6969C39.5698 21.8308 39.7383 21.9341 39.9224 22.0004C40.1064 22.0667 40.3021 22.0946 40.4973 22.0823H44.4286C44.7922 22.0595 45.1334 21.899 45.3828 21.6335C45.6322 21.368 45.7711 21.0174 45.7711 20.6531C45.7711 20.2888 45.6322 19.9381 45.3828 19.6726C45.1334 19.4071 44.7922 19.2466 44.4286 19.2238Z" fill="black"/>
<path d="M63.6188 21.6162L64.4332 19.1058L62.3271 17.5446V14.8994L59.8167 14.085L58.935 11.642H56.2898L54.7286 9.53601L52.2182 10.3503L50.1178 8.72168L47.9443 10.2942L45.4339 9.47985L43.8727 11.5859H41.2275L40.4132 14.0963L37.9028 14.9106V17.5558L35.7967 19.1171L36.6111 21.6274L35.0498 23.7728L36.6111 25.9406L35.7967 28.451L37.9028 30.0123V32.663L40.4132 33.4718L41.2275 35.9878H43.8727L45.4339 38.0882L47.9443 37.2738L50.1178 38.8351L52.2856 37.2738L54.796 38.0882L56.3572 35.9878H59.0024L59.8167 33.4718L62.3271 32.6574V30.0123L64.4332 28.451L63.6188 25.9406L65.1801 23.7728L63.6188 21.6162ZM50.1402 34.5781C48.0046 34.5837 45.9154 33.9556 44.1369 32.7734C42.3583 31.5912 40.9705 29.908 40.1488 27.9368C39.3272 25.9656 39.1088 23.795 39.5212 21.6996C39.9336 19.6042 40.9583 17.6782 42.4657 16.1654C43.973 14.6526 45.8952 13.6208 47.9891 13.2008C50.083 12.7808 52.2544 12.9913 54.2286 13.8057C56.2028 14.6201 57.891 16.0018 59.0797 17.7761C60.2684 19.5503 60.904 21.6372 60.9063 23.7728C60.91 25.1914 60.6335 26.5968 60.0929 27.9083C59.5522 29.2198 58.758 30.4117 57.7557 31.4156C56.7533 32.4195 55.5627 33.2156 54.252 33.7583C52.9413 34.301 51.5364 34.5796 50.1178 34.5781H50.1402Z" fill="#FF3124"/>
<path d="M50.1178 8.72176L52.2183 10.3504L54.7286 9.53609L56.2899 11.6421H58.9351L59.8168 14.0851L62.3272 14.8995V17.5446L64.4332 19.1059L63.6189 21.6163L65.1802 23.7729L63.6189 25.9407L64.4332 28.4511L62.3272 30.0123V32.6575L59.8168 33.4718L59.0025 36.0047H56.3573L54.796 38.1051L52.2632 37.2908L50.0954 38.8521L47.9219 37.2908L45.4115 38.1051L43.8503 36.0047H41.2051L40.3908 33.4887L37.8804 32.68V30.0292L35.7744 28.4679L36.5887 25.9575L35.0499 23.7729L36.6111 21.5994L35.7968 19.0891L37.9028 17.5278V14.8995L40.4132 14.0851L41.2276 11.5747H43.8727L45.434 9.4687L47.9444 10.283L50.1178 8.72176ZM50.1178 34.5557C52.2541 34.5602 54.3437 33.9306 56.122 32.7468C57.9003 31.5629 59.2873 29.878 60.1074 27.9054C60.9275 25.9327 61.1438 23.7611 60.7289 21.6655C60.3141 19.5698 59.2867 17.6444 57.7769 16.133C56.267 14.6217 54.3427 13.5923 52.2475 13.1752C50.1523 12.7582 47.9805 12.9722 46.007 13.7903C44.0335 14.6083 42.3471 15.9935 41.1614 17.7706C39.9757 19.5476 39.344 21.6366 39.3462 23.7729C39.344 25.1907 39.6217 26.5951 40.1634 27.9054C40.7052 29.2157 41.5002 30.4061 42.5031 31.4084C43.5059 32.4107 44.6968 33.2052 46.0074 33.7463C47.3179 34.2873 48.7224 34.5643 50.1403 34.5614L50.1178 34.5557ZM50.174 6.60449L49.1519 7.34021L47.6748 8.40165L45.99 7.84004L44.8387 7.46376L44.1199 8.43534L43.064 9.86182H40.0426L39.6607 11.0244L39.0991 12.7092L37.4142 13.2708L36.2517 13.6527V16.6741L34.8252 17.73L33.8536 18.4488L34.2299 19.6001L34.7915 21.2849L33.7301 22.7676L32.9775 23.7729L33.6852 24.7557L34.7466 26.2327L34.185 27.9175L33.8087 29.0688L34.7803 29.7877L36.2068 30.8435V33.8818L37.3693 34.2581L39.0541 34.8197L39.6158 36.5045L39.9976 37.6727H43.0191L44.0749 39.0935L44.7938 40.0651L45.9451 39.6889L47.6299 39.1272L49.1069 40.1943L50.0954 40.9019L51.0782 40.1943L52.5552 39.1272L54.24 39.6889L55.3913 40.0651L56.1102 39.0935L57.166 37.6727H60.1931L60.5694 36.5045L61.131 34.8197L62.8158 34.2581L63.9783 33.8818V30.8548L65.4048 29.7989L66.3764 29.0801L66.0001 27.9288L65.4385 26.2439L66.5056 24.7669L67.2076 23.7841L66.5056 22.8013L65.4385 21.3186L66.0001 19.6338L66.3764 18.4825L65.4048 17.7637L63.9783 16.7078V13.6639L62.8158 13.282L61.0917 12.7204L60.4907 11.0356L60.0864 9.91237H57.1042L56.0484 8.48588L55.3296 7.5143L54.2063 7.89058L52.5215 8.45219L51.14 7.39075L50.1459 6.62135L50.174 6.60449ZM50.1403 32.8765C48.3372 32.8821 46.5731 32.3524 45.0712 31.3546C43.5694 30.3568 42.3975 28.9358 41.7039 27.2714C41.0103 25.6071 40.8262 23.7744 41.175 22.0053C41.5237 20.2363 42.3896 18.6106 43.663 17.334C44.9364 16.0575 46.56 15.1875 48.3282 14.8344C50.0963 14.4813 51.9295 14.6608 53.5956 15.3503C55.2616 16.0398 56.6856 17.2082 57.6871 18.7076C58.6886 20.2069 59.2226 21.9698 59.2215 23.7729C59.2185 26.1864 58.2584 28.5002 56.5518 30.2069C54.8452 31.9135 52.5314 32.8736 50.1178 32.8765H50.1403Z" fill="white"/>
<ellipse cx="77.502" cy="30.6077" rx="6.7393" ry="6.7393" fill="white"/>
<path d="M50.1184 14.2874C48.238 14.2862 46.3996 14.843 44.8358 15.8872C43.2721 16.9315 42.0533 18.4161 41.3337 20.1534C40.6141 21.8906 40.4261 23.8022 40.7935 25.6464C41.1609 27.4905 42.0671 29.1841 43.3975 30.513C44.7279 31.8418 46.4227 32.746 48.2672 33.1112C50.1118 33.4764 52.0232 33.2862 53.7596 32.5646C55.4959 31.8429 56.9792 30.6224 58.0215 29.0574C59.0639 27.4923 59.6185 25.6533 59.6152 23.7729C59.599 21.2603 58.5928 18.8553 56.815 17.0796C55.0372 15.3039 52.6311 14.3006 50.1184 14.2874Z" fill="#FF3124"/>
<path d="M51.3649 19.6899V27.895H49.1184V21.7173H49.0679L47.2764 22.79V20.903L49.2925 19.6675L51.3649 19.6899Z" fill="white"/>
<path d="M77.5353 26.1821C76.515 26.1806 75.5259 26.533 74.7364 27.1792C73.9469 27.8254 73.406 28.7254 73.2058 29.7257C73.0056 30.7261 73.1586 31.765 73.6387 32.6652C74.1187 33.5654 74.8961 34.2712 75.8383 34.6624C76.7806 35.0536 77.8293 35.1059 78.8058 34.8104C79.7823 34.5148 80.626 33.8898 81.1932 33.0418C81.7604 32.1938 82.016 31.1753 81.9163 30.16C81.8166 29.1447 81.3679 28.1953 80.6466 27.4738C80.2383 27.0646 79.7534 26.7399 79.2195 26.5182C78.6856 26.2966 78.1133 26.1824 77.5353 26.1821ZM77.5353 32.1239C77.181 32.1215 76.8386 31.9964 76.5661 31.77C76.2937 31.5436 76.108 31.2299 76.0407 30.8821C75.9734 30.5343 76.0286 30.174 76.197 29.8623C76.3653 29.5506 76.6363 29.3068 76.9641 29.1723C77.2918 29.0379 77.656 29.0211 77.9947 29.1247C78.3334 29.2284 78.6258 29.4462 78.8221 29.741C79.0185 30.0358 79.1067 30.3896 79.0717 30.7421C79.0368 31.0946 78.8808 31.4241 78.6304 31.6747C78.3392 31.9634 77.9454 32.125 77.5353 32.1239Z" fill="black"/>
<path d="M21.7853 26.1821C20.7651 26.1806 19.7759 26.533 18.9864 27.1792C18.1969 27.8254 17.656 28.7254 17.4558 29.7257C17.2556 30.7261 17.4086 31.765 17.8887 32.6652C18.3687 33.5654 19.1461 34.2712 20.0883 34.6624C21.0306 35.0536 22.0793 35.1059 23.0558 34.8104C24.0323 34.5148 24.876 33.8898 25.4432 33.0418C26.0104 32.1938 26.266 31.1753 26.1663 30.16C26.0666 29.1447 25.6179 28.1953 24.8966 27.4738C24.4883 27.0646 24.0034 26.7399 23.4695 26.5182C22.9356 26.2966 22.3633 26.1824 21.7853 26.1821ZM21.7853 32.1239C21.4278 32.1238 21.0814 31.9997 20.8052 31.7727C20.5291 31.5458 20.3402 31.2301 20.2708 30.8794C20.2013 30.5287 20.2557 30.1648 20.4246 29.8498C20.5936 29.5347 20.8665 29.288 21.197 29.1517C21.5275 29.0155 21.895 28.998 22.2369 29.1025C22.5788 29.2069 22.8739 29.4266 23.0718 29.7243C23.2698 30.022 23.3583 30.3791 23.3224 30.7348C23.2865 31.0904 23.1283 31.4226 22.8748 31.6747C22.5849 31.962 22.1934 32.1235 21.7853 32.1239Z" fill="black"/>
</g>
<defs>
<clipPath id="clip0_2743_25207">
<rect width="100" height="40.93" fill="white"/>
</clipPath>
</defs>
</svg>
