<svg width="100" height="100" viewBox="0 0 100 100" fill="none" xmlns="http://www.w3.org/2000/svg">
<g clip-path="url(#clip0_2780_25308)">
<path d="M57.4527 58.3975C59.9806 57.3166 62.2477 55.7068 64.1015 53.6766C66.5747 51.0368 68.2705 47.765 69.0016 44.2224C73.5554 41.2343 77.4338 37.3268 80.3879 32.7509C83.342 28.1751 85.3064 23.0319 86.155 17.6518C86.1916 17.4064 86.1793 17.1561 86.1188 16.9154C86.0584 16.6747 85.951 16.4483 85.8028 16.2492C85.4245 15.8973 84.9228 15.7086 84.4063 15.7239H70.4043C70.7472 13.9422 71.2159 12.1871 71.807 10.4716C71.9219 9.94096 71.859 9.38722 71.6278 8.89593C71.4832 8.6483 71.2804 8.43957 71.0371 8.28778C70.7938 8.13598 70.5173 8.04568 70.2313 8.02466H28.9295C28.3909 8.07331 27.8903 8.32253 27.5268 8.72291C27.3706 8.95106 27.2731 9.21421 27.2429 9.48907C27.2127 9.76393 27.2508 10.042 27.3538 10.2986C27.879 12.0473 28.2251 13.796 28.7503 15.5509H14.7544C14.2363 15.5366 13.733 15.7251 13.3517 16.0762C13.0694 16.5504 12.946 17.1025 12.9995 17.6518C14.7544 28.6755 20.878 38.4757 29.98 44.2224C30.7503 47.7949 32.4393 51.1047 34.8801 53.8249C36.7312 55.8659 38.9984 57.4862 41.5289 58.5767V66.1029C42.5793 71.176 39.9532 73.277 37.154 75.5509C35.7513 76.7868 34.3548 77.8249 33.4774 79.4006H27.5268C27.2934 79.3861 27.0596 79.4214 26.8409 79.5042C26.6222 79.587 26.4235 79.7153 26.2582 79.8806C26.0928 80.046 25.9645 80.2446 25.8817 80.4633C25.799 80.6821 25.7637 80.9159 25.7781 81.1493V90.2821C25.7637 90.5155 25.799 90.7493 25.8817 90.9681C25.9645 91.1868 26.0928 91.3854 26.2582 91.5508C26.4235 91.7161 26.6222 91.8444 26.8409 91.9272C27.0596 92.01 27.2934 92.0453 27.5268 92.0308H71.2817C71.5159 92.0461 71.7506 92.0115 71.9704 91.9291C72.1901 91.8468 72.3899 91.7188 72.5564 91.5534C72.7229 91.3881 72.8524 91.1892 72.9362 90.9701C73.0201 90.7509 73.0564 90.5164 73.0428 90.2821V81.1493C73.0563 80.9161 73.0202 80.6827 72.9371 80.4645C72.854 80.2462 72.7256 80.048 72.5605 79.8828C72.3953 79.7177 72.1972 79.5893 71.9789 79.5062C71.7606 79.4231 71.5272 79.3871 71.2941 79.4006H65.3435C64.4661 77.8249 63.0634 76.6014 61.8399 75.3717C59.2137 73.0978 56.7668 70.8238 57.292 65.9237V58.3975H57.4527ZM69.879 19.7219C69.8533 19.4761 69.9145 19.229 70.052 19.0236H82.4784C80.7663 27.1888 76.2469 34.4959 69.706 39.6745C69.5268 39.3223 69.1808 25.3264 69.879 19.7219ZM29.6277 39.6745C23.0522 34.5268 18.5243 27.206 16.8554 19.0236H29.2755C30.5114 21.9958 29.6277 39.3223 29.6277 39.6745ZM69.706 82.898V88.5025H29.4547V82.898H69.706ZM59.7266 77.9979C60.2519 78.5231 60.7771 78.8753 61.3023 79.4006H38.2045C38.6306 78.9461 39.0981 78.5324 39.601 78.1647C42.2271 76.0638 45.7307 73.0854 45.3785 67.314H53.9552C53.9552 72.7517 57.1067 75.7239 59.7266 77.9979ZM54.1283 63.8228H44.8595C44.8483 63.7279 44.858 63.6318 44.8878 63.541C44.9177 63.4503 44.9671 63.3672 45.0325 63.2976V59.6271C47.9092 60.3263 50.9117 60.3263 53.7884 59.6271H53.9614C53.9614 59.6271 53.9614 63.6498 54.1345 63.8228H54.1283ZM49.5618 56.6488C47.2982 56.6382 45.0605 56.1671 42.9847 55.2641C40.909 54.3611 39.0387 53.0452 37.4877 51.3964C35.9332 49.7454 34.7409 47.7876 33.9875 45.6487C33.2341 43.5098 32.9362 41.2371 33.1128 38.9763C33.8111 27.9464 33.2858 19.0236 31.3579 11.4974H67.7596C65.8379 19.0236 65.1334 27.9464 66.0109 38.9763C66.2004 41.2381 65.9085 43.5143 65.1544 45.6552C64.4003 47.796 63.2012 49.7527 61.636 51.3964C60.085 53.0452 58.2147 54.3611 56.139 55.2641C54.0632 56.1671 51.8255 56.6382 49.5618 56.6488Z" fill="black"/>
<path d="M49.5623 46.657C48.1411 46.657 46.5222 47.7507 45.2369 47.275C43.9516 46.7992 43.2348 45.0134 42.1473 44.1854C41.0598 43.3573 39.1133 43.277 38.2729 42.1833C37.4326 41.0896 37.9455 39.2111 37.5623 37.8579C37.1792 36.5046 35.6221 35.3862 35.6221 33.9217C35.6221 32.4572 37.1731 31.2708 37.5623 29.9794C37.9516 28.6879 37.4944 26.8156 38.2729 25.6539C39.0515 24.4923 41.0474 24.4181 42.1473 23.6519C43.2472 22.8857 43.9516 21.0072 45.2369 20.5623C46.5222 20.1174 48.1473 21.1802 49.5623 21.1802C50.9774 21.1802 52.5963 20.0865 53.8878 20.5623C55.1792 21.0381 55.8898 22.8177 56.9774 23.6519C58.0649 24.4861 60.0175 24.5602 60.8517 25.6539C61.6859 26.7477 61.1792 28.6261 61.5623 29.9794C61.9454 31.3326 63.5026 32.4511 63.5026 33.9217C63.5026 35.3924 61.9516 36.5664 61.5623 37.8579C61.173 39.1493 61.6303 41.0278 60.8517 42.1833C60.0732 43.3388 58.0773 43.4191 56.9774 44.1854C55.8775 44.9516 55.173 46.83 53.8878 47.275C52.6025 47.7199 51.0021 46.657 49.5623 46.657Z" fill="#FF3124"/>
<path d="M53.7644 35.6334L57.9415 31.5428L52.1455 30.69L49.5873 25.4006L46.9426 30.69L41.1465 31.5428L45.3236 35.6334L44.2979 41.4356L49.5008 38.7044L54.7036 41.4356L53.7644 35.6334Z" fill="white"/>
</g>
<defs>
<clipPath id="clip0_2780_25308">
<rect width="73.1493" height="84" fill="white" transform="translate(13 8)"/>
</clipPath>
</defs>
</svg>
