<svg width="80" height="69" viewBox="0 0 80 69" fill="none" xmlns="http://www.w3.org/2000/svg">
<g clip-path="url(#clip0_2743_25295)">
<path d="M32.7272 36.1998C32.7272 39.2989 28.0229 39.2989 28.0229 36.1998V29.4644H22.7812V43.8788H37.995V29.4644H32.7534L32.7272 36.1998Z" fill="#FF3124"/>
<path d="M51.9772 36.1998C51.9772 39.2989 47.2729 39.2989 47.2729 36.1998V29.4644H42.0312V43.8788H57.2319V29.4644H51.9903L51.9772 36.1998Z" fill="#FF3124"/>
<path d="M32.7272 55.3055C32.7272 58.4046 28.0229 58.4046 28.0229 55.3055V48.5701H22.7812V62.9845H37.995V48.5701H32.7534L32.7272 55.3055Z" fill="#FF3124"/>
<path d="M51.9772 55.3055C51.9772 58.4046 47.2729 58.4046 47.2729 55.3055V48.5701H42.0312V62.9845H57.2319V48.5701H51.9903L51.9772 55.3055Z" fill="#FF3124"/>
<path d="M78.5261 13.7396L40.6752 0.150745C40.2512 0.000858523 39.7887 0.000858523 39.3648 0.150745L1.36314 13.7986C0.979741 13.9341 0.64782 14.1852 0.413127 14.5173C0.178434 14.8494 0.0525215 15.2461 0.0527346 15.6528V66.9419C0.0527346 67.4632 0.259813 67.9632 0.628435 68.3318C0.997057 68.7004 1.49703 68.9075 2.01834 68.9075H78.0216C78.5429 68.9075 79.0429 68.7004 79.4115 68.3318C79.7801 67.9632 79.9872 67.4632 79.9872 66.9419V15.62C79.983 15.1899 79.8378 14.773 79.5738 14.4334C79.3099 14.0937 78.9419 13.85 78.5261 13.7396ZM66.6473 64.9632H62.0609V64.8453H58.1297V64.9239H45.2943V64.8453H41.3631V64.9304H38.6834V64.8453H34.7522V64.9239H21.9168V64.8453H17.9856V64.9304H13.3992V24.8125H66.667L66.6473 64.9632ZM76.056 64.9632H70.6047V22.8338C70.6047 22.3125 70.3976 21.8125 70.029 21.4439C69.6604 21.0753 69.1605 20.8682 68.6391 20.8682H11.3877C10.8664 20.8682 10.3664 21.0753 9.99782 21.4439C9.6292 21.8125 9.4221 22.3125 9.4221 22.8338V64.9304H3.97082V17.0156L40.0069 4.08195L76.0429 17.0156L76.056 64.9632Z" fill="black" stroke="white"/>
</g>
<defs>
<clipPath id="clip0_2743_25295">
<rect width="80" height="68.8812" fill="white"/>
</clipPath>
</defs>
</svg>
