<svg width="100" height="100" viewBox="0 0 100 100" fill="none" xmlns="http://www.w3.org/2000/svg">
<g clip-path="url(#clip0_2780_25272)">
<path d="M50.0765 45.2553C51.0147 45.2719 51.9269 45.5663 52.6979 46.1012C53.4688 46.6362 54.0637 47.3878 54.4075 48.2609C54.7513 49.134 54.8285 50.0894 54.6294 51.0064C54.4302 51.9234 53.9636 52.7607 53.2886 53.4125C52.6136 54.0643 51.7604 54.5013 50.837 54.6683C49.9137 54.8353 48.9615 54.7247 48.101 54.3506C47.2404 53.9764 46.5102 53.3555 46.0025 52.5664C45.4948 51.7772 45.2325 50.8552 45.2488 49.917C45.2553 49.2927 45.3859 48.6758 45.633 48.1023C45.88 47.5289 46.2385 47.0102 46.6877 46.5765C47.1368 46.1427 47.6677 45.8026 48.2495 45.5758C48.8312 45.349 49.4523 45.2401 50.0765 45.2553Z" fill="black"/>
<path d="M49.9999 26.9404C54.5603 26.9404 59.0184 28.2927 62.8104 30.8262C66.6023 33.3597 69.5579 36.9607 71.3034 41.1739C73.0489 45.3871 73.506 50.0233 72.6167 54.4962C71.7275 58.9691 69.5319 63.0779 66.3076 66.3031C63.0834 69.5283 58.9751 71.725 54.5025 72.6155C50.0298 73.5059 45.3935 73.0502 41.1798 71.3059C36.9662 69.5615 33.3643 66.6069 30.8298 62.8157C28.2952 59.0244 26.9417 54.5667 26.9404 50.0063C26.9455 43.8915 29.3764 38.0285 33.6996 33.7041C38.0228 29.3797 43.8851 26.9472 49.9999 26.9404ZM63.1229 52.3882C63.5968 52.383 64.0585 52.2368 64.4491 51.9684C64.8397 51.7 65.1416 51.3214 65.3164 50.8809C65.4912 50.4404 65.531 49.9578 65.4307 49.4945C65.3304 49.0313 65.0945 48.6084 64.7531 48.2797C64.4117 47.9509 63.9802 47.7312 63.5136 47.6484C63.0469 47.5656 62.5662 47.6236 62.1325 47.8149C61.6989 48.0062 61.332 48.3222 61.0785 48.7227C60.825 49.1231 60.6964 49.5899 60.709 50.0637C60.7353 50.6872 61.0008 51.2767 61.4503 51.7095C61.8998 52.1424 62.4988 52.3855 63.1229 52.3882ZM59.2914 61.6222C59.6007 61.6198 59.9065 61.5557 60.1909 61.4339C60.4753 61.312 60.7325 61.1348 60.9477 60.9125C61.1629 60.6902 61.3317 60.4273 61.4442 60.1391C61.5567 59.8509 61.6107 59.5432 61.603 59.2339C61.6003 58.7619 61.4571 58.3014 61.1916 57.9112C60.9261 57.521 60.5504 57.2187 60.1124 57.0429C59.6744 56.8671 59.1939 56.8257 58.7323 56.9241C58.2707 57.0225 57.8489 57.2562 57.5206 57.5954C57.1924 57.9345 56.9726 58.3637 56.8893 58.8283C56.806 59.2928 56.863 59.7717 57.0529 60.2038C57.2429 60.6358 57.5573 61.0015 57.956 61.2541C58.3547 61.5067 58.8195 61.6349 59.2914 61.6222ZM61.603 40.7403C61.6081 40.4313 61.5516 40.1244 61.4366 39.8375C61.3217 39.5507 61.1507 39.2896 60.9337 39.0696C60.7166 38.8496 60.4579 38.6751 60.1726 38.5562C59.8874 38.4374 59.5812 38.3767 59.2722 38.3776C58.9574 38.3699 58.6443 38.4254 58.3513 38.5407C58.0583 38.6561 57.7914 38.829 57.5664 39.0493C57.3414 39.2696 57.1628 39.5327 57.0412 39.8231C56.9196 40.1136 56.8574 40.4255 56.8583 40.7403C56.8599 41.365 57.1061 41.9642 57.5442 42.4094C57.9823 42.8547 58.5774 43.1106 59.202 43.1223C59.5187 43.13 59.8337 43.0739 60.1283 42.9575C60.4229 42.841 60.6911 42.6664 60.9169 42.4442C61.1427 42.222 61.3215 41.9566 61.4426 41.6639C61.5638 41.3712 61.6249 41.0571 61.6222 40.7403H61.603ZM57.1329 50.0637C57.1455 48.6511 56.739 47.2664 55.9649 46.0846C55.1907 44.9029 54.0837 43.9771 52.7836 43.4243C51.4835 42.8715 50.0487 42.7164 48.6606 42.9787C47.2724 43.2411 45.9931 43.909 44.9844 44.8981C43.9757 45.8872 43.2828 47.1531 42.9933 48.5358C42.7037 49.9185 42.8306 51.3561 43.3577 52.6668C43.8849 53.9775 44.7887 55.1025 45.9551 55.8997C47.1214 56.6969 48.4978 57.1305 49.9105 57.1457C51.8075 57.1627 53.6338 56.4267 54.989 55.0991C56.3441 53.7715 57.1174 51.9607 57.1393 50.0637H57.1329ZM49.9807 65.4857C50.4514 65.4893 50.9127 65.3538 51.3066 65.0961C51.7005 64.8384 52.0095 64.4701 52.1948 64.0374C52.38 63.6047 52.4333 63.1269 52.3479 62.664C52.2624 62.2011 52.0421 61.7738 51.7146 61.4357C51.3871 61.0976 50.9671 60.8638 50.5071 60.7637C50.0472 60.6636 49.5679 60.7017 49.1295 60.8731C48.6911 61.0444 48.3132 61.3416 48.0431 61.7271C47.773 62.1126 47.6229 62.5693 47.6116 63.0399C47.608 63.6764 47.8541 64.2891 48.297 64.7463C48.7399 65.2035 49.3444 65.469 49.9807 65.4857ZM50.0637 39.3035C50.5345 39.2909 50.9911 39.1393 51.376 38.8679C51.7609 38.5965 52.0569 38.2174 52.227 37.7782C52.397 37.339 52.4333 36.8593 52.3315 36.3995C52.2296 35.9397 51.9941 35.5203 51.6545 35.194C51.3149 34.8676 50.8864 34.649 50.4229 34.5655C49.9594 34.4821 49.4816 34.5375 49.0495 34.7249C48.6174 34.9122 48.2504 35.2232 47.9945 35.6186C47.7387 36.014 47.6054 36.4762 47.6116 36.9471C47.6266 37.5829 47.8933 38.1866 48.353 38.626C48.8127 39.0654 49.428 39.3044 50.0637 39.2907V39.3035ZM43.1223 59.3105C43.1265 58.9953 43.0683 58.6823 42.9509 58.3897C42.8336 58.097 42.6595 57.8306 42.4386 57.6056C42.2178 57.3806 41.9546 57.2015 41.6642 57.0787C41.3738 56.956 41.062 56.8919 40.7467 56.8903C40.4367 56.886 40.129 56.943 39.8411 57.058C39.5531 57.1729 39.2907 57.3435 39.0689 57.56C38.847 57.7766 38.67 58.0348 38.5481 58.3198C38.4262 58.6048 38.3617 58.9111 38.3584 59.2211C38.3482 59.5301 38.3997 59.838 38.5099 60.1268C38.6202 60.4156 38.7869 60.6796 39.0004 60.9031C39.2139 61.1267 39.4698 61.3055 39.7532 61.429C40.0366 61.5524 40.3418 61.6181 40.6509 61.6222C40.967 61.6368 41.2828 61.5877 41.5796 61.4779C41.8764 61.3681 42.1481 61.1998 42.3786 60.983C42.6091 60.7662 42.7937 60.5053 42.9214 60.2158C43.0492 59.9263 43.1175 59.6141 43.1223 59.2977V59.3105ZM40.734 43.135C41.0489 43.1351 41.3608 43.0726 41.6514 42.9513C41.9421 42.83 42.2058 42.6523 42.4273 42.4284C42.6489 42.2045 42.8238 41.9389 42.942 41.6469C43.0601 41.355 43.1193 41.0425 43.1159 40.7276C43.1096 40.2594 42.9651 39.8036 42.7006 39.4173C42.436 39.031 42.0632 38.7314 41.629 38.5563C41.1948 38.3812 40.7185 38.3384 40.26 38.4331C39.8015 38.5278 39.3811 38.7559 39.0519 39.0887C38.7226 39.4216 38.499 39.8443 38.4091 40.3038C38.3193 40.7633 38.3673 41.2391 38.547 41.6714C38.7267 42.1037 39.0302 42.4733 39.4193 42.7337C39.8084 42.9941 40.2658 43.1337 40.734 43.135ZM36.9024 52.401C37.5358 52.401 38.1433 52.1493 38.5912 51.7014C39.0391 51.2535 39.2907 50.6461 39.2907 50.0127C39.2907 49.3792 39.0391 48.7717 38.5912 48.3238C38.1433 47.8759 37.5358 47.6243 36.9024 47.6243C36.269 47.6243 35.6615 47.8759 35.2136 48.3238C34.7657 48.7717 34.5141 49.3792 34.5141 50.0127C34.5141 50.6461 34.7657 51.2535 35.2136 51.7014C35.6615 52.1493 36.269 52.401 36.9024 52.401Z" fill="#FF3124"/>
<path d="M50 8C58.3068 8 66.4271 10.4633 73.334 15.0783C80.2408 19.6933 85.6241 26.2528 88.8029 33.9273C91.9818 41.6018 92.8136 50.0466 91.193 58.1938C89.5724 66.341 85.5723 73.8247 79.6985 79.6985C73.8247 85.5723 66.341 89.5724 58.1938 91.193C50.0466 92.8136 41.6018 91.9818 33.9273 88.803C26.2528 85.6241 19.6933 80.2408 15.0783 73.334C10.4633 66.4271 8 58.3068 8 50C8.01183 38.8645 12.4406 28.1886 20.3146 20.3146C28.1885 12.4406 38.8645 8.01183 50 8ZM89.1838 50C89.1838 48.7931 89.1072 47.5989 88.9986 46.4175L83.2066 52.2095C82.9408 52.4606 82.5876 52.5981 82.2219 52.5929C81.8563 52.5877 81.5071 52.4401 81.2486 52.1815C80.99 51.923 80.8425 51.5738 80.8373 51.2082C80.832 50.8426 80.9696 50.4893 81.2206 50.2235L88.5133 42.9372C87.7448 38.7102 86.2796 34.6402 84.1773 30.8934L81.2398 38.5565C81.1395 38.8222 80.9603 39.0509 80.7263 39.2118C80.4923 39.3727 80.2147 39.4583 79.9307 39.4569C79.7584 39.4595 79.5871 39.4291 79.4262 39.3675C79.2539 39.3017 79.0963 39.2026 78.9625 39.0757C78.8288 38.9488 78.7214 38.7966 78.6466 38.6281C78.5718 38.4595 78.5311 38.2778 78.5268 38.0935C78.5225 37.9091 78.5547 37.7258 78.6216 37.5539L82.3254 27.9176C80.2763 24.9299 77.8268 22.2376 75.0455 19.9161V28.0581C75.0455 28.4307 74.8975 28.788 74.634 29.0515C74.3705 29.315 74.0132 29.463 73.6406 29.463C73.268 29.463 72.9106 29.315 72.6472 29.0515C72.3837 28.788 72.2357 28.4307 72.2357 28.0581V17.764C68.7027 15.3233 64.7908 13.4828 60.6581 12.3169L63.9787 19.7947C64.0572 19.9647 64.1009 20.1485 64.1074 20.3356C64.1138 20.5226 64.0828 20.7091 64.0162 20.884C63.9495 21.0589 63.8486 21.2187 63.7194 21.354C63.5901 21.4894 63.4351 21.5976 63.2635 21.6722C63.0812 21.7476 62.886 21.7866 62.6888 21.7871C62.4183 21.7878 62.1534 21.7097 61.9266 21.5622C61.6997 21.4148 61.5208 21.2045 61.4116 20.957L57.2224 11.525C54.8421 11.0655 52.4242 10.8282 50 10.8162C48.7867 10.8162 47.5925 10.8864 46.4048 10.995L52.2031 16.7934C52.4542 17.0592 52.5917 17.4124 52.5865 17.7781C52.5813 18.1437 52.4337 18.4929 52.1752 18.7514C51.9166 19.01 51.5674 19.1575 51.2018 19.1628C50.8362 19.168 50.483 19.0304 50.2171 18.7794L42.9244 11.4548C38.7021 12.2254 34.6366 13.6906 30.8934 15.7908L38.5565 18.7283C38.8641 18.8439 39.1212 19.0641 39.2827 19.3504C39.4442 19.6366 39.4997 19.9705 39.4395 20.2936C39.3793 20.6167 39.2072 20.9083 38.9535 21.1172C38.6998 21.326 38.3806 21.4389 38.052 21.4359C37.8801 21.4342 37.7096 21.4039 37.5475 21.3465L27.9176 17.6427C24.9279 19.6942 22.2336 22.1458 19.9097 24.929H28.0964C28.469 24.929 28.8263 25.077 29.0898 25.3405C29.3533 25.6039 29.5013 25.9613 29.5013 26.3339C29.5013 26.7065 29.3533 27.0638 29.0898 27.3273C28.8263 27.5908 28.469 27.7388 28.0964 27.7388H17.764C15.3267 31.2683 13.4884 35.1757 12.3233 39.3036L19.7947 35.9894C19.9634 35.9084 20.1465 35.8621 20.3334 35.8532C20.5202 35.8443 20.7069 35.873 20.8825 35.9375C21.0581 36.002 21.2189 36.1011 21.3555 36.2289C21.4921 36.3567 21.6016 36.5106 21.6777 36.6815C21.7537 36.8524 21.7947 37.0368 21.7982 37.2239C21.8018 37.4109 21.7677 37.5967 21.6981 37.7704C21.6286 37.944 21.5248 38.1019 21.3931 38.2347C21.2615 38.3676 21.1045 38.4726 20.9314 38.5437L11.5378 42.7456C11.0797 45.1304 10.8446 47.5525 10.8353 49.9808C10.8353 51.1942 10.912 52.3883 11.0269 53.5761L16.8189 47.7841C17.0866 47.5476 17.4343 47.422 17.7913 47.4328C18.1483 47.4435 18.4879 47.5899 18.7408 47.842C18.9938 48.0942 19.1412 48.4332 19.1531 48.7902C19.165 49.1472 19.0405 49.4953 18.8049 49.7637L11.4803 57.0756C12.2545 61.2961 13.7172 65.3606 15.8099 69.1066L18.7347 61.4754C18.8815 61.147 19.1488 60.8874 19.4815 60.7502C19.8141 60.613 20.1867 60.6086 20.5224 60.738C20.8581 60.8674 21.1314 61.1206 21.286 61.4456C21.4405 61.7705 21.4644 62.1423 21.3529 62.4844L17.6491 72.1207C19.7054 75.1067 22.1613 77.7968 24.9482 80.1159V71.9292C24.9482 71.5566 25.0962 71.1992 25.3596 70.9358C25.6231 70.6723 25.9804 70.5243 26.353 70.5243C26.7257 70.5243 27.083 70.6723 27.3465 70.9358C27.6099 71.1992 27.7579 71.5566 27.7579 71.9292V82.2424C31.2897 84.6797 35.1992 86.518 39.3292 87.6831L36.0085 80.2053C35.9276 80.0366 35.8813 79.8535 35.8723 79.6666C35.8634 79.4798 35.8921 79.2931 35.9566 79.1175C36.0212 78.9419 36.1203 78.7811 36.2481 78.6445C36.3759 78.5079 36.5298 78.3984 36.7007 78.3223C36.8716 78.2463 37.056 78.2053 37.243 78.2018C37.4301 78.1983 37.6159 78.2323 37.7895 78.3019C37.9631 78.3715 38.121 78.4752 38.2539 78.6069C38.3867 78.7386 38.4918 78.8956 38.5629 79.0686L42.752 88.5005C45.1369 88.9567 47.5591 89.1898 49.9872 89.1966C51.2006 89.1966 52.3883 89.12 53.5697 89.0114L47.7777 83.2194C47.5267 82.9536 47.3891 82.6003 47.3943 82.2347C47.3996 81.8691 47.5471 81.5199 47.8057 81.2614C48.0642 81.0028 48.4134 80.8553 48.779 80.85C49.1446 80.8448 49.4979 80.9823 49.7637 81.2334L57.05 88.5261C61.2744 87.7587 65.3421 86.2956 69.0874 84.1965L61.4244 81.2589C61.2521 81.1932 61.0945 81.094 60.9607 80.9671C60.8269 80.8402 60.7195 80.6881 60.6448 80.5195C60.57 80.351 60.5293 80.1693 60.525 79.9849C60.5207 79.8006 60.5529 79.6172 60.6197 79.4454C60.7541 79.0984 61.02 78.8186 61.3597 78.6667C61.6993 78.5148 62.0852 78.5032 62.4333 78.6343L72.0633 82.3382C75.0544 80.2885 77.749 77.8367 80.0712 75.0519H71.91C71.5374 75.0519 71.18 74.9038 70.9166 74.6404C70.6531 74.3769 70.5051 74.0196 70.5051 73.647C70.5051 73.2744 70.6531 72.917 70.9166 72.6535C71.18 72.3901 71.5374 72.2421 71.91 72.2421H82.2232C84.6593 68.7119 86.4975 64.8047 87.664 60.6772L80.1861 63.9915C80.0076 64.0724 79.8137 64.1138 79.6178 64.1128C79.2961 64.1122 78.9844 64.0012 78.7347 63.7984C78.4851 63.5956 78.3126 63.3132 78.246 62.9985C78.1795 62.6838 78.223 62.3558 78.3692 62.0693C78.5154 61.7828 78.7555 61.5551 79.0494 61.4244L88.4814 57.2352C88.9394 54.8505 89.1746 52.4283 89.1838 50Z" fill="black"/>
<path d="M49.9996 24.1372C55.1158 24.1385 60.1168 25.6568 64.3701 28.5001C68.6234 31.3434 71.9382 35.3841 73.8952 40.1112C75.8522 44.8383 76.3635 50.0395 75.3647 55.0572C74.3658 60.0749 71.9015 64.6838 68.2833 68.301C64.6652 71.9183 60.0557 74.3815 55.0378 75.3791C50.0198 76.3768 44.8187 75.8641 40.0921 73.9059C35.3654 71.9478 31.3256 68.632 28.4833 64.378C25.6411 60.124 24.124 55.1226 24.124 50.0065C24.1325 43.147 26.8616 36.571 31.7125 31.7212C36.5635 26.8714 43.1402 24.144 49.9996 24.1372ZM73.0591 50.0001C73.0591 45.4393 71.7067 40.981 69.1729 37.1889C66.6391 33.3968 63.0377 30.4412 58.8241 28.6959C54.6106 26.9506 49.9741 26.494 45.501 27.3837C41.0279 28.2735 36.9191 30.4697 33.6942 33.6946C30.4692 36.9195 28.273 41.0283 27.3833 45.5014C26.4935 49.9745 26.9502 54.611 28.6955 58.8246C30.4408 63.0381 33.3964 66.6395 37.1885 69.1733C40.9806 71.7071 45.4389 73.0595 49.9996 73.0595C56.1133 73.0528 61.9747 70.6211 66.2977 66.2981C70.6207 61.9751 73.0523 56.1137 73.0591 50.0001Z" fill="white"/>
<path d="M65.4789 49.936C65.4916 50.4098 65.363 50.8767 65.1095 51.2771C64.856 51.6776 64.4891 51.9936 64.0554 52.1849C63.6218 52.3762 63.141 52.4341 62.6744 52.3514C62.2077 52.2686 61.7762 52.0489 61.4348 51.7201C61.0934 51.3914 60.8575 50.9685 60.7572 50.5052C60.6569 50.042 60.6967 49.5594 60.8715 49.1189C61.0463 48.6783 61.3482 48.2998 61.7389 48.0314C62.1295 47.7629 62.5911 47.6168 63.0651 47.6116C63.6891 47.6143 64.2881 47.8574 64.7377 48.2902C65.1872 48.7231 65.4527 49.3125 65.4789 49.936Z" fill="white"/>
<path d="M61.6221 59.234C61.6298 59.5433 61.5758 59.851 61.4633 60.1392C61.3508 60.4274 61.182 60.6903 60.9668 60.9126C60.7516 61.1349 60.4944 61.3122 60.21 61.434C59.9256 61.5559 59.6198 61.6199 59.3105 61.6223C58.8387 61.635 58.3738 61.5069 57.9751 61.2542C57.5764 61.0016 57.262 60.6359 57.0721 60.2039C56.8821 59.7718 56.8251 59.293 56.9084 58.8284C56.9917 58.3638 57.2115 57.9346 57.5397 57.5955C57.868 57.2563 58.2898 57.0227 58.7514 56.9243C59.213 56.8259 59.6935 56.8672 60.1315 57.043C60.5695 57.2188 60.9452 57.5211 61.2107 57.9113C61.4762 58.3016 61.6194 58.762 61.6221 59.234Z" fill="white"/>
<path d="M59.2918 38.3777C59.6008 38.3768 59.907 38.4375 60.1922 38.5563C60.4775 38.6751 60.7363 38.8497 60.9533 39.0697C61.1703 39.2897 61.3413 39.5508 61.4562 39.8376C61.5712 40.1245 61.6277 40.4314 61.6227 40.7404C61.6253 41.0556 61.5648 41.368 61.4448 41.6595C61.3248 41.9509 61.1477 42.2154 60.924 42.4373C60.7003 42.6593 60.4344 42.8342 60.142 42.9519C59.8496 43.0695 59.5367 43.1275 59.2216 43.1224C58.597 43.1107 58.0019 42.8548 57.5638 42.4095C57.1257 41.9642 56.8795 41.3651 56.8779 40.7404C56.877 40.4255 56.9392 40.1137 57.0608 39.8232C57.1824 39.5328 57.361 39.2697 57.586 39.0494C57.811 38.8291 58.0779 38.6562 58.3709 38.5408C58.6639 38.4255 58.977 38.37 59.2918 38.3777Z" fill="white"/>
<path d="M50.1081 42.8542C51.5165 42.8806 52.8856 43.3227 54.0435 44.125C55.2014 44.9272 56.0963 46.0537 56.6159 47.363C57.1355 48.6723 57.2565 50.106 56.9637 51.4839C56.671 52.8617 55.9775 54.1224 54.9705 55.1073C53.9634 56.0922 52.6878 56.7576 51.3037 57.0197C49.9197 57.2819 48.4891 57.1291 47.1916 56.5806C45.8941 56.0322 44.7877 55.1125 44.0114 53.9371C43.235 52.7617 42.8234 51.3831 42.8282 49.9745C42.834 49.0276 43.0274 48.0912 43.3973 47.2195C43.7671 46.3478 44.3061 45.5581 44.9831 44.896C45.66 44.2339 46.4615 43.7125 47.3412 43.3621C48.2209 43.0116 49.1613 42.839 50.1081 42.8542ZM54.7378 50.083C54.7541 49.1448 54.4918 48.2228 53.9842 47.4337C53.4765 46.6445 52.7462 46.0236 51.8856 45.6495C51.0251 45.2753 50.073 45.1648 49.1496 45.3317C48.2262 45.4987 47.3731 45.9357 46.698 46.5875C46.023 47.2393 45.5564 48.0767 45.3572 48.9936C45.1581 49.9106 45.2353 50.8661 45.5791 51.7392C45.9229 52.6123 46.5179 53.3638 47.2888 53.8988C48.0597 54.4338 48.9719 54.7282 49.9101 54.7447C50.5343 54.76 51.1554 54.651 51.7371 54.4242C52.3189 54.1974 52.8498 53.8573 53.299 53.4236C53.7481 52.9898 54.1067 52.4712 54.3537 51.8977C54.6007 51.3242 54.7313 50.7074 54.7378 50.083Z" fill="white"/>
<path d="M52.4074 63.0782C52.4112 63.5522 52.2739 64.0166 52.0129 64.4123C51.752 64.8079 51.3791 65.117 50.942 65.3002C50.5048 65.4833 50.023 65.5322 49.5579 65.4407C49.0929 65.3491 48.6655 65.1213 48.3304 64.7861C47.9952 64.4509 47.7674 64.0236 47.6758 63.5586C47.5843 63.0935 47.6332 62.6117 47.8163 62.1745C47.9995 61.7374 48.3085 61.3645 48.7042 61.1036C49.0999 60.8426 49.5643 60.7053 50.0383 60.7091C50.6615 60.7252 51.2548 60.98 51.6956 61.4208C52.1365 61.8617 52.3913 62.455 52.4074 63.0782Z" fill="white"/>
<path d="M52.4073 36.8769C52.4136 37.3509 52.2788 37.816 52.02 38.213C51.7611 38.6101 51.39 38.9212 50.9538 39.1067C50.5176 39.2922 50.0361 39.3437 49.5706 39.2546C49.105 39.1656 48.6765 38.9401 48.3395 38.6067C48.0026 38.2734 47.7724 37.8473 47.6783 37.3827C47.5843 36.9182 47.6306 36.4361 47.8114 35.998C47.9922 35.5598 48.2992 35.1853 48.6935 34.9222C49.0877 34.6591 49.5514 34.5193 50.0254 34.5205C50.6512 34.5254 51.2503 34.7744 51.6953 35.2146C52.1402 35.6547 52.3957 36.2512 52.4073 36.8769Z" fill="white"/>
<path d="M40.747 56.8777C41.0623 56.8793 41.3741 56.9434 41.6645 57.0661C41.9549 57.1889 42.2181 57.368 42.4389 57.593C42.6598 57.818 42.8339 58.0845 42.9512 58.3771C43.0685 58.6697 43.1268 58.9827 43.1226 59.2979C43.1177 59.6126 43.05 59.9232 42.9234 60.2114C42.7969 60.4996 42.614 60.7596 42.3856 60.9761C42.1571 61.1926 41.8877 61.3614 41.5932 61.4723C41.2986 61.5833 40.9849 61.6343 40.6704 61.6224C40.3596 61.6208 40.0524 61.557 39.7667 61.4347C39.4811 61.3123 39.2229 61.134 39.0074 60.9101C38.7918 60.6863 38.6234 60.4215 38.512 60.1314C38.4006 59.8413 38.3484 59.5318 38.3587 59.2213C38.3603 58.9102 38.4236 58.6025 38.5447 58.316C38.6659 58.0295 38.8426 57.7698 39.0646 57.552C39.2867 57.3341 39.5497 57.1623 39.8384 57.0466C40.1272 56.9309 40.436 56.8734 40.747 56.8777Z" fill="white"/>
<path d="M43.1156 40.7149C43.1357 41.0363 43.0903 41.3585 42.982 41.6618C42.8738 41.9651 42.705 42.2432 42.486 42.4793C42.2669 42.7153 42.0021 42.9044 41.7077 43.0349C41.4133 43.1655 41.0955 43.2348 40.7735 43.2387C40.4514 43.2426 40.132 43.181 39.8345 43.0576C39.5371 42.9342 39.2678 42.7517 39.0431 42.521C38.8183 42.2903 38.6429 42.0163 38.5273 41.7157C38.4118 41.4151 38.3585 41.0942 38.3709 40.7724C38.3942 40.1635 38.6506 39.5869 39.0871 39.1617C39.5235 38.7366 40.1067 38.4953 40.7159 38.488C41.3252 38.4806 41.914 38.7076 42.3606 39.1221C42.8072 39.5365 43.0775 40.1068 43.1156 40.7149Z" fill="white"/>
<path d="M39.2845 49.9807C39.287 50.296 39.2271 50.6086 39.1082 50.9006C38.9893 51.1926 38.8138 51.4581 38.5917 51.6819C38.3697 51.9057 38.1056 52.0834 37.8146 52.2046C37.5235 52.3258 37.2114 52.3882 36.8961 52.3882C36.2627 52.3882 35.6552 52.1366 35.2073 51.6887C34.7594 51.2408 34.5078 50.6333 34.5078 49.9999C34.5078 49.3665 34.7594 48.759 35.2073 48.3111C35.6552 47.8632 36.2627 47.6116 36.8961 47.6116C37.5247 47.6165 38.1265 47.8671 38.5728 48.3098C39.019 48.7525 39.2745 49.3522 39.2845 49.9807Z" fill="white"/>
</g>
<defs>
<clipPath id="clip0_2780_25272">
<rect width="84" height="84" fill="white" transform="translate(8 8)"/>
</clipPath>
</defs>
</svg>
