<svg width="7" height="11" viewBox="0 0 7 11" fill="none" xmlns="http://www.w3.org/2000/svg">
<path d="M1.12885 10.9999C0.997239 11.0007 0.866776 10.9755 0.744939 10.9257C0.623101 10.8759 0.512285 10.8026 0.418845 10.7099C0.325117 10.617 0.250723 10.5064 0.199954 10.3845C0.149185 10.2626 0.123047 10.1319 0.123047 9.99993C0.123047 9.86792 0.149185 9.73721 0.199954 9.61535C0.250723 9.49349 0.325117 9.38289 0.418845 9.28993L3.72885 5.99993L0.548845 2.68993C0.362594 2.50257 0.258053 2.24911 0.258053 1.98493C0.258053 1.72074 0.362594 1.46729 0.548845 1.27993C0.641808 1.1862 0.752409 1.11181 0.874269 1.06104C0.996128 1.01027 1.12683 0.984131 1.25885 0.984131C1.39086 0.984131 1.52156 1.01027 1.64342 1.06104C1.76528 1.11181 1.87588 1.1862 1.96885 1.27993L5.82885 5.27993C6.01207 5.46686 6.1147 5.71818 6.1147 5.97993C6.1147 6.24168 6.01207 6.493 5.82885 6.67993L1.82885 10.6799C1.73909 10.7769 1.63101 10.855 1.51087 10.91C1.39072 10.9649 1.26088 10.9955 1.12885 10.9999Z" fill="#CBCBCB"/>
</svg>
