<svg width="18" height="9" viewBox="0 0 18 9" fill="none" xmlns="http://www.w3.org/2000/svg">
<path d="M4.96103 0.727273V1.99503H1.67267V8H0.135032V0.727273H4.96103ZM6.31046 8H4.66273L7.17338 0.727273H9.15492L11.662 8H10.0143L8.19256 2.3892H8.13574L6.31046 8ZM6.20748 5.14134H10.0995V6.34162H6.20748V5.14134ZM15.183 8.09943C14.6527 8.09943 14.1804 8.00829 13.7661 7.82599C13.3541 7.64134 13.0286 7.38802 12.7895 7.06605C12.5528 6.74171 12.4308 6.36766 12.4237 5.94389H13.972C13.9815 6.12145 14.0395 6.2777 14.146 6.41264C14.2549 6.54522 14.3994 6.6482 14.5793 6.72159C14.7592 6.79498 14.9616 6.83168 15.1865 6.83168C15.4209 6.83168 15.628 6.79025 15.808 6.70739C15.9879 6.62453 16.1288 6.50971 16.2306 6.36293C16.3324 6.21615 16.3833 6.04687 16.3833 5.85511C16.3833 5.66098 16.3288 5.48935 16.2199 5.3402C16.1134 5.18868 15.9595 5.07031 15.7583 4.98509C15.5594 4.89986 15.3227 4.85724 15.048 4.85724H14.3698V3.72798H15.048C15.28 3.72798 15.4848 3.68774 15.6624 3.60724C15.8423 3.52675 15.982 3.41548 16.0814 3.27344C16.1808 3.12902 16.2306 2.96094 16.2306 2.76918C16.2306 2.58688 16.1868 2.42708 16.0992 2.28977C16.0139 2.15009 15.8932 2.04119 15.7369 1.96307C15.5831 1.88494 15.4031 1.84588 15.1972 1.84588C14.9888 1.84588 14.7983 1.88376 14.6254 1.95952C14.4526 2.03291 14.3141 2.13826 14.21 2.27557C14.1058 2.41288 14.0502 2.57386 14.0431 2.75852H12.5693C12.5764 2.33949 12.696 1.97017 12.928 1.65057C13.16 1.33097 13.4725 1.0812 13.8655 0.901278C14.2609 0.718986 14.7071 0.627841 15.2043 0.627841C15.7062 0.627841 16.1453 0.718986 16.5218 0.901278C16.8982 1.08357 17.1905 1.32978 17.3989 1.63991C17.6096 1.94768 17.7137 2.29332 17.7114 2.67685C17.7137 3.08404 17.5871 3.42377 17.3314 3.69602C17.0781 3.96828 16.7478 4.1411 16.3406 4.21449V4.27131C16.8757 4.33996 17.2829 4.5258 17.5622 4.82884C17.844 5.1295 17.9836 5.50592 17.9813 5.9581C17.9836 6.3724 17.8641 6.74053 17.6226 7.0625C17.3835 7.38447 17.0532 7.63778 16.6318 7.82244C16.2104 8.0071 15.7275 8.09943 15.183 8.09943Z" fill="#FF3124"/>
</svg>
