<svg width="17" height="16" viewBox="0 0 17 16" fill="none" xmlns="http://www.w3.org/2000/svg">
<path d="M1.12923 0.5H16.1292C16.3502 0.5 16.5622 0.587797 16.7185 0.744078C16.8748 0.900358 16.9626 1.11232 16.9626 1.33333V14.6667C16.9626 14.8877 16.8748 15.0996 16.7185 15.2559C16.5622 15.4122 16.3502 15.5 16.1292 15.5H1.12923C0.908218 15.5 0.696256 15.4122 0.539976 15.2559C0.383696 15.0996 0.295898 14.8877 0.295898 14.6667V1.33333C0.295898 1.11232 0.383696 0.900358 0.539976 0.744078C0.696256 0.587797 0.908218 0.5 1.12923 0.5V0.5ZM15.2959 4.03167L8.68923 9.94833L1.96257 4.01333V13.8333H15.2959V4.03167ZM2.3884 2.16667L8.68007 7.71833L14.8809 2.16667H2.3884Z" fill="#CBCBCB"/>
</svg>
