<svg width="19" height="20" viewBox="0 0 19 20" fill="none" xmlns="http://www.w3.org/2000/svg">
<path d="M16.2119 19.0832C16.1286 19.0832 16.0452 19.0832 15.9619 19.0832C13.2952 18.7499 10.6286 17.8333 8.37858 16.4166C6.29525 15.0833 4.46191 13.2499 3.12858 11.1666C1.71191 8.91658 0.795247 6.24992 0.461914 3.58325C0.461914 3.24992 0.461914 2.83325 0.628581 2.49992C0.711914 2.16659 0.878581 1.91659 1.12858 1.66659C1.37858 1.41659 1.62858 1.16659 1.96191 1.08325C2.29525 0.916585 2.62858 0.833252 2.96191 0.833252H5.46191C6.04525 0.833252 6.62858 1.08325 7.12858 1.41659C7.62858 1.83325 7.87858 2.33325 7.96191 2.99992C8.04525 3.74992 8.21191 4.49992 8.46191 5.16658C8.62858 5.58325 8.62858 6.08325 8.54525 6.58325C8.46191 6.99992 8.29525 7.41658 7.96191 7.74992L7.29525 8.41658C8.29525 9.91658 9.54525 11.2499 11.1286 12.2499L11.7119 11.6666C12.0452 11.3333 12.4619 11.0833 12.9619 10.9999C13.4619 10.9166 13.8786 10.9166 14.3786 11.0833C15.0452 11.3333 15.7952 11.4999 16.5452 11.5833C17.1286 11.6666 17.7119 11.9999 18.1286 12.4166C18.5452 12.9166 18.7119 13.4999 18.7119 14.0833V16.5833C18.7119 16.9166 18.6286 17.2499 18.4619 17.5833C18.2952 17.9166 18.1286 18.1666 17.8786 18.4166C17.6286 18.6666 17.2952 18.8333 16.9619 18.9166C16.7119 19.0833 16.4619 19.0832 16.2119 19.0832ZM5.46191 2.49992H2.96191C2.87858 2.49992 2.71191 2.49992 2.62858 2.58325C2.54525 2.58325 2.46191 2.66659 2.37858 2.74992C2.29525 2.83325 2.21191 2.91659 2.21191 3.08325C2.12858 3.16659 2.12858 3.33325 2.12858 3.41658C2.37858 5.83325 3.21191 8.16658 4.54525 10.2499C5.79525 12.1666 7.37858 13.8333 9.29525 14.9999C11.3786 16.3333 13.7119 17.1666 16.1286 17.4166C16.2119 17.4166 16.3786 17.4166 16.4619 17.4166C16.5452 17.4166 16.7119 17.3333 16.7952 17.2499C16.8786 17.1666 16.9619 17.0833 16.9619 16.9999C17.0452 16.9166 17.0452 16.7499 17.0452 16.6666V14.1666C17.0452 13.9999 16.9619 13.7499 16.8786 13.5833C16.7119 13.4166 16.5452 13.3333 16.3786 13.3333C15.5452 13.2499 14.7119 12.9999 13.8786 12.6666C13.7119 12.5833 13.5452 12.5833 13.3786 12.6666C13.2119 12.6666 13.0452 12.7499 12.9619 12.9166L11.8786 13.9999C11.6286 14.2499 11.2119 14.3333 10.8786 14.1666C8.62858 12.9166 6.79525 11.0833 5.54525 8.83325C5.37858 8.33325 5.46191 7.91658 5.71191 7.66658L6.79525 6.58325C6.87858 6.49992 6.96191 6.33325 7.04525 6.16658C7.04525 5.99992 7.04525 5.83325 7.04525 5.66658C6.71191 4.83325 6.54525 3.99992 6.37858 3.16659C6.37858 2.99992 6.21191 2.74992 6.12858 2.66659C5.87858 2.58325 5.71191 2.49992 5.46191 2.49992Z" fill="#CBCBCB"/>
</svg>
