<svg width="30" height="30" viewBox="0 0 30 30" fill="none" xmlns="http://www.w3.org/2000/svg">
<path d="M0 15C0 6.71573 6.71573 0 15 0V0C23.2843 0 30 6.71573 30 15V15C30 23.2843 23.2843 30 15 30V30C6.71573 30 0 23.2843 0 15V15Z" fill="#2CA5E0"/>
<path fill-rule="evenodd" clip-rule="evenodd" d="M19.655 21.922C19.8898 22.0882 20.1924 22.1298 20.4622 22.0277C20.7319 21.9249 20.9303 21.6945 20.9901 21.4152C21.6237 18.4374 23.1607 10.9001 23.7375 8.19134C23.7812 7.98718 23.7083 7.775 23.5479 7.63865C23.3875 7.5023 23.1651 7.46292 22.9668 7.53657C19.9095 8.66821 10.4939 12.2009 6.64549 13.625C6.40122 13.7154 6.24227 13.9502 6.25029 14.2076C6.25904 14.4657 6.43258 14.6895 6.68268 14.7646C8.40857 15.2809 10.674 15.9991 10.674 15.9991C10.674 15.9991 11.7328 19.1964 12.2847 20.8224C12.354 21.0266 12.5137 21.187 12.7244 21.2424C12.9344 21.2971 13.159 21.2395 13.3158 21.0915C14.2024 20.2544 15.5732 18.9602 15.5732 18.9602C15.5732 18.9602 18.1777 20.8698 19.655 21.922ZM11.627 15.5951L12.8513 19.6332L13.1233 17.076C13.1233 17.076 17.8533 12.8098 20.5497 10.3781C20.6284 10.3066 20.6393 10.187 20.5737 10.1032C20.5088 10.0193 20.3892 9.99963 20.2996 10.0565C17.1744 12.0522 11.627 15.5951 11.627 15.5951Z" fill="white"/>
</svg>
