<svg width="30" height="30" viewBox="0 0 30 30" fill="none" xmlns="http://www.w3.org/2000/svg">
<path d="M0 15C0 6.71573 6.71573 0 15 0V0C23.2843 0 30 6.71573 30 15V15C30 23.2843 23.2843 30 15 30V30C6.71573 30 0 23.2843 0 15V15Z" fill="#665CAC"/>
<path d="M14.4985 5.00163C12.8943 5.0233 9.44264 5.28663 7.51181 7.0558C6.07847 8.4808 5.57764 10.5816 5.51931 13.1833C5.46931 15.775 5.41097 20.6416 10.1026 21.9675V23.9841C10.1026 23.9841 10.071 24.7925 10.6043 24.9591C11.2626 25.1675 11.6376 24.5433 12.2626 23.8766L13.4293 22.56C16.6376 22.8266 19.096 22.2108 19.3793 22.1191C20.0293 21.9108 23.6968 21.4433 24.2968 16.5758C24.9135 11.55 23.9968 8.3833 22.3468 6.94996L22.3385 6.9483C21.8385 6.48996 19.8385 5.03163 15.3635 5.01496C15.3635 5.01496 15.0335 4.99413 14.4985 5.00163ZM14.5543 6.4158C15.0085 6.4133 15.2876 6.43246 15.2876 6.43246C19.071 6.4408 20.8801 7.58246 21.3051 7.9658C22.6968 9.15663 23.4118 12.0125 22.8885 16.2091C22.3885 20.2758 19.4135 20.5341 18.8635 20.7091C18.6301 20.7841 16.4635 21.3175 13.7368 21.1425C13.7368 21.1425 11.7043 23.5933 11.071 24.2266C10.971 24.335 10.8543 24.3683 10.7793 24.3516C10.671 24.3266 10.6376 24.1933 10.646 24.01L10.6626 20.6608C6.68681 19.5608 6.92014 15.4091 6.96181 13.2425C7.01181 11.0758 7.42014 9.29913 8.62847 8.09913C10.2593 6.62413 13.191 6.42413 14.5535 6.4158H14.5543ZM14.8543 8.58246C14.8215 8.58235 14.789 8.58872 14.7587 8.60119C14.7284 8.61366 14.7008 8.632 14.6776 8.65515C14.6544 8.67829 14.6359 8.7058 14.6234 8.73608C14.6108 8.76637 14.6043 8.79884 14.6043 8.83163C14.6043 8.89793 14.6306 8.96152 14.6775 9.00841C14.7244 9.05529 14.788 9.08163 14.8543 9.08163C15.4738 9.06981 16.0896 9.18081 16.666 9.40823C17.2424 9.63565 17.7681 9.97498 18.2126 10.4066C19.121 11.29 19.5635 12.4733 19.5801 14.0233C19.5801 14.0561 19.5866 14.0886 19.5992 14.119C19.6117 14.1493 19.6301 14.1769 19.6534 14.2001C19.6766 14.2233 19.7041 14.2417 19.7345 14.2543C19.7648 14.2668 19.7973 14.2733 19.8301 14.2733V14.2658C19.8964 14.2658 19.96 14.2395 20.0069 14.1926C20.0538 14.1457 20.0801 14.0821 20.0801 14.0158C20.1111 13.2869 19.9933 12.5593 19.734 11.8773C19.4746 11.1954 19.0792 10.5734 18.5718 10.0491C17.5801 9.08246 16.3285 8.58246 14.8535 8.58246H14.8543ZM11.5593 9.15746C11.3821 9.13221 11.2015 9.16744 11.0468 9.25746H11.0368C10.6951 9.45746 10.3801 9.70746 10.0801 10.0408C9.85514 10.3075 9.72931 10.5733 9.69597 10.8316C9.67637 10.9831 9.6906 11.1371 9.73764 11.2825L9.75431 11.2908C10.0112 12.0459 10.3463 12.7721 10.7543 13.4575C11.2832 14.4173 11.9329 15.3054 12.6876 16.1L12.7126 16.1333L12.746 16.1583L12.771 16.1833L12.796 16.2083C13.5937 16.965 14.4841 17.6174 15.446 18.15C16.546 18.75 17.2143 19.0333 17.6143 19.15V19.1583C17.731 19.1916 17.8376 19.2083 17.946 19.2083C18.2874 19.1834 18.6107 19.0449 18.8643 18.815C19.1893 18.5233 19.4476 18.2 19.6393 17.8583V17.85C19.831 17.4916 19.7643 17.1491 19.4893 16.9158C18.9351 16.431 18.335 16.0012 17.6976 15.6325C17.2726 15.3991 16.8393 15.5408 16.6643 15.7741L16.2893 16.2483C16.0976 16.4816 15.7476 16.4483 15.7476 16.4483L15.7376 16.4566C13.1376 15.79 12.446 13.1575 12.446 13.1575C12.446 13.1575 12.4126 12.7991 12.6543 12.6158L13.121 12.2408C13.346 12.0575 13.5043 11.6241 13.2626 11.1991C12.8944 10.5614 12.4646 9.96132 11.9793 9.40746C11.8737 9.27654 11.7247 9.18784 11.5593 9.15746ZM15.2868 9.89913C15.2205 9.89935 15.157 9.9259 15.1103 9.97294C15.0635 10.02 15.0374 10.0837 15.0376 10.15C15.0379 10.2163 15.0644 10.2798 15.1115 10.3265C15.1585 10.3732 15.2222 10.3994 15.2885 10.3991C16.1224 10.4136 16.9166 10.7582 17.4968 11.3575C17.7586 11.6462 17.9598 11.9845 18.0886 12.3524C18.2174 12.7202 18.2712 13.1101 18.2468 13.4991C18.247 13.5653 18.2735 13.6287 18.3203 13.6754C18.3672 13.7221 18.4306 13.7483 18.4968 13.7483L18.5051 13.7583C18.538 13.7583 18.5706 13.7518 18.601 13.7392C18.6314 13.7266 18.659 13.7081 18.6822 13.6848C18.7054 13.6615 18.7238 13.6338 18.7364 13.6034C18.7489 13.573 18.7552 13.5404 18.7551 13.5075C18.7801 12.5158 18.4718 11.6825 17.8635 11.0158C17.2551 10.3491 16.4051 9.97413 15.3218 9.89913C15.3102 9.89831 15.2985 9.89831 15.2868 9.89913ZM15.6951 11.2483C15.6617 11.2473 15.6284 11.2529 15.5971 11.2648C15.5659 11.2767 15.5373 11.2946 15.5129 11.3176C15.4886 11.3405 15.469 11.368 15.4553 11.3985C15.4416 11.429 15.434 11.4619 15.4331 11.4954C15.4321 11.5288 15.4377 11.5621 15.4496 11.5934C15.4614 11.6246 15.4794 11.6533 15.5023 11.6776C15.5253 11.7019 15.5528 11.7215 15.5833 11.7352C15.6138 11.7489 15.6467 11.7565 15.6801 11.7575C16.5051 11.7991 16.9051 12.2158 16.9551 13.0741C16.9573 13.139 16.9846 13.2004 17.0312 13.2455C17.0779 13.2906 17.1403 13.3158 17.2051 13.3158H17.2135C17.247 13.3148 17.2801 13.307 17.3106 13.2929C17.3411 13.2788 17.3684 13.2587 17.391 13.2338C17.4135 13.2089 17.4308 13.1797 17.4418 13.148C17.4529 13.1163 17.4574 13.0826 17.4551 13.0491C17.3968 11.9325 16.7885 11.3066 15.7051 11.2483C15.7018 11.2482 15.6985 11.2482 15.6951 11.2483Z" fill="white"/>
</svg>
