<svg width="24" height="25" viewBox="0 0 24 25" fill="none" xmlns="http://www.w3.org/2000/svg">
<path d="M23.25 23.0001C23.25 23.3316 23.1183 23.6496 22.8839 23.884C22.6495 24.1184 22.3315 24.2501 22 24.2501H2C1.66848 24.2501 1.35054 24.1184 1.11612 23.884C0.881696 23.6496 0.75 23.3316 0.75 23.0001V9.86259C0.749868 9.67211 0.793271 9.48412 0.876895 9.31297C0.960519 9.14182 1.08215 8.99205 1.2325 8.87509L11.2325 1.0976C11.4519 0.926903 11.722 0.834229 12 0.834229C12.278 0.834229 12.5481 0.926903 12.7675 1.0976L22.7675 8.87509C22.9179 8.99205 23.0395 9.14182 23.1231 9.31297C23.2067 9.48412 23.2501 9.67211 23.25 9.86259V23.0001ZM20.75 21.7501V10.4726L12 3.6676L3.25 10.4726V21.7501H20.75ZM5.75 16.7501H18.25V19.2501H5.75V16.7501Z" fill="#FF3124"/>
</svg>
