<svg width="30" height="30" viewBox="0 0 30 30" fill="none" xmlns="http://www.w3.org/2000/svg">
<path fill-rule="evenodd" clip-rule="evenodd" d="M24.4287 15C24.4287 14.4822 24.009 14.0625 23.4912 14.0625H5.99121C5.47344 14.0625 5.05371 14.4822 5.05371 15C5.05371 15.5178 5.47344 15.9375 5.99121 15.9375H23.4912C24.009 15.9375 24.4287 15.5178 24.4287 15Z" fill="#292626"/>
<path fill-rule="evenodd" clip-rule="evenodd" d="M14.078 5.58709C13.7119 5.9532 13.7119 6.5468 14.078 6.91291L22.1651 15L14.078 23.0871C13.7119 23.4532 13.7119 24.0468 14.078 24.4129C14.4441 24.779 15.0377 24.779 15.4038 24.4129L24.1538 15.6629V14.3371L15.4038 5.58709C15.0377 5.22097 14.4441 5.22097 14.078 5.58709Z" fill="#292626"/>
</svg>
