<svg width="100" height="100" viewBox="0 0 100 100" fill="none" xmlns="http://www.w3.org/2000/svg">
<path d="M51.1472 65.7144L55.5709 81.9904L49.8438 89.1943L44.1167 82.0033L48.534 65.7144H48.9064H50.7812C50.9031 65.7208 51.0253 65.7208 51.1472 65.7144Z" fill="#FF3124"/>
<path d="M55.2112 59.2102L53.285 65.7142C53.1217 66.2577 52.7887 66.7347 52.3348 67.0754C51.8833 67.4157 51.3336 67.6005 50.7681 67.6019H48.8869C48.3195 67.5995 47.7679 67.4147 47.3135 67.0748C46.8592 66.7349 46.5262 66.2579 46.3637 65.7142L44.4375 59.2231L55.2112 59.2102Z" fill="#FF3124"/>
<path fill-rule="evenodd" clip-rule="evenodd" d="M84.823 73.5538C82.933 68.7068 79.7715 64.4587 75.6712 61.2567C71.5709 58.0546 66.6834 56.0169 61.5228 55.3579C64.0642 53.9598 66.1721 51.8897 67.6159 49.374C72.1103 48.6035 76.6689 46.7544 78.6207 42.6003C80.1637 41.7477 81.3972 40.4285 82.1442 38.8317C82.8913 37.2349 83.1135 35.4426 82.7792 33.7117C82.4448 31.9808 81.571 30.4002 80.2831 29.1965C78.9951 27.9928 77.359 27.2278 75.6095 27.0112C75.0081 21.7824 72.5063 16.9568 68.5798 13.4517C64.6534 9.94663 59.5759 8.00646 54.3126 8H45.3752C40.1118 8.00646 35.0343 9.94663 31.1079 13.4517C27.1814 16.9568 24.6796 21.7824 24.0782 27.0112C22.0184 27.3191 20.1482 28.3859 18.8347 30.0022C17.5212 31.6184 16.8594 33.6673 16.9792 35.7466C17.0991 37.8258 17.9919 39.7851 19.4824 41.2397C20.9729 42.6943 22.9533 43.5392 25.0349 43.6084C25.3226 43.6084 25.5986 43.494 25.8021 43.2905C26.0056 43.0871 26.1199 42.8111 26.1199 42.5233V29.4125C26.1199 24.304 28.1493 19.4048 31.7616 15.7925C35.3738 12.1802 40.2731 10.1509 45.3816 10.1509H54.3126C59.4211 10.1509 64.3203 12.1802 67.9326 15.7925C71.5448 19.4048 73.5742 24.304 73.5742 29.4125V42.504C73.5759 42.7924 73.6916 43.0683 73.8961 43.2717C74.1007 43.475 74.3773 43.5891 74.6657 43.5891H75.3655C73.7411 45.3226 71.3142 46.3564 68.7588 46.947C69.3824 45.2354 69.6976 43.4268 69.6898 41.6051V30.9278C69.6847 26.7659 68.0291 22.776 65.0862 19.8331C62.1433 16.8902 58.1534 15.2346 53.9915 15.2295H45.6962C41.5343 15.2346 37.5444 16.8902 34.6015 19.8331C31.6586 22.776 30.0031 26.7659 29.998 30.9278V41.5731C29.9983 44.3895 30.756 47.1539 32.1917 49.5769C33.6274 51.9999 35.6883 53.9922 38.1585 55.3451C31.1572 56.1761 24.7118 59.571 20.0663 64.8746C15.4208 70.1781 12.9044 77.0145 13.0028 84.0642V90.8956C13.0028 91.1834 13.1171 91.4595 13.3206 91.6629C13.5241 91.8664 13.8001 91.9807 14.0879 91.9807C14.3756 91.9807 14.6516 91.8664 14.8551 91.6629C15.0586 91.4595 15.1729 91.1834 15.1729 90.8956V84.0835C15.0668 78.0219 17.0888 72.115 20.8872 67.39C23.4085 64.222 26.6151 61.6668 30.266 59.9164C33.9169 58.166 37.9171 57.266 41.9658 57.2841H42.197L42.2676 57.5217H42.4538C43.0578 57.4574 43.6669 57.4574 44.2708 57.5217C44.3659 57.5304 44.4603 57.5454 44.5533 57.5666L44.4763 57.3098H54.2548C55.3259 57.2566 56.3995 57.291 57.465 57.4125V57.3098H57.8246C63.2229 57.2999 68.4982 58.9217 72.9587 61.9626C77.4191 65.0034 80.8564 69.3213 82.8198 74.3499C83.9973 77.458 84.5789 80.7601 84.5341 84.0835V90.9149C84.5341 91.2027 84.6484 91.4787 84.8519 91.6822C85.0554 91.8857 85.3313 92 85.6191 92C85.9069 92 86.1829 91.8857 86.3864 91.6822C86.5899 91.4787 86.7042 91.2027 86.7042 90.9149V84.0835C86.7462 80.4864 86.1079 76.9138 84.823 73.5538ZM75.7572 29.2071C76.7458 29.3834 77.6762 29.799 78.4672 30.4177C79.2581 31.0364 79.8855 31.8394 80.2947 32.7564C80.7038 33.6735 80.8822 34.6768 80.8142 35.6787C80.7463 36.6806 80.4341 37.6506 79.9048 38.504C79.2981 39.4737 78.4363 40.2579 77.4137 40.7705L77.2596 40.8411C76.7813 41.0635 76.2763 41.2232 75.7572 41.3162V29.2071ZM23.9434 41.3162C22.5227 41.0618 21.2367 40.3159 20.3105 39.2091C19.3842 38.1022 18.8767 36.7049 18.8767 35.2616C18.8767 33.8184 19.3842 32.4211 20.3105 31.3142C21.2367 30.2074 22.5227 29.4615 23.9434 29.2071V41.3162ZM32.1745 30.9214C32.1779 27.335 33.6032 23.8964 36.1379 21.3593C38.6726 18.8222 42.1099 17.3937 45.6962 17.3869H53.9915C57.5768 17.397 61.0121 18.8267 63.5461 21.363C66.0801 23.8994 67.5064 27.3361 67.5132 30.9214V32.1477C61.6898 31.435 57.6256 25.2649 57.587 25.2006C57.4857 25.0464 57.3475 24.9198 57.1849 24.8324C57.0224 24.745 56.8406 24.6994 56.6561 24.6998H56.6175C56.4266 24.7108 56.2418 24.7717 56.0818 24.8765C55.9218 24.9813 55.7921 25.1263 55.7058 25.2969C52.8615 30.9342 38.6528 32.1669 32.1681 32.2119L32.1745 30.9214ZM54.0044 55.1075H45.6962C42.1076 55.1024 38.6677 53.6738 36.1315 51.1351C33.5952 48.5964 32.1698 45.1552 32.1681 41.5666V34.3756C36.4506 34.3371 51.6544 33.7721 56.7138 27.6726C58.4217 29.7978 62.2933 33.817 67.5132 34.3242V41.5731C67.5233 43.5814 67.0845 45.5666 66.2291 47.3836C63.4809 47.7163 60.7066 47.7765 57.9466 47.5634C57.7022 46.454 57.0595 45.4728 56.1403 44.8055C55.221 44.1381 54.089 43.831 52.9585 43.9423C51.828 44.0536 50.7775 44.5755 50.006 45.4093C49.2345 46.243 48.7955 47.3308 48.7722 48.4665C48.7488 49.6022 49.1426 50.7071 49.8792 51.5719C50.6157 52.4367 51.6438 53.0014 52.7687 53.1591C53.8937 53.3168 55.0374 53.0566 55.9834 52.4276C56.9293 51.7987 57.6118 50.8448 57.9016 49.7464C58.7042 49.8042 59.892 49.8748 61.3174 49.8748C62.3703 49.8748 63.5517 49.8363 64.7973 49.7335C63.5357 51.4058 61.903 52.7621 60.0278 53.6958C58.1526 54.6295 56.0863 55.115 53.9915 55.114L54.0044 55.1075ZM55.8535 48.5458C55.8548 49.1198 55.6568 49.6765 55.2933 50.1208C54.9298 50.565 54.4234 50.8693 53.8605 50.9818C53.2976 51.0942 52.7131 51.0077 52.2068 50.7371C51.7006 50.4665 51.304 50.0285 51.0847 49.498C50.8655 48.9675 50.8372 48.3774 51.0047 47.8283C51.1722 47.2793 51.5251 46.8054 52.0031 46.4876C52.4811 46.1698 53.0546 46.0277 53.6257 46.0858C54.1968 46.1438 54.7301 46.3983 55.1344 46.8058C55.5936 47.2686 55.852 47.8938 55.8535 48.5458ZM72.6496 83.4414V90.915C72.6285 91.1891 72.5047 91.4453 72.3029 91.6321C72.1012 91.819 71.8363 91.9228 71.5613 91.9228C71.2863 91.9228 71.0214 91.819 70.8197 91.6321C70.6179 91.4453 70.4941 91.1891 70.473 90.915V83.4414C70.4941 83.1672 70.6179 82.9111 70.8197 82.7243C71.0214 82.5374 71.2863 82.4336 71.5613 82.4336C71.8363 82.4336 72.1012 82.5374 72.3029 82.7243C72.5047 82.9111 72.6285 83.1672 72.6496 83.4414ZM29.2081 90.9149V83.4414C29.2081 83.1536 29.0938 82.8776 28.8903 82.6741C28.6868 82.4706 28.4108 82.3563 28.123 82.3563C27.8353 82.3563 27.5593 82.4706 27.3558 82.6741C27.1523 82.8776 27.038 83.1536 27.038 83.4414V90.9149C27.038 91.2027 27.1523 91.4787 27.3558 91.6822C27.5593 91.8857 27.8353 92 28.123 92C28.4108 92 28.6868 91.8857 28.8903 91.6822C29.0938 91.4787 29.2081 91.2027 29.2081 90.9149Z" fill="black"/>
<path d="M75.6712 61.2567L75.979 60.8626L75.6712 61.2567ZM84.823 73.5538L85.29 73.3752L85.2888 73.3721L84.823 73.5538ZM61.5228 55.3579L61.2818 54.9199L59.9373 55.6595L61.4595 55.8539L61.5228 55.3579ZM67.6159 49.374L67.5314 48.8812L67.2994 48.921L67.1823 49.1251L67.6159 49.374ZM78.6207 42.6003L78.3789 42.1627L78.2371 42.2411L78.1682 42.3877L78.6207 42.6003ZM82.7792 33.7117L82.2883 33.8065V33.8065L82.7792 33.7117ZM80.2831 29.1965L79.9417 29.5618L80.2831 29.1965ZM75.6095 27.0112L75.1128 27.0684L75.1577 27.4591L75.5481 27.5075L75.6095 27.0112ZM68.5798 13.4517L68.2469 13.8247V13.8247L68.5798 13.4517ZM54.3126 8L54.3132 7.5H54.3126V8ZM45.3752 8V7.5L45.3745 7.5L45.3752 8ZM31.1079 13.4517L31.4408 13.8247V13.8247L31.1079 13.4517ZM24.0782 27.0112L24.1521 27.5058L24.5312 27.4491L24.5749 27.0684L24.0782 27.0112ZM18.8347 30.0022L19.2227 30.3175L18.8347 30.0022ZM16.9792 35.7466L17.4784 35.7178L16.9792 35.7466ZM19.4824 41.2397L19.1332 41.5976H19.1332L19.4824 41.2397ZM25.0349 43.6084L25.0183 44.1081L25.0266 44.1084H25.0349V43.6084ZM25.8021 43.2905L25.4486 42.937L25.8021 43.2905ZM31.7616 15.7925L31.408 15.4389L31.7616 15.7925ZM67.9326 15.7925L67.579 16.146V16.146L67.9326 15.7925ZM73.5742 42.504H73.0742L73.0742 42.5069L73.5742 42.504ZM73.8961 43.2717L73.5436 43.6263L73.5436 43.6263L73.8961 43.2717ZM74.6657 43.5891V43.0891H74.6657L74.6657 43.5891ZM75.3655 43.5891L75.7304 43.931L76.5193 43.0891H75.3655V43.5891ZM68.7588 46.947L68.289 46.7759L67.9735 47.6418L68.8714 47.4342L68.7588 46.947ZM69.6898 41.6051H69.1897L69.1898 41.6073L69.6898 41.6051ZM69.6898 30.9278H70.1898V30.9272L69.6898 30.9278ZM65.0862 19.8331L65.4398 19.4795V19.4795L65.0862 19.8331ZM53.9915 15.2295L53.9921 14.7295H53.9915V15.2295ZM45.6962 15.2295V14.7295L45.6956 14.7295L45.6962 15.2295ZM29.998 30.9278L29.498 30.9272V30.9278H29.998ZM29.998 41.5731H29.498V41.5731L29.998 41.5731ZM38.1585 55.3451L38.2174 55.8416L39.7695 55.6574L38.3987 54.9066L38.1585 55.3451ZM20.0663 64.8746L19.6902 64.5451L20.0663 64.8746ZM13.0028 84.0642H13.5028L13.5027 84.0572L13.0028 84.0642ZM15.1729 84.0835H15.673L15.6728 84.0747L15.1729 84.0835ZM20.8872 67.39L21.2769 67.7033L21.2784 67.7014L20.8872 67.39ZM30.266 59.9164L30.0498 59.4656L30.266 59.9164ZM41.9658 57.2841L41.9636 57.7841H41.9658V57.2841ZM42.197 57.2841L42.6763 57.1416L42.57 56.7841H42.197V57.2841ZM42.2676 57.5217L41.7883 57.6641L41.8946 58.0217H42.2676V57.5217ZM42.4538 57.5217V58.0217H42.4803L42.5067 58.0189L42.4538 57.5217ZM44.2708 57.5217L44.2179 58.0189L44.2253 58.0196L44.2708 57.5217ZM44.5533 57.5666L44.4421 58.0541L45.2788 58.245L45.0322 57.423L44.5533 57.5666ZM44.4763 57.3098V56.8098H43.8043L43.9974 57.4534L44.4763 57.3098ZM54.2548 57.3098V57.8098H54.2672L54.2796 57.8092L54.2548 57.3098ZM57.465 57.4125L57.4084 57.9093L57.965 57.9728V57.4125H57.465ZM57.465 57.3098V56.8098H56.965V57.3098H57.465ZM57.8246 57.3098V57.8098H57.8255L57.8246 57.3098ZM72.9587 61.9626L73.2403 61.5494L72.9587 61.9626ZM82.8198 74.3499L83.2874 74.1728L83.2855 74.1681L82.8198 74.3499ZM84.5341 84.0835L84.0341 84.0767V84.0835H84.5341ZM86.7042 84.0835L86.2042 84.0776V84.0835H86.7042ZM78.4672 30.4177L78.7752 30.0239V30.0239L78.4672 30.4177ZM75.7572 29.2071L75.8449 28.7148L75.2572 28.61V29.2071H75.7572ZM79.9048 38.504L80.3287 38.7692L80.3298 38.7675L79.9048 38.504ZM77.4137 40.7705L77.622 41.225L77.6299 41.2214L77.6377 41.2175L77.4137 40.7705ZM77.2596 40.8411L77.0513 40.3866L77.0487 40.3877L77.2596 40.8411ZM75.7572 41.3162H75.2572V41.9138L75.8454 41.8084L75.7572 41.3162ZM20.3105 39.2091L20.6939 38.8882L20.3105 39.2091ZM23.9434 41.3162L23.8552 41.8084L24.4434 41.9137V41.3162H23.9434ZM20.3105 31.3142L20.6939 31.6351L20.3105 31.3142ZM23.9434 29.2071H24.4434V28.6096L23.8552 28.7149L23.9434 29.2071ZM36.1379 21.3593L36.4916 21.7127L36.1379 21.3593ZM32.1745 30.9214L32.6745 30.9238L32.6745 30.9218L32.1745 30.9214ZM45.6962 17.3869V16.8869L45.6952 16.8869L45.6962 17.3869ZM53.9915 17.3869L53.993 16.8869H53.9915V17.3869ZM63.5461 21.363L63.8998 21.0096L63.5461 21.363ZM67.5132 30.9214H68.0132V30.9204L67.5132 30.9214ZM67.5132 32.1477L67.4525 32.644L68.0132 32.7126V32.1477H67.5132ZM57.587 25.2006L58.0158 24.9434L58.0105 24.9346L58.0049 24.9261L57.587 25.2006ZM57.1849 24.8324L56.9481 25.2727L56.9481 25.2727L57.1849 24.8324ZM56.6561 24.6998V25.1998L56.6573 25.1998L56.6561 24.6998ZM56.6175 24.6998V24.1998H56.6033L56.589 24.2007L56.6175 24.6998ZM56.0818 24.8765L55.8079 24.4582L55.8079 24.4582L56.0818 24.8765ZM55.7058 25.2969L55.2596 25.0713L55.2594 25.0717L55.7058 25.2969ZM32.1681 32.2119L31.6681 32.2094L31.6656 32.7154L32.1716 32.7119L32.1681 32.2119ZM45.6962 55.1075L45.6955 55.6075H45.6962V55.1075ZM54.0044 55.1075L54.2283 55.5546L54.0044 54.6075V55.1075ZM32.1681 41.5666H31.6681V41.5669L32.1681 41.5666ZM32.1681 34.3756L32.1636 33.8756L31.6681 33.8801V34.3756H32.1681ZM56.7138 27.6726L57.1036 27.3594L56.72 26.882L56.329 27.3533L56.7138 27.6726ZM67.5132 34.3242H68.0132V33.8705L67.5616 33.8266L67.5132 34.3242ZM67.5132 41.5731H67.0132L67.0132 41.5756L67.5132 41.5731ZM66.2291 47.3836L66.2892 47.88L66.5637 47.8468L66.6815 47.5966L66.2291 47.3836ZM57.9466 47.5634L57.4583 47.671L57.5381 48.0333L57.9081 48.0619L57.9466 47.5634ZM56.1403 44.8055L56.434 44.4008L56.1403 44.8055ZM52.9585 43.9423L52.9095 43.4447H52.9095L52.9585 43.9423ZM50.006 45.4093L49.6391 45.0697L50.006 45.4093ZM48.7722 48.4665L48.2723 48.4562L48.7722 48.4665ZM52.7687 53.1591L52.6993 53.6543L52.7687 53.1591ZM57.9016 49.7464L57.9375 49.2477L57.524 49.2179L57.4182 49.6188L57.9016 49.7464ZM64.7973 49.7335L65.1964 50.0347L65.8688 49.1435L64.7562 49.2352L64.7973 49.7335ZM60.0278 53.6958L60.2507 54.1434L60.0278 53.6958ZM53.9915 55.114L53.7676 54.6669L53.9913 55.614L53.9915 55.114ZM55.8535 48.5458L56.3535 48.5446L55.8535 48.5458ZM52.2068 50.7371L52.4425 50.2962H52.4425L52.2068 50.7371ZM51.0847 49.498L50.6226 49.689H50.6226L51.0847 49.498ZM51.0047 47.8283L50.5264 47.6824V47.6824L51.0047 47.8283ZM52.0031 46.4876L51.7263 46.0712H51.7263L52.0031 46.4876ZM53.6257 46.0858L53.5752 46.5832H53.5752L53.6257 46.0858ZM55.1344 46.8058L55.4893 46.4536L55.1344 46.8058ZM72.6496 90.915L73.1481 90.9533L73.1496 90.9341V90.915H72.6496ZM72.6496 83.4414H73.1496V83.4222L73.1481 83.4031L72.6496 83.4414ZM72.3029 91.6321L71.9632 91.2653L71.9632 91.2653L72.3029 91.6321ZM70.8197 91.6321L71.1594 91.2653L71.1594 91.2653L70.8197 91.6321ZM70.473 90.915H69.973V90.9341L69.9745 90.9533L70.473 90.915ZM70.473 83.4414L69.9745 83.4031L69.973 83.4222V83.4414H70.473ZM70.8197 82.7243L71.1594 83.0911L71.1594 83.0911L70.8197 82.7243ZM72.3029 82.7243L71.9632 83.0911L71.9632 83.0911L72.3029 82.7243ZM28.8903 82.6741L29.2439 82.3206L29.2438 82.3206L28.8903 82.6741ZM27.3558 82.6741L27.0022 82.3206L27.0022 82.3206L27.3558 82.6741ZM28.8903 91.6822L28.5367 91.3286L28.8903 91.6822ZM75.3635 61.6507C79.393 64.7975 82.4998 68.9721 84.3571 73.7354L85.2888 73.3721C83.3662 68.4414 80.1501 64.12 75.979 60.8626L75.3635 61.6507ZM61.4595 55.8539C66.5309 56.5015 71.334 58.504 75.3635 61.6507L75.979 60.8626C71.8078 57.6052 66.8359 55.5323 61.5861 54.862L61.4595 55.8539ZM67.1823 49.1251C65.7841 51.5613 63.7428 53.566 61.2818 54.9199L61.7638 55.796C64.3856 54.3537 66.5601 52.2181 68.0496 49.6229L67.1823 49.1251ZM78.1682 42.3877C76.3256 46.3093 71.9865 48.1175 67.5314 48.8812L67.7004 49.8668C72.2342 49.0896 77.0122 47.1995 79.0733 42.813L78.1682 42.3877ZM81.6913 38.6198C80.989 40.121 79.8295 41.3612 78.3789 42.1627L78.8625 43.038C80.498 42.1343 81.8053 40.736 82.5971 39.0436L81.6913 38.6198ZM82.2883 33.8065C82.6026 35.4337 82.3936 37.1187 81.6913 38.6198L82.5971 39.0436C83.3889 37.3511 83.6245 35.4514 83.2701 33.6169L82.2883 33.8065ZM79.9417 29.5618C81.1525 30.6934 81.974 32.1793 82.2883 33.8065L83.2701 33.6169C82.9157 31.7823 81.9896 30.107 80.6245 28.8312L79.9417 29.5618ZM75.5481 27.5075C77.1928 27.7111 78.7308 28.4302 79.9417 29.5618L80.6245 28.8312C79.2593 27.5554 77.5253 26.7446 75.6709 26.515L75.5481 27.5075ZM68.2469 13.8247C72.0819 17.2481 74.5253 21.9613 75.1128 27.0684L76.1062 26.9541C75.4908 21.6034 72.9308 16.6654 68.9128 13.0787L68.2469 13.8247ZM54.3119 8.5C59.4527 8.50631 64.4119 10.4013 68.2469 13.8247L68.9128 13.0787C64.8949 9.49198 59.6991 7.50661 54.3132 7.5L54.3119 8.5ZM45.3752 8.5H54.3126V7.5H45.3752V8.5ZM31.4408 13.8247C35.2758 10.4013 40.235 8.50631 45.3758 8.5L45.3745 7.5C39.9886 7.50661 34.7928 9.49198 30.7749 13.0787L31.4408 13.8247ZM24.5749 27.0684C25.1624 21.9613 27.6058 17.2481 31.4408 13.8247L30.7749 13.0787C26.7569 16.6654 24.1969 21.6034 23.5815 26.9541L24.5749 27.0684ZM19.2227 30.3175C20.4575 28.7981 22.2157 27.7952 24.1521 27.5058L24.0043 26.5167C21.8211 26.8431 19.8388 27.9738 18.4466 29.6868L19.2227 30.3175ZM17.4784 35.7178C17.3657 33.7631 17.9879 31.837 19.2227 30.3175L18.4466 29.6868C17.0545 31.3999 16.353 33.5716 16.48 35.7753L17.4784 35.7178ZM19.8316 40.8819C18.4304 39.5144 17.5911 37.6725 17.4784 35.7178L16.48 35.7753C16.6071 37.9791 17.5534 40.0558 19.1332 41.5976L19.8316 40.8819ZM25.0515 43.1086C23.0946 43.0436 21.2328 42.2494 19.8316 40.8819L19.1332 41.5976C20.7129 43.1393 22.8121 44.0348 25.0183 44.1081L25.0515 43.1086ZM25.4486 42.937C25.3389 43.0467 25.19 43.1084 25.0349 43.1084V44.1084C25.4553 44.1084 25.8584 43.9414 26.1557 43.6441L25.4486 42.937ZM25.6199 42.5233C25.6199 42.6784 25.5583 42.8273 25.4486 42.937L26.1557 43.6441C26.4529 43.3468 26.6199 42.9437 26.6199 42.5233H25.6199ZM25.6199 29.4125V42.5233H26.6199V29.4125H25.6199ZM31.408 15.4389C27.702 19.145 25.6199 24.1714 25.6199 29.4125H26.6199C26.6199 24.4366 28.5966 19.6645 32.1151 16.146L31.408 15.4389ZM45.3816 9.65089C40.1405 9.65089 35.114 11.7329 31.408 15.4389L32.1151 16.146C35.6336 12.6276 40.4057 10.6509 45.3816 10.6509V9.65089ZM54.3126 9.65089H45.3816V10.6509H54.3126V9.65089ZM68.2861 15.4389C64.5801 11.7329 59.5537 9.65089 54.3126 9.65089V10.6509C59.2884 10.6509 64.0605 12.6276 67.579 16.146L68.2861 15.4389ZM74.0742 29.4125C74.0742 24.1714 71.9922 19.145 68.2861 15.4389L67.579 16.146C71.0975 19.6645 73.0742 24.4366 73.0742 29.4125H74.0742ZM74.0742 42.504V29.4125H73.0742V42.504H74.0742ZM74.2486 42.9171C74.1378 42.8069 74.0751 42.6573 74.0742 42.5011L73.0742 42.5069C73.0767 42.9274 73.2454 43.3298 73.5436 43.6263L74.2486 42.9171ZM74.6657 43.0891C74.5094 43.0891 74.3595 43.0272 74.2486 42.9171L73.5436 43.6263C73.8418 43.9227 74.2452 44.0891 74.6657 44.0891L74.6657 43.0891ZM75.3655 43.0891H74.6657V44.0891H75.3655V43.0891ZM68.8714 47.4342C71.4704 46.8334 74.0087 45.7684 75.7304 43.931L75.0007 43.2472C73.4736 44.8769 71.1579 45.8793 68.6462 46.4599L68.8714 47.4342ZM69.1898 41.6073C69.1974 43.3699 68.8924 45.1198 68.289 46.7759L69.2286 47.1182C69.8725 45.3511 70.1979 43.4838 70.1897 41.603L69.1898 41.6073ZM69.1898 30.9278V41.6051H70.1898V30.9278H69.1898ZM64.7327 20.1866C67.5819 23.0359 69.1848 26.8989 69.1898 30.9284L70.1898 30.9272C70.1845 26.6329 68.4763 22.516 65.4398 19.4795L64.7327 20.1866ZM53.9909 15.7295C58.0204 15.7345 61.8834 17.3374 64.7327 20.1866L65.4398 19.4795C62.4033 16.443 58.2864 14.7348 53.9921 14.7295L53.9909 15.7295ZM45.6962 15.7295H53.9915V14.7295H45.6962V15.7295ZM34.955 20.1866C37.8043 17.3374 41.6673 15.7345 45.6968 15.7295L45.6956 14.7295C41.4013 14.7348 37.2844 16.443 34.2479 19.4795L34.955 20.1866ZM30.498 30.9284C30.5029 26.8989 32.1058 23.0359 34.955 20.1866L34.2479 19.4795C31.2114 22.516 29.5032 26.6329 29.498 30.9272L30.498 30.9284ZM30.498 41.5731V30.9278H29.498V41.5731H30.498ZM32.6219 49.322C31.2319 46.9762 30.4983 44.2997 30.498 41.573L29.498 41.5731C29.4983 44.4792 30.2801 47.3317 31.7616 49.8318L32.6219 49.322ZM38.3987 54.9066C36.0071 53.5967 34.0119 51.6679 32.6219 49.322L31.7616 49.8318C33.243 52.3319 35.3695 54.3876 37.9183 55.7836L38.3987 54.9066ZM20.4425 65.204C25.0065 59.9934 31.3389 56.6581 38.2174 55.8416L38.0995 54.8486C30.9755 55.6942 24.4172 59.1486 19.6902 64.5451L20.4425 65.204ZM13.5027 84.0572C13.4061 77.1311 15.8784 70.4146 20.4425 65.204L19.6902 64.5451C14.9633 69.9417 12.4028 76.8979 12.5028 84.0712L13.5027 84.0572ZM13.5028 90.8956V84.0642H12.5028V90.8956H13.5028ZM13.6741 91.3094C13.5644 91.1997 13.5028 91.0509 13.5028 90.8956H12.5028C12.5028 91.316 12.6697 91.7192 12.967 92.0165L13.6741 91.3094ZM14.0879 91.4807C13.9326 91.4807 13.7838 91.4191 13.6741 91.3094L12.967 92.0165C13.2643 92.3138 13.6675 92.4807 14.0879 92.4807V91.4807ZM14.5016 91.3094C14.3919 91.4191 14.2431 91.4807 14.0879 91.4807V92.4807C14.5082 92.4807 14.9114 92.3138 15.2087 92.0165L14.5016 91.3094ZM14.6729 90.8956C14.6729 91.0508 14.6113 91.1997 14.5016 91.3094L15.2087 92.0165C15.5059 91.7192 15.6729 91.316 15.6729 90.8956H14.6729ZM14.6729 84.0835V90.8956H15.6729V84.0835H14.6729ZM20.4975 67.0768C16.6259 71.8929 14.5649 77.9138 14.673 84.0922L15.6728 84.0747C15.5688 78.1301 17.5518 72.3371 21.2769 67.7033L20.4975 67.0768ZM30.0498 59.4656C26.3308 61.2486 23.0643 63.8515 20.496 67.0787L21.2784 67.7014C23.7526 64.5925 26.8994 62.085 30.4821 60.3673L30.0498 59.4656ZM41.9681 56.7841C37.8437 56.7657 33.7689 57.6825 30.0498 59.4656L30.4821 60.3673C34.0649 58.6496 37.9904 57.7664 41.9636 57.7841L41.9681 56.7841ZM42.197 56.7841H41.9658V57.7841H42.197V56.7841ZM42.7469 57.3792L42.6763 57.1416L41.7177 57.4266L41.7883 57.6641L42.7469 57.3792ZM42.4538 57.0217H42.2676V58.0217H42.4538V57.0217ZM44.3237 57.0245C43.6846 56.9565 43.04 56.9565 42.4009 57.0245L42.5067 58.0189C43.0755 57.9583 43.6491 57.9583 44.2179 58.0189L44.3237 57.0245ZM44.6645 57.0791C44.5499 57.053 44.4335 57.0345 44.3164 57.0237L44.2253 58.0196C44.2982 58.0263 44.3706 58.0378 44.4421 58.0541L44.6645 57.0791ZM43.9974 57.4534L44.0744 57.7103L45.0322 57.423L44.9552 57.1661L43.9974 57.4534ZM54.2548 56.8098H44.4763V57.8098H54.2548V56.8098ZM57.5217 56.9157C56.4292 56.7911 55.3283 56.7559 54.23 56.8104L54.2796 57.8092C55.3235 57.7574 56.3699 57.7909 57.4084 57.9093L57.5217 56.9157ZM56.965 57.3098V57.4125H57.965V57.3098H56.965ZM57.8246 56.8098H57.465V57.8098H57.8246V56.8098ZM73.2403 61.5494C68.6966 58.4518 63.3228 56.7997 57.8237 56.8098L57.8255 57.8098C63.1231 57.8001 68.2999 59.3916 72.677 62.3757L73.2403 61.5494ZM83.2855 74.1681C81.2855 69.0455 77.784 64.647 73.2403 61.5494L72.677 62.3757C77.0542 65.3597 80.4273 69.597 82.354 74.5318L83.2855 74.1681ZM85.034 84.0902C85.0797 80.704 84.4871 77.3396 83.2873 74.1728L82.3522 74.5271C83.5075 77.5764 84.0781 80.8161 84.0341 84.0767L85.034 84.0902ZM85.0341 90.9149V84.0835H84.0341V90.9149H85.0341ZM85.2054 91.3286C85.0957 91.2189 85.0341 91.0701 85.0341 90.9149H84.0341C84.0341 91.3353 84.201 91.7385 84.4983 92.0357L85.2054 91.3286ZM85.6191 91.5C85.4639 91.5 85.3151 91.4384 85.2054 91.3286L84.4983 92.0357C84.7956 92.333 85.1987 92.5 85.6191 92.5V91.5ZM86.0328 91.3286C85.9231 91.4384 85.7743 91.5 85.6191 91.5V92.5C86.0395 92.5 86.4427 92.333 86.74 92.0357L86.0328 91.3286ZM86.2042 90.9149C86.2042 91.0701 86.1426 91.2189 86.0328 91.3286L86.74 92.0357C87.0372 91.7385 87.2042 91.3353 87.2042 90.9149H86.2042ZM86.2042 84.0835V90.9149H87.2042V84.0835H86.2042ZM84.356 73.7324C85.6184 77.0335 86.2455 80.5435 86.2042 84.0776L87.2042 84.0893C87.2469 80.4292 86.5975 76.7941 85.29 73.3752L84.356 73.7324ZM78.7752 30.0239C77.92 29.3549 76.9139 28.9054 75.8449 28.7148L75.6694 29.6993C76.5776 29.8613 77.4324 30.2431 78.1591 30.8115L78.7752 30.0239ZM80.7513 32.5527C80.3089 31.5611 79.6305 30.6929 78.7752 30.0239L78.1591 30.8115C78.8857 31.3799 79.4622 32.1176 79.8381 32.9601L80.7513 32.5527ZM81.3131 35.7125C81.3866 34.6292 81.1937 33.5443 80.7513 32.5527L79.8381 32.9601C80.2139 33.8027 80.3778 34.7244 80.3154 35.6448L81.3131 35.7125ZM80.3298 38.7675C80.902 37.8447 81.2396 36.7959 81.3131 35.7125L80.3154 35.6448C80.2529 36.5653 79.9661 37.4565 79.4799 38.2405L80.3298 38.7675ZM77.6377 41.2175C78.7423 40.6637 79.6733 39.8167 80.3287 38.7692L79.481 38.2388C78.9229 39.1308 78.1302 39.852 77.1896 40.3235L77.6377 41.2175ZM77.4679 41.2956L77.622 41.225L77.2054 40.3159L77.0513 40.3866L77.4679 41.2956ZM75.8454 41.8084C76.4069 41.7078 76.9531 41.535 77.4704 41.2945L77.0487 40.3877C76.6095 40.592 76.1458 40.7386 75.669 40.8241L75.8454 41.8084ZM75.2572 29.2071V41.3162H76.2572V29.2071H75.2572ZM19.927 39.53C20.9286 40.7268 22.3191 41.5333 23.8552 41.8084L24.0315 40.824C22.7263 40.5903 21.5449 39.9051 20.6939 38.8882L19.927 39.53ZM18.3767 35.2616C18.3767 36.8223 18.9255 38.3331 19.927 39.53L20.6939 38.8882C19.843 37.8713 19.3767 36.5876 19.3767 35.2616H18.3767ZM19.927 30.9933C18.9255 32.1901 18.3767 33.701 18.3767 35.2616H19.3767C19.3767 33.9357 19.843 32.652 20.6939 31.6351L19.927 30.9933ZM23.8552 28.7149C22.3191 28.99 20.9286 29.7965 19.927 30.9933L20.6939 31.6351C21.5449 30.6182 22.7263 29.933 24.0315 29.6992L23.8552 28.7149ZM24.4434 41.3162V29.2071H23.4434V41.3162H24.4434ZM35.7842 21.0059C33.1559 23.6367 31.678 27.2022 31.6745 30.9209L32.6745 30.9218C32.6778 27.4679 34.0505 24.1561 36.4916 21.7127L35.7842 21.0059ZM45.6952 16.8869C41.9766 16.8939 38.4124 18.3752 35.7842 21.0059L36.4916 21.7127C38.9328 19.2692 42.2432 17.8934 45.6971 17.8869L45.6952 16.8869ZM53.9915 16.8869H45.6962V17.8869H53.9915V16.8869ZM63.8998 21.0096C61.2724 18.3797 57.7104 16.8974 53.993 16.8869L53.9901 17.8869C57.4432 17.8967 60.7518 19.2736 63.1924 21.7164L63.8998 21.0096ZM68.0132 30.9204C68.0062 27.2029 66.5272 23.6395 63.8998 21.0096L63.1924 21.7164C65.6329 24.1593 67.0067 27.4692 67.0132 30.9223L68.0132 30.9204ZM68.0132 32.1477V30.9214H67.0132V32.1477H68.0132ZM57.1583 25.4579C57.1993 25.5263 58.2535 27.1218 60.0388 28.7957C61.8206 30.4663 64.3878 32.2689 67.4525 32.644L67.5739 31.6514C64.8151 31.3138 62.4386 29.6749 60.7228 28.0662C59.0105 26.4608 58.0133 24.9392 58.0158 24.9434L57.1583 25.4579ZM56.9481 25.2727C57.0375 25.3208 57.1135 25.3904 57.1692 25.4752L58.0049 24.9261C57.8579 24.7024 57.6575 24.5188 57.4218 24.3921L56.9481 25.2727ZM56.6573 25.1998C56.7587 25.1996 56.8587 25.2246 56.9481 25.2727L57.4218 24.3921C57.1861 24.2653 56.9225 24.1992 56.6548 24.1998L56.6573 25.1998ZM56.6175 25.1998H56.6561V24.1998H56.6175V25.1998ZM56.3558 25.2947C56.4425 25.238 56.5426 25.2049 56.6461 25.199L56.589 24.2007C56.3106 24.2166 56.0412 24.3054 55.8079 24.4582L56.3558 25.2947ZM56.152 25.5226C56.1988 25.4301 56.269 25.3515 56.3558 25.2947L55.8079 24.4582C55.5746 24.611 55.3855 24.8224 55.2596 25.0713L56.152 25.5226ZM32.1716 32.7119C35.4349 32.6893 40.6449 32.3683 45.4076 31.3403C47.7884 30.8264 50.0777 30.1316 51.9621 29.1973C53.8386 28.2669 55.371 27.0705 56.1522 25.5222L55.2594 25.0717C54.6185 26.342 53.3081 27.4137 51.5179 28.3013C49.7356 29.185 47.5342 29.8582 45.1966 30.3628C40.5228 31.3717 35.386 31.6896 32.1646 31.7119L32.1716 32.7119ZM31.6745 30.9189L31.6681 32.2094L32.6681 32.2144L32.6745 30.9238L31.6745 30.9189ZM45.6962 55.6075H54.0044V54.6075H45.6962V55.6075ZM35.7778 51.4885C38.4076 54.1209 41.9745 55.6022 45.6955 55.6075L45.6969 54.6075C42.2408 54.6026 38.9279 53.2267 36.4852 50.7817L35.7778 51.4885ZM31.6681 41.5669C31.6698 45.2878 33.1479 48.8561 35.7778 51.4885L36.4852 50.7817C34.0425 48.3367 32.6697 45.0225 32.6681 41.5664L31.6681 41.5669ZM31.6681 34.3756V41.5666H32.6681V34.3756H31.6681ZM56.329 27.3533C55.1365 28.7909 53.3202 29.9304 51.1553 30.8257C48.9952 31.719 46.5235 32.3546 44.0597 32.8051C39.1319 33.7061 34.2929 33.8565 32.1636 33.8756L32.1726 34.8756C34.3258 34.8562 39.23 34.7048 44.2396 33.7888C46.7444 33.3308 49.2901 32.6791 51.5374 31.7498C53.78 30.8224 55.7614 29.6039 57.0987 27.9918L56.329 27.3533ZM67.5616 33.8266C62.5562 33.3402 58.797 29.4666 57.1036 27.3594L56.3241 27.9858C58.0464 30.1289 62.0303 34.2938 67.4648 34.8219L67.5616 33.8266ZM68.0132 41.5731V34.3242H67.0132V41.5731H68.0132ZM66.6815 47.5966C67.5686 45.7122 68.0236 43.6534 68.0132 41.5705L67.0132 41.5756C67.0229 43.5094 66.6004 45.421 65.7767 47.1707L66.6815 47.5966ZM57.9081 48.0619C60.701 48.2776 63.5083 48.2166 66.2892 47.88L66.169 46.8873C63.4535 47.216 60.7122 47.2755 57.9851 47.0649L57.9081 48.0619ZM55.8465 45.2101C56.6668 45.8056 57.2402 46.6811 57.4583 47.671L58.4349 47.4558C58.1642 46.227 57.4523 45.1401 56.434 44.4008L55.8465 45.2101ZM53.0075 44.4399C54.0162 44.3406 55.0263 44.6146 55.8465 45.2101L56.434 44.4008C55.4157 43.6616 54.1617 43.3215 52.9095 43.4447L53.0075 44.4399ZM50.373 45.7489C51.0614 45.0049 51.9987 44.5392 53.0075 44.4399L52.9095 43.4447C51.6572 43.568 50.4937 44.1461 49.6391 45.0697L50.373 45.7489ZM49.272 48.4768C49.2929 47.4634 49.6846 46.4928 50.373 45.7489L49.6391 45.0697C48.7844 45.9933 48.2982 47.1982 48.2723 48.4562L49.272 48.4768ZM50.2598 51.2477C49.6026 50.476 49.2512 49.4902 49.272 48.4768L48.2723 48.4562C48.2464 49.7142 48.6826 50.9381 49.4985 51.8961L50.2598 51.2477ZM52.8382 52.664C51.8344 52.5232 50.917 52.0193 50.2598 51.2477L49.4985 51.8961C50.3144 52.854 51.4532 53.4796 52.6993 53.6543L52.8382 52.664ZM55.7065 52.0113C54.8625 52.5725 53.8419 52.8047 52.8382 52.664L52.6993 53.6543C53.9454 53.829 55.2123 53.5407 56.2602 52.844L55.7065 52.0113ZM57.4182 49.6188C57.1596 50.5989 56.5506 51.4501 55.7065 52.0113L56.2602 52.844C57.308 52.1473 58.064 51.0906 58.3851 49.874L57.4182 49.6188ZM61.3174 49.3748C59.9084 49.3748 58.7335 49.305 57.9375 49.2477L57.8657 50.2451C58.6749 50.3034 59.8757 50.3748 61.3174 50.3748V49.3748ZM64.7562 49.2352C63.526 49.3367 62.3584 49.3748 61.3174 49.3748V50.3748C62.3823 50.3748 63.5775 50.3358 64.8384 50.2319L64.7562 49.2352ZM60.2507 54.1434C62.1951 53.1752 63.8882 51.7687 65.1964 50.0347L64.3982 49.4324C63.1832 51.0428 61.6108 52.3491 59.8049 53.2482L60.2507 54.1434ZM53.9913 55.614C56.1635 55.615 58.3062 55.1116 60.2507 54.1434L59.8049 53.2482C57.9991 54.1474 56.0091 54.6149 53.9918 54.614L53.9913 55.614ZM53.7804 54.6605L53.7676 54.6669L54.2155 55.561L54.2283 55.5546L53.7804 54.6605ZM55.6803 50.4374C56.1171 49.9035 56.3551 49.2345 56.3535 48.5446L55.3535 48.5469C55.3545 49.0051 55.1965 49.4495 54.9063 49.8041L55.6803 50.4374ZM53.9584 51.4721C54.6348 51.337 55.2435 50.9713 55.6803 50.4374L54.9063 49.8041C54.6162 50.1588 54.2119 50.4017 53.7626 50.4914L53.9584 51.4721ZM51.9711 51.1781C52.5795 51.5033 53.2819 51.6072 53.9584 51.4721L53.7626 50.4914C53.3132 50.5812 52.8466 50.5122 52.4425 50.2962L51.9711 51.1781ZM50.6226 49.689C50.8861 50.3265 51.3627 50.8529 51.9711 51.1781L52.4425 50.2962C52.0384 50.0801 51.7218 49.7305 51.5468 49.307L50.6226 49.689ZM50.5264 47.6824C50.3251 48.3422 50.3592 49.0515 50.6226 49.689L51.5468 49.307C51.3718 48.8836 51.3492 48.4125 51.4829 47.9742L50.5264 47.6824ZM51.7263 46.0712C51.1518 46.4531 50.7277 47.0226 50.5264 47.6824L51.4829 47.9742C51.6166 47.5359 51.8983 47.1576 52.2799 46.9039L51.7263 46.0712ZM53.6763 45.5883C52.99 45.5186 52.3007 45.6893 51.7263 46.0712L52.2799 46.9039C52.6615 46.6503 53.1193 46.5369 53.5752 46.5832L53.6763 45.5883ZM55.4893 46.4536C55.0034 45.9639 54.3626 45.6581 53.6763 45.5883L53.5752 46.5832C54.031 46.6295 54.4567 46.8327 54.7795 47.158L55.4893 46.4536ZM56.3535 48.5446C56.3517 47.7611 56.0412 47.0098 55.4893 46.4536L54.7795 47.158C55.1461 47.5274 55.3523 48.0264 55.3535 48.5469L56.3535 48.5446ZM73.1496 90.915V83.4414H72.1496V90.915H73.1496ZM72.6427 91.999C72.9369 91.7265 73.1174 91.3531 73.1481 90.9533L72.1511 90.8766C72.1396 91.0252 72.0726 91.164 71.9632 91.2653L72.6427 91.999ZM71.5613 92.4228C71.9623 92.4228 72.3485 92.2714 72.6427 91.999L71.9632 91.2653C71.8539 91.3665 71.7103 91.4228 71.5613 91.4228V92.4228ZM70.4799 91.999C70.7741 92.2714 71.1603 92.4228 71.5613 92.4228V91.4228C71.4123 91.4228 71.2687 91.3665 71.1594 91.2653L70.4799 91.999ZM69.9745 90.9533C70.0052 91.3531 70.1858 91.7265 70.4799 91.999L71.1594 91.2653C71.0501 91.164 70.983 91.0252 70.9715 90.8766L69.9745 90.9533ZM69.973 83.4414V90.915H70.973V83.4414H69.973ZM70.4799 82.3574C70.1858 82.6298 70.0052 83.0033 69.9745 83.4031L70.9715 83.4798C70.983 83.3312 71.0501 83.1924 71.1594 83.0911L70.4799 82.3574ZM71.5613 81.9336C71.1603 81.9336 70.7741 82.0849 70.4799 82.3574L71.1594 83.0911C71.2687 82.9898 71.4123 82.9336 71.5613 82.9336V81.9336ZM72.6427 82.3574C72.3485 82.0849 71.9623 81.9336 71.5613 81.9336V82.9336C71.7103 82.9336 71.8539 82.9898 71.9632 83.0911L72.6427 82.3574ZM73.1481 83.4031C73.1174 83.0033 72.9369 82.6298 72.6427 82.3574L71.9632 83.0911C72.0726 83.1924 72.1396 83.3312 72.1511 83.4798L73.1481 83.4031ZM28.7081 83.4414V90.9149H29.7081V83.4414H28.7081ZM28.5367 83.0277C28.6465 83.1374 28.7081 83.2862 28.7081 83.4414H29.7081C29.7081 83.021 29.5411 82.6178 29.2439 82.3206L28.5367 83.0277ZM28.123 82.8563C28.2782 82.8563 28.427 82.918 28.5367 83.0277L29.2438 82.3206C28.9466 82.0233 28.5434 81.8563 28.123 81.8563V82.8563ZM27.7093 83.0277C27.8191 82.918 27.9679 82.8563 28.123 82.8563V81.8563C27.7026 81.8563 27.2995 82.0233 27.0022 82.3206L27.7093 83.0277ZM27.538 83.4414C27.538 83.2862 27.5996 83.1374 27.7093 83.0277L27.0022 82.3206C26.705 82.6178 26.538 83.021 26.538 83.4414H27.538ZM27.538 90.9149V83.4414H26.538V90.9149H27.538ZM27.7093 91.3286C27.5996 91.2189 27.538 91.0701 27.538 90.9149H26.538C26.538 91.3353 26.705 91.7385 27.0022 92.0357L27.7093 91.3286ZM28.123 91.5C27.9679 91.5 27.8191 91.4384 27.7093 91.3286L27.0022 92.0357C27.2995 92.333 27.7027 92.5 28.123 92.5V91.5ZM28.5367 91.3286C28.427 91.4384 28.2782 91.5 28.123 91.5V92.5C28.5434 92.5 28.9466 92.333 29.2439 92.0357L28.5367 91.3286ZM28.7081 90.9149C28.7081 91.0701 28.6465 91.2189 28.5367 91.3286L29.2439 92.0357C29.5411 91.7385 29.7081 91.3353 29.7081 90.9149H28.7081Z" fill="black"/>
</svg>
