<svg width="16" height="14" viewBox="0 0 16 14" fill="none" xmlns="http://www.w3.org/2000/svg">
<path d="M3.5 0.25C6.1175 0.25 8.28725 2.1655 8.68475 4.67125C9.566 3.793 10.7825 3.25 12.125 3.25H15.5V5.125C15.5 7.8175 13.3175 10 10.625 10H8.75V13.75H7.25V7.75H5.75C2.8505 7.75 0.5 5.3995 0.5 2.5V0.25H3.5ZM14 4.75H12.125C10.2613 4.75 8.75 6.26125 8.75 8.125V8.5H10.625C12.4887 8.5 14 6.98875 14 5.125V4.75ZM3.5 1.75H2V2.5C2 4.57075 3.67925 6.25 5.75 6.25H7.25V5.5C7.25 3.42925 5.57075 1.75 3.5 1.75Z" fill="#FF3124"/>
</svg>
