<svg width="16" height="15" viewBox="0 0 16 15" fill="none" xmlns="http://www.w3.org/2000/svg">
<path d="M11.75 13H4.25V13.75C4.25 13.9489 4.17098 14.1397 4.03033 14.2803C3.88968 14.421 3.69891 14.5 3.5 14.5H2C1.80109 14.5 1.61032 14.421 1.46967 14.2803C1.32902 14.1397 1.25 13.9489 1.25 13.75V7H0.5V4H1.25V1.75C1.25 1.35218 1.40804 0.970644 1.68934 0.68934C1.97064 0.408035 2.35218 0.25 2.75 0.25H13.25C13.6478 0.25 14.0294 0.408035 14.3107 0.68934C14.592 0.970644 14.75 1.35218 14.75 1.75V4H15.5V7H14.75V13.75C14.75 13.9489 14.671 14.1397 14.5303 14.2803C14.3897 14.421 14.1989 14.5 14 14.5H12.5C12.3011 14.5 12.1103 14.421 11.9697 14.2803C11.829 14.1397 11.75 13.9489 11.75 13.75V13ZM2.75 1.75V6.25H13.25V1.75H2.75ZM13.25 7.75H2.75V11.5H13.25V7.75ZM4.625 10.75C4.32663 10.75 4.04048 10.6315 3.8295 10.4205C3.61853 10.2095 3.5 9.92337 3.5 9.625C3.5 9.32663 3.61853 9.04048 3.8295 8.8295C4.04048 8.61853 4.32663 8.5 4.625 8.5C4.92337 8.5 5.20952 8.61853 5.4205 8.8295C5.63147 9.04048 5.75 9.32663 5.75 9.625C5.75 9.92337 5.63147 10.2095 5.4205 10.4205C5.20952 10.6315 4.92337 10.75 4.625 10.75ZM11.375 10.75C11.0766 10.75 10.7905 10.6315 10.5795 10.4205C10.3685 10.2095 10.25 9.92337 10.25 9.625C10.25 9.32663 10.3685 9.04048 10.5795 8.8295C10.7905 8.61853 11.0766 8.5 11.375 8.5C11.6734 8.5 11.9595 8.61853 12.1705 8.8295C12.3815 9.04048 12.5 9.32663 12.5 9.625C12.5 9.92337 12.3815 10.2095 12.1705 10.4205C11.9595 10.6315 11.6734 10.75 11.375 10.75Z" fill="#FF3124"/>
</svg>
