<svg width="22" height="22" viewBox="0 0 22 22" fill="none" xmlns="http://www.w3.org/2000/svg">
<path d="M7.6854 2.99988L10.2924 0.392884C10.4799 0.205413 10.7342 0.100098 10.9994 0.100098C11.2646 0.100098 11.5189 0.205413 11.7064 0.392884L14.3134 2.99988H17.9994C18.2646 2.99988 18.519 3.10524 18.7065 3.29278C18.894 3.48031 18.9994 3.73467 18.9994 3.99988V7.68588L21.6064 10.2929C21.7939 10.4804 21.8992 10.7347 21.8992 10.9999C21.8992 11.265 21.7939 11.5194 21.6064 11.7069L18.9994 14.3139V17.9999C18.9994 18.2651 18.894 18.5195 18.7065 18.707C18.519 18.8945 18.2646 18.9999 17.9994 18.9999H14.3134L11.7064 21.6069C11.5189 21.7944 11.2646 21.8997 10.9994 21.8997C10.7342 21.8997 10.4799 21.7944 10.2924 21.6069L7.6854 18.9999H3.9994C3.73418 18.9999 3.47983 18.8945 3.29229 18.707C3.10475 18.5195 2.9994 18.2651 2.9994 17.9999V14.3139L0.392396 11.7069C0.204925 11.5194 0.0996094 11.265 0.0996094 10.9999C0.0996094 10.7347 0.204925 10.4804 0.392396 10.2929L2.9994 7.68588V3.99988C2.9994 3.73467 3.10475 3.48031 3.29229 3.29278C3.47983 3.10524 3.73418 2.99988 3.9994 2.99988H7.6854ZM4.9994 4.99988V8.51488L2.5144 10.9999L4.9994 13.4849V16.9999H8.5144L10.9994 19.4849L13.4844 16.9999H16.9994V13.4849L19.4844 10.9999L16.9994 8.51488V4.99988H13.4844L10.9994 2.51488L8.5144 4.99988H4.9994ZM10.9994 14.9999C9.93853 14.9999 8.92111 14.5785 8.17097 13.8283C7.42082 13.0782 6.9994 12.0608 6.9994 10.9999C6.9994 9.93902 7.42082 8.9216 8.17097 8.17146C8.92111 7.42131 9.93853 6.99988 10.9994 6.99988C12.0603 6.99988 13.0777 7.42131 13.8278 8.17146C14.578 8.9216 14.9994 9.93902 14.9994 10.9999C14.9994 12.0608 14.578 13.0782 13.8278 13.8283C13.0777 14.5785 12.0603 14.9999 10.9994 14.9999ZM10.9994 12.9999C11.5298 12.9999 12.0385 12.7892 12.4136 12.4141C12.7887 12.039 12.9994 11.5303 12.9994 10.9999C12.9994 10.4695 12.7887 9.96074 12.4136 9.58567C12.0385 9.2106 11.5298 8.99988 10.9994 8.99988C10.469 8.99988 9.96025 9.2106 9.58518 9.58567C9.21011 9.96074 8.9994 10.4695 8.9994 10.9999C8.9994 11.5303 9.21011 12.039 9.58518 12.4141C9.96025 12.7892 10.469 12.9999 10.9994 12.9999Z" fill="white"/>
</svg>
