<svg width="32" height="32" viewBox="0 0 32 32" fill="none" xmlns="http://www.w3.org/2000/svg">
<path d="M0 16C0 7.16344 7.16344 0 16 0C24.8366 0 32 7.16344 32 16C32 24.8366 24.8366 32 16 32C7.16344 32 0 24.8366 0 16Z" fill="#FFB852"/>
<path d="M16.0002 13.5002C17.3752 13.5002 18.5002 14.6252 18.5002 16.0002C18.5002 17.3752 17.3752 18.5002 16.0002 18.5002C14.6252 18.5002 13.5002 17.3752 13.5002 16.0002C13.5002 14.6252 14.6252 13.5002 16.0002 13.5002ZM16.0002 11.8335C13.7002 11.8335 11.8335 13.7002 11.8335 16.0002C11.8335 18.3002 13.7002 20.1668 16.0002 20.1668C18.3002 20.1668 20.1668 18.3002 20.1668 16.0002C20.1668 13.7002 18.3002 11.8335 16.0002 11.8335ZM7.66683 16.8335H9.3335C9.79183 16.8335 10.1668 16.4585 10.1668 16.0002C10.1668 15.5418 9.79183 15.1668 9.3335 15.1668H7.66683C7.2085 15.1668 6.8335 15.5418 6.8335 16.0002C6.8335 16.4585 7.2085 16.8335 7.66683 16.8335ZM22.6668 16.8335H24.3335C24.7918 16.8335 25.1668 16.4585 25.1668 16.0002C25.1668 15.5418 24.7918 15.1668 24.3335 15.1668H22.6668C22.2085 15.1668 21.8335 15.5418 21.8335 16.0002C21.8335 16.4585 22.2085 16.8335 22.6668 16.8335ZM15.1668 7.66683V9.3335C15.1668 9.79183 15.5418 10.1668 16.0002 10.1668C16.4585 10.1668 16.8335 9.79183 16.8335 9.3335V7.66683C16.8335 7.2085 16.4585 6.8335 16.0002 6.8335C15.5418 6.8335 15.1668 7.2085 15.1668 7.66683ZM15.1668 22.6668V24.3335C15.1668 24.7918 15.5418 25.1668 16.0002 25.1668C16.4585 25.1668 16.8335 24.7918 16.8335 24.3335V22.6668C16.8335 22.2085 16.4585 21.8335 16.0002 21.8335C15.5418 21.8335 15.1668 22.2085 15.1668 22.6668ZM10.9918 9.81683C10.6668 9.49183 10.1335 9.49183 9.81683 9.81683C9.49183 10.1418 9.49183 10.6752 9.81683 10.9918L10.7002 11.8752C11.0252 12.2002 11.5585 12.2002 11.8752 11.8752C12.1918 11.5502 12.2002 11.0168 11.8752 10.7002L10.9918 9.81683ZM21.3002 20.1252C20.9752 19.8002 20.4418 19.8002 20.1252 20.1252C19.8002 20.4502 19.8002 20.9835 20.1252 21.3002L21.0085 22.1835C21.3335 22.5085 21.8668 22.5085 22.1835 22.1835C22.5085 21.8585 22.5085 21.3252 22.1835 21.0085L21.3002 20.1252ZM22.1835 10.9918C22.5085 10.6668 22.5085 10.1335 22.1835 9.81683C21.8585 9.49183 21.3252 9.49183 21.0085 9.81683L20.1252 10.7002C19.8002 11.0252 19.8002 11.5585 20.1252 11.8752C20.4502 12.1918 20.9835 12.2002 21.3002 11.8752L22.1835 10.9918ZM11.8752 21.3002C12.2002 20.9752 12.2002 20.4418 11.8752 20.1252C11.5502 19.8002 11.0168 19.8002 10.7002 20.1252L9.81683 21.0085C9.49183 21.3335 9.49183 21.8668 9.81683 22.1835C10.1418 22.5002 10.6752 22.5085 10.9918 22.1835L11.8752 21.3002Z" fill="white"/>
</svg>
