<svg width="20" height="24" viewBox="0 0 20 24" fill="none" xmlns="http://www.w3.org/2000/svg">
<path d="M19.4453 15.9531C19.3732 15.6544 19.2078 15.3864 18.9731 15.1881L18.9164 15.1409L18.293 14.5458V13.1953C18.2826 12.9116 18.2083 12.634 18.0758 12.383C17.9389 12.1278 17.741 11.9104 17.4997 11.7502L16.8386 11.3158V9.36071C16.8463 9.16032 16.8109 8.96061 16.7347 8.77513C16.6678 8.5746 16.5582 8.39094 16.4135 8.23679C16.2777 8.09433 16.1136 7.98175 15.9319 7.90622C15.7449 7.82216 15.5418 7.78025 15.3368 7.78344C15.2458 7.77368 15.154 7.77368 15.063 7.78344L15.233 6.83897C15.2899 6.4701 15.2509 6.09278 15.1196 5.74338L14.6946 4.6478C14.5672 4.3394 14.3542 4.07394 14.0807 3.88278C13.8162 3.70054 13.5045 3.59885 13.1835 3.58999L13.0796 3.41999C12.9103 3.18094 12.6827 2.98913 12.4184 2.86275L11.2284 2.29607C10.9968 2.19152 10.7458 2.13682 10.4917 2.13551H10.4256L10.1234 1.94661C9.89537 1.83885 9.64809 1.77783 9.39613 1.76716C9.27578 1.6138 9.13241 1.47999 8.97112 1.37049C8.74124 1.21175 8.47469 1.11423 8.19665 1.08714C8.07232 0.861931 7.90172 0.665585 7.69608 0.511017C7.48452 0.348585 7.23924 0.235629 6.97828 0.180452L6.11881 0.0104478C6.00591 -0.00348259 5.89171 -0.00348259 5.77881 0.0104478C5.39077 0.00329311 5.00938 0.111791 4.68322 0.322123L4.5321 0.43546H1.77425C1.40061 0.438535 1.03931 0.569581 0.750575 0.806754C0.461843 1.04393 0.263122 1.3729 0.18754 1.73883L0.0269801 2.49441C-0.0404951 2.86219 0.0194737 3.242 0.196985 3.5711C0.370536 3.90273 0.654497 4.16331 0.999785 4.30779L1.75536 4.62891L3.87098 9.07736C3.98037 9.29885 4.13477 9.49508 4.32432 9.65349L4.50377 9.77627C4.55383 10.0119 4.65365 10.2341 4.79656 10.428C4.95289 10.644 5.15637 10.8217 5.39157 10.9474L5.45769 11.193C5.57969 11.5663 5.80978 11.895 6.11881 12.1374L6.92162 12.7891L7.54497 15.8303L6.88384 17.9271C6.78895 18.2323 6.75997 18.5542 6.79883 18.8715L7.06329 20.921L7.00662 20.9871C6.81634 21.2887 6.72397 21.6416 6.74217 21.9977C6.77085 22.3449 6.90609 22.6748 7.1294 22.9422L7.54497 23.4333C7.67951 23.598 7.84674 23.7331 8.03609 23.83C8.22527 23.9237 8.43026 23.9814 8.64055 24H8.76333C8.93379 24.0001 9.10303 23.9714 9.2639 23.915C9.41203 23.8669 9.55211 23.7969 9.67947 23.7072H9.74558C9.87949 23.7521 10.0199 23.7745 10.1611 23.7733C10.3677 23.7634 10.5716 23.722 10.7656 23.6505C10.9554 23.5754 11.1264 23.4593 11.2662 23.3105C11.4133 23.1712 11.5264 22.9999 11.5967 22.81C11.6788 22.6227 11.7175 22.4193 11.7101 22.2149V21.7805L12.0879 21.5916C12.3685 21.4517 12.6042 21.2357 12.7679 20.9682C12.9238 20.7175 13.0147 20.4318 13.0323 20.1371L13.4385 19.8538C13.6788 19.6965 13.8767 19.4824 14.0146 19.2304C14.1577 18.9734 14.2325 18.684 14.2318 18.3898V17.6815H14.3452C14.5779 17.8608 14.8558 17.972 15.148 18.0026C15.5555 18.0408 15.9627 17.9264 16.2908 17.6815C16.532 17.7752 16.7876 17.8263 17.0463 17.8326H17.9436C18.2492 17.8439 18.5514 17.7651 18.8125 17.6059C19.0676 17.4355 19.2651 17.1918 19.3792 16.907C19.5135 16.6069 19.5369 16.2689 19.4453 15.9531ZM14.2696 15.1598C14.1935 15.19 14.1207 15.228 14.0524 15.2731C13.9198 15.1685 13.7588 15.1062 13.5903 15.0944C13.4219 15.0826 13.2537 15.1218 13.1079 15.207L12.2107 15.7075C12.0376 15.8104 11.9019 15.966 11.8234 16.1514C11.7614 16.3417 11.7614 16.5468 11.8234 16.737V16.8315L12.069 17.417C12.069 17.4737 12.069 17.5398 12.069 17.587V18.1915L11.3228 18.6543C11.1821 18.7486 11.0656 18.8748 10.9828 19.0226C10.9045 19.1746 10.8624 19.3428 10.8601 19.5138V19.8821L10.0761 20.2693C9.91778 20.3537 9.78674 20.4815 9.69836 20.6377C9.60749 20.7924 9.55865 20.9683 9.55669 21.1477V21.5349H9.41502C9.31449 21.5256 9.21332 21.5256 9.11279 21.5349C9.1695 21.3647 9.19196 21.185 9.1789 21.006L8.91445 18.626L9.65114 16.3309C9.69911 16.1068 9.69911 15.875 9.65114 15.6509L8.94278 12.0147C8.87315 11.7529 8.72479 11.5188 8.51777 11.3441L7.50719 10.5696L7.2994 9.83294C7.19027 9.5485 6.97776 9.31575 6.70439 9.18126H6.57216V8.6618C6.52866 8.44154 6.40812 8.24399 6.23215 8.10456C6.08384 7.98733 5.90166 7.92109 5.71269 7.91567L3.53097 3.36332C3.39626 3.12183 3.18773 2.92985 2.93595 2.81553L2.33149 2.56996H4.85322C5.10799 2.55763 5.35385 2.4724 5.56158 2.3244L5.83547 2.12606L6.40216 2.24884L6.61938 2.66441C6.70421 2.80251 6.81677 2.92151 6.94995 3.01386C7.10209 3.10705 7.2731 3.16513 7.45052 3.18387H7.76219L7.85664 3.38221C7.94264 3.52887 8.06663 3.6496 8.21554 3.73166C8.36756 3.82986 8.54458 3.88231 8.72555 3.88278H9.16946L9.33002 4.10945C9.40569 4.21074 9.50234 4.29451 9.61336 4.35501C9.74288 4.41774 9.88501 4.45005 10.0289 4.44946C10.1551 4.42806 10.2785 4.39323 10.3973 4.34557H10.4823L11.2662 4.71391V4.83669C11.2689 4.95693 11.2945 5.07553 11.3417 5.18615C11.3902 5.2895 11.4539 5.385 11.5306 5.46949C11.6119 5.55033 11.7081 5.6145 11.814 5.65838C11.9261 5.69931 12.0441 5.72164 12.1634 5.72449H12.8434L13.1551 6.50841L12.8151 8.39735C12.785 8.59454 12.818 8.79622 12.9096 8.97347C13.006 9.16067 13.1623 9.31026 13.3535 9.39848L13.7596 9.57793L13.8446 9.8235C13.9304 10.0304 14.0928 10.1962 14.2979 10.2863C14.4402 10.3244 14.5901 10.3244 14.7324 10.2863V11.8636C14.7403 12.0294 14.7872 12.1911 14.8693 12.3355C14.9513 12.4799 15.0662 12.6029 15.2046 12.6947L16.1491 13.3369V14.9331C16.1438 15.0148 16.1438 15.0969 16.1491 15.1786C15.9332 15.1702 15.7217 15.2407 15.5541 15.377L15.318 15.5564L15.1385 15.3486C15.0686 15.2504 14.9742 15.1723 14.8646 15.122C14.7546 15.0715 14.636 15.0427 14.5152 15.037C14.4269 15.0637 14.3439 15.1052 14.2696 15.1598Z" fill="#FF3124"/>
</svg>
