<svg width="14" height="13" viewBox="0 0 14 13" fill="none" xmlns="http://www.w3.org/2000/svg">
<path fill-rule="evenodd" clip-rule="evenodd" d="M12.19 1.5075C12.04 1.065 11.62 0.75 11.125 0.75H2.875C2.38 0.75 1.9675 1.065 1.81 1.5075L0.25 6V12C0.25 12.4125 0.5875 12.75 1 12.75H1.75C2.1625 12.75 2.5 12.4125 2.5 12V11.25H11.5V12C11.5 12.4125 11.8375 12.75 12.25 12.75H13C13.4125 12.75 13.75 12.4125 13.75 12V6L12.19 1.5075ZM3.1375 2.25H10.855L11.665 4.5825H2.3275L3.1375 2.25ZM12.25 9.75H1.75V6H12.25V9.75ZM3.625 9C4.24632 9 4.75 8.49632 4.75 7.875C4.75 7.25368 4.24632 6.75 3.625 6.75C3.00368 6.75 2.5 7.25368 2.5 7.875C2.5 8.49632 3.00368 9 3.625 9ZM11.5 7.875C11.5 8.49632 10.9963 9 10.375 9C9.75368 9 9.25 8.49632 9.25 7.875C9.25 7.25368 9.75368 6.75 10.375 6.75C10.9963 6.75 11.5 7.25368 11.5 7.875Z" fill="#FF3124"/>
</svg>
