<svg width="20" height="16" viewBox="0 0 20 16" fill="none" xmlns="http://www.w3.org/2000/svg">
<path fill-rule="evenodd" clip-rule="evenodd" d="M16.5588 0H13.4318V2H6.56749L6.56766 0H3.44064V2H0V16H20V2H16.5591L16.5588 0ZM17.9316 3.61243V14.2953H2.06728V3.61243H17.9316ZM10.9561 7.99761H9.32722L10.1956 5.91253V5.9123C10.364 5.5082 10.2281 5.01645 9.89219 4.81417C9.55628 4.61167 9.14751 4.77513 8.97917 5.17923L7.61753 8.44917C7.51182 8.7028 7.52302 9.00416 7.64695 9.24548C7.77087 9.48702 7.98987 9.63404 8.22557 9.63404H9.85805L8.99512 11.7209L8.99493 11.7207C8.91295 11.9152 8.8989 12.141 8.95584 12.3481C9.01296 12.5551 9.13613 12.7261 9.29858 12.8234C9.46083 12.9206 9.64853 12.9357 9.82026 12.8656C9.99201 12.7955 10.1332 12.646 10.2127 12.4499L11.5651 9.17994H11.5653C11.67 8.9263 11.6584 8.62563 11.5343 8.3848C11.4104 8.14417 11.1918 7.9976 10.9563 7.9976L10.9561 7.99761Z" fill="#CBCBCB"/>
</svg>
