<svg width="22" height="22" viewBox="0 0 22 22" fill="none" xmlns="http://www.w3.org/2000/svg">
<path d="M7.68637 2.99988L10.2934 0.392884C10.4809 0.205413 10.7352 0.100098 11.0004 0.100098C11.2655 0.100098 11.5198 0.205413 11.7074 0.392884L14.3144 2.99988H18.0004C18.2656 2.99988 18.5199 3.10524 18.7075 3.29278C18.895 3.48031 19.0004 3.73467 19.0004 3.99988V7.68588L21.6074 10.2929C21.7948 10.4804 21.9002 10.7347 21.9002 10.9999C21.9002 11.265 21.7948 11.5194 21.6074 11.7069L19.0004 14.3139V17.9999C19.0004 18.2651 18.895 18.5195 18.7075 18.707C18.5199 18.8945 18.2656 18.9999 18.0004 18.9999H14.3144L11.7074 21.6069C11.5198 21.7944 11.2655 21.8997 11.0004 21.8997C10.7352 21.8997 10.4809 21.7944 10.2934 21.6069L7.68637 18.9999H4.00037C3.73516 18.9999 3.4808 18.8945 3.29327 18.707C3.10573 18.5195 3.00037 18.2651 3.00037 17.9999V14.3139L0.393372 11.7069C0.205901 11.5194 0.100586 11.265 0.100586 10.9999C0.100586 10.7347 0.205901 10.4804 0.393372 10.2929L3.00037 7.68588V3.99988C3.00037 3.73467 3.10573 3.48031 3.29327 3.29278C3.4808 3.10524 3.73516 2.99988 4.00037 2.99988H7.68637ZM5.00037 4.99988V8.51488L2.51537 10.9999L5.00037 13.4849V16.9999H8.51537L11.0004 19.4849L13.4854 16.9999H17.0004V13.4849L19.4854 10.9999L17.0004 8.51488V4.99988H13.4854L11.0004 2.51488L8.51537 4.99988H5.00037ZM11.0004 14.9999C9.93951 14.9999 8.92209 14.5785 8.17195 13.8283C7.4218 13.0782 7.00037 12.0608 7.00037 10.9999C7.00037 9.93902 7.4218 8.9216 8.17195 8.17146C8.92209 7.42131 9.93951 6.99988 11.0004 6.99988C12.0612 6.99988 13.0787 7.42131 13.8288 8.17146C14.5789 8.9216 15.0004 9.93902 15.0004 10.9999C15.0004 12.0608 14.5789 13.0782 13.8288 13.8283C13.0787 14.5785 12.0612 14.9999 11.0004 14.9999ZM11.0004 12.9999C11.5308 12.9999 12.0395 12.7892 12.4146 12.4141C12.7897 12.039 13.0004 11.5303 13.0004 10.9999C13.0004 10.4695 12.7897 9.96074 12.4146 9.58567C12.0395 9.2106 11.5308 8.99988 11.0004 8.99988C10.4699 8.99988 9.96123 9.2106 9.58616 9.58567C9.21109 9.96074 9.00037 10.4695 9.00037 10.9999C9.00037 11.5303 9.21109 12.039 9.58616 12.4141C9.96123 12.7892 10.4699 12.9999 11.0004 12.9999Z" fill="#FCAF26"/>
</svg>
