<svg width="24" height="15" viewBox="0 0 24 15" fill="none" xmlns="http://www.w3.org/2000/svg">
<path d="M2.76944 11.0767H3.69256V11.9998C3.69256 13.5269 4.93457 14.7689 6.46163 14.7689H14.8631C15.6536 14.7689 16.408 14.4298 16.933 13.8394L23.7669 6.15159C23.9169 5.9829 24 5.76462 24 5.53841V4.6153C24 3.97097 23.3563 3.52543 22.753 3.75081L16.6152 6.05269V4.61557C16.6152 4.10584 16.2021 3.69246 15.6921 3.69246H11.0768V1.84623H13.8459C14.3556 1.84623 14.769 1.43308 14.769 0.923115C14.769 0.413382 14.3559 0 13.8459 0L6.46142 0.000214625C5.95169 0.000214625 5.5383 0.413366 5.5383 0.923329C5.5383 1.43306 5.95146 1.84644 6.46142 1.84644H9.23049V3.69267H2.76907C1.24201 3.69267 0 4.93468 0 6.46174V8.30797C0.000214611 9.83481 1.24223 11.0769 2.76929 11.0769L2.76944 11.0767ZM15.1665 8.14298C15.4157 8.31532 15.7335 8.35525 16.0166 8.24879L21.1408 6.32702L15.553 12.6132C15.3781 12.8104 15.1265 12.9231 14.8632 12.9231H6.46168C5.95281 12.9231 5.53857 12.5089 5.53857 12V10.1537L5.53878 5.53844H14.7694V7.38467C14.7694 7.6875 14.9177 7.97103 15.1664 8.14317L15.1665 8.14298ZM1.84638 6.46142C1.84638 5.95255 2.26061 5.5383 2.7695 5.5383H3.69261V9.23049H2.7695C2.26062 9.23049 1.84638 8.81626 1.84638 8.30737V6.46142Z" fill="#CBCBCB"/>
</svg>
