<svg width="32" height="32" viewBox="0 0 32 32" fill="none" xmlns="http://www.w3.org/2000/svg">
<path d="M0 16C0 7.16344 7.16344 0 16 0C24.8366 0 32 7.16344 32 16C32 24.8366 24.8366 32 16 32C7.16344 32 0 24.8366 0 16Z" fill="#7DC2D9"/>
<path d="M16.8332 15.1665V7.6665H15.1665V15.1665H7.6665V16.8332H15.1665V24.3332H16.8332V16.8332H24.3332V15.1665H16.8332Z" fill="white"/>
<path d="M21.6915 14.3332L23.5582 12.4665L22.3832 11.2832L19.3332 14.3332H21.6915Z" fill="white"/>
<path d="M17.6665 12.6665L20.7165 9.6165L19.5332 8.4415L17.6665 10.3082V12.6665Z" fill="white"/>
<path d="M21.6915 17.6665H19.3332L22.3832 20.7165L23.5582 19.5332L21.6915 17.6665Z" fill="white"/>
<path d="M17.6665 19.3332V21.6915L19.5332 23.5582L20.7165 22.3832L17.6665 19.3332Z" fill="white"/>
<path d="M14.3332 21.6915V19.3332L11.2832 22.3832L12.4665 23.5582L14.3332 21.6915Z" fill="white"/>
<path d="M12.6665 17.6665H10.3082L8.4415 19.5332L9.6165 20.7165L12.6665 17.6665Z" fill="white"/>
<path d="M10.3082 14.3332H12.6665L9.6165 11.2832L8.4415 12.4665L10.3082 14.3332Z" fill="white"/>
<path d="M14.3332 12.6665V10.3082L12.4665 8.4415L11.2832 9.6165L14.3332 12.6665Z" fill="white"/>
</svg>
