<svg width="32" height="32" viewBox="0 0 32 32" fill="none" xmlns="http://www.w3.org/2000/svg">
<g clip-path="url(#clip0_2184_9489)">
<path d="M0 10C0 4.47715 4.47715 0 10 0C15.5228 0 20 4.47715 20 10C20 15.5228 15.5228 20 10 20C4.47715 20 0 15.5228 0 10Z" fill="#7DC2D9"/>
<path d="M10.5207 9.479V4.7915H9.479V9.479H4.7915V10.5207H9.479V15.2082H10.5207V10.5207H15.2082V9.479H10.5207Z" fill="white"/>
<path d="M13.5571 8.95817L14.7238 7.7915L13.9894 7.05192L12.0832 8.95817H13.5571Z" fill="white"/>
<path d="M11.0415 7.9165L12.9478 6.01025L12.2082 5.27588L11.0415 6.44255V7.9165Z" fill="white"/>
<path d="M13.5571 11.0415H12.0832L13.9894 12.9478L14.7238 12.2082L13.5571 11.0415Z" fill="white"/>
<path d="M11.0415 12.0832V13.5571L12.2082 14.7238L12.9478 13.9894L11.0415 12.0832Z" fill="white"/>
<path d="M8.95817 13.5571V12.0832L7.05192 13.9894L7.7915 14.7238L8.95817 13.5571Z" fill="white"/>
<path d="M7.9165 11.0415H6.44255L5.27588 12.2082L6.01025 12.9478L7.9165 11.0415Z" fill="white"/>
<path d="M6.44255 8.95817H7.9165L6.01025 7.05192L5.27588 7.7915L6.44255 8.95817Z" fill="white"/>
<path d="M8.95817 7.9165V6.44255L7.7915 5.27588L7.05192 6.01025L8.95817 7.9165Z" fill="white"/>
<path d="M10 18C5.58172 18 2 14.4183 2 10H-2C-2 16.6274 3.37258 22 10 22V18ZM18 10C18 14.4183 14.4183 18 10 18V22C16.6274 22 22 16.6274 22 10H18ZM10 2C14.4183 2 18 5.58172 18 10H22C22 3.37258 16.6274 -2 10 -2V2ZM10 -2C3.37258 -2 -2 3.37258 -2 10H2C2 5.58172 5.58172 2 10 2V-2Z" fill="#F6F6F6"/>
<path d="M12 22C12 16.4772 16.4772 12 22 12C27.5228 12 32 16.4772 32 22C32 27.5228 27.5228 32 22 32C16.4772 32 12 27.5228 12 22Z" fill="#FFB852"/>
<path d="M22.0002 20.4377C22.8595 20.4377 23.5627 21.1408 23.5627 22.0002C23.5627 22.8595 22.8595 23.5627 22.0002 23.5627C21.1408 23.5627 20.4377 22.8595 20.4377 22.0002C20.4377 21.1408 21.1408 20.4377 22.0002 20.4377ZM22.0002 19.396C20.5627 19.396 19.396 20.5627 19.396 22.0002C19.396 23.4377 20.5627 24.6043 22.0002 24.6043C23.4377 24.6043 24.6043 23.4377 24.6043 22.0002C24.6043 20.5627 23.4377 19.396 22.0002 19.396ZM16.7918 22.521H17.8335C18.12 22.521 18.3543 22.2866 18.3543 22.0002C18.3543 21.7137 18.12 21.4793 17.8335 21.4793H16.7918C16.5054 21.4793 16.271 21.7137 16.271 22.0002C16.271 22.2866 16.5054 22.521 16.7918 22.521ZM26.1668 22.521H27.2085C27.495 22.521 27.7293 22.2866 27.7293 22.0002C27.7293 21.7137 27.495 21.4793 27.2085 21.4793H26.1668C25.8804 21.4793 25.646 21.7137 25.646 22.0002C25.646 22.2866 25.8804 22.521 26.1668 22.521ZM21.4793 16.7918V17.8335C21.4793 18.12 21.7137 18.3543 22.0002 18.3543C22.2866 18.3543 22.521 18.12 22.521 17.8335V16.7918C22.521 16.5054 22.2866 16.271 22.0002 16.271C21.7137 16.271 21.4793 16.5054 21.4793 16.7918ZM21.4793 26.1668V27.2085C21.4793 27.495 21.7137 27.7293 22.0002 27.7293C22.2866 27.7293 22.521 27.495 22.521 27.2085V26.1668C22.521 25.8804 22.2866 25.646 22.0002 25.646C21.7137 25.646 21.4793 25.8804 21.4793 26.1668ZM18.87 18.1356C18.6668 17.9325 18.3335 17.9325 18.1356 18.1356C17.9325 18.3387 17.9325 18.672 18.1356 18.87L18.6877 19.422C18.8908 19.6252 19.2241 19.6252 19.422 19.422C19.62 19.2189 19.6252 18.8856 19.422 18.6877L18.87 18.1356ZM25.3127 24.5783C25.1095 24.3752 24.7762 24.3752 24.5783 24.5783C24.3752 24.7814 24.3752 25.1147 24.5783 25.3127L25.1304 25.8647C25.3335 26.0679 25.6668 26.0679 25.8647 25.8647C26.0679 25.6616 26.0679 25.3283 25.8647 25.1304L25.3127 24.5783ZM25.8647 18.87C26.0679 18.6668 26.0679 18.3335 25.8647 18.1356C25.6616 17.9325 25.3283 17.9325 25.1304 18.1356L24.5783 18.6877C24.3752 18.8908 24.3752 19.2241 24.5783 19.422C24.7814 19.62 25.1147 19.6252 25.3127 19.422L25.8647 18.87ZM19.422 25.3127C19.6252 25.1095 19.6252 24.7762 19.422 24.5783C19.2189 24.3752 18.8856 24.3752 18.6877 24.5783L18.1356 25.1304C17.9325 25.3335 17.9325 25.6668 18.1356 25.8647C18.3387 26.0627 18.672 26.0679 18.87 25.8647L19.422 25.3127Z" fill="white"/>
<path d="M22 30C17.5817 30 14 26.4183 14 22H10C10 28.6274 15.3726 34 22 34V30ZM30 22C30 26.4183 26.4183 30 22 30V34C28.6274 34 34 28.6274 34 22H30ZM22 14C26.4183 14 30 17.5817 30 22H34C34 15.3726 28.6274 10 22 10V14ZM22 10C15.3726 10 10 15.3726 10 22H14C14 17.5817 17.5817 14 22 14V10Z" fill="#F6F6F6"/>
</g>
<defs>
<clipPath id="clip0_2184_9489">
<rect width="32" height="32" fill="white"/>
</clipPath>
</defs>
</svg>
