<svg width="30" height="23" viewBox="0 0 30 23" fill="none" xmlns="http://www.w3.org/2000/svg">
<path d="M28.4234 22.688V22.7436H28.4804C28.4804 22.7436 28.4804 22.7436 28.5375 22.7436C28.4804 22.688 28.4804 22.688 28.4234 22.688ZM28.4804 22.6325H28.5375V22.688V22.7436H28.4804L28.5375 22.7991H28.4804H28.4234V22.8547H28.3664V22.6325H28.4804ZM28.4804 22.9658H28.5375C28.5375 22.9658 28.5945 22.9658 28.5945 22.9103C28.5945 22.8547 28.6515 22.8547 28.6515 22.8547V22.7991V22.7436C28.6515 22.7436 28.6515 22.688 28.5945 22.688C28.5375 22.688 28.5375 22.6325 28.5375 22.5769H28.4804H28.4234C28.4234 22.5769 28.3664 22.5769 28.3664 22.6325C28.3664 22.688 28.3094 22.688 28.3094 22.688V22.7436V22.7991C28.3094 22.7991 28.3094 22.8547 28.3664 22.8547C28.4234 22.8547 28.4234 22.9103 28.4234 22.9103C28.4234 22.9658 28.4234 22.9658 28.4804 22.9658ZM28.4804 22.5213C28.5375 22.5213 28.5375 22.5213 28.5945 22.5213C28.6515 22.5213 28.6515 22.5769 28.6515 22.5769L28.7085 22.6325C28.7085 22.6325 28.7085 22.688 28.7085 22.7436C28.7085 22.7991 28.7085 22.7991 28.7085 22.8547C28.7085 22.9103 28.6515 22.9103 28.6515 22.9103L28.5945 22.9658C28.5375 22.9658 28.5375 22.9658 28.4804 22.9658C28.4234 22.9658 28.4234 22.9658 28.3664 22.9658C28.3094 22.9658 28.3094 22.9103 28.3094 22.9103L28.2524 22.8547C28.2524 22.8547 28.2524 22.7991 28.2524 22.7436C28.2524 22.688 28.2524 22.688 28.2524 22.6325C28.2524 22.5769 28.3094 22.5769 28.3094 22.5769L28.3664 22.5213C28.3664 22.5213 28.4234 22.5213 28.4804 22.5213ZM6.2473 21.6879C6.2473 21.299 6.53234 20.9657 6.9884 20.9657C7.44447 20.9657 7.72951 21.299 7.72951 21.6879C7.72951 22.0769 7.44447 22.4102 6.9884 22.4102C6.53234 22.4658 6.2473 22.1324 6.2473 21.6879ZM8.18557 21.6879V20.5212H7.6725V20.8545C7.50147 20.6323 7.21643 20.4656 6.87439 20.4656C6.19029 20.4656 5.67721 20.9657 5.67721 21.6879C5.67721 22.4102 6.19029 22.9103 6.87439 22.9103C7.21643 22.9103 7.44447 22.7991 7.61549 22.5769V22.8547H8.12856V21.6879H8.18557ZM25.6871 21.6879C25.6871 21.299 25.9721 20.9657 26.4282 20.9657C26.8842 20.9657 27.1693 21.299 27.1693 21.6879C27.1693 22.0769 26.8842 22.4102 26.4282 22.4102C25.9151 22.4658 25.6871 22.1324 25.6871 21.6879ZM27.5683 21.6879V19.5767H27.0552V20.8545C26.8842 20.6323 26.6562 20.4656 26.3141 20.4656C25.63 20.4656 25.117 21.0212 25.117 21.6879C25.117 22.4102 25.63 22.9103 26.3141 22.9103C26.6562 22.9103 26.8842 22.7991 27.0552 22.5769V22.8547H27.5683V21.6879ZM14.5705 20.9657C14.9125 20.9657 15.1406 21.1879 15.1976 21.5213H13.9434C14.0004 21.1879 14.2284 20.9657 14.5705 20.9657ZM14.6275 20.4656C13.9434 20.4656 13.4303 20.9657 13.4303 21.6879C13.4303 22.4102 13.9434 22.9103 14.6275 22.9103C14.9695 22.9103 15.3116 22.7991 15.5966 22.5769L15.3686 22.188C15.1406 22.3547 14.9125 22.4102 14.6845 22.4102C14.3424 22.4102 14.0574 22.2435 14.0004 21.8546H15.7676C15.7676 21.7991 15.7676 21.7435 15.7676 21.6879C15.7106 20.9657 15.2546 20.4656 14.6275 20.4656ZM20.8414 21.6879C20.8414 21.299 21.1264 20.9657 21.5825 20.9657C22.0385 20.9657 22.3236 21.299 22.3236 21.6879C22.3236 22.0769 22.0385 22.4102 21.5825 22.4102C21.1264 22.4658 20.8414 22.1324 20.8414 21.6879ZM22.7796 21.6879V20.5212H22.2666V20.8545C22.0955 20.6323 21.8675 20.4656 21.5255 20.4656C20.8414 20.4656 20.3283 20.9657 20.3283 21.6879C20.3283 22.4102 20.8414 22.9103 21.5255 22.9103C21.8675 22.9103 22.0955 22.7991 22.2666 22.5769V22.8547H22.7796V21.6879ZM17.934 21.6879C17.934 22.4102 18.447 22.9103 19.1881 22.9103C19.5302 22.9103 19.7582 22.8547 20.0433 22.6325L19.8152 22.2435C19.6442 22.3547 19.4162 22.4658 19.1881 22.4658C18.7891 22.4658 18.447 22.188 18.447 21.7435C18.447 21.299 18.7321 21.0212 19.1881 21.0212C19.4162 21.0212 19.6442 21.0768 19.8152 21.2435L20.0433 20.8545C19.8152 20.5767 19.5872 20.4656 19.1881 20.4656C18.447 20.4656 17.934 21.0212 17.934 21.6879ZM24.6039 20.4656C24.3189 20.4656 24.0908 20.5767 23.9768 20.799V20.5212H23.4637V22.8547H23.9768V21.5768C23.9768 21.1879 24.1478 20.9657 24.4899 20.9657C24.6039 20.9657 24.7179 20.9657 24.8319 21.0212L25.003 20.5767C24.8319 20.5212 24.7179 20.4656 24.6039 20.4656ZM10.7509 20.7434C10.5229 20.5767 10.1809 20.5212 9.7818 20.5212C9.15471 20.5212 8.81266 20.799 8.81266 21.2435C8.81266 21.6324 9.0977 21.8546 9.61077 21.9102L9.83881 21.9657C10.1238 22.0213 10.2379 22.0769 10.2379 22.188C10.2379 22.3547 10.0668 22.4658 9.66778 22.4658C9.32573 22.4658 9.04069 22.3547 8.86967 22.2435L8.64163 22.6325C8.92668 22.8547 9.26872 22.9103 9.66778 22.9103C10.3519 22.9103 10.7509 22.5769 10.7509 22.1324C10.7509 21.7435 10.4659 21.5213 9.89581 21.4657L9.66778 21.4101C9.43975 21.3546 9.26873 21.3546 9.26873 21.1879C9.26873 21.0212 9.43975 20.9101 9.72479 20.9101C10.0098 20.9101 10.2949 21.0212 10.4659 21.1323L10.7509 20.7434ZM17.4209 20.4656C17.1358 20.4656 16.9078 20.5767 16.7938 20.799V20.5212H16.2807V22.8547H16.7938V21.5768C16.7938 21.1879 16.9648 20.9657 17.3069 20.9657C17.4209 20.9657 17.5349 20.9657 17.6489 21.0212L17.8199 20.5212C17.6489 20.5212 17.5349 20.4656 17.4209 20.4656ZM12.9742 20.5212H12.1191V19.7989H11.6061V20.5212H11.15V21.0212H11.6061V22.0769C11.6061 22.6325 11.8341 22.9103 12.4612 22.9103C12.6892 22.9103 12.9172 22.8547 13.0883 22.7436L12.9172 22.2991C12.7462 22.4102 12.5752 22.4102 12.4612 22.4102C12.1761 22.4102 12.1191 22.2435 12.1191 22.0213V21.0212H12.9742V20.5212ZM5.27816 22.8547V21.4101C5.27816 20.8545 4.93611 20.4656 4.36603 20.4656C4.08099 20.4656 3.73894 20.5767 3.51091 20.8545C3.33988 20.6323 3.05484 20.4656 2.7128 20.4656C2.48476 20.4656 2.19972 20.5212 2.0287 20.799V20.5212H1.51562V22.8547H2.0287V21.5768C2.0287 21.1879 2.25673 20.9657 2.59878 20.9657C2.94083 20.9657 3.11185 21.1879 3.11185 21.5768V22.8547H3.62492V21.5768C3.62492 21.1879 3.85296 20.9657 4.19501 20.9657C4.53705 20.9657 4.70808 21.1879 4.70808 21.5768V22.8547H5.27816Z" fill="white"/>
<path d="M28.7431 15.1455V14.8121H28.6291L28.515 15.0344L28.401 14.8121H28.287V15.1455H28.344V14.8677L28.515 15.1455H28.572L28.6861 14.9233V15.1455H28.7431ZM28.173 15.1455V14.8677H28.287V14.8121H28.002V14.8677H28.116V15.1455H28.173Z" fill="#F79410"/>
<path d="M18.4361 16.6256H10.5918V2.89111H18.4361V16.6256Z" fill="#FF5F00"/>
<path d="M11.0928 9.73153C11.0928 6.95351 12.404 4.4533 14.5133 2.84206C12.974 1.67529 11.0358 0.953007 8.98347 0.953007C4.02377 0.953007 0.0332031 4.84223 0.0332031 9.67597C0.0332031 14.5097 4.02377 18.3989 8.98347 18.3989C11.0928 18.3989 12.974 17.6766 14.5133 16.5099C12.404 15.0098 11.0928 12.5095 11.0928 9.73153Z" fill="#EB001B"/>
<path d="M29.0152 9.73163C29.0152 14.5654 25.0246 18.4546 20.0649 18.4546C17.9556 18.4546 16.0744 17.7323 14.5352 16.5655C16.6445 14.9543 17.9556 12.5096 17.9556 9.67607C17.9556 6.8425 16.6445 4.39785 14.5352 2.7866C16.0744 1.61983 18.0126 0.897549 20.0649 0.897549C24.9676 1.00867 29.0152 4.89789 29.0152 9.73163Z" fill="#F79E1B"/>
</svg>
