<svg width="37" height="12" viewBox="0 0 37 12" fill="none" xmlns="http://www.w3.org/2000/svg">
<path d="M16.0324 11.8194H13.0488L14.9177 0.213379H17.9177L16.0324 11.8194Z" fill="#00579F"/>
<path d="M26.9016 0.492476C26.3114 0.262654 25.377 0 24.2131 0C21.2458 0 19.1639 1.57592 19.1475 3.84131C19.1311 5.51573 20.6393 6.43502 21.7704 6.99316C22.9344 7.56771 23.3278 7.92886 23.3278 8.43775C23.3114 9.2093 22.3934 9.57045 21.5245 9.57045C20.3278 9.57045 19.6885 9.38987 18.7049 8.94665L18.3114 8.76607L17.918 11.3762C18.6229 11.7045 19.918 11.9836 21.2622 12C24.4098 12 26.459 10.4405 26.4754 8.02736C26.4917 6.69767 25.6885 5.69631 23.9508 4.8591C22.9016 4.33379 22.2622 3.97264 22.2622 3.43092C22.2786 2.93844 22.8032 2.42955 23.9835 2.42955C24.9508 2.39672 25.6721 2.64295 26.2131 2.87278L26.5081 3.0041L26.9016 0.492476Z" fill="#00579F"/>
<path d="M30.8854 7.71543C31.1313 7.04238 32.0822 4.46509 32.0822 4.46509C32.0658 4.49792 32.3281 3.79204 32.4756 3.34881L32.6887 4.35018C32.6887 4.35018 33.2625 7.12446 33.3772 7.71543C32.9182 7.71543 31.492 7.71543 30.8854 7.71543ZM34.5904 0.213379H32.2789C31.5576 0.213379 31.0166 0.426785 30.7051 1.18192L26.2461 11.8358H29.3936C29.3936 11.8358 29.9182 10.4076 30.0166 10.0957C30.3608 10.0957 33.4264 10.0957 33.869 10.0957C33.951 10.5061 34.2297 11.8358 34.2297 11.8358H37.0002L34.5904 0.213379Z" fill="#00579F"/>
<path d="M10.5407 0.213379L7.60627 8.12583L7.2784 6.51707C6.73742 4.6785 5.0325 2.65934 3.13086 1.65798L5.81938 11.803H8.98332L13.7046 0.213379H10.5407Z" fill="#00579F"/>
<path d="M4.86885 0.213379H0.0491805L0 0.443201C3.77049 1.41174 6.2623 3.72638 7.27869 6.51707L6.22951 1.18192C6.06557 0.443201 5.52459 0.229795 4.86885 0.213379Z" fill="#FAA61A"/>
</svg>
