<svg width="30" height="30" viewBox="0 0 30 30" fill="none" xmlns="http://www.w3.org/2000/svg">
<path d="M0 15C0 6.71573 6.71573 0 15 0C23.2843 0 30 6.71573 30 15C30 23.2843 23.2843 30 15 30C6.71573 30 0 23.2843 0 15Z" fill="url(#paint0_linear_2312_2486)"/>
<path d="M14.9502 24.9005C12.4627 24.9005 12.0647 24.9005 11.0697 24.801C10.0746 24.801 9.37811 24.602 8.58209 24.3035C7.88557 24.005 7.28856 23.607 6.69154 23.1095C6.09453 22.5124 5.79602 22.0149 5.49751 21.2189C5.199 20.5224 5.0995 19.7264 5 18.7313C5 17.8358 5 17.5373 5 14.9502C5 12.3632 5 12.0647 5.0995 11.0697C5.0995 10.0746 5.29851 9.37811 5.59701 8.58209C5.89552 7.88557 6.29353 7.28856 6.79104 6.69154C7.38806 6.09453 7.88557 5.79602 8.68159 5.49751C9.37811 5.199 10.1741 5.0995 11.1692 5C12.0647 5 12.3632 5 14.9502 5C17.5373 5 17.8358 5 18.8308 5.0995C19.8259 5.0995 20.5224 5.29851 21.3184 5.59701C22.0149 5.89552 22.6119 6.29353 23.209 6.79104C23.806 7.38806 24.1045 7.88557 24.403 8.68159C24.7015 9.37811 24.801 10.1741 24.9005 11.1692C24.9005 12.1642 25 12.4627 25 15.0498C25 17.6368 25 17.9353 24.9005 18.9303C24.9005 19.9254 24.7015 20.6219 24.403 21.4179C24.1045 22.1144 23.7065 22.7114 23.209 23.3085C22.6119 23.9055 22.1144 24.204 21.3184 24.5025C20.6219 24.801 19.8259 24.9005 18.8308 25C17.8358 24.9005 17.4378 24.9005 14.9502 24.9005ZM14.9502 6.29353C12.4627 6.29353 12.0647 6.29353 11.1692 6.39303C10.3731 6.39303 9.67662 6.59204 9.0796 6.79104C8.48259 6.99005 8.08458 7.28856 7.68657 7.68657C7.18905 8.08458 6.89055 8.48259 6.69154 9.0796C6.49254 9.67662 6.29353 10.2736 6.29353 11.1692C6.29353 12.1642 6.19403 12.4627 6.19403 14.9502C6.19403 17.4378 6.19403 17.8358 6.29353 18.7313C6.29353 19.5274 6.49254 20.2239 6.69154 20.8209C6.89055 21.4179 7.18905 21.8159 7.58706 22.2139C7.98507 22.6119 8.48259 22.9104 8.9801 23.1095C9.57711 23.3085 10.1741 23.5075 11.0697 23.5075C12.0647 23.5075 12.3632 23.607 14.8507 23.607C17.3383 23.607 17.6368 23.607 18.6318 23.5075C19.4279 23.5075 20.1244 23.3085 20.7214 23.1095C21.3184 22.9104 21.7164 22.6119 22.1144 22.2139C22.5124 21.8159 22.8109 21.3184 23.01 20.8209C23.209 20.2239 23.408 19.6269 23.408 18.7313C23.408 17.7363 23.5075 17.4378 23.5075 14.9502C23.5075 12.4627 23.5075 12.0647 23.408 11.1692C23.408 10.3731 23.209 9.67662 23.01 9.0796C22.8109 8.48259 22.5124 8.08458 22.1144 7.68657C21.7164 7.28856 21.2189 6.99005 20.7214 6.79104C20.1244 6.59204 19.5274 6.39303 18.6318 6.39303C17.8358 6.29353 17.4378 6.29353 14.9502 6.29353Z" fill="white"/>
<path d="M14.9502 19.5273C12.4626 19.5273 10.373 17.4377 10.373 14.9502C10.373 12.4626 12.4626 10.373 14.9502 10.373C17.4377 10.373 19.5273 12.4626 19.5273 14.9502C19.5273 17.4377 17.4377 19.5273 14.9502 19.5273ZM14.9502 11.6666C13.1591 11.6666 11.6666 13.1591 11.6666 14.9502C11.6666 16.7412 13.1591 18.2337 14.9502 18.2337C16.7412 18.2337 18.2337 16.7412 18.2337 14.9502C18.2337 13.1591 16.7412 11.6666 14.9502 11.6666Z" fill="white"/>
<path d="M20.3228 8.28369C19.6263 8.28369 19.0293 8.88071 19.0293 9.57722C19.0293 10.2737 19.6263 10.8708 20.3228 10.8708C21.0193 10.8708 21.5169 10.2737 21.5169 9.57722C21.6164 8.88071 21.0193 8.28369 20.3228 8.28369Z" fill="white"/>
<defs>
<linearGradient id="paint0_linear_2312_2486" x1="30" y1="0" x2="0" y2="30" gradientUnits="userSpaceOnUse">
<stop stop-color="#FF9047"/>
<stop offset="1" stop-color="#C415A9"/>
</linearGradient>
</defs>
</svg>
