<svg width="30" height="30" viewBox="0 0 30 30" fill="none" xmlns="http://www.w3.org/2000/svg">
<path d="M0 15C0 6.71573 6.71573 0 15 0C23.2843 0 30 6.71573 30 15C30 23.2843 23.2843 30 15 30C6.71573 30 0 23.2843 0 15Z" fill="#FF0000"/>
<path d="M23.3846 10.6801C23.2832 10.3087 23.0898 9.97028 22.8229 9.69759C22.5561 9.42491 22.225 9.22718 21.8616 9.12351C20.4975 8.75001 15.0078 8.75001 15.0078 8.75001C15.0078 8.75001 9.5319 8.74256 8.15399 9.12351C7.79056 9.22718 7.45943 9.42491 7.19263 9.69759C6.92582 9.97028 6.73235 10.3087 6.63092 10.6801C6.37235 12.1074 6.24488 13.5563 6.25016 15.0078C6.24588 16.4539 6.37335 17.8972 6.63092 19.3191C6.73235 19.6906 6.92582 20.029 7.19263 20.3017C7.45943 20.5744 7.79056 20.7721 8.15399 20.8758C9.51658 21.25 15.0078 21.25 15.0078 21.25C15.0078 21.25 20.4829 21.25 21.8616 20.8758C22.225 20.7721 22.5561 20.5744 22.8229 20.3017C23.0898 20.029 23.2832 19.6906 23.3846 19.3191C23.6368 17.8967 23.7589 16.4534 23.7494 15.0078C23.7599 13.5568 23.6378 12.1079 23.3846 10.6801ZM13.2557 17.685V12.3225L17.8249 15.0078L13.2557 17.685Z" fill="white"/>
</svg>
