<svg width="20" height="15" viewBox="0 0 20 15" fill="none" xmlns="http://www.w3.org/2000/svg">
<path d="M19.5825 2.20587C19.4665 1.78137 19.2454 1.3946 18.9405 1.08296C18.6356 0.771322 18.2572 0.545344 17.8418 0.426871C16.2829 1.22389e-05 10.0089 1.20863e-05 10.0089 1.20863e-05C10.0089 1.20863e-05 3.75074 -0.00850788 2.17599 0.426871C1.76064 0.545344 1.38221 0.771322 1.07729 1.08296C0.772366 1.3946 0.55126 1.78137 0.435342 2.20587C0.139832 3.83706 -0.00585506 5.49291 0.000180061 7.15181C-0.00471415 8.80445 0.140969 10.454 0.435342 12.079C0.55126 12.5035 0.772366 12.8903 1.07729 13.2019C1.38221 13.5136 1.76064 13.7395 2.17599 13.858C3.73323 14.2857 10.0089 14.2857 10.0089 14.2857C10.0089 14.2857 16.2662 14.2857 17.8418 13.858C18.2572 13.7395 18.6356 13.5136 18.9405 13.2019C19.2454 12.8903 19.4665 12.5035 19.5825 12.079C19.8707 10.4534 20.0102 8.80387 19.9993 7.15181C20.0114 5.49349 19.8718 3.83765 19.5825 2.20587ZM8.00649 10.2114V4.08286L13.2284 7.15181L8.00649 10.2114Z" fill="#FF3124"/>
</svg>
